<svg width="562" height="124" viewBox="0 0 562 124" fill="none" xmlns="http://www.w3.org/2000/svg">
<rect x="94.5" y="2.5" width="373" height="119" rx="22.5" fill="white" stroke="#051231" stroke-width="5"/>
<path d="M146.633 81H138.031C137.906 81 137.844 80.9219 137.844 80.7656L137.938 47.7891C137.938 47.6641 138 47.6016 138.125 47.6016H147.359C149.156 47.6016 150.789 48.0391 152.258 48.9141C153.695 49.7891 154.828 50.9531 155.656 52.4062C156.484 53.8438 156.898 55.4062 156.898 57.0938C156.898 58.4688 156.586 59.75 155.961 60.9375C155.336 62.125 154.594 63.0859 153.734 63.8203C154.656 64.7422 155.375 65.8125 155.891 67.0312C156.406 68.25 156.664 69.5312 156.664 70.875C156.664 72.7344 156.219 74.4297 155.328 75.9609C154.422 77.4922 153.211 78.7188 151.695 79.6406C150.18 80.5469 148.492 81 146.633 81ZM147.359 53.2969H143.703V60.8438H147.359C148.469 60.8438 149.367 60.4531 150.055 59.6719C150.742 58.875 151.086 58.0156 151.086 57.0938C151.086 56.0781 150.719 55.1953 149.984 54.4453C149.25 53.6797 148.375 53.2969 147.359 53.2969ZM146.633 66.6562H143.703L143.656 75.1406H146.633C147.789 75.1406 148.781 74.7188 149.609 73.875C150.438 73.0312 150.852 72.0312 150.852 70.875C150.852 69.7188 150.438 68.7266 149.609 67.8984C148.781 67.0703 147.789 66.6562 146.633 66.6562ZM168.945 81.4688C167.258 81.4688 165.695 81.0312 164.258 80.1562C162.82 79.2812 161.672 78.1094 160.812 76.6406C159.969 75.1562 159.547 73.5391 159.547 71.7891L159.641 47.7891C159.641 47.6641 159.703 47.6016 159.828 47.6016H165.219C165.344 47.6016 165.406 47.6641 165.406 47.7891V71.7891C165.406 72.8672 165.75 73.7891 166.438 74.5547C167.125 75.3047 167.961 75.6797 168.945 75.6797C169.977 75.6797 170.836 75.3047 171.523 74.5547C172.211 73.7891 172.555 72.8672 172.555 71.7891V47.7891C172.555 47.6641 172.617 47.6016 172.742 47.6016H178.133C178.258 47.6016 178.32 47.6641 178.32 47.7891L178.414 71.7891C178.414 73.5547 177.992 75.1797 177.148 76.6641C176.289 78.1328 175.148 79.3047 173.727 80.1797C172.305 81.0391 170.711 81.4688 168.945 81.4688ZM187.859 81H182.422C182.266 81 182.188 80.9219 182.188 80.7656L182.234 47.7891C182.234 47.6641 182.297 47.6016 182.422 47.6016H187.812C187.938 47.6016 188 47.6641 188 47.7891L188.047 80.7656C188.047 80.9219 187.984 81 187.859 81ZM207.969 81H192.453C192.328 81 192.266 80.9219 192.266 80.7656L192.312 47.8359C192.312 47.6797 192.391 47.6016 192.547 47.6016H197.891C198.047 47.6016 198.125 47.6797 198.125 47.8359L198.078 75.0938H207.969C208.125 75.0938 208.203 75.1719 208.203 75.3281V80.7656C208.203 80.9219 208.125 81 207.969 81ZM220.18 80.9531L211.578 81C211.422 81 211.344 80.9219 211.344 80.7656L211.438 47.7891C211.438 47.6641 211.5 47.6016 211.625 47.6016L220.602 47.5547C222.383 47.5078 223.992 47.9141 225.43 48.7734C226.883 49.6328 228.039 50.7969 228.898 52.2656C229.773 53.7188 230.211 55.3281 230.211 57.0938V70.875C230.211 72.7188 229.766 74.4062 228.875 75.9375C227.969 77.4531 226.766 78.6641 225.266 79.5703C223.766 80.4609 222.07 80.9219 220.18 80.9531ZM220.602 53.2969L217.25 53.3438L217.203 75.0938H220.18C221.367 75.0938 222.367 74.6797 223.18 73.8516C223.992 73.0234 224.398 72.0312 224.398 70.875V57.0469C224.398 56.0312 224.023 55.1484 223.273 54.3984C222.523 53.6328 221.633 53.2656 220.602 53.2969ZM244.836 80.7656L250.789 47.7891C250.82 47.6641 250.898 47.6016 251.023 47.6016H257.984C258.109 47.6016 258.188 47.6641 258.219 47.7891L263.938 80.7656C263.953 80.9219 263.891 81 263.75 81H258.43C258.273 81 258.188 80.9219 258.172 80.7656L257.656 77.25H251.117L250.602 80.7656C250.586 80.9219 250.508 81 250.367 81H245.023C244.898 81 244.836 80.9219 244.836 80.7656ZM254.727 58.6406L254.445 56.8594L254.234 58.6406L252.078 72.1172H256.695L254.727 58.6406ZM288.195 81H279.594C279.469 81 279.406 80.9219 279.406 80.7656L279.5 47.7891C279.5 47.6641 279.562 47.6016 279.688 47.6016H288.922C290.719 47.6016 292.352 48.0391 293.82 48.9141C295.258 49.7891 296.391 50.9531 297.219 52.4062C298.047 53.8438 298.461 55.4062 298.461 57.0938C298.461 58.4688 298.148 59.75 297.523 60.9375C296.898 62.125 296.156 63.0859 295.297 63.8203C296.219 64.7422 296.938 65.8125 297.453 67.0312C297.969 68.25 298.227 69.5312 298.227 70.875C298.227 72.7344 297.781 74.4297 296.891 75.9609C295.984 77.4922 294.773 78.7188 293.258 79.6406C291.742 80.5469 290.055 81 288.195 81ZM288.922 53.2969H285.266V60.8438H288.922C290.031 60.8438 290.93 60.4531 291.617 59.6719C292.305 58.875 292.648 58.0156 292.648 57.0938C292.648 56.0781 292.281 55.1953 291.547 54.4453C290.812 53.6797 289.938 53.2969 288.922 53.2969ZM288.195 66.6562H285.266L285.219 75.1406H288.195C289.352 75.1406 290.344 74.7188 291.172 73.875C292 73.0312 292.414 72.0312 292.414 70.875C292.414 69.7188 292 68.7266 291.172 67.8984C290.344 67.0703 289.352 66.6562 288.195 66.6562ZM307.297 81H301.859C301.734 81 301.672 80.9219 301.672 80.7656L301.766 47.7891C301.766 47.6641 301.828 47.6016 301.953 47.6016H311.656C313.391 47.6016 314.984 48.0234 316.438 48.8672C317.891 49.7109 319.047 50.8438 319.906 52.2656C320.781 53.6875 321.219 55.2969 321.219 57.0938C321.219 58.2656 321.039 59.3281 320.68 60.2812C320.32 61.2344 319.898 62.0391 319.414 62.6953C318.945 63.3516 318.516 63.8359 318.125 64.1484C319.859 66.0703 320.727 68.3281 320.727 70.9219L320.773 80.7656C320.773 80.9219 320.695 81 320.539 81H315.102C314.977 81 314.914 80.9531 314.914 80.8594V70.9219C314.914 69.7656 314.508 68.7656 313.695 67.9219C312.883 67.0781 311.883 66.6562 310.695 66.6562H307.531L307.484 80.7656C307.484 80.9219 307.422 81 307.297 81ZM311.656 53.3438H307.531V60.8906H311.656C312.641 60.8906 313.516 60.5234 314.281 59.7891C315.062 59.0547 315.453 58.1562 315.453 57.0938C315.453 56.0781 315.078 55.2031 314.328 54.4688C313.578 53.7188 312.688 53.3438 311.656 53.3438ZM323.211 80.7656L329.164 47.7891C329.195 47.6641 329.273 47.6016 329.398 47.6016H336.359C336.484 47.6016 336.562 47.6641 336.594 47.7891L342.312 80.7656C342.328 80.9219 342.266 81 342.125 81H336.805C336.648 81 336.562 80.9219 336.547 80.7656L336.031 77.25H329.492L328.977 80.7656C328.961 80.9219 328.883 81 328.742 81H323.398C323.273 81 323.211 80.9219 323.211 80.7656ZM333.102 58.6406L332.82 56.8594L332.609 58.6406L330.453 72.1172H335.07L333.102 58.6406ZM353.164 81.4688C351.43 81.4688 349.844 81.0312 348.406 80.1562C346.984 79.2812 345.852 78.1094 345.008 76.6406C344.18 75.1562 343.766 73.5078 343.766 71.6953L343.812 56.7188C343.812 54.9375 344.219 53.3281 345.031 51.8906C345.844 50.4375 346.961 49.2734 348.383 48.3984C349.82 47.5078 351.414 47.0625 353.164 47.0625C354.945 47.0625 356.531 47.4922 357.922 48.3516C359.328 49.2109 360.445 50.375 361.273 51.8438C362.117 53.2969 362.539 54.9219 362.539 56.7188V58.9219C362.539 59.0469 362.477 59.1094 362.352 59.1094H356.961C356.836 59.1094 356.773 59.0469 356.773 58.9219V56.7188C356.773 55.6562 356.43 54.7422 355.742 53.9766C355.055 53.2109 354.195 52.8281 353.164 52.8281C352.023 52.8281 351.148 53.2188 350.539 54C349.93 54.7812 349.625 55.6875 349.625 56.7188V71.6953C349.625 72.8672 349.969 73.8281 350.656 74.5781C351.344 75.3125 352.18 75.6797 353.164 75.6797C354.195 75.6797 355.055 75.2734 355.742 74.4609C356.43 73.6328 356.773 72.7109 356.773 71.6953V69.4688C356.773 69.3438 356.836 69.2812 356.961 69.2812H362.398C362.523 69.2812 362.586 69.3438 362.586 69.4688V71.6953C362.586 73.4922 362.164 75.1328 361.32 76.6172C360.461 78.0859 359.328 79.2656 357.922 80.1562C356.516 81.0312 354.93 81.4688 353.164 81.4688ZM371.703 81H366.266C366.141 81 366.078 80.9219 366.078 80.7656L366.172 47.8359C366.172 47.6797 366.234 47.6016 366.359 47.6016H371.75C371.875 47.6016 371.938 47.6797 371.938 47.8359V59.2031L379.461 47.7891C379.586 47.6641 379.703 47.6016 379.812 47.6016H385.32C385.461 47.6016 385.492 47.6641 385.414 47.7891L377.117 61.0312L386.422 80.8125C386.5 80.9375 386.422 81 386.188 81H380.328C380.172 81 380.078 80.9375 380.047 80.8125L373.555 66.7031L371.891 69.3281V80.7656C371.891 80.9219 371.828 81 371.703 81ZM404.281 81H388.766C388.641 81 388.578 80.9219 388.578 80.7656L388.625 47.7891C388.625 47.6641 388.688 47.6016 388.812 47.6016H404.234C404.359 47.6016 404.422 47.6797 404.422 47.8359V53.2031C404.422 53.3281 404.359 53.3906 404.234 53.3906H394.391V60.8906H404.234C404.359 60.8906 404.422 60.9531 404.422 61.0781L404.469 66.5156C404.469 66.6406 404.406 66.7031 404.281 66.7031H394.391V75.0938H404.281C404.406 75.0938 404.469 75.1719 404.469 75.3281V80.8125C404.469 80.9375 404.406 81 404.281 81ZM418.977 81H413.562C413.422 81 413.352 80.9219 413.352 80.7656V53.3906H407.117C406.961 53.3906 406.883 53.3125 406.883 53.1562L406.93 47.7891C406.93 47.6641 406.992 47.6016 407.117 47.6016H425.352C425.523 47.6016 425.609 47.6641 425.609 47.7891V53.1562C425.609 53.3125 425.547 53.3906 425.422 53.3906H419.117L419.164 80.7656C419.164 80.9219 419.102 81 418.977 81Z" fill="#051231"/>
</svg>
