<svg width="261" height="62" viewBox="0 0 261 62" fill="none" xmlns="http://www.w3.org/2000/svg">
<mask id="path-1-outside-1_51_233" maskUnits="userSpaceOnUse" x="-0.535889" y="-0.695801" width="262" height="63" fill="black">
<rect fill="white" x="-0.535889" y="-0.695801" width="262" height="63"/>
<path d="M25.1601 55.3042H5.00011V6.0242H34.8881C37.6188 6.0242 40.1148 6.55753 42.3761 7.6242C44.6801 8.6482 46.5148 10.4615 47.8801 13.0642C49.2454 15.6242 49.9281 19.1869 49.9281 23.7522C49.9281 28.2322 49.2241 31.7949 47.8161 34.4402C46.4081 37.0429 44.5521 38.9202 42.2481 40.0722C39.9868 41.1815 37.5334 41.7362 34.8881 41.7362H25.1601V55.3042ZM30.1521 22.2162H24.0081V25.6722H30.3441C30.6854 25.6722 31.0481 25.5655 31.4321 25.3522C31.8588 25.1389 32.0721 24.6909 32.0721 24.0082C32.0721 23.2829 31.8374 22.8135 31.3681 22.6002C30.8988 22.3442 30.4934 22.2162 30.1521 22.2162ZM72.5351 55.3042H52.3751V6.0242H81.6871C84.4178 6.0242 86.9138 6.51486 89.1751 7.4962C91.4791 8.47753 93.3138 10.0562 94.6791 12.2322C96.0444 14.4082 96.7271 17.3095 96.7271 20.9362C96.7271 21.9602 96.6418 23.0695 96.4711 24.2642C96.3431 25.4589 96.0231 26.6535 95.5111 27.8482C94.9991 29.0002 94.2098 30.0455 93.1431 30.9842C92.1191 31.8802 90.7111 32.5842 88.9191 33.0962L99.0311 55.3042H76.5671L73.1111 42.1202H72.5351V55.3042ZM76.9511 21.7682H70.8071V25.2242H77.1431C77.4844 25.2242 77.8471 25.1175 78.2311 24.9042C78.6578 24.6909 78.8711 24.2429 78.8711 23.5602C78.8711 22.8349 78.6364 22.3655 78.1671 22.1522C77.6978 21.8962 77.2924 21.7682 76.9511 21.7682ZM120.723 55.3682L100.563 55.3042V6.0242H120.723V55.3682ZM165.987 19.2722L150.947 38.0242H166.563V55.3042H123.363V42.0562L138.403 23.3042H124.515V6.0242H165.987V19.2722ZM189.285 35.9762V38.6002H208.869V55.3042H169.125V6.0242H207.717V20.4242H189.285V23.0482H205.989V35.9762H189.285ZM252.465 27.9122C250.203 26.5469 247.793 25.5442 245.233 24.9042C242.673 24.2215 239.601 23.7522 236.017 23.4962C235.718 23.4535 235.419 23.4322 235.121 23.4322C234.865 23.3895 234.609 23.3682 234.353 23.3682C233.457 23.3682 233.009 23.7309 233.009 24.4562C233.009 24.8829 233.243 25.1815 233.713 25.3522C234.225 25.4802 234.907 25.5869 235.761 25.6722C237.425 25.8855 239.174 26.1415 241.009 26.4402C242.843 26.6962 244.635 27.1015 246.385 27.6562C248.134 28.2109 249.713 29.0215 251.121 30.0882C252.571 31.1549 253.702 32.5629 254.513 34.3122C255.366 36.0615 255.793 38.2589 255.793 40.9042C255.793 43.8482 255.11 46.3229 253.745 48.3282C252.379 50.2909 250.523 51.8695 248.177 53.0642C245.873 54.2162 243.227 55.0482 240.241 55.5602C237.297 56.0722 234.246 56.3282 231.089 56.3282C227.419 56.3709 223.771 56.1575 220.145 55.6882C216.561 55.2615 213.382 54.7069 210.609 54.0242L212.401 31.4962C213.382 32.2215 214.555 33.0109 215.921 33.8642C217.286 34.6749 219.142 35.4215 221.489 36.1042C223.835 36.7869 226.929 37.3202 230.769 37.7042C230.982 37.7469 231.174 37.7682 231.345 37.7682C231.558 37.7682 231.75 37.7682 231.921 37.7682C232.39 37.7682 232.731 37.7042 232.945 37.5762C233.201 37.4482 233.329 37.1709 233.329 36.7442C233.329 36.2749 233.115 35.9762 232.689 35.8482C232.305 35.7202 231.686 35.5922 230.833 35.4642C228.529 35.2082 226.225 34.8455 223.921 34.3762C221.659 33.9069 219.59 33.1815 217.713 32.2002C215.835 31.2189 214.321 29.8535 213.169 28.1042C212.059 26.3549 211.505 24.0722 211.505 21.2562C211.505 17.2455 212.443 14.0669 214.321 11.7202C216.241 9.33086 218.822 7.6242 222.065 6.6002C225.307 5.53353 228.934 5.0002 232.945 5.0002C236.315 5.0002 239.835 5.3202 243.505 5.9602C247.174 6.55753 250.801 7.38953 254.385 8.4562L252.465 27.9122Z"/>
</mask>
<path d="M25.1601 55.3042H5.00011V6.0242H34.8881C37.6188 6.0242 40.1148 6.55753 42.3761 7.6242C44.6801 8.6482 46.5148 10.4615 47.8801 13.0642C49.2454 15.6242 49.9281 19.1869 49.9281 23.7522C49.9281 28.2322 49.2241 31.7949 47.8161 34.4402C46.4081 37.0429 44.5521 38.9202 42.2481 40.0722C39.9868 41.1815 37.5334 41.7362 34.8881 41.7362H25.1601V55.3042ZM30.1521 22.2162H24.0081V25.6722H30.3441C30.6854 25.6722 31.0481 25.5655 31.4321 25.3522C31.8588 25.1389 32.0721 24.6909 32.0721 24.0082C32.0721 23.2829 31.8374 22.8135 31.3681 22.6002C30.8988 22.3442 30.4934 22.2162 30.1521 22.2162ZM72.5351 55.3042H52.3751V6.0242H81.6871C84.4178 6.0242 86.9138 6.51486 89.1751 7.4962C91.4791 8.47753 93.3138 10.0562 94.6791 12.2322C96.0444 14.4082 96.7271 17.3095 96.7271 20.9362C96.7271 21.9602 96.6418 23.0695 96.4711 24.2642C96.3431 25.4589 96.0231 26.6535 95.5111 27.8482C94.9991 29.0002 94.2098 30.0455 93.1431 30.9842C92.1191 31.8802 90.7111 32.5842 88.9191 33.0962L99.0311 55.3042H76.5671L73.1111 42.1202H72.5351V55.3042ZM76.9511 21.7682H70.8071V25.2242H77.1431C77.4844 25.2242 77.8471 25.1175 78.2311 24.9042C78.6578 24.6909 78.8711 24.2429 78.8711 23.5602C78.8711 22.8349 78.6364 22.3655 78.1671 22.1522C77.6978 21.8962 77.2924 21.7682 76.9511 21.7682ZM120.723 55.3682L100.563 55.3042V6.0242H120.723V55.3682ZM165.987 19.2722L150.947 38.0242H166.563V55.3042H123.363V42.0562L138.403 23.3042H124.515V6.0242H165.987V19.2722ZM189.285 35.9762V38.6002H208.869V55.3042H169.125V6.0242H207.717V20.4242H189.285V23.0482H205.989V35.9762H189.285ZM252.465 27.9122C250.203 26.5469 247.793 25.5442 245.233 24.9042C242.673 24.2215 239.601 23.7522 236.017 23.4962C235.718 23.4535 235.419 23.4322 235.121 23.4322C234.865 23.3895 234.609 23.3682 234.353 23.3682C233.457 23.3682 233.009 23.7309 233.009 24.4562C233.009 24.8829 233.243 25.1815 233.713 25.3522C234.225 25.4802 234.907 25.5869 235.761 25.6722C237.425 25.8855 239.174 26.1415 241.009 26.4402C242.843 26.6962 244.635 27.1015 246.385 27.6562C248.134 28.2109 249.713 29.0215 251.121 30.0882C252.571 31.1549 253.702 32.5629 254.513 34.3122C255.366 36.0615 255.793 38.2589 255.793 40.9042C255.793 43.8482 255.11 46.3229 253.745 48.3282C252.379 50.2909 250.523 51.8695 248.177 53.0642C245.873 54.2162 243.227 55.0482 240.241 55.5602C237.297 56.0722 234.246 56.3282 231.089 56.3282C227.419 56.3709 223.771 56.1575 220.145 55.6882C216.561 55.2615 213.382 54.7069 210.609 54.0242L212.401 31.4962C213.382 32.2215 214.555 33.0109 215.921 33.8642C217.286 34.6749 219.142 35.4215 221.489 36.1042C223.835 36.7869 226.929 37.3202 230.769 37.7042C230.982 37.7469 231.174 37.7682 231.345 37.7682C231.558 37.7682 231.75 37.7682 231.921 37.7682C232.39 37.7682 232.731 37.7042 232.945 37.5762C233.201 37.4482 233.329 37.1709 233.329 36.7442C233.329 36.2749 233.115 35.9762 232.689 35.8482C232.305 35.7202 231.686 35.5922 230.833 35.4642C228.529 35.2082 226.225 34.8455 223.921 34.3762C221.659 33.9069 219.59 33.1815 217.713 32.2002C215.835 31.2189 214.321 29.8535 213.169 28.1042C212.059 26.3549 211.505 24.0722 211.505 21.2562C211.505 17.2455 212.443 14.0669 214.321 11.7202C216.241 9.33086 218.822 7.6242 222.065 6.6002C225.307 5.53353 228.934 5.0002 232.945 5.0002C236.315 5.0002 239.835 5.3202 243.505 5.9602C247.174 6.55753 250.801 7.38953 254.385 8.4562L252.465 27.9122Z" fill="#F45206"/>
<path d="M25.1601 55.3042V60.3042H30.1601V55.3042H25.1601ZM5.00011 55.3042H0.000111341V60.3042H5.00011V55.3042ZM5.00011 6.0242V1.0242H0.000111341V6.0242H5.00011ZM42.3761 7.6242L40.243 12.1464L40.294 12.1704L40.3454 12.1933L42.3761 7.6242ZM47.8801 13.0642L43.4524 15.3869L43.4603 15.4021L43.4683 15.4171L47.8801 13.0642ZM47.8161 34.4402L52.2138 36.8193L52.2219 36.8044L52.2298 36.7894L47.8161 34.4402ZM42.2481 40.0722L44.4502 44.5611L44.4672 44.5528L44.4842 44.5443L42.2481 40.0722ZM25.1601 41.7362V36.7362H20.1601V41.7362H25.1601ZM24.0081 22.2162V17.2162H19.0081V22.2162H24.0081ZM24.0081 25.6722H19.0081V30.6722H24.0081V25.6722ZM31.4321 25.3522L29.196 20.8801L29.0989 20.9286L29.0039 20.9814L31.4321 25.3522ZM31.3681 22.6002L28.9739 26.9897L29.1335 27.0768L29.2991 27.152L31.3681 22.6002ZM25.1601 55.3042V50.3042H5.00011V55.3042V60.3042H25.1601V55.3042ZM5.00011 55.3042H10.0001V6.0242H5.00011H0.000111341V55.3042H5.00011ZM5.00011 6.0242V11.0242H34.8881V6.0242V1.0242H5.00011V6.0242ZM34.8881 6.0242V11.0242C36.9501 11.0242 38.7084 11.4225 40.243 12.1464L42.3761 7.6242L44.5092 3.10204C41.5212 1.69259 38.2875 1.0242 34.8881 1.0242V6.0242ZM42.3761 7.6242L40.3454 12.1933C41.4552 12.6865 42.5197 13.609 43.4524 15.3869L47.8801 13.0642L52.3078 10.7415C50.5099 7.31403 47.905 4.6099 44.4068 3.05514L42.3761 7.6242ZM47.8801 13.0642L43.4683 15.4171C44.2876 16.9533 44.9281 19.5827 44.9281 23.7522H49.9281H54.9281C54.9281 18.791 54.2033 14.2951 52.2919 10.7113L47.8801 13.0642ZM49.9281 23.7522H44.9281C44.9281 27.7864 44.2816 30.439 43.4024 32.091L47.8161 34.4402L52.2298 36.7894C54.1666 33.1507 54.9281 28.678 54.9281 23.7522H49.9281ZM47.8161 34.4402L43.4184 32.0611C42.4238 33.8996 41.2659 34.9731 40.012 35.6001L42.2481 40.0722L44.4842 44.5443C47.8383 42.8672 50.3924 40.1861 52.2138 36.8193L47.8161 34.4402ZM42.2481 40.0722L40.046 35.5833C38.5046 36.3394 36.8094 36.7362 34.8881 36.7362V41.7362V46.7362C38.2575 46.7362 41.469 46.0236 44.4502 44.5611L42.2481 40.0722ZM34.8881 41.7362V36.7362H25.1601V41.7362V46.7362H34.8881V41.7362ZM25.1601 41.7362H20.1601V55.3042H25.1601H30.1601V41.7362H25.1601ZM30.1521 22.2162V17.2162H24.0081V22.2162V27.2162H30.1521V22.2162ZM24.0081 22.2162H19.0081V25.6722H24.0081H29.0081V22.2162H24.0081ZM24.0081 25.6722V30.6722H30.3441V25.6722V20.6722H24.0081V25.6722ZM30.3441 25.6722V30.6722C31.7449 30.6722 32.9414 30.2335 33.8603 29.723L31.4321 25.3522L29.0039 20.9814C29.1548 20.8976 29.626 20.6722 30.3441 20.6722V25.6722ZM31.4321 25.3522L33.6682 29.8243C36.4849 28.416 37.0721 25.6555 37.0721 24.0082H32.0721H27.0721C27.0721 23.8692 27.0881 23.357 27.3978 22.7065C27.7497 21.9676 28.37 21.2931 29.196 20.8801L31.4321 25.3522ZM32.0721 24.0082H37.0721C37.0721 22.2526 36.4068 19.3982 33.4371 18.0484L31.3681 22.6002L29.2991 27.152C28.4711 26.7757 27.8089 26.1181 27.424 25.3483C27.0875 24.6753 27.0721 24.1416 27.0721 24.0082H32.0721ZM31.3681 22.6002L33.7624 18.2107C32.9353 17.7596 31.6739 17.2162 30.1521 17.2162V22.2162V27.2162C29.7046 27.2162 29.3767 27.1339 29.2065 27.0801C29.0347 27.0259 28.9536 26.9786 28.9739 26.9897L31.3681 22.6002ZM72.5351 55.3042V60.3042H77.5351V55.3042H72.5351ZM52.3751 55.3042H47.3751V60.3042H52.3751V55.3042ZM52.3751 6.0242V1.0242H47.3751V6.0242H52.3751ZM89.1751 7.4962L87.1846 12.0829L87.2002 12.0897L87.2158 12.0963L89.1751 7.4962ZM94.6791 12.2322L98.9144 9.57475V9.57474L94.6791 12.2322ZM96.4711 24.2642L91.5214 23.5571L91.5089 23.6441L91.4996 23.7315L96.4711 24.2642ZM95.5111 27.8482L100.08 29.8789L100.094 29.8484L100.107 29.8178L95.5111 27.8482ZM93.1431 30.9842L96.4357 34.7471L96.4462 34.7378L93.1431 30.9842ZM88.9191 33.0962L87.5455 28.2886L81.9625 29.8837L84.3686 35.1682L88.9191 33.0962ZM99.0311 55.3042V60.3042H106.802L103.582 53.2322L99.0311 55.3042ZM76.5671 55.3042L71.7305 56.572L72.7089 60.3042H76.5671V55.3042ZM73.1111 42.1202L77.9477 40.8524L76.9694 37.1202H73.1111V42.1202ZM72.5351 42.1202V37.1202H67.5351V42.1202H72.5351ZM70.8071 21.7682V16.7682H65.8071V21.7682H70.8071ZM70.8071 25.2242H65.8071V30.2242H70.8071V25.2242ZM78.2311 24.9042L75.995 20.4321L75.8979 20.4806L75.8029 20.5334L78.2311 24.9042ZM78.1671 22.1522L75.7728 26.5417L75.9325 26.6288L76.0981 26.704L78.1671 22.1522ZM72.5351 55.3042V50.3042H52.3751V55.3042V60.3042H72.5351V55.3042ZM52.3751 55.3042H57.3751V6.0242H52.3751H47.3751V55.3042H52.3751ZM52.3751 6.0242V11.0242H81.6871V6.0242V1.0242H52.3751V6.0242ZM81.6871 6.0242V11.0242C83.8071 11.0242 85.6161 11.4022 87.1846 12.0829L89.1751 7.4962L91.1656 2.90947C88.2115 1.6275 85.0285 1.0242 81.6871 1.0242V6.0242ZM89.1751 7.4962L87.2158 12.0963C88.5551 12.6668 89.6061 13.5546 90.4438 14.8897L94.6791 12.2322L98.9144 9.57474C97.0215 6.55781 94.4031 4.2883 91.1344 2.89608L89.1751 7.4962ZM94.6791 12.2322L90.4438 14.8896C91.144 16.0056 91.7271 17.8802 91.7271 20.9362H96.7271H101.727C101.727 16.7389 100.945 12.8108 98.9144 9.57475L94.6791 12.2322ZM96.7271 20.9362H91.7271C91.7271 21.6863 91.6643 22.5565 91.5214 23.5571L96.4711 24.2642L101.421 24.9713C101.619 23.5825 101.727 22.2341 101.727 20.9362H96.7271ZM96.4711 24.2642L91.4996 23.7315C91.4288 24.3924 91.2473 25.1043 90.9154 25.8786L95.5111 27.8482L100.107 29.8178C100.799 28.2028 101.257 26.5253 101.443 24.7969L96.4711 24.2642ZM95.5111 27.8482L90.942 25.8175C90.758 26.2316 90.4344 26.7076 89.84 27.2306L93.1431 30.9842L96.4462 34.7378C97.9852 33.3835 99.2402 31.7688 100.08 29.8789L95.5111 27.8482ZM93.1431 30.9842L89.8506 27.2213C89.5469 27.4871 88.8759 27.9085 87.5455 28.2886L88.9191 33.0962L90.2927 37.9038C92.5464 37.2599 94.6913 36.2733 96.4356 34.7471L93.1431 30.9842ZM88.9191 33.0962L84.3686 35.1682L94.4806 57.3762L99.0311 55.3042L103.582 53.2322L93.4696 31.0242L88.9191 33.0962ZM99.0311 55.3042V50.3042H76.5671V55.3042V60.3042H99.0311V55.3042ZM76.5671 55.3042L81.4037 54.0364L77.9477 40.8524L73.1111 42.1202L68.2745 43.388L71.7305 56.572L76.5671 55.3042ZM73.1111 42.1202V37.1202H72.5351V42.1202V47.1202H73.1111V42.1202ZM72.5351 42.1202H67.5351V55.3042H72.5351H77.5351V42.1202H72.5351ZM76.9511 21.7682V16.7682H70.8071V21.7682V26.7682H76.9511V21.7682ZM70.8071 21.7682H65.8071V25.2242H70.8071H75.8071V21.7682H70.8071ZM70.8071 25.2242V30.2242H77.1431V25.2242V20.2242H70.8071V25.2242ZM77.1431 25.2242V30.2242C78.5439 30.2242 79.7404 29.7855 80.6593 29.275L78.2311 24.9042L75.8029 20.5334C75.9538 20.4496 76.425 20.2242 77.1431 20.2242V25.2242ZM78.2311 24.9042L80.4672 29.3763C83.2839 27.968 83.8711 25.2075 83.8711 23.5602H78.8711H73.8711C73.8711 23.4212 73.8871 22.909 74.1968 22.2585C74.5487 21.5196 75.169 20.8451 75.995 20.4321L78.2311 24.9042ZM78.8711 23.5602H83.8711C83.8711 21.8046 83.2058 18.9502 80.2361 17.6004L78.1671 22.1522L76.0981 26.704C75.2701 26.3277 74.6079 25.6701 74.223 24.9003C73.8865 24.2273 73.8711 23.6936 73.8711 23.5602H78.8711ZM78.1671 22.1522L80.5614 17.7627C79.7343 17.3116 78.4729 16.7682 76.9511 16.7682V21.7682V26.7682C76.5036 26.7682 76.1756 26.6859 76.0054 26.6321C75.8337 26.5779 75.7526 26.5306 75.7728 26.5417L78.1671 22.1522ZM120.723 55.3682L120.707 60.3682L125.723 60.3841V55.3682H120.723ZM100.563 55.3042H95.5626V60.2884L100.547 60.3042L100.563 55.3042ZM100.563 6.0242V1.0242H95.5626V6.0242H100.563ZM120.723 6.0242H125.723V1.0242H120.723V6.0242ZM120.723 55.3682L120.738 50.3682L100.578 50.3042L100.563 55.3042L100.547 60.3042L120.707 60.3682L120.723 55.3682ZM100.563 55.3042H105.563V6.0242H100.563H95.5626V55.3042H100.563ZM100.563 6.0242V11.0242H120.723V6.0242V1.0242H100.563V6.0242ZM120.723 6.0242H115.723V55.3682H120.723H125.723V6.0242H120.723ZM165.987 19.2722L169.888 22.4005L170.987 21.0296V19.2722H165.987ZM150.947 38.0242L147.047 34.8959L140.527 43.0242H150.947V38.0242ZM166.563 38.0242H171.563V33.0242H166.563V38.0242ZM166.563 55.3042V60.3042H171.563V55.3042H166.563ZM123.363 55.3042H118.363V60.3042H123.363V55.3042ZM123.363 42.0562L119.463 38.9279L118.363 40.2988V42.0562H123.363ZM138.403 23.3042L142.304 26.4325L148.823 18.3042H138.403V23.3042ZM124.515 23.3042H119.515V28.3042H124.515V23.3042ZM124.515 6.0242V1.0242H119.515V6.0242H124.515ZM165.987 6.0242H170.987V1.0242H165.987V6.0242ZM165.987 19.2722L162.087 16.1439L147.047 34.8959L150.947 38.0242L154.848 41.1525L169.888 22.4005L165.987 19.2722ZM150.947 38.0242V43.0242H166.563V38.0242V33.0242H150.947V38.0242ZM166.563 38.0242H161.563V55.3042H166.563H171.563V38.0242H166.563ZM166.563 55.3042V50.3042H123.363V55.3042V60.3042H166.563V55.3042ZM123.363 55.3042H128.363V42.0562H123.363H118.363V55.3042H123.363ZM123.363 42.0562L127.264 45.1845L142.304 26.4325L138.403 23.3042L134.503 20.1759L119.463 38.9279L123.363 42.0562ZM138.403 23.3042V18.3042H124.515V23.3042V28.3042H138.403V23.3042ZM124.515 23.3042H129.515V6.0242H124.515H119.515V23.3042H124.515ZM124.515 6.0242V11.0242H165.987V6.0242V1.0242H124.515V6.0242ZM165.987 6.0242H160.987V19.2722H165.987H170.987V6.0242H165.987ZM189.285 35.9762V30.9762H184.285V35.9762H189.285ZM189.285 38.6002H184.285V43.6002H189.285V38.6002ZM208.869 38.6002H213.869V33.6002H208.869V38.6002ZM208.869 55.3042V60.3042H213.869V55.3042H208.869ZM169.125 55.3042H164.125V60.3042H169.125V55.3042ZM169.125 6.0242V1.0242H164.125V6.0242H169.125ZM207.717 6.0242H212.717V1.0242H207.717V6.0242ZM207.717 20.4242V25.4242H212.717V20.4242H207.717ZM189.285 20.4242V15.4242H184.285V20.4242H189.285ZM189.285 23.0482H184.285V28.0482H189.285V23.0482ZM205.989 23.0482H210.989V18.0482H205.989V23.0482ZM205.989 35.9762V40.9762H210.989V35.9762H205.989ZM189.285 35.9762H184.285V38.6002H189.285H194.285V35.9762H189.285ZM189.285 38.6002V43.6002H208.869V38.6002V33.6002H189.285V38.6002ZM208.869 38.6002H203.869V55.3042H208.869H213.869V38.6002H208.869ZM208.869 55.3042V50.3042H169.125V55.3042V60.3042H208.869V55.3042ZM169.125 55.3042H174.125V6.0242H169.125H164.125V55.3042H169.125ZM169.125 6.0242V11.0242H207.717V6.0242V1.0242H169.125V6.0242ZM207.717 6.0242H202.717V20.4242H207.717H212.717V6.0242H207.717ZM207.717 20.4242V15.4242H189.285V20.4242V25.4242H207.717V20.4242ZM189.285 20.4242H184.285V23.0482H189.285H194.285V20.4242H189.285ZM189.285 23.0482V28.0482H205.989V23.0482V18.0482H189.285V23.0482ZM205.989 23.0482H200.989V35.9762H205.989H210.989V23.0482H205.989ZM205.989 35.9762V30.9762H189.285V35.9762V40.9762H205.989V35.9762ZM252.465 27.9122L249.88 32.1925L256.662 36.2874L257.44 28.4032L252.465 27.9122ZM245.233 24.9042L243.944 29.7354L243.982 29.7454L244.02 29.7549L245.233 24.9042ZM236.017 23.4962L235.309 28.4459L235.484 28.4709L235.66 28.4835L236.017 23.4962ZM235.121 23.4322L234.299 28.3642L234.707 28.4322H235.121V23.4322ZM233.713 25.3522L232.004 30.0512L232.248 30.1399L232.5 30.2029L233.713 25.3522ZM235.761 25.6722L236.396 20.7128L236.327 20.7039L236.258 20.697L235.761 25.6722ZM241.009 26.4402L240.205 31.3752L240.261 31.3844L240.318 31.3922L241.009 26.4402ZM246.385 27.6562L244.873 32.4224V32.4224L246.385 27.6562ZM251.121 30.0882L248.101 34.0737L248.13 34.0953L248.159 34.1165L251.121 30.0882ZM254.513 34.3122L249.976 36.4145L249.997 36.4596L250.019 36.5043L254.513 34.3122ZM253.745 48.3282L257.849 51.1835L257.863 51.1629L257.878 51.1422L253.745 48.3282ZM248.177 53.0642L250.413 57.5363L250.429 57.5282L250.445 57.52L248.177 53.0642ZM240.241 55.5602L239.396 50.6321L239.384 50.6341L240.241 55.5602ZM231.089 56.3282V51.3282H231.06L231.03 51.3285L231.089 56.3282ZM220.145 55.6882L220.786 50.7295L220.761 50.7263L220.736 50.7233L220.145 55.6882ZM210.609 54.0242L205.624 53.6277L205.287 57.8636L209.414 58.8793L210.609 54.0242ZM212.401 31.4962L215.373 27.4753L208.13 22.1225L207.416 31.0997L212.401 31.4962ZM215.921 33.8642L213.271 38.1042L213.319 38.1344L213.368 38.1635L215.921 33.8642ZM221.489 36.1042L222.885 31.3032V31.3032L221.489 36.1042ZM230.769 37.7042L231.749 32.8013L231.509 32.7533L231.266 32.729L230.769 37.7042ZM232.945 37.5762L230.709 33.1041L230.537 33.1899L230.372 33.2887L232.945 37.5762ZM232.689 35.8482L231.107 40.5916L231.179 40.6156L231.252 40.6373L232.689 35.8482ZM230.833 35.4642L231.574 30.5195L231.48 30.5053L231.385 30.4948L230.833 35.4642ZM223.921 34.3762L222.905 39.2719L222.914 39.2737L222.923 39.2756L223.921 34.3762ZM217.713 32.2002L220.029 27.7691V27.7691L217.713 32.2002ZM213.169 28.1042L208.946 30.7819L208.969 30.8182L208.993 30.8541L213.169 28.1042ZM214.321 11.7202L210.423 8.58823L210.416 8.59672L214.321 11.7202ZM222.065 6.6002L223.57 11.3681L223.599 11.3591L223.627 11.3498L222.065 6.6002ZM243.505 5.9602L242.645 10.8858L242.673 10.8907L242.701 10.8952L243.505 5.9602ZM254.385 8.4562L259.36 8.94723L259.766 4.84095L255.811 3.66394L254.385 8.4562ZM252.465 27.9122L255.049 23.6319C252.362 22.0094 249.489 20.8144 246.445 20.0535L245.233 24.9042L244.02 29.7549C246.096 30.274 248.045 31.0843 249.88 32.1925L252.465 27.9122ZM245.233 24.9042L246.521 20.073C243.57 19.2861 240.169 18.78 236.373 18.5089L236.017 23.4962L235.66 28.4835C239.033 28.7244 241.775 29.1569 243.944 29.7354L245.233 24.9042ZM236.017 23.4962L236.724 18.5465C236.193 18.4707 235.658 18.4322 235.121 18.4322V23.4322V28.4322C235.18 28.4322 235.243 28.4364 235.309 28.4459L236.017 23.4962ZM235.121 23.4322L235.943 18.5002C235.419 18.4129 234.888 18.3682 234.353 18.3682V23.3682V28.3682C234.329 28.3682 234.311 28.3661 234.299 28.3642L235.121 23.4322ZM234.353 23.3682V18.3682C233.36 18.3682 231.688 18.548 230.199 19.754C228.507 21.1235 228.009 23.0103 228.009 24.4562H233.009H238.009C238.009 25.1767 237.734 26.5196 236.491 27.5264C235.449 28.3697 234.449 28.3682 234.353 28.3682V23.3682ZM233.009 24.4562H228.009C228.009 25.6441 228.359 26.9509 229.253 28.0893C230.101 29.1692 231.163 29.7452 232.004 30.0512L233.713 25.3522L235.421 20.6532C235.793 20.7885 236.502 21.1299 237.116 21.9111C237.776 22.7508 238.009 23.695 238.009 24.4562H233.009ZM233.713 25.3522L232.5 30.2029C233.346 30.4144 234.298 30.5508 235.263 30.6474L235.761 25.6722L236.258 20.697C235.517 20.6229 235.103 20.546 234.925 20.5015L233.713 25.3522ZM235.761 25.6722L235.125 30.6316C236.727 30.837 238.42 31.0847 240.205 31.3752L241.009 26.4402L241.812 21.5052C239.927 21.1984 238.122 20.934 236.396 20.7128L235.761 25.6722ZM241.009 26.4402L240.318 31.3922C241.877 31.6098 243.394 31.9534 244.873 32.4224L246.385 27.6562L247.896 22.89C245.876 22.2497 243.81 21.7826 241.7 21.4882L241.009 26.4402ZM246.385 27.6562L244.873 32.4224C246.101 32.8115 247.165 33.3646 248.101 34.0737L251.121 30.0882L254.14 26.1027C252.26 24.6784 250.167 23.6103 247.896 22.89L246.385 27.6562ZM251.121 30.0882L248.159 34.1165C248.883 34.6489 249.494 35.3738 249.976 36.4145L254.513 34.3122L259.049 32.2099C257.91 29.7519 256.26 27.6609 254.083 26.0599L251.121 30.0882ZM254.513 34.3122L250.019 36.5043C250.442 37.3713 250.793 38.7599 250.793 40.9042H255.793H260.793C260.793 37.7578 260.29 34.7518 259.006 32.1201L254.513 34.3122ZM255.793 40.9042H250.793C250.793 43.0617 250.301 44.5016 249.612 45.5142L253.745 48.3282L257.878 51.1422C259.919 48.1441 260.793 44.6347 260.793 40.9042H255.793ZM253.745 48.3282L249.64 45.4729C248.792 46.6921 247.596 47.749 245.908 48.6084L248.177 53.0642L250.445 57.52C253.45 55.9901 255.967 53.8896 257.849 51.1835L253.745 48.3282ZM248.177 53.0642L245.941 48.5921C244.145 49.49 241.982 50.1888 239.396 50.6321L240.241 55.5602L241.085 60.4883C244.473 59.9076 247.6 58.9424 250.413 57.5363L248.177 53.0642ZM240.241 55.5602L239.384 50.6341C236.738 51.0943 233.975 51.3282 231.089 51.3282V56.3282V61.3282C234.517 61.3282 237.855 61.0501 241.097 60.4863L240.241 55.5602ZM231.089 56.3282L231.03 51.3285C227.594 51.3685 224.18 51.1687 220.786 50.7295L220.145 55.6882L219.503 60.6469C223.362 61.1463 227.244 61.3732 231.147 61.3279L231.089 56.3282ZM220.145 55.6882L220.736 50.7233C217.305 50.3148 214.334 49.7921 211.804 49.1691L210.609 54.0242L209.414 58.8793C212.43 59.6217 215.816 60.2082 219.554 60.6531L220.145 55.6882ZM210.609 54.0242L215.593 54.4207L217.385 31.8927L212.401 31.4962L207.416 31.0997L205.624 53.6277L210.609 54.0242ZM212.401 31.4962L209.429 35.5171C210.541 36.3394 211.828 37.2023 213.271 38.1042L215.921 33.8642L218.571 29.6242C217.283 28.8194 216.223 28.1036 215.373 27.4753L212.401 31.4962ZM215.921 33.8642L213.368 38.1635C215.235 39.2722 217.533 40.1607 220.092 40.9052L221.489 36.1042L222.885 31.3032C220.751 30.6824 219.337 30.0776 218.473 29.5649L215.921 33.8642ZM221.489 36.1042L220.092 40.9052C222.85 41.7076 226.28 42.2802 230.271 42.6794L230.769 37.7042L231.266 32.729C227.578 32.3602 224.82 31.8662 222.885 31.3032L221.489 36.1042ZM230.769 37.7042L229.788 42.6071C230.241 42.6977 230.769 42.7682 231.345 42.7682V37.7682V32.7682C231.578 32.7682 231.723 32.7961 231.749 32.8013L230.769 37.7042ZM231.345 37.7682V42.7682C231.345 42.7682 231.345 42.7682 231.346 42.7682C231.346 42.7682 231.347 42.7682 231.347 42.7682C231.348 42.7682 231.348 42.7682 231.348 42.7682C231.349 42.7682 231.349 42.7682 231.35 42.7682C231.35 42.7682 231.35 42.7682 231.351 42.7682C231.351 42.7682 231.352 42.7682 231.352 42.7682C231.353 42.7682 231.353 42.7682 231.353 42.7682C231.354 42.7682 231.354 42.7682 231.355 42.7682C231.355 42.7682 231.355 42.7682 231.356 42.7682C231.356 42.7682 231.357 42.7682 231.357 42.7682C231.357 42.7682 231.358 42.7682 231.358 42.7682C231.359 42.7682 231.359 42.7682 231.36 42.7682C231.36 42.7682 231.36 42.7682 231.361 42.7682C231.361 42.7682 231.362 42.7682 231.362 42.7682C231.362 42.7682 231.363 42.7682 231.363 42.7682C231.364 42.7682 231.364 42.7682 231.365 42.7682C231.365 42.7682 231.365 42.7682 231.366 42.7682C231.366 42.7682 231.367 42.7682 231.367 42.7682C231.367 42.7682 231.368 42.7682 231.368 42.7682C231.369 42.7682 231.369 42.7682 231.37 42.7682C231.37 42.7682 231.37 42.7682 231.371 42.7682C231.371 42.7682 231.372 42.7682 231.372 42.7682C231.372 42.7682 231.373 42.7682 231.373 42.7682C231.374 42.7682 231.374 42.7682 231.374 42.7682C231.375 42.7682 231.375 42.7682 231.376 42.7682C231.376 42.7682 231.377 42.7682 231.377 42.7682C231.377 42.7682 231.378 42.7682 231.378 42.7682C231.379 42.7682 231.379 42.7682 231.379 42.7682C231.38 42.7682 231.38 42.7682 231.381 42.7682C231.381 42.7682 231.381 42.7682 231.382 42.7682C231.382 42.7682 231.383 42.7682 231.383 42.7682C231.384 42.7682 231.384 42.7682 231.384 42.7682C231.385 42.7682 231.385 42.7682 231.386 42.7682C231.386 42.7682 231.386 42.7682 231.387 42.7682C231.387 42.7682 231.388 42.7682 231.388 42.7682C231.388 42.7682 231.389 42.7682 231.389 42.7682C231.39 42.7682 231.39 42.7682 231.391 42.7682C231.391 42.7682 231.391 42.7682 231.392 42.7682C231.392 42.7682 231.393 42.7682 231.393 42.7682C231.393 42.7682 231.394 42.7682 231.394 42.7682C231.395 42.7682 231.395 42.7682 231.395 42.7682C231.396 42.7682 231.396 42.7682 231.397 42.7682C231.397 42.7682 231.398 42.7682 231.398 42.7682C231.398 42.7682 231.399 42.7682 231.399 42.7682C231.4 42.7682 231.4 42.7682 231.4 42.7682C231.401 42.7682 231.401 42.7682 231.402 42.7682C231.402 42.7682 231.402 42.7682 231.403 42.7682C231.403 42.7682 231.404 42.7682 231.404 42.7682C231.404 42.7682 231.405 42.7682 231.405 42.7682C231.406 42.7682 231.406 42.7682 231.406 42.7682C231.407 42.7682 231.407 42.7682 231.408 42.7682C231.408 42.7682 231.409 42.7682 231.409 42.7682C231.409 42.7682 231.41 42.7682 231.41 42.7682C231.411 42.7682 231.411 42.7682 231.411 42.7682C231.412 42.7682 231.412 42.7682 231.413 42.7682C231.413 42.7682 231.413 42.7682 231.414 42.7682C231.414 42.7682 231.415 42.7682 231.415 42.7682C231.415 42.7682 231.416 42.7682 231.416 42.7682C231.417 42.7682 231.417 42.7682 231.418 42.7682C231.418 42.7682 231.418 42.7682 231.419 42.7682C231.419 42.7682 231.42 42.7682 231.42 42.7682C231.42 42.7682 231.421 42.7682 231.421 42.7682C231.422 42.7682 231.422 42.7682 231.422 42.7682C231.423 42.7682 231.423 42.7682 231.424 42.7682C231.424 42.7682 231.424 42.7682 231.425 42.7682C231.425 42.7682 231.426 42.7682 231.426 42.7682C231.426 42.7682 231.427 42.7682 231.427 42.7682C231.428 42.7682 231.428 42.7682 231.428 42.7682C231.429 42.7682 231.429 42.7682 231.43 42.7682C231.43 42.7682 231.431 42.7682 231.431 42.7682C231.431 42.7682 231.432 42.7682 231.432 42.7682C231.433 42.7682 231.433 42.7682 231.433 42.7682C231.434 42.7682 231.434 42.7682 231.435 42.7682C231.435 42.7682 231.435 42.7682 231.436 42.7682C231.436 42.7682 231.437 42.7682 231.437 42.7682C231.437 42.7682 231.438 42.7682 231.438 42.7682C231.439 42.7682 231.439 42.7682 231.439 42.7682C231.44 42.7682 231.44 42.7682 231.441 42.7682C231.441 42.7682 231.441 42.7682 231.442 42.7682C231.442 42.7682 231.443 42.7682 231.443 42.7682C231.443 42.7682 231.444 42.7682 231.444 42.7682C231.445 42.7682 231.445 42.7682 231.445 42.7682C231.446 42.7682 231.446 42.7682 231.447 42.7682C231.447 42.7682 231.447 42.7682 231.448 42.7682C231.448 42.7682 231.449 42.7682 231.449 42.7682C231.449 42.7682 231.45 42.7682 231.45 42.7682C231.451 42.7682 231.451 42.7682 231.452 42.7682C231.452 42.7682 231.452 42.7682 231.453 42.7682C231.453 42.7682 231.454 42.7682 231.454 42.7682C231.454 42.7682 231.455 42.7682 231.455 42.7682C231.456 42.7682 231.456 42.7682 231.456 42.7682C231.457 42.7682 231.457 42.7682 231.458 42.7682C231.458 42.7682 231.458 42.7682 231.459 42.7682C231.459 42.7682 231.46 42.7682 231.46 42.7682C231.46 42.7682 231.461 42.7682 231.461 42.7682C231.462 42.7682 231.462 42.7682 231.462 42.7682C231.463 42.7682 231.463 42.7682 231.464 42.7682C231.464 42.7682 231.464 42.7682 231.465 42.7682C231.465 42.7682 231.466 42.7682 231.466 42.7682C231.466 42.7682 231.467 42.7682 231.467 42.7682C231.468 42.7682 231.468 42.7682 231.468 42.7682C231.469 42.7682 231.469 42.7682 231.47 42.7682C231.47 42.7682 231.47 42.7682 231.471 42.7682C231.471 42.7682 231.472 42.7682 231.472 42.7682C231.472 42.7682 231.473 42.7682 231.473 42.7682C231.474 42.7682 231.474 42.7682 231.474 42.7682C231.475 42.7682 231.475 42.7682 231.476 42.7682C231.476 42.7682 231.476 42.7682 231.477 42.7682C231.477 42.7682 231.478 42.7682 231.478 42.7682C231.478 42.7682 231.479 42.7682 231.479 42.7682C231.48 42.7682 231.48 42.7682 231.48 42.7682C231.481 42.7682 231.481 42.7682 231.482 42.7682C231.482 42.7682 231.482 42.7682 231.483 42.7682C231.483 42.7682 231.484 42.7682 231.484 42.7682C231.484 42.7682 231.485 42.7682 231.485 42.7682C231.486 42.7682 231.486 42.7682 231.486 42.7682C231.487 42.7682 231.487 42.7682 231.488 42.7682C231.488 42.7682 231.488 42.7682 231.489 42.7682C231.489 42.7682 231.49 42.7682 231.49 42.7682C231.49 42.7682 231.491 42.7682 231.491 42.7682C231.491 42.7682 231.492 42.7682 231.492 42.7682C231.493 42.7682 231.493 42.7682 231.493 42.7682C231.494 42.7682 231.494 42.7682 231.495 42.7682C231.495 42.7682 231.495 42.7682 231.496 42.7682C231.496 42.7682 231.497 42.7682 231.497 42.7682C231.497 42.7682 231.498 42.7682 231.498 42.7682C231.499 42.7682 231.499 42.7682 231.499 42.7682C231.5 42.7682 231.5 42.7682 231.501 42.7682C231.501 42.7682 231.501 42.7682 231.502 42.7682C231.502 42.7682 231.503 42.7682 231.503 42.7682C231.503 42.7682 231.504 42.7682 231.504 42.7682C231.505 42.7682 231.505 42.7682 231.505 42.7682C231.506 42.7682 231.506 42.7682 231.507 42.7682C231.507 42.7682 231.507 42.7682 231.508 42.7682C231.508 42.7682 231.509 42.7682 231.509 42.7682C231.509 42.7682 231.51 42.7682 231.51 42.7682C231.51 42.7682 231.511 42.7682 231.511 42.7682C231.512 42.7682 231.512 42.7682 231.512 42.7682C231.513 42.7682 231.513 42.7682 231.514 42.7682C231.514 42.7682 231.514 42.7682 231.515 42.7682C231.515 42.7682 231.516 42.7682 231.516 42.7682C231.516 42.7682 231.517 42.7682 231.517 42.7682C231.518 42.7682 231.518 42.7682 231.518 42.7682C231.519 42.7682 231.519 42.7682 231.52 42.7682C231.52 42.7682 231.52 42.7682 231.521 42.7682C231.521 42.7682 231.522 42.7682 231.522 42.7682C231.522 42.7682 231.523 42.7682 231.523 42.7682C231.523 42.7682 231.524 42.7682 231.524 42.7682C231.525 42.7682 231.525 42.7682 231.525 42.7682C231.526 42.7682 231.526 42.7682 231.527 42.7682C231.527 42.7682 231.527 42.7682 231.528 42.7682C231.528 42.7682 231.529 42.7682 231.529 42.7682C231.529 42.7682 231.53 42.7682 231.53 42.7682C231.531 42.7682 231.531 42.7682 231.531 42.7682C231.532 42.7682 231.532 42.7682 231.533 42.7682C231.533 42.7682 231.533 42.7682 231.534 42.7682C231.534 42.7682 231.534 42.7682 231.535 42.7682C231.535 42.7682 231.536 42.7682 231.536 42.7682C231.536 42.7682 231.537 42.7682 231.537 42.7682C231.538 42.7682 231.538 42.7682 231.538 42.7682C231.539 42.7682 231.539 42.7682 231.54 42.7682C231.54 42.7682 231.54 42.7682 231.541 42.7682C231.541 42.7682 231.541 42.7682 231.542 42.7682C231.542 42.7682 231.543 42.7682 231.543 42.7682C231.543 42.7682 231.544 42.7682 231.544 42.7682C231.545 42.7682 231.545 42.7682 231.545 42.7682C231.546 42.7682 231.546 42.7682 231.547 42.7682C231.547 42.7682 231.547 42.7682 231.548 42.7682C231.548 42.7682 231.548 42.7682 231.549 42.7682C231.549 42.7682 231.55 42.7682 231.55 42.7682C231.55 42.7682 231.551 42.7682 231.551 42.7682C231.552 42.7682 231.552 42.7682 231.552 42.7682C231.553 42.7682 231.553 42.7682 231.554 42.7682C231.554 42.7682 231.554 42.7682 231.555 42.7682C231.555 42.7682 231.555 42.7682 231.556 42.7682C231.556 42.7682 231.557 42.7682 231.557 42.7682C231.557 42.7682 231.558 42.7682 231.558 42.7682C231.559 42.7682 231.559 42.7682 231.559 42.7682C231.56 42.7682 231.56 42.7682 231.561 42.7682C231.561 42.7682 231.561 42.7682 231.562 42.7682C231.562 42.7682 231.562 42.7682 231.563 42.7682C231.563 42.7682 231.564 42.7682 231.564 42.7682C231.564 42.7682 231.565 42.7682 231.565 42.7682C231.566 42.7682 231.566 42.7682 231.566 42.7682C231.567 42.7682 231.567 42.7682 231.568 42.7682C231.568 42.7682 231.568 42.7682 231.569 42.7682C231.569 42.7682 231.569 42.7682 231.57 42.7682C231.57 42.7682 231.571 42.7682 231.571 42.7682C231.571 42.7682 231.572 42.7682 231.572 42.7682C231.573 42.7682 231.573 42.7682 231.573 42.7682C231.574 42.7682 231.574 42.7682 231.574 42.7682C231.575 42.7682 231.575 42.7682 231.576 42.7682C231.576 42.7682 231.576 42.7682 231.577 42.7682C231.577 42.7682 231.578 42.7682 231.578 42.7682C231.578 42.7682 231.579 42.7682 231.579 42.7682C231.579 42.7682 231.58 42.7682 231.58 42.7682C231.581 42.7682 231.581 42.7682 231.581 42.7682C231.582 42.7682 231.582 42.7682 231.583 42.7682C231.583 42.7682 231.583 42.7682 231.584 42.7682C231.584 42.7682 231.584 42.7682 231.585 42.7682C231.585 42.7682 231.586 42.7682 231.586 42.7682C231.586 42.7682 231.587 42.7682 231.587 42.7682C231.588 42.7682 231.588 42.7682 231.588 42.7682C231.589 42.7682 231.589 42.7682 231.589 42.7682C231.59 42.7682 231.59 42.7682 231.591 42.7682C231.591 42.7682 231.591 42.7682 231.592 42.7682C231.592 42.7682 231.593 42.7682 231.593 42.7682C231.593 42.7682 231.594 42.7682 231.594 42.7682C231.594 42.7682 231.595 42.7682 231.595 42.7682C231.596 42.7682 231.596 42.7682 231.596 42.7682C231.597 42.7682 231.597 42.7682 231.597 42.7682C231.598 42.7682 231.598 42.7682 231.599 42.7682C231.599 42.7682 231.599 42.7682 231.6 42.7682C231.6 42.7682 231.601 42.7682 231.601 42.7682C231.601 42.7682 231.602 42.7682 231.602 42.7682C231.602 42.7682 231.603 42.7682 231.603 42.7682C231.604 42.7682 231.604 42.7682 231.604 42.7682C231.605 42.7682 231.605 42.7682 231.606 42.7682C231.606 42.7682 231.606 42.7682 231.607 42.7682C231.607 42.7682 231.607 42.7682 231.608 42.7682C231.608 42.7682 231.609 42.7682 231.609 42.7682C231.609 42.7682 231.61 42.7682 231.61 42.7682C231.61 42.7682 231.611 42.7682 231.611 42.7682C231.612 42.7682 231.612 42.7682 231.612 42.7682C231.613 42.7682 231.613 42.7682 231.613 42.7682C231.614 42.7682 231.614 42.7682 231.615 42.7682C231.615 42.7682 231.615 42.7682 231.616 42.7682C231.616 42.7682 231.617 42.7682 231.617 42.7682C231.617 42.7682 231.618 42.7682 231.618 42.7682C231.618 42.7682 231.619 42.7682 231.619 42.7682C231.62 42.7682 231.62 42.7682 231.62 42.7682C231.621 42.7682 231.621 42.7682 231.621 42.7682C231.622 42.7682 231.622 42.7682 231.623 42.7682C231.623 42.7682 231.623 42.7682 231.624 42.7682C231.624 42.7682 231.624 42.7682 231.625 42.7682C231.625 42.7682 231.626 42.7682 231.626 42.7682C231.626 42.7682 231.627 42.7682 231.627 42.7682C231.628 42.7682 231.628 42.7682 231.628 42.7682C231.629 42.7682 231.629 42.7682 231.629 42.7682C231.63 42.7682 231.63 42.7682 231.631 42.7682C231.631 42.7682 231.631 42.7682 231.632 42.7682C231.632 42.7682 231.632 42.7682 231.633 42.7682C231.633 42.7682 231.634 42.7682 231.634 42.7682C231.634 42.7682 231.635 42.7682 231.635 42.7682C231.635 42.7682 231.636 42.7682 231.636 42.7682C231.637 42.7682 231.637 42.7682 231.637 42.7682C231.638 42.7682 231.638 42.7682 231.638 42.7682C231.639 42.7682 231.639 42.7682 231.64 42.7682C231.64 42.7682 231.64 42.7682 231.641 42.7682C231.641 42.7682 231.641 42.7682 231.642 42.7682C231.642 42.7682 231.643 42.7682 231.643 42.7682C231.643 42.7682 231.644 42.7682 231.644 42.7682C231.644 42.7682 231.645 42.7682 231.645 42.7682C231.646 42.7682 231.646 42.7682 231.646 42.7682C231.647 42.7682 231.647 42.7682 231.647 42.7682C231.648 42.7682 231.648 42.7682 231.649 42.7682C231.649 42.7682 231.649 42.7682 231.65 42.7682C231.65 42.7682 231.65 42.7682 231.651 42.7682C231.651 42.7682 231.652 42.7682 231.652 42.7682C231.652 42.7682 231.653 42.7682 231.653 42.7682C231.653 42.7682 231.654 42.7682 231.654 42.7682C231.655 42.7682 231.655 42.7682 231.655 42.7682C231.656 42.7682 231.656 42.7682 231.656 42.7682C231.657 42.7682 231.657 42.7682 231.658 42.7682C231.658 42.7682 231.658 42.7682 231.659 42.7682C231.659 42.7682 231.659 42.7682 231.66 42.7682C231.66 42.7682 231.661 42.7682 231.661 42.7682C231.661 42.7682 231.662 42.7682 231.662 42.7682C231.662 42.7682 231.663 42.7682 231.663 42.7682C231.664 42.7682 231.664 42.7682 231.664 42.7682C231.665 42.7682 231.665 42.7682 231.665 42.7682C231.666 42.7682 231.666 42.7682 231.667 42.7682C231.667 42.7682 231.667 42.7682 231.668 42.7682C231.668 42.7682 231.668 42.7682 231.669 42.7682C231.669 42.7682 231.67 42.7682 231.67 42.7682C231.67 42.7682 231.671 42.7682 231.671 42.7682C231.671 42.7682 231.672 42.7682 231.672 42.7682C231.673 42.7682 231.673 42.7682 231.673 42.7682C231.674 42.7682 231.674 42.7682 231.674 42.7682C231.675 42.7682 231.675 42.7682 231.675 42.7682C231.676 42.7682 231.676 42.7682 231.677 42.7682C231.677 42.7682 231.677 42.7682 231.678 42.7682C231.678 42.7682 231.678 42.7682 231.679 42.7682C231.679 42.7682 231.68 42.7682 231.68 42.7682C231.68 42.7682 231.681 42.7682 231.681 42.7682C231.681 42.7682 231.682 42.7682 231.682 42.7682C231.683 42.7682 231.683 42.7682 231.683 42.7682C231.684 42.7682 231.684 42.7682 231.684 42.7682C231.685 42.7682 231.685 42.7682 231.685 42.7682C231.686 42.7682 231.686 42.7682 231.687 42.7682C231.687 42.7682 231.687 42.7682 231.688 42.7682C231.688 42.7682 231.688 42.7682 231.689 42.7682C231.689 42.7682 231.69 42.7682 231.69 42.7682C231.69 42.7682 231.691 42.7682 231.691 42.7682C231.691 42.7682 231.692 42.7682 231.692 42.7682C231.692 42.7682 231.693 42.7682 231.693 42.7682C231.694 42.7682 231.694 42.7682 231.694 42.7682C231.695 42.7682 231.695 42.7682 231.695 42.7682C231.696 42.7682 231.696 42.7682 231.697 42.7682C231.697 42.7682 231.697 42.7682 231.698 42.7682C231.698 42.7682 231.698 42.7682 231.699 42.7682C231.699 42.7682 231.699 42.7682 231.7 42.7682C231.7 42.7682 231.701 42.7682 231.701 42.7682C231.701 42.7682 231.702 42.7682 231.702 42.7682C231.702 42.7682 231.703 42.7682 231.703 42.7682C231.704 42.7682 231.704 42.7682 231.704 42.7682C231.705 42.7682 231.705 42.7682 231.705 42.7682C231.706 42.7682 231.706 42.7682 231.706 42.7682C231.707 42.7682 231.707 42.7682 231.708 42.7682C231.708 42.7682 231.708 42.7682 231.709 42.7682C231.709 42.7682 231.709 42.7682 231.71 42.7682C231.71 42.7682 231.71 42.7682 231.711 42.7682C231.711 42.7682 231.712 42.7682 231.712 42.7682C231.712 42.7682 231.713 42.7682 231.713 42.7682C231.713 42.7682 231.714 42.7682 231.714 42.7682C231.715 42.7682 231.715 42.7682 231.715 42.7682C231.716 42.7682 231.716 42.7682 231.716 42.7682C231.717 42.7682 231.717 42.7682 231.717 42.7682C231.718 42.7682 231.718 42.7682 231.719 42.7682C231.719 42.7682 231.719 42.7682 231.72 42.7682C231.72 42.7682 231.72 42.7682 231.721 42.7682C231.721 42.7682 231.721 42.7682 231.722 42.7682C231.722 42.7682 231.723 42.7682 231.723 42.7682C231.723 42.7682 231.724 42.7682 231.724 42.7682C231.724 42.7682 231.725 42.7682 231.725 42.7682C231.725 42.7682 231.726 42.7682 231.726 42.7682C231.727 42.7682 231.727 42.7682 231.727 42.7682C231.728 42.7682 231.728 42.7682 231.728 42.7682C231.729 42.7682 231.729 42.7682 231.729 42.7682C231.73 42.7682 231.73 42.7682 231.731 42.7682C231.731 42.7682 231.731 42.7682 231.732 42.7682C231.732 42.7682 231.732 42.7682 231.733 42.7682C231.733 42.7682 231.733 42.7682 231.734 42.7682C231.734 42.7682 231.735 42.7682 231.735 42.7682C231.735 42.7682 231.736 42.7682 231.736 42.7682C231.736 42.7682 231.737 42.7682 231.737 42.7682C231.737 42.7682 231.738 42.7682 231.738 42.7682C231.738 42.7682 231.739 42.7682 231.739 42.7682C231.74 42.7682 231.74 42.7682 231.74 42.7682C231.741 42.7682 231.741 42.7682 231.741 42.7682C231.742 42.7682 231.742 42.7682 231.742 42.7682C231.743 42.7682 231.743 42.7682 231.744 42.7682C231.744 42.7682 231.744 42.7682 231.745 42.7682C231.745 42.7682 231.745 42.7682 231.746 42.7682C231.746 42.7682 231.746 42.7682 231.747 42.7682C231.747 42.7682 231.748 42.7682 231.748 42.7682C231.748 42.7682 231.749 42.7682 231.749 42.7682C231.749 42.7682 231.75 42.7682 231.75 42.7682C231.75 42.7682 231.751 42.7682 231.751 42.7682C231.751 42.7682 231.752 42.7682 231.752 42.7682C231.753 42.7682 231.753 42.7682 231.753 42.7682C231.754 42.7682 231.754 42.7682 231.754 42.7682C231.755 42.7682 231.755 42.7682 231.755 42.7682C231.756 42.7682 231.756 42.7682 231.757 42.7682C231.757 42.7682 231.757 42.7682 231.758 42.7682C231.758 42.7682 231.758 42.7682 231.759 42.7682C231.759 42.7682 231.759 42.7682 231.76 42.7682C231.76 42.7682 231.76 42.7682 231.761 42.7682C231.761 42.7682 231.762 42.7682 231.762 42.7682C231.762 42.7682 231.763 42.7682 231.763 42.7682C231.763 42.7682 231.764 42.7682 231.764 42.7682C231.764 42.7682 231.765 42.7682 231.765 42.7682C231.765 42.7682 231.766 42.7682 231.766 42.7682C231.767 42.7682 231.767 42.7682 231.767 42.7682C231.768 42.7682 231.768 42.7682 231.768 42.7682C231.769 42.7682 231.769 42.7682 231.769 42.7682C231.77 42.7682 231.77 42.7682 231.77 42.7682C231.771 42.7682 231.771 42.7682 231.772 42.7682C231.772 42.7682 231.772 42.7682 231.773 42.7682C231.773 42.7682 231.773 42.7682 231.774 42.7682C231.774 42.7682 231.774 42.7682 231.775 42.7682C231.775 42.7682 231.775 42.7682 231.776 42.7682C231.776 42.7682 231.777 42.7682 231.777 42.7682C231.777 42.7682 231.778 42.7682 231.778 42.7682C231.778 42.7682 231.779 42.7682 231.779 42.7682C231.779 42.7682 231.78 42.7682 231.78 42.7682C231.78 42.7682 231.781 42.7682 231.781 42.7682C231.782 42.7682 231.782 42.7682 231.782 42.7682C231.783 42.7682 231.783 42.7682 231.783 42.7682C231.784 42.7682 231.784 42.7682 231.784 42.7682C231.785 42.7682 231.785 42.7682 231.785 42.7682C231.786 42.7682 231.786 42.7682 231.786 42.7682C231.787 42.7682 231.787 42.7682 231.788 42.7682C231.788 42.7682 231.788 42.7682 231.789 42.7682C231.789 42.7682 231.789 42.7682 231.79 42.7682C231.79 42.7682 231.79 42.7682 231.791 42.7682C231.791 42.7682 231.791 42.7682 231.792 42.7682C231.792 42.7682 231.793 42.7682 231.793 42.7682C231.793 42.7682 231.794 42.7682 231.794 42.7682C231.794 42.7682 231.795 42.7682 231.795 42.7682C231.795 42.7682 231.796 42.7682 231.796 42.7682C231.796 42.7682 231.797 42.7682 231.797 42.7682C231.797 42.7682 231.798 42.7682 231.798 42.7682C231.799 42.7682 231.799 42.7682 231.799 42.7682C231.8 42.7682 231.8 42.7682 231.8 42.7682C231.801 42.7682 231.801 42.7682 231.801 42.7682C231.802 42.7682 231.802 42.7682 231.802 42.7682C231.803 42.7682 231.803 42.7682 231.803 42.7682C231.804 42.7682 231.804 42.7682 231.804 42.7682C231.805 42.7682 231.805 42.7682 231.806 42.7682C231.806 42.7682 231.806 42.7682 231.807 42.7682C231.807 42.7682 231.807 42.7682 231.808 42.7682C231.808 42.7682 231.808 42.7682 231.809 42.7682C231.809 42.7682 231.809 42.7682 231.81 42.7682C231.81 42.7682 231.81 42.7682 231.811 42.7682C231.811 42.7682 231.812 42.7682 231.812 42.7682C231.812 42.7682 231.813 42.7682 231.813 42.7682C231.813 42.7682 231.814 42.7682 231.814 42.7682C231.814 42.7682 231.815 42.7682 231.815 42.7682C231.815 42.7682 231.816 42.7682 231.816 42.7682C231.816 42.7682 231.817 42.7682 231.817 42.7682C231.817 42.7682 231.818 42.7682 231.818 42.7682C231.819 42.7682 231.819 42.7682 231.819 42.7682C231.82 42.7682 231.82 42.7682 231.82 42.7682C231.821 42.7682 231.821 42.7682 231.821 42.7682C231.822 42.7682 231.822 42.7682 231.822 42.7682C231.823 42.7682 231.823 42.7682 231.823 42.7682C231.824 42.7682 231.824 42.7682 231.824 42.7682C231.825 42.7682 231.825 42.7682 231.826 42.7682C231.826 42.7682 231.826 42.7682 231.827 42.7682C231.827 42.7682 231.827 42.7682 231.828 42.7682C231.828 42.7682 231.828 42.7682 231.829 42.7682C231.829 42.7682 231.829 42.7682 231.83 42.7682C231.83 42.7682 231.83 42.7682 231.831 42.7682C231.831 42.7682 231.831 42.7682 231.832 42.7682C231.832 42.7682 231.832 42.7682 231.833 42.7682C231.833 42.7682 231.833 42.7682 231.834 42.7682C231.834 42.7682 231.835 42.7682 231.835 42.7682C231.835 42.7682 231.836 42.7682 231.836 42.7682C231.836 42.7682 231.837 42.7682 231.837 42.7682C231.837 42.7682 231.838 42.7682 231.838 42.7682C231.838 42.7682 231.839 42.7682 231.839 42.7682C231.839 42.7682 231.84 42.7682 231.84 42.7682C231.84 42.7682 231.841 42.7682 231.841 42.7682C231.841 42.7682 231.842 42.7682 231.842 42.7682C231.843 42.7682 231.843 42.7682 231.843 42.7682C231.844 42.7682 231.844 42.7682 231.844 42.7682C231.845 42.7682 231.845 42.7682 231.845 42.7682C231.846 42.7682 231.846 42.7682 231.846 42.7682C231.847 42.7682 231.847 42.7682 231.847 42.7682C231.848 42.7682 231.848 42.7682 231.848 42.7682C231.849 42.7682 231.849 42.7682 231.849 42.7682C231.85 42.7682 231.85 42.7682 231.85 42.7682C231.851 42.7682 231.851 42.7682 231.851 42.7682C231.852 42.7682 231.852 42.7682 231.853 42.7682C231.853 42.7682 231.853 42.7682 231.854 42.7682C231.854 42.7682 231.854 42.7682 231.855 42.7682C231.855 42.7682 231.855 42.7682 231.856 42.7682C231.856 42.7682 231.856 42.7682 231.857 42.7682C231.857 42.7682 231.857 42.7682 231.858 42.7682C231.858 42.7682 231.858 42.7682 231.859 42.7682C231.859 42.7682 231.859 42.7682 231.86 42.7682C231.86 42.7682 231.86 42.7682 231.861 42.7682C231.861 42.7682 231.861 42.7682 231.862 42.7682C231.862 42.7682 231.862 42.7682 231.863 42.7682C231.863 42.7682 231.864 42.7682 231.864 42.7682C231.864 42.7682 231.865 42.7682 231.865 42.7682C231.865 42.7682 231.866 42.7682 231.866 42.7682C231.866 42.7682 231.867 42.7682 231.867 42.7682C231.867 42.7682 231.868 42.7682 231.868 42.7682C231.868 42.7682 231.869 42.7682 231.869 42.7682C231.869 42.7682 231.87 42.7682 231.87 42.7682C231.87 42.7682 231.871 42.7682 231.871 42.7682C231.871 42.7682 231.872 42.7682 231.872 42.7682C231.872 42.7682 231.873 42.7682 231.873 42.7682C231.873 42.7682 231.874 42.7682 231.874 42.7682C231.874 42.7682 231.875 42.7682 231.875 42.7682C231.875 42.7682 231.876 42.7682 231.876 42.7682C231.876 42.7682 231.877 42.7682 231.877 42.7682C231.878 42.7682 231.878 42.7682 231.878 42.7682C231.879 42.7682 231.879 42.7682 231.879 42.7682C231.88 42.7682 231.88 42.7682 231.88 42.7682C231.881 42.7682 231.881 42.7682 231.881 42.7682C231.882 42.7682 231.882 42.7682 231.882 42.7682C231.883 42.7682 231.883 42.7682 231.883 42.7682C231.884 42.7682 231.884 42.7682 231.884 42.7682C231.885 42.7682 231.885 42.7682 231.885 42.7682C231.886 42.7682 231.886 42.7682 231.886 42.7682C231.887 42.7682 231.887 42.7682 231.887 42.7682C231.888 42.7682 231.888 42.7682 231.888 42.7682C231.889 42.7682 231.889 42.7682 231.889 42.7682C231.89 42.7682 231.89 42.7682 231.89 42.7682C231.891 42.7682 231.891 42.7682 231.891 42.7682C231.892 42.7682 231.892 42.7682 231.892 42.7682C231.893 42.7682 231.893 42.7682 231.893 42.7682C231.894 42.7682 231.894 42.7682 231.894 42.7682C231.895 42.7682 231.895 42.7682 231.895 42.7682C231.896 42.7682 231.896 42.7682 231.896 42.7682C231.897 42.7682 231.897 42.7682 231.897 42.7682C231.898 42.7682 231.898 42.7682 231.898 42.7682C231.899 42.7682 231.899 42.7682 231.9 42.7682C231.9 42.7682 231.9 42.7682 231.901 42.7682C231.901 42.7682 231.901 42.7682 231.902 42.7682C231.902 42.7682 231.902 42.7682 231.903 42.7682C231.903 42.7682 231.903 42.7682 231.904 42.7682C231.904 42.7682 231.904 42.7682 231.905 42.7682C231.905 42.7682 231.905 42.7682 231.906 42.7682C231.906 42.7682 231.906 42.7682 231.907 42.7682C231.907 42.7682 231.907 42.7682 231.908 42.7682C231.908 42.7682 231.908 42.7682 231.909 42.7682C231.909 42.7682 231.909 42.7682 231.91 42.7682C231.91 42.7682 231.91 42.7682 231.911 42.7682C231.911 42.7682 231.911 42.7682 231.912 42.7682C231.912 42.7682 231.912 42.7682 231.913 42.7682C231.913 42.7682 231.913 42.7682 231.914 42.7682C231.914 42.7682 231.914 42.7682 231.915 42.7682C231.915 42.7682 231.915 42.7682 231.916 42.7682C231.916 42.7682 231.916 42.7682 231.917 42.7682C231.917 42.7682 231.917 42.7682 231.918 42.7682C231.918 42.7682 231.918 42.7682 231.919 42.7682C231.919 42.7682 231.919 42.7682 231.92 42.7682C231.92 42.7682 231.92 42.7682 231.921 42.7682V37.7682V32.7682C231.92 32.7682 231.92 32.7682 231.92 32.7682C231.919 32.7682 231.919 32.7682 231.919 32.7682C231.918 32.7682 231.918 32.7682 231.918 32.7682C231.917 32.7682 231.917 32.7682 231.917 32.7682C231.916 32.7682 231.916 32.7682 231.916 32.7682C231.915 32.7682 231.915 32.7682 231.915 32.7682C231.914 32.7682 231.914 32.7682 231.914 32.7682C231.913 32.7682 231.913 32.7682 231.913 32.7682C231.912 32.7682 231.912 32.7682 231.912 32.7682C231.911 32.7682 231.911 32.7682 231.911 32.7682C231.91 32.7682 231.91 32.7682 231.91 32.7682C231.909 32.7682 231.909 32.7682 231.909 32.7682C231.908 32.7682 231.908 32.7682 231.908 32.7682C231.907 32.7682 231.907 32.7682 231.907 32.7682C231.906 32.7682 231.906 32.7682 231.906 32.7682C231.905 32.7682 231.905 32.7682 231.905 32.7682C231.904 32.7682 231.904 32.7682 231.904 32.7682C231.903 32.7682 231.903 32.7682 231.903 32.7682C231.902 32.7682 231.902 32.7682 231.902 32.7682C231.901 32.7682 231.901 32.7682 231.901 32.7682C231.9 32.7682 231.9 32.7682 231.9 32.7682C231.899 32.7682 231.899 32.7682 231.898 32.7682C231.898 32.7682 231.898 32.7682 231.897 32.7682C231.897 32.7682 231.897 32.7682 231.896 32.7682C231.896 32.7682 231.896 32.7682 231.895 32.7682C231.895 32.7682 231.895 32.7682 231.894 32.7682C231.894 32.7682 231.894 32.7682 231.893 32.7682C231.893 32.7682 231.893 32.7682 231.892 32.7682C231.892 32.7682 231.892 32.7682 231.891 32.7682C231.891 32.7682 231.891 32.7682 231.89 32.7682C231.89 32.7682 231.89 32.7682 231.889 32.7682C231.889 32.7682 231.889 32.7682 231.888 32.7682C231.888 32.7682 231.888 32.7682 231.887 32.7682C231.887 32.7682 231.887 32.7682 231.886 32.7682C231.886 32.7682 231.886 32.7682 231.885 32.7682C231.885 32.7682 231.885 32.7682 231.884 32.7682C231.884 32.7682 231.884 32.7682 231.883 32.7682C231.883 32.7682 231.883 32.7682 231.882 32.7682C231.882 32.7682 231.882 32.7682 231.881 32.7682C231.881 32.7682 231.881 32.7682 231.88 32.7682C231.88 32.7682 231.88 32.7682 231.879 32.7682C231.879 32.7682 231.879 32.7682 231.878 32.7682C231.878 32.7682 231.878 32.7682 231.877 32.7682C231.877 32.7682 231.876 32.7682 231.876 32.7682C231.876 32.7682 231.875 32.7682 231.875 32.7682C231.875 32.7682 231.874 32.7682 231.874 32.7682C231.874 32.7682 231.873 32.7682 231.873 32.7682C231.873 32.7682 231.872 32.7682 231.872 32.7682C231.872 32.7682 231.871 32.7682 231.871 32.7682C231.871 32.7682 231.87 32.7682 231.87 32.7682C231.87 32.7682 231.869 32.7682 231.869 32.7682C231.869 32.7682 231.868 32.7682 231.868 32.7682C231.868 32.7682 231.867 32.7682 231.867 32.7682C231.867 32.7682 231.866 32.7682 231.866 32.7682C231.866 32.7682 231.865 32.7682 231.865 32.7682C231.865 32.7682 231.864 32.7682 231.864 32.7682C231.864 32.7682 231.863 32.7682 231.863 32.7682C231.862 32.7682 231.862 32.7682 231.862 32.7682C231.861 32.7682 231.861 32.7682 231.861 32.7682C231.86 32.7682 231.86 32.7682 231.86 32.7682C231.859 32.7682 231.859 32.7682 231.859 32.7682C231.858 32.7682 231.858 32.7682 231.858 32.7682C231.857 32.7682 231.857 32.7682 231.857 32.7682C231.856 32.7682 231.856 32.7682 231.856 32.7682C231.855 32.7682 231.855 32.7682 231.855 32.7682C231.854 32.7682 231.854 32.7682 231.854 32.7682C231.853 32.7682 231.853 32.7682 231.853 32.7682C231.852 32.7682 231.852 32.7682 231.851 32.7682C231.851 32.7682 231.851 32.7682 231.85 32.7682C231.85 32.7682 231.85 32.7682 231.849 32.7682C231.849 32.7682 231.849 32.7682 231.848 32.7682C231.848 32.7682 231.848 32.7682 231.847 32.7682C231.847 32.7682 231.847 32.7682 231.846 32.7682C231.846 32.7682 231.846 32.7682 231.845 32.7682C231.845 32.7682 231.845 32.7682 231.844 32.7682C231.844 32.7682 231.844 32.7682 231.843 32.7682C231.843 32.7682 231.843 32.7682 231.842 32.7682C231.842 32.7682 231.841 32.7682 231.841 32.7682C231.841 32.7682 231.84 32.7682 231.84 32.7682C231.84 32.7682 231.839 32.7682 231.839 32.7682C231.839 32.7682 231.838 32.7682 231.838 32.7682C231.838 32.7682 231.837 32.7682 231.837 32.7682C231.837 32.7682 231.836 32.7682 231.836 32.7682C231.836 32.7682 231.835 32.7682 231.835 32.7682C231.835 32.7682 231.834 32.7682 231.834 32.7682C231.833 32.7682 231.833 32.7682 231.833 32.7682C231.832 32.7682 231.832 32.7682 231.832 32.7682C231.831 32.7682 231.831 32.7682 231.831 32.7682C231.83 32.7682 231.83 32.7682 231.83 32.7682C231.829 32.7682 231.829 32.7682 231.829 32.7682C231.828 32.7682 231.828 32.7682 231.828 32.7682C231.827 32.7682 231.827 32.7682 231.827 32.7682C231.826 32.7682 231.826 32.7682 231.826 32.7682C231.825 32.7682 231.825 32.7682 231.824 32.7682C231.824 32.7682 231.824 32.7682 231.823 32.7682C231.823 32.7682 231.823 32.7682 231.822 32.7682C231.822 32.7682 231.822 32.7682 231.821 32.7682C231.821 32.7682 231.821 32.7682 231.82 32.7682C231.82 32.7682 231.82 32.7682 231.819 32.7682C231.819 32.7682 231.819 32.7682 231.818 32.7682C231.818 32.7682 231.817 32.7682 231.817 32.7682C231.817 32.7682 231.816 32.7682 231.816 32.7682C231.816 32.7682 231.815 32.7682 231.815 32.7682C231.815 32.7682 231.814 32.7682 231.814 32.7682C231.814 32.7682 231.813 32.7682 231.813 32.7682C231.813 32.7682 231.812 32.7682 231.812 32.7682C231.812 32.7682 231.811 32.7682 231.811 32.7682C231.81 32.7682 231.81 32.7682 231.81 32.7682C231.809 32.7682 231.809 32.7682 231.809 32.7682C231.808 32.7682 231.808 32.7682 231.808 32.7682C231.807 32.7682 231.807 32.7682 231.807 32.7682C231.806 32.7682 231.806 32.7682 231.806 32.7682C231.805 32.7682 231.805 32.7682 231.804 32.7682C231.804 32.7682 231.804 32.7682 231.803 32.7682C231.803 32.7682 231.803 32.7682 231.802 32.7682C231.802 32.7682 231.802 32.7682 231.801 32.7682C231.801 32.7682 231.801 32.7682 231.8 32.7682C231.8 32.7682 231.8 32.7682 231.799 32.7682C231.799 32.7682 231.799 32.7682 231.798 32.7682C231.798 32.7682 231.797 32.7682 231.797 32.7682C231.797 32.7682 231.796 32.7682 231.796 32.7682C231.796 32.7682 231.795 32.7682 231.795 32.7682C231.795 32.7682 231.794 32.7682 231.794 32.7682C231.794 32.7682 231.793 32.7682 231.793 32.7682C231.793 32.7682 231.792 32.7682 231.792 32.7682C231.791 32.7682 231.791 32.7682 231.791 32.7682C231.79 32.7682 231.79 32.7682 231.79 32.7682C231.789 32.7682 231.789 32.7682 231.789 32.7682C231.788 32.7682 231.788 32.7682 231.788 32.7682C231.787 32.7682 231.787 32.7682 231.786 32.7682C231.786 32.7682 231.786 32.7682 231.785 32.7682C231.785 32.7682 231.785 32.7682 231.784 32.7682C231.784 32.7682 231.784 32.7682 231.783 32.7682C231.783 32.7682 231.783 32.7682 231.782 32.7682C231.782 32.7682 231.782 32.7682 231.781 32.7682C231.781 32.7682 231.78 32.7682 231.78 32.7682C231.78 32.7682 231.779 32.7682 231.779 32.7682C231.779 32.7682 231.778 32.7682 231.778 32.7682C231.778 32.7682 231.777 32.7682 231.777 32.7682C231.777 32.7682 231.776 32.7682 231.776 32.7682C231.775 32.7682 231.775 32.7682 231.775 32.7682C231.774 32.7682 231.774 32.7682 231.774 32.7682C231.773 32.7682 231.773 32.7682 231.773 32.7682C231.772 32.7682 231.772 32.7682 231.772 32.7682C231.771 32.7682 231.771 32.7682 231.77 32.7682C231.77 32.7682 231.77 32.7682 231.769 32.7682C231.769 32.7682 231.769 32.7682 231.768 32.7682C231.768 32.7682 231.768 32.7682 231.767 32.7682C231.767 32.7682 231.767 32.7682 231.766 32.7682C231.766 32.7682 231.765 32.7682 231.765 32.7682C231.765 32.7682 231.764 32.7682 231.764 32.7682C231.764 32.7682 231.763 32.7682 231.763 32.7682C231.763 32.7682 231.762 32.7682 231.762 32.7682C231.762 32.7682 231.761 32.7682 231.761 32.7682C231.76 32.7682 231.76 32.7682 231.76 32.7682C231.759 32.7682 231.759 32.7682 231.759 32.7682C231.758 32.7682 231.758 32.7682 231.758 32.7682C231.757 32.7682 231.757 32.7682 231.757 32.7682C231.756 32.7682 231.756 32.7682 231.755 32.7682C231.755 32.7682 231.755 32.7682 231.754 32.7682C231.754 32.7682 231.754 32.7682 231.753 32.7682C231.753 32.7682 231.753 32.7682 231.752 32.7682C231.752 32.7682 231.751 32.7682 231.751 32.7682C231.751 32.7682 231.75 32.7682 231.75 32.7682C231.75 32.7682 231.749 32.7682 231.749 32.7682C231.749 32.7682 231.748 32.7682 231.748 32.7682C231.748 32.7682 231.747 32.7682 231.747 32.7682C231.746 32.7682 231.746 32.7682 231.746 32.7682C231.745 32.7682 231.745 32.7682 231.745 32.7682C231.744 32.7682 231.744 32.7682 231.744 32.7682C231.743 32.7682 231.743 32.7682 231.742 32.7682C231.742 32.7682 231.742 32.7682 231.741 32.7682C231.741 32.7682 231.741 32.7682 231.74 32.7682C231.74 32.7682 231.74 32.7682 231.739 32.7682C231.739 32.7682 231.738 32.7682 231.738 32.7682C231.738 32.7682 231.737 32.7682 231.737 32.7682C231.737 32.7682 231.736 32.7682 231.736 32.7682C231.736 32.7682 231.735 32.7682 231.735 32.7682C231.735 32.7682 231.734 32.7682 231.734 32.7682C231.733 32.7682 231.733 32.7682 231.733 32.7682C231.732 32.7682 231.732 32.7682 231.732 32.7682C231.731 32.7682 231.731 32.7682 231.731 32.7682C231.73 32.7682 231.73 32.7682 231.729 32.7682C231.729 32.7682 231.729 32.7682 231.728 32.7682C231.728 32.7682 231.728 32.7682 231.727 32.7682C231.727 32.7682 231.727 32.7682 231.726 32.7682C231.726 32.7682 231.725 32.7682 231.725 32.7682C231.725 32.7682 231.724 32.7682 231.724 32.7682C231.724 32.7682 231.723 32.7682 231.723 32.7682C231.723 32.7682 231.722 32.7682 231.722 32.7682C231.721 32.7682 231.721 32.7682 231.721 32.7682C231.72 32.7682 231.72 32.7682 231.72 32.7682C231.719 32.7682 231.719 32.7682 231.719 32.7682C231.718 32.7682 231.718 32.7682 231.717 32.7682C231.717 32.7682 231.717 32.7682 231.716 32.7682C231.716 32.7682 231.716 32.7682 231.715 32.7682C231.715 32.7682 231.715 32.7682 231.714 32.7682C231.714 32.7682 231.713 32.7682 231.713 32.7682C231.713 32.7682 231.712 32.7682 231.712 32.7682C231.712 32.7682 231.711 32.7682 231.711 32.7682C231.71 32.7682 231.71 32.7682 231.71 32.7682C231.709 32.7682 231.709 32.7682 231.709 32.7682C231.708 32.7682 231.708 32.7682 231.708 32.7682C231.707 32.7682 231.707 32.7682 231.706 32.7682C231.706 32.7682 231.706 32.7682 231.705 32.7682C231.705 32.7682 231.705 32.7682 231.704 32.7682C231.704 32.7682 231.704 32.7682 231.703 32.7682C231.703 32.7682 231.702 32.7682 231.702 32.7682C231.702 32.7682 231.701 32.7682 231.701 32.7682C231.701 32.7682 231.7 32.7682 231.7 32.7682C231.699 32.7682 231.699 32.7682 231.699 32.7682C231.698 32.7682 231.698 32.7682 231.698 32.7682C231.697 32.7682 231.697 32.7682 231.697 32.7682C231.696 32.7682 231.696 32.7682 231.695 32.7682C231.695 32.7682 231.695 32.7682 231.694 32.7682C231.694 32.7682 231.694 32.7682 231.693 32.7682C231.693 32.7682 231.692 32.7682 231.692 32.7682C231.692 32.7682 231.691 32.7682 231.691 32.7682C231.691 32.7682 231.69 32.7682 231.69 32.7682C231.69 32.7682 231.689 32.7682 231.689 32.7682C231.688 32.7682 231.688 32.7682 231.688 32.7682C231.687 32.7682 231.687 32.7682 231.687 32.7682C231.686 32.7682 231.686 32.7682 231.685 32.7682C231.685 32.7682 231.685 32.7682 231.684 32.7682C231.684 32.7682 231.684 32.7682 231.683 32.7682C231.683 32.7682 231.683 32.7682 231.682 32.7682C231.682 32.7682 231.681 32.7682 231.681 32.7682C231.681 32.7682 231.68 32.7682 231.68 32.7682C231.68 32.7682 231.679 32.7682 231.679 32.7682C231.678 32.7682 231.678 32.7682 231.678 32.7682C231.677 32.7682 231.677 32.7682 231.677 32.7682C231.676 32.7682 231.676 32.7682 231.675 32.7682C231.675 32.7682 231.675 32.7682 231.674 32.7682C231.674 32.7682 231.674 32.7682 231.673 32.7682C231.673 32.7682 231.673 32.7682 231.672 32.7682C231.672 32.7682 231.671 32.7682 231.671 32.7682C231.671 32.7682 231.67 32.7682 231.67 32.7682C231.67 32.7682 231.669 32.7682 231.669 32.7682C231.668 32.7682 231.668 32.7682 231.668 32.7682C231.667 32.7682 231.667 32.7682 231.667 32.7682C231.666 32.7682 231.666 32.7682 231.665 32.7682C231.665 32.7682 231.665 32.7682 231.664 32.7682C231.664 32.7682 231.664 32.7682 231.663 32.7682C231.663 32.7682 231.662 32.7682 231.662 32.7682C231.662 32.7682 231.661 32.7682 231.661 32.7682C231.661 32.7682 231.66 32.7682 231.66 32.7682C231.659 32.7682 231.659 32.7682 231.659 32.7682C231.658 32.7682 231.658 32.7682 231.658 32.7682C231.657 32.7682 231.657 32.7682 231.656 32.7682C231.656 32.7682 231.656 32.7682 231.655 32.7682C231.655 32.7682 231.655 32.7682 231.654 32.7682C231.654 32.7682 231.653 32.7682 231.653 32.7682C231.653 32.7682 231.652 32.7682 231.652 32.7682C231.652 32.7682 231.651 32.7682 231.651 32.7682C231.65 32.7682 231.65 32.7682 231.65 32.7682C231.649 32.7682 231.649 32.7682 231.649 32.7682C231.648 32.7682 231.648 32.7682 231.647 32.7682C231.647 32.7682 231.647 32.7682 231.646 32.7682C231.646 32.7682 231.646 32.7682 231.645 32.7682C231.645 32.7682 231.644 32.7682 231.644 32.7682C231.644 32.7682 231.643 32.7682 231.643 32.7682C231.643 32.7682 231.642 32.7682 231.642 32.7682C231.641 32.7682 231.641 32.7682 231.641 32.7682C231.64 32.7682 231.64 32.7682 231.64 32.7682C231.639 32.7682 231.639 32.7682 231.638 32.7682C231.638 32.7682 231.638 32.7682 231.637 32.7682C231.637 32.7682 231.637 32.7682 231.636 32.7682C231.636 32.7682 231.635 32.7682 231.635 32.7682C231.635 32.7682 231.634 32.7682 231.634 32.7682C231.634 32.7682 231.633 32.7682 231.633 32.7682C231.632 32.7682 231.632 32.7682 231.632 32.7682C231.631 32.7682 231.631 32.7682 231.631 32.7682C231.63 32.7682 231.63 32.7682 231.629 32.7682C231.629 32.7682 231.629 32.7682 231.628 32.7682C231.628 32.7682 231.628 32.7682 231.627 32.7682C231.627 32.7682 231.626 32.7682 231.626 32.7682C231.626 32.7682 231.625 32.7682 231.625 32.7682C231.624 32.7682 231.624 32.7682 231.624 32.7682C231.623 32.7682 231.623 32.7682 231.623 32.7682C231.622 32.7682 231.622 32.7682 231.621 32.7682C231.621 32.7682 231.621 32.7682 231.62 32.7682C231.62 32.7682 231.62 32.7682 231.619 32.7682C231.619 32.7682 231.618 32.7682 231.618 32.7682C231.618 32.7682 231.617 32.7682 231.617 32.7682C231.617 32.7682 231.616 32.7682 231.616 32.7682C231.615 32.7682 231.615 32.7682 231.615 32.7682C231.614 32.7682 231.614 32.7682 231.613 32.7682C231.613 32.7682 231.613 32.7682 231.612 32.7682C231.612 32.7682 231.612 32.7682 231.611 32.7682C231.611 32.7682 231.61 32.7682 231.61 32.7682C231.61 32.7682 231.609 32.7682 231.609 32.7682C231.609 32.7682 231.608 32.7682 231.608 32.7682C231.607 32.7682 231.607 32.7682 231.607 32.7682C231.606 32.7682 231.606 32.7682 231.606 32.7682C231.605 32.7682 231.605 32.7682 231.604 32.7682C231.604 32.7682 231.604 32.7682 231.603 32.7682C231.603 32.7682 231.602 32.7682 231.602 32.7682C231.602 32.7682 231.601 32.7682 231.601 32.7682C231.601 32.7682 231.6 32.7682 231.6 32.7682C231.599 32.7682 231.599 32.7682 231.599 32.7682C231.598 32.7682 231.598 32.7682 231.597 32.7682C231.597 32.7682 231.597 32.7682 231.596 32.7682C231.596 32.7682 231.596 32.7682 231.595 32.7682C231.595 32.7682 231.594 32.7682 231.594 32.7682C231.594 32.7682 231.593 32.7682 231.593 32.7682C231.593 32.7682 231.592 32.7682 231.592 32.7682C231.591 32.7682 231.591 32.7682 231.591 32.7682C231.59 32.7682 231.59 32.7682 231.589 32.7682C231.589 32.7682 231.589 32.7682 231.588 32.7682C231.588 32.7682 231.588 32.7682 231.587 32.7682C231.587 32.7682 231.586 32.7682 231.586 32.7682C231.586 32.7682 231.585 32.7682 231.585 32.7682C231.584 32.7682 231.584 32.7682 231.584 32.7682C231.583 32.7682 231.583 32.7682 231.583 32.7682C231.582 32.7682 231.582 32.7682 231.581 32.7682C231.581 32.7682 231.581 32.7682 231.58 32.7682C231.58 32.7682 231.579 32.7682 231.579 32.7682C231.579 32.7682 231.578 32.7682 231.578 32.7682C231.578 32.7682 231.577 32.7682 231.577 32.7682C231.576 32.7682 231.576 32.7682 231.576 32.7682C231.575 32.7682 231.575 32.7682 231.574 32.7682C231.574 32.7682 231.574 32.7682 231.573 32.7682C231.573 32.7682 231.573 32.7682 231.572 32.7682C231.572 32.7682 231.571 32.7682 231.571 32.7682C231.571 32.7682 231.57 32.7682 231.57 32.7682C231.569 32.7682 231.569 32.7682 231.569 32.7682C231.568 32.7682 231.568 32.7682 231.568 32.7682C231.567 32.7682 231.567 32.7682 231.566 32.7682C231.566 32.7682 231.566 32.7682 231.565 32.7682C231.565 32.7682 231.564 32.7682 231.564 32.7682C231.564 32.7682 231.563 32.7682 231.563 32.7682C231.562 32.7682 231.562 32.7682 231.562 32.7682C231.561 32.7682 231.561 32.7682 231.561 32.7682C231.56 32.7682 231.56 32.7682 231.559 32.7682C231.559 32.7682 231.559 32.7682 231.558 32.7682C231.558 32.7682 231.557 32.7682 231.557 32.7682C231.557 32.7682 231.556 32.7682 231.556 32.7682C231.555 32.7682 231.555 32.7682 231.555 32.7682C231.554 32.7682 231.554 32.7682 231.554 32.7682C231.553 32.7682 231.553 32.7682 231.552 32.7682C231.552 32.7682 231.552 32.7682 231.551 32.7682C231.551 32.7682 231.55 32.7682 231.55 32.7682C231.55 32.7682 231.549 32.7682 231.549 32.7682C231.548 32.7682 231.548 32.7682 231.548 32.7682C231.547 32.7682 231.547 32.7682 231.547 32.7682C231.546 32.7682 231.546 32.7682 231.545 32.7682C231.545 32.7682 231.545 32.7682 231.544 32.7682C231.544 32.7682 231.543 32.7682 231.543 32.7682C231.543 32.7682 231.542 32.7682 231.542 32.7682C231.541 32.7682 231.541 32.7682 231.541 32.7682C231.54 32.7682 231.54 32.7682 231.54 32.7682C231.539 32.7682 231.539 32.7682 231.538 32.7682C231.538 32.7682 231.538 32.7682 231.537 32.7682C231.537 32.7682 231.536 32.7682 231.536 32.7682C231.536 32.7682 231.535 32.7682 231.535 32.7682C231.534 32.7682 231.534 32.7682 231.534 32.7682C231.533 32.7682 231.533 32.7682 231.533 32.7682C231.532 32.7682 231.532 32.7682 231.531 32.7682C231.531 32.7682 231.531 32.7682 231.53 32.7682C231.53 32.7682 231.529 32.7682 231.529 32.7682C231.529 32.7682 231.528 32.7682 231.528 32.7682C231.527 32.7682 231.527 32.7682 231.527 32.7682C231.526 32.7682 231.526 32.7682 231.525 32.7682C231.525 32.7682 231.525 32.7682 231.524 32.7682C231.524 32.7682 231.523 32.7682 231.523 32.7682C231.523 32.7682 231.522 32.7682 231.522 32.7682C231.522 32.7682 231.521 32.7682 231.521 32.7682C231.52 32.7682 231.52 32.7682 231.52 32.7682C231.519 32.7682 231.519 32.7682 231.518 32.7682C231.518 32.7682 231.518 32.7682 231.517 32.7682C231.517 32.7682 231.516 32.7682 231.516 32.7682C231.516 32.7682 231.515 32.7682 231.515 32.7682C231.514 32.7682 231.514 32.7682 231.514 32.7682C231.513 32.7682 231.513 32.7682 231.512 32.7682C231.512 32.7682 231.512 32.7682 231.511 32.7682C231.511 32.7682 231.51 32.7682 231.51 32.7682C231.51 32.7682 231.509 32.7682 231.509 32.7682C231.509 32.7682 231.508 32.7682 231.508 32.7682C231.507 32.7682 231.507 32.7682 231.507 32.7682C231.506 32.7682 231.506 32.7682 231.505 32.7682C231.505 32.7682 231.505 32.7682 231.504 32.7682C231.504 32.7682 231.503 32.7682 231.503 32.7682C231.503 32.7682 231.502 32.7682 231.502 32.7682C231.501 32.7682 231.501 32.7682 231.501 32.7682C231.5 32.7682 231.5 32.7682 231.499 32.7682C231.499 32.7682 231.499 32.7682 231.498 32.7682C231.498 32.7682 231.497 32.7682 231.497 32.7682C231.497 32.7682 231.496 32.7682 231.496 32.7682C231.495 32.7682 231.495 32.7682 231.495 32.7682C231.494 32.7682 231.494 32.7682 231.493 32.7682C231.493 32.7682 231.493 32.7682 231.492 32.7682C231.492 32.7682 231.491 32.7682 231.491 32.7682C231.491 32.7682 231.49 32.7682 231.49 32.7682C231.49 32.7682 231.489 32.7682 231.489 32.7682C231.488 32.7682 231.488 32.7682 231.488 32.7682C231.487 32.7682 231.487 32.7682 231.486 32.7682C231.486 32.7682 231.486 32.7682 231.485 32.7682C231.485 32.7682 231.484 32.7682 231.484 32.7682C231.484 32.7682 231.483 32.7682 231.483 32.7682C231.482 32.7682 231.482 32.7682 231.482 32.7682C231.481 32.7682 231.481 32.7682 231.48 32.7682C231.48 32.7682 231.48 32.7682 231.479 32.7682C231.479 32.7682 231.478 32.7682 231.478 32.7682C231.478 32.7682 231.477 32.7682 231.477 32.7682C231.476 32.7682 231.476 32.7682 231.476 32.7682C231.475 32.7682 231.475 32.7682 231.474 32.7682C231.474 32.7682 231.474 32.7682 231.473 32.7682C231.473 32.7682 231.472 32.7682 231.472 32.7682C231.472 32.7682 231.471 32.7682 231.471 32.7682C231.47 32.7682 231.47 32.7682 231.47 32.7682C231.469 32.7682 231.469 32.7682 231.468 32.7682C231.468 32.7682 231.468 32.7682 231.467 32.7682C231.467 32.7682 231.466 32.7682 231.466 32.7682C231.466 32.7682 231.465 32.7682 231.465 32.7682C231.464 32.7682 231.464 32.7682 231.464 32.7682C231.463 32.7682 231.463 32.7682 231.462 32.7682C231.462 32.7682 231.462 32.7682 231.461 32.7682C231.461 32.7682 231.46 32.7682 231.46 32.7682C231.46 32.7682 231.459 32.7682 231.459 32.7682C231.458 32.7682 231.458 32.7682 231.458 32.7682C231.457 32.7682 231.457 32.7682 231.456 32.7682C231.456 32.7682 231.456 32.7682 231.455 32.7682C231.455 32.7682 231.454 32.7682 231.454 32.7682C231.454 32.7682 231.453 32.7682 231.453 32.7682C231.452 32.7682 231.452 32.7682 231.452 32.7682C231.451 32.7682 231.451 32.7682 231.45 32.7682C231.45 32.7682 231.449 32.7682 231.449 32.7682C231.449 32.7682 231.448 32.7682 231.448 32.7682C231.447 32.7682 231.447 32.7682 231.447 32.7682C231.446 32.7682 231.446 32.7682 231.445 32.7682C231.445 32.7682 231.445 32.7682 231.444 32.7682C231.444 32.7682 231.443 32.7682 231.443 32.7682C231.443 32.7682 231.442 32.7682 231.442 32.7682C231.441 32.7682 231.441 32.7682 231.441 32.7682C231.44 32.7682 231.44 32.7682 231.439 32.7682C231.439 32.7682 231.439 32.7682 231.438 32.7682C231.438 32.7682 231.437 32.7682 231.437 32.7682C231.437 32.7682 231.436 32.7682 231.436 32.7682C231.435 32.7682 231.435 32.7682 231.435 32.7682C231.434 32.7682 231.434 32.7682 231.433 32.7682C231.433 32.7682 231.433 32.7682 231.432 32.7682C231.432 32.7682 231.431 32.7682 231.431 32.7682C231.431 32.7682 231.43 32.7682 231.43 32.7682C231.429 32.7682 231.429 32.7682 231.428 32.7682C231.428 32.7682 231.428 32.7682 231.427 32.7682C231.427 32.7682 231.426 32.7682 231.426 32.7682C231.426 32.7682 231.425 32.7682 231.425 32.7682C231.424 32.7682 231.424 32.7682 231.424 32.7682C231.423 32.7682 231.423 32.7682 231.422 32.7682C231.422 32.7682 231.422 32.7682 231.421 32.7682C231.421 32.7682 231.42 32.7682 231.42 32.7682C231.42 32.7682 231.419 32.7682 231.419 32.7682C231.418 32.7682 231.418 32.7682 231.418 32.7682C231.417 32.7682 231.417 32.7682 231.416 32.7682C231.416 32.7682 231.415 32.7682 231.415 32.7682C231.415 32.7682 231.414 32.7682 231.414 32.7682C231.413 32.7682 231.413 32.7682 231.413 32.7682C231.412 32.7682 231.412 32.7682 231.411 32.7682C231.411 32.7682 231.411 32.7682 231.41 32.7682C231.41 32.7682 231.409 32.7682 231.409 32.7682C231.409 32.7682 231.408 32.7682 231.408 32.7682C231.407 32.7682 231.407 32.7682 231.406 32.7682C231.406 32.7682 231.406 32.7682 231.405 32.7682C231.405 32.7682 231.404 32.7682 231.404 32.7682C231.404 32.7682 231.403 32.7682 231.403 32.7682C231.402 32.7682 231.402 32.7682 231.402 32.7682C231.401 32.7682 231.401 32.7682 231.4 32.7682C231.4 32.7682 231.4 32.7682 231.399 32.7682C231.399 32.7682 231.398 32.7682 231.398 32.7682C231.398 32.7682 231.397 32.7682 231.397 32.7682C231.396 32.7682 231.396 32.7682 231.395 32.7682C231.395 32.7682 231.395 32.7682 231.394 32.7682C231.394 32.7682 231.393 32.7682 231.393 32.7682C231.393 32.7682 231.392 32.7682 231.392 32.7682C231.391 32.7682 231.391 32.7682 231.391 32.7682C231.39 32.7682 231.39 32.7682 231.389 32.7682C231.389 32.7682 231.388 32.7682 231.388 32.7682C231.388 32.7682 231.387 32.7682 231.387 32.7682C231.386 32.7682 231.386 32.7682 231.386 32.7682C231.385 32.7682 231.385 32.7682 231.384 32.7682C231.384 32.7682 231.384 32.7682 231.383 32.7682C231.383 32.7682 231.382 32.7682 231.382 32.7682C231.381 32.7682 231.381 32.7682 231.381 32.7682C231.38 32.7682 231.38 32.7682 231.379 32.7682C231.379 32.7682 231.379 32.7682 231.378 32.7682C231.378 32.7682 231.377 32.7682 231.377 32.7682C231.377 32.7682 231.376 32.7682 231.376 32.7682C231.375 32.7682 231.375 32.7682 231.374 32.7682C231.374 32.7682 231.374 32.7682 231.373 32.7682C231.373 32.7682 231.372 32.7682 231.372 32.7682C231.372 32.7682 231.371 32.7682 231.371 32.7682C231.37 32.7682 231.37 32.7682 231.37 32.7682C231.369 32.7682 231.369 32.7682 231.368 32.7682C231.368 32.7682 231.367 32.7682 231.367 32.7682C231.367 32.7682 231.366 32.7682 231.366 32.7682C231.365 32.7682 231.365 32.7682 231.365 32.7682C231.364 32.7682 231.364 32.7682 231.363 32.7682C231.363 32.7682 231.362 32.7682 231.362 32.7682C231.362 32.7682 231.361 32.7682 231.361 32.7682C231.36 32.7682 231.36 32.7682 231.36 32.7682C231.359 32.7682 231.359 32.7682 231.358 32.7682C231.358 32.7682 231.357 32.7682 231.357 32.7682C231.357 32.7682 231.356 32.7682 231.356 32.7682C231.355 32.7682 231.355 32.7682 231.355 32.7682C231.354 32.7682 231.354 32.7682 231.353 32.7682C231.353 32.7682 231.353 32.7682 231.352 32.7682C231.352 32.7682 231.351 32.7682 231.351 32.7682C231.35 32.7682 231.35 32.7682 231.35 32.7682C231.349 32.7682 231.349 32.7682 231.348 32.7682C231.348 32.7682 231.348 32.7682 231.347 32.7682C231.347 32.7682 231.346 32.7682 231.346 32.7682C231.345 32.7682 231.345 32.7682 231.345 32.7682V37.7682ZM231.921 37.7682V42.7682C232.62 42.7682 234.101 42.7133 235.517 41.8637L232.945 37.5762L230.372 33.2887C230.932 32.9527 231.408 32.8431 231.607 32.8058C231.825 32.765 231.946 32.7682 231.921 32.7682V37.7682ZM232.945 37.5762L235.181 42.0483C237.895 40.6913 238.329 38.0245 238.329 36.7442H233.329H228.329C228.329 36.5026 228.358 35.9017 228.693 35.1769C229.07 34.359 229.75 33.5832 230.709 33.1041L232.945 37.5762ZM233.329 36.7442H238.329C238.329 35.7584 238.099 34.4688 237.237 33.262C236.358 32.0306 235.167 31.3716 234.125 31.0591L232.689 35.8482L231.252 40.6373C230.637 40.4528 229.766 40.0071 229.1 39.0744C228.451 38.1662 228.329 37.2607 228.329 36.7442H233.329ZM232.689 35.8482L234.27 31.1048C233.449 30.8314 232.468 30.6536 231.574 30.5195L230.833 35.4642L230.091 40.4089C230.457 40.4638 230.73 40.5124 230.924 40.5525C231.134 40.5961 231.174 40.614 231.107 40.5916L232.689 35.8482ZM230.833 35.4642L231.385 30.4948C229.232 30.2556 227.077 29.9165 224.919 29.4768L223.921 34.3762L222.923 39.2756C225.372 39.7745 227.825 40.1608 230.28 40.4336L230.833 35.4642ZM223.921 34.3762L224.937 29.4805C223.088 29.0968 221.461 28.5178 220.029 27.7691L217.713 32.2002L215.396 36.6313C217.719 37.8452 220.231 38.717 222.905 39.2719L223.921 34.3762ZM217.713 32.2002L220.029 27.7691C218.895 27.1765 218.024 26.386 217.344 25.3542L213.169 28.1042L208.993 30.8541C210.617 33.3211 212.775 35.2613 215.396 36.6313L217.713 32.2002ZM213.169 28.1042L217.391 25.4265C216.941 24.7173 216.505 23.4541 216.505 21.2562H211.505H206.505C206.505 24.6903 207.177 27.9924 208.946 30.7819L213.169 28.1042ZM211.505 21.2562H216.505C216.505 18.0008 217.263 16.0466 218.225 14.8437L214.321 11.7202L210.416 8.59672C207.624 12.0871 206.505 16.4903 206.505 21.2562H211.505ZM214.321 11.7202L218.218 14.8521C219.453 13.3153 221.162 12.1286 223.57 11.3681L222.065 6.6002L220.559 1.83228C216.482 3.11975 213.028 5.34639 210.423 8.58824L214.321 11.7202ZM222.065 6.6002L223.627 11.3498C226.286 10.4751 229.374 10.0002 232.945 10.0002V5.0002V0.000198364C228.494 0.000198364 224.328 0.591953 220.502 1.85057L222.065 6.6002ZM232.945 5.0002V10.0002C235.999 10.0002 239.231 10.2902 242.645 10.8858L243.505 5.9602L244.364 1.03456C240.44 0.350166 236.631 0.000198364 232.945 0.000198364V5.0002ZM243.505 5.9602L242.701 10.8952C246.159 11.4581 249.578 12.2423 252.958 13.2485L254.385 8.4562L255.811 3.66394C252.024 2.5368 248.189 1.65696 244.308 1.02516L243.505 5.9602ZM254.385 8.4562L249.409 7.96516L247.489 27.4212L252.465 27.9122L257.44 28.4032L259.36 8.94723L254.385 8.4562Z" fill="#051231" mask="url(#path-1-outside-1_51_233)"/>
</svg>
