<svg width="562" height="124" viewBox="0 0 562 124" fill="none" xmlns="http://www.w3.org/2000/svg">
<rect x="122.5" y="2.5" width="317" height="119" rx="22.5" fill="#F45206" stroke="#051231" stroke-width="5"/>
<path d="M209.281 81H203.469C203.328 81 203.25 80.9219 203.234 80.7656L197.562 47.7891C197.531 47.6641 197.578 47.6016 197.703 47.6016H203.094C203.219 47.6016 203.297 47.6641 203.328 47.7891L206.398 69.4688L209.562 47.7891C209.594 47.6641 209.688 47.6016 209.844 47.6016H214.18C214.305 47.6016 214.383 47.6641 214.414 47.7891L217.531 69.4688L220.648 47.7891C220.68 47.6641 220.758 47.6016 220.883 47.6016H226.227C226.383 47.6016 226.445 47.6641 226.414 47.7891L220.695 80.7656C220.68 80.8281 220.633 80.8828 220.555 80.9297L220.461 81H214.648C214.555 81 214.477 80.9219 214.414 80.7656L211.953 63.5391L209.516 80.7656C209.5 80.9219 209.422 81 209.281 81ZM234.852 81H229.414C229.289 81 229.227 80.9219 229.227 80.7656L229.32 47.7891C229.32 47.6641 229.383 47.6016 229.508 47.6016H239.211C240.945 47.6016 242.539 48.0234 243.992 48.8672C245.445 49.7109 246.602 50.8438 247.461 52.2656C248.336 53.6875 248.773 55.2969 248.773 57.0938C248.773 58.2656 248.594 59.3281 248.234 60.2812C247.875 61.2344 247.453 62.0391 246.969 62.6953C246.5 63.3516 246.07 63.8359 245.68 64.1484C247.414 66.0703 248.281 68.3281 248.281 70.9219L248.328 80.7656C248.328 80.9219 248.25 81 248.094 81H242.656C242.531 81 242.469 80.9531 242.469 80.8594V70.9219C242.469 69.7656 242.062 68.7656 241.25 67.9219C240.438 67.0781 239.438 66.6562 238.25 66.6562H235.086L235.039 80.7656C235.039 80.9219 234.977 81 234.852 81ZM239.211 53.3438H235.086V60.8906H239.211C240.195 60.8906 241.07 60.5234 241.836 59.7891C242.617 59.0547 243.008 58.1562 243.008 57.0938C243.008 56.0781 242.633 55.2031 241.883 54.4688C241.133 53.7188 240.242 53.3438 239.211 53.3438ZM258.055 81H252.617C252.461 81 252.383 80.9219 252.383 80.7656L252.43 47.7891C252.43 47.6641 252.492 47.6016 252.617 47.6016H258.008C258.133 47.6016 258.195 47.6641 258.195 47.7891L258.242 80.7656C258.242 80.9219 258.18 81 258.055 81ZM272.703 81H267.289C267.148 81 267.078 80.9219 267.078 80.7656V53.3906H260.844C260.688 53.3906 260.609 53.3125 260.609 53.1562L260.656 47.7891C260.656 47.6641 260.719 47.6016 260.844 47.6016H279.078C279.25 47.6016 279.336 47.6641 279.336 47.7891V53.1562C279.336 53.3125 279.273 53.3906 279.148 53.3906H272.844L272.891 80.7656C272.891 80.9219 272.828 81 272.703 81ZM297.383 81H281.867C281.742 81 281.68 80.9219 281.68 80.7656L281.727 47.7891C281.727 47.6641 281.789 47.6016 281.914 47.6016H297.336C297.461 47.6016 297.523 47.6797 297.523 47.8359V53.2031C297.523 53.3281 297.461 53.3906 297.336 53.3906H287.492V60.8906H297.336C297.461 60.8906 297.523 60.9531 297.523 61.0781L297.57 66.5156C297.57 66.6406 297.508 66.7031 297.383 66.7031H287.492V75.0938H297.383C297.508 75.0938 297.57 75.1719 297.57 75.3281V80.8125C297.57 80.9375 297.508 81 297.383 81ZM310.672 81.4688C308.984 81.4688 307.422 81.0312 305.984 80.1562C304.547 79.2812 303.398 78.1094 302.539 76.6406C301.695 75.1562 301.273 73.5391 301.273 71.7891L301.367 47.7891C301.367 47.6641 301.43 47.6016 301.555 47.6016H306.945C307.07 47.6016 307.133 47.6641 307.133 47.7891V71.7891C307.133 72.8672 307.477 73.7891 308.164 74.5547C308.852 75.3047 309.688 75.6797 310.672 75.6797C311.703 75.6797 312.562 75.3047 313.25 74.5547C313.938 73.7891 314.281 72.8672 314.281 71.7891V47.7891C314.281 47.6641 314.344 47.6016 314.469 47.6016H319.859C319.984 47.6016 320.047 47.6641 320.047 47.7891L320.141 71.7891C320.141 73.5547 319.719 75.1797 318.875 76.6641C318.016 78.1328 316.875 79.3047 315.453 80.1797C314.031 81.0391 312.438 81.4688 310.672 81.4688ZM329.539 81H324.148C323.992 81 323.914 80.9219 323.914 80.7656L324.008 47.7891C324.008 47.6641 324.07 47.6016 324.195 47.6016H333.43C336.367 47.6016 338.688 48.5 340.391 50.2969C342.109 52.0781 342.969 54.5078 342.969 57.5859C342.969 59.8359 342.523 61.7969 341.633 63.4688C340.727 65.125 339.555 66.4062 338.117 67.3125C336.68 68.2188 335.117 68.6719 333.43 68.6719H329.773V80.7656C329.773 80.9219 329.695 81 329.539 81ZM333.43 53.2969L329.773 53.3438V62.8594H333.43C334.445 62.8594 335.328 62.375 336.078 61.4062C336.828 60.4219 337.203 59.1484 337.203 57.5859C337.203 56.3359 336.867 55.3125 336.195 54.5156C335.523 53.7031 334.602 53.2969 333.43 53.2969ZM354.008 81.4688C352.305 81.4688 350.734 81.0312 349.297 80.1562C347.875 79.2812 346.734 78.1172 345.875 76.6641C345.031 75.1953 344.609 73.5859 344.609 71.8359V69.6328C344.609 69.4609 344.688 69.375 344.844 69.375H350.234C350.359 69.375 350.422 69.4609 350.422 69.6328V71.8359C350.422 72.8828 350.773 73.7891 351.477 74.5547C352.18 75.3047 353.023 75.6797 354.008 75.6797C355.008 75.6797 355.859 75.2969 356.562 74.5312C357.266 73.75 357.617 72.8516 357.617 71.8359C357.617 70.6641 356.852 69.6406 355.32 68.7656C355.07 68.6094 354.742 68.4219 354.336 68.2031C353.945 67.9688 353.477 67.7031 352.93 67.4062C352.383 67.1094 351.852 66.8203 351.336 66.5391C350.82 66.2422 350.32 65.9609 349.836 65.6953C348.086 64.6641 346.781 63.375 345.922 61.8281C345.078 60.2656 344.656 58.5156 344.656 56.5781C344.656 54.7969 345.094 53.1875 345.969 51.75C346.844 50.3281 347.984 49.2031 349.391 48.375C350.812 47.5312 352.352 47.1094 354.008 47.1094C355.711 47.1094 357.273 47.5312 358.695 48.375C360.117 49.2344 361.25 50.375 362.094 51.7969C362.953 53.2188 363.383 54.8125 363.383 56.5781V60.5156C363.383 60.6406 363.32 60.7031 363.195 60.7031H357.805C357.68 60.7031 357.617 60.6406 357.617 60.5156L357.57 56.5781C357.57 55.4531 357.219 54.5391 356.516 53.8359C355.812 53.1328 354.977 52.7812 354.008 52.7812C353.023 52.7812 352.18 53.1562 351.477 53.9062C350.773 54.6562 350.422 55.5469 350.422 56.5781C350.422 57.625 350.641 58.5 351.078 59.2031C351.531 59.9062 352.352 60.5781 353.539 61.2188C353.664 61.2812 353.953 61.4375 354.406 61.6875C354.859 61.9375 355.359 62.2188 355.906 62.5312C356.469 62.8281 356.977 63.1016 357.43 63.3516C357.883 63.5859 358.156 63.7266 358.25 63.7734C359.844 64.6641 361.102 65.7578 362.023 67.0547C362.961 68.3516 363.43 69.9453 363.43 71.8359C363.43 73.6641 363.008 75.3047 362.164 76.7578C361.305 78.2109 360.164 79.3594 358.742 80.2031C357.32 81.0469 355.742 81.4688 354.008 81.4688Z" fill="white"/>
</svg>
