<?xml version="1.0" standalone="no"?>
<!DOCTYPE svg PUBLIC "-//W3C//DTD SVG 1.1//EN" "http://www.w3.org/Graphics/SVG/1.1/DTD/svg11.dtd" >
<svg xmlns="http://www.w3.org/2000/svg" xmlns:xlink="http://www.w3.org/1999/xlink" version="1.1">
<metadata>
Created by FontForge 20230101 at Sat May 28 09:11:51 2016
 By Unknown
2010 Neville Brody published by FSI FontShop International GmbH
</metadata>
<defs>
<font id="HarlemSlangOTW03-Bold" horiz-adv-x="300" >
  <font-face 
    font-family="HarlemSlangOTW03-Bold"
    font-weight="700"
    font-stretch="normal"
    units-per-em="1000"
    panose-1="4 1 8 5 4 1 1 1 1 1"
    ascent="800"
    descent="-200"
    x-height="572"
    cap-height="716"
    bbox="-98 -199 1052 935.75"
    underline-thickness="50"
    underline-position="-125"
    unicode-range="U+000D-FB02"
  />
<missing-glyph horiz-adv-x="303" 
d="M8 0v723h287v-723h-287zM118 110h67v503h-67v-503z" />
    <glyph glyph-name="f_i.liga" unicode="fi" horiz-adv-x="400" 
d="M386 10q-4 -11 -19 -11l-40 3q-8 0 -21 -5.5t-18 -5.5l-10 2h-3q-9 22 -9 67q0 46 9 103v14l-4 147q4 25 4 57q0 26 -4.5 50.5t-12.5 37.5l-10 7q-37 -6 -54 -14q3 -10 3 -19q0 -6 -3 -24.5t-4 -33.5l1 -43v-8l-1 -25q0 -17 3.5 -53.5t3.5 -53.5l-4 -62l2 -70
q0 -59 -24 -65q-56 -15 -92 -15q-27 0 -36 10l-1 20l-1 54l5 189q0 46 -3 94v9q0 77 -7 103q-2 7 -16.5 16.5t-16.5 17.5q-3 6 -8 50q2 11 18 19.5t20 14.5q1 2 3.5 8t4 26t2.5 27q7 37 33.5 58t66.5 21l17 -1q71 -11 83 -16t12 -28v-4q-2 -14 -22 -24.5t-23.5 -18
t-3.5 -13.5q0 -13 9 -40.5t9 -28.5q21 -5 53 -5h50q56 0 56 -69l-4 -66l3 -81l-3 -99l6 -101l-2 -27q5 -39 5 -68q0 -20 -2 -27zM369 688q3 -12 3 -27q0 -22 -11 -38.5t-49 -22.5h-6h-3t-7.5 0.5t-11.5 3t-9.5 7.5t-5 11.5t-1.5 13.5v16.5v12.5q0 29 6.5 42t26.5 13
q33 0 42.5 -2t15.5 -9.5t10 -20.5z" />
    <glyph glyph-name="f_l.liga" unicode="fl" horiz-adv-x="427" 
d="M410 516l-3 -280q4 -15 4 -42q0 -21 -3.5 -66.5t-3.5 -57.5v-9l2 -27l-2 -37q-4 -3 -12.5 -7.5t-23.5 -4.5q-17 0 -46 6t-37 6h-4l-11 3h-2q-7 29 -7 64q0 14 3 39t3 76l-2 75q0 28 3.5 102.5t3.5 104.5q0 59 -37 59q-13 0 -25.5 -9.5t-19.5 -31.5t-7 -46l4 -84
q0 -28 -2 -60.5t-2 -41.5q0 -55 8 -145l-1 -28l1 -64q-14 -6 -47.5 -13.5t-52.5 -7.5q-20 0 -46 11l1 2l-6 21v4q2 10 2 34l-3 49l5 73q0 132 -2 180t-7 76.5t-12 38.5q-3 6 -17.5 17.5t-14.5 29.5q0 17 9.5 31.5t35.5 30.5q-2 11 -2 32q0 19 8.5 43.5t31 43t50.5 18.5
q14 0 39.5 -5t37.5 -5h3q5 1 31 7.5t37 6.5h15q59 0 91.5 -11.5t32.5 -59.5l-3 -51l3 -37l-1 -43v-10zM259 644q0 1 -3.5 2.5t-4.5 3.5h-23q-4 -6 -9 -18t-5 -22q0 -8 4.5 -14.5t14.5 -6.5l13 1h3q0 1 5.5 18t5.5 26z" />
    <glyph glyph-name=".notdef" horiz-adv-x="303" 
d="M8 0v723h287v-723h-287zM118 110h67v503h-67v-503z" />
    <glyph glyph-name="glyph1" horiz-adv-x="0" 
 />
    <glyph glyph-name="uni000D" unicode="&#xd;" horiz-adv-x="100" 
 />
    <glyph glyph-name="space" unicode=" " horiz-adv-x="100" 
 />
    <glyph glyph-name="exclam" unicode="!" horiz-adv-x="144" 
d="M134 579l-7 -81q3 -21 3 -52v-15l-2 -64l4 -81q0 -26 -3 -55.5t-9 -38.5q-3 -5 -37.5 -14.5t-47.5 -9.5h-2q-16 3 -16 27v10q0 11 -3.5 36t-3.5 38l3 89l-2 39q0 17 1.5 47t4.5 64.5t3 38.5q0 25 -3.5 52t-3.5 36q0 42 6 52q8 17 68 20h5q13 0 23.5 -15t15 -44.5
t4.5 -59.5zM113 3q-3 -1 -16 -5.5t-20.5 -6t-11.5 -1.5h-2q-8 0 -17.5 12t-17 41t-7.5 60q0 7 2 14.5t8 14.5t16.5 10.5t21 4t19.5 0t12 -0.5q11 0 18 -9t7 -40q0 -9 -2.5 -38.5t-9.5 -55.5z" />
    <glyph glyph-name="quotedbl" unicode="&#x22;" horiz-adv-x="264" 
d="M253 563l2 -73q0 -11 -1.5 -26t-12.5 -43q-33 0 -51.5 3t-36.5 10v51q-1 2 -2 13.5t-8 12.5q0 -5 -5 -16.5t-6 -15.5q-1 -6 -4.5 -31.5t-11.5 -36.5t-23 -11q-1 0 -11.5 2.5t-20.5 2.5h-18q-18 0 -26.5 10t-8.5 67l4 147l-5 59q0 30 28 30q16 0 52 -4t43 -7l9 -10
q24 17 41 17q12 0 35 -3t29 -7q4 -4 6.5 -33t2.5 -77v-31zM160 632q0 4 -8 21t-9 24l1 -28q0 -12 -8 -25t-8 -24q0 -25 8 -41l10 40q1 2 7.5 12.5t6.5 18.5v2z" />
    <glyph glyph-name="numbersign" unicode="#" horiz-adv-x="491" 
d="M493 442q-5 -3 -13 -6t-24 -5.5t-21 -4t-8.5 -3t-6.5 -5.5t-4 -10v-74q0 -7 6.5 -12.5t25.5 -9.5t24 -6q-2 -21 -9 -47.5t-17 -32.5q-8 -5 -18.5 -7.5t-15 -3.5t-8 -3.5t-7 -7t-6.5 -12.5v-2l1 -11l-2 -24l1 -54q0 -47 -13 -77q-19 -35 -130 -35q-22 0 -31 4l-11 11
q1 14 7 55t7 62v8q0 3 0.5 13t0 17t-2 14.5t-6.5 14.5t-15 11t-25 4q-2 0 -6.5 -0.5t-10.5 -6t-9 -7.5q3 -19 3 -45q0 -29 -7 -59t-7 -40q0 -17 5 -49q-19 -12 -37 -12q-17 0 -44 12l3 60v25q0 48 6 74l2 14q0 22 -25.5 25t-29.5 4l-17 11v27l-2 27h-1l9 33q8 5 24 5
q12 0 28 -3.5t26 -3.5q8 0 16 5.5t11 6.5v14l2 14l-6 45v10q0 6 -2.5 11t-9 8t-36.5 5t-30 24l1 15v3l-2 31q0 20 5.5 25.5t25.5 9t35 11.5q2 1 8.5 4.5t8.5 5.5q5 10 10.5 25.5t11.5 50t9 46.5v2q0 5 9.5 10.5t28.5 5.5l25 -1h44q5 -7 9 -15.5t4 -25.5q0 -21 -7.5 -58.5
t-7.5 -45.5q0 -9 5 -17h20q2 0 19 3t25 10q8 8 16 41.5t8 62.5v41q0 27 5 34.5t12.5 8.5t20 1h16.5h19.5t22.5 -1t12.5 -6t6 -13.5t1.5 -21.5q0 -34 -8 -63t-8 -48q0 -17 4 -26t16 -11t17.5 -5t8.5 -9.5t6 -19t3 -38.5v-17zM321 442q-16 6 -22 6h-4q-27 -2 -42 -27t-15 -74
q0 -38 41 -38q18 0 30 43.5t12 83.5v6z" />
    <glyph glyph-name="dollar" unicode="$" horiz-adv-x="387" 
d="M380 545q-5 -23 -25 -35t-79 -12q-28 0 -67.5 5t-41.5 5l-6 40q-3 65 -11 94q0 4 -3.5 8t-20.5 4l-16 -1l-4 -11h-3q2 -10 1.5 -28t1.5 -29v-17q0 -26 4.5 -43t14 -27t37 -19.5t39.5 -17.5q57 -36 74 -51q6 -5 27 -21t31.5 -26.5t20.5 -24.5t16.5 -37t6.5 -54l-4 -103
q-1 -39 -27.5 -72t-60.5 -46l-43 -10q0 -2 -0.5 -5.5t-0.5 -39t-23 -35.5q-20 0 -57.5 8.5t-40.5 14.5q-3 5 -3 14l2 26q0 14 -36.5 34.5t-40.5 23.5q-8 6 -17.5 24.5t-15.5 50t-6 57.5q0 28 4 47t9 19h2q9 0 36 -8.5t29 -11.5q2 -4 2 -15l-5 -52v-3q0 -13 3 -33.5t11 -38.5
t17 -18h5l7 -1q8 6 13.5 35t5.5 64q0 9 -4 38.5t-15 53.5q-4 8 -12.5 15t-28.5 16.5t-26 13.5q-1 1 -4 2.5t-19.5 11.5t-23.5 38t-7 90q0 46 3.5 86.5t10.5 56.5q17 38 37 61t34 23h3l13 1q2 0 21 3t35 8t16 13l-2 12q0 12 15.5 20.5t39.5 8.5q19 0 27.5 -7t10 -28t9.5 -27
q5 -4 18.5 -5.5t18.5 -4.5q10 -5 37 -33t31 -38q3 -10 3 -25q0 -18 -3 -32z" />
    <glyph glyph-name="percent" unicode="%" horiz-adv-x="601" 
d="M272 556l-1 -24l2 -66q0 -38 -8 -62q-2 -6 -37.5 -37.5t-43.5 -33.5q-24 -6 -42 -6q-4 0 -14.5 1t-18 3t-43.5 16q-24 9 -38.5 40.5t-14.5 98.5v32q1 67 4 87t12 42q5 9 13.5 31.5t24 34t59.5 11.5q40 0 78 -17q11 -5 34 -32t27 -38q3 -9 5.5 -29t2.5 -36zM589 243
q11 -38 11 -78q0 -38 -8 -74.5t-19 -56.5t-26 -31t-33 -11l-23 1l-24 -1q-29 0 -59 14t-44.5 34t-17.5 37q-16 85 -16 105q0 58 50 94q6 4 24 23t51 19q29 0 76 -19q23 -7 37 -15.5t21 -40.5zM457 704q-2 -16 -7 -43t-6 -31q-5 -39 -42 -111t-49 -125q-2 -8 -5.5 -34
t-8.5 -38q-25 -59 -38 -115q-3 -16 -14.5 -48.5t-14.5 -47.5l-24 -64q-2 -6 -7 -26.5t-15.5 -29t-30.5 -8.5q-45 0 -45 33l7 14q4 15 13 40t14 41q29 104 91 283q1 2 8 20.5t9 30.5q4 11 21 43.5t18 46.5q4 27 20.5 56.5t21.5 47.5q2 8 4 40.5t26 34.5h7q15 0 47 -10z
M471 67q0 22 -8 85v10l4 87q0 29 -6 37q-2 3 -9 4.5t-8 2.5q-10 -23 -17 -55t-7 -56q0 -25 5 -60t12 -59q6 -3 7 -6h13zM212 542v6q0 13 -4 31l-20 7q-20 -21 -21 -27q-4 -20 -4 -49l2 -62l-1 -14v-5q0 -28 10 -49q3 2 11.5 3t11.5 4q11 10 11 50l-4 82v7z" />
    <glyph glyph-name="ampersand" unicode="&#x26;" horiz-adv-x="426" 
d="M427 -5q0 -5 -17 -8.5t-30 -3.5q-18 0 -29.5 14.5t-23.5 14.5h-4q-4 -1 -19 -12t-18 -12q-34 -10 -60 -16t-52 -7q-22 0 -82 27.5t-69 39.5q-5 7 -9 24.5t-4 32.5v8q-4 22 5 87t25 94q4 7 8.5 25t10.5 26l4 4t19.5 13t16.5 27q0 9 -3 22.5t-11 33.5t-9 24q-11 44 -11 72
q0 18 5 40q2 9 7 61.5t33 72.5q12 8 27 15t26 7h8q14 0 17 4h-1l1 1l24 2q26 0 55 -16t51 -48.5t22 -59.5l-7 -63v-17q0 -50 -47 -152q-4 -7 -24.5 -22.5t-20.5 -33.5q0 -14 11.5 -33.5t12.5 -21.5q16 -40 23.5 -50.5t20.5 -23.5q3 7 13 44t18 52t16 18q5 2 41 4
q5 -2 7.5 -7.5t3 -13t0.5 -18v-12.5q0 -19 -8 -51t-8 -48l1 -15q-4 0 -4 -15q0 -25 10 -51t11 -28t9.5 -16.5t8.5 -24.5zM174 146q-2 8 -13 23t-13 22q-2 5 -5 26.5t-12 26.5q-3 2 -8.5 2.5t-8.5 1.5q-12 -11 -23 -34t-11 -42v-2q0 -77 49 -77q19 0 32.5 12t13.5 31z
M286 565q-1 2 -3.5 16t-6.5 17q-3 2 -7.5 1.5t-7.5 1.5q-1 -1 -6 -4t-7 -6q-7 -12 -10 -38t-3 -45q0 -27 10 -48h2l8 -1q4 0 6 5t4 6q26 25 26 58q0 14 -5 37z" />
    <glyph glyph-name="quotesingle" unicode="'" horiz-adv-x="124" 
d="M111 697q5 -11 5 -35q0 -17 -4 -57.5t-4 -55.5l1 -62v-19q-1 -33 -5 -46.5t-14.5 -17.5t-25.5 -4t-29.5 2.5t-17.5 5.5q-4 4 -8.5 30.5t-4.5 56.5l3 86l-2 48q0 21 4 51.5t10 30.5l6 -1q13 0 18 3t10 3q16 0 34.5 -3.5t23.5 -8.5v-7zM23 712l15 3l-4 -1z" />
    <glyph glyph-name="parenleft" unicode="(" horiz-adv-x="149" 
d="M164 -63q6 -13 6 -17q0 -3 -4 -9.5t-6 -10.5h-9q-35 0 -54 17t-26.5 39.5t-19.5 83.5q-25 118 -25 154l1 40q0 9 -6 34t-6 43q-4 94 24 225q2 8 7 35.5t9 41t10.5 26t21 21t36.5 8.5q18 -1 18 -18q0 -8 -5.5 -25t-5.5 -18q-2 -7 -4.5 -23.5t-6.5 -26.5l-13 -38
q-4 -11 -7 -29.5t-4 -53.5t-2 -44v-14q0 -19 4.5 -66t4.5 -65q4 -22 5.5 -74.5t9.5 -77.5q1 -12 14 -46t16 -48q9 -46 17 -64z" />
    <glyph glyph-name="parenright" unicode=")" horiz-adv-x="240" 
d="M234 363l1 -14l-5 -69l1 -15v-14q0 -54 -11 -124q-1 -4 -2.5 -14t-5.5 -50.5t-25 -69.5q-2 -3 -5.5 -9t-7.5 -9.5t-13 -3.5q-29 0 -113 8l-13 14q1 4 3.5 16.5t5 19.5t4.5 11q2 3 11.5 14t12.5 16q6 14 11.5 37.5t9.5 104.5v5q0 35 -1 79t-5.5 83t-15.5 99.5t-16 99.5
q-3 22 -8 35.5t-20.5 41t-18.5 52.5q34 14 61 14q39 0 66.5 -10.5t36.5 -54t11 -50.5q3 -12 11.5 -35.5t11.5 -39.5q11 -55 18.5 -95t9.5 -73z" />
    <glyph glyph-name="asterisk" unicode="*" horiz-adv-x="454" 
d="M443 564q-2 -7 -11 -14.5t-46 -15t-49.5 -13.5t-15 -12.5t-2.5 -9.5q0 -18 37.5 -53.5t37.5 -53.5q0 -2 -1.5 -7t-14.5 -13t-16 -11q-1 -1 -7.5 -7t-9.5 -7h-7q-12 0 -23.5 8.5t-23.5 30t-16 26.5q-2 3 -7 8t-27 25l-6 -1h-4q-5 0 -9 -3.5t-7.5 -8.5t-8 -13.5t-5.5 -10.5
q-3 -4 -18 -30t-23.5 -37t-13.5 -13l-13 -4q-19 0 -52 25t-33 35t8 26t26 41.5t18 30.5l-1 9v2q-8 6 -39 22t-42 26.5t-11 19.5q0 4 11 18q8 11 18.5 28t16.5 20t14 3q16 0 41.5 -16t34.5 -17h3q7 0 15.5 3.5t9.5 3.5q0 5 2.5 37.5t9 50.5t22 26.5t38.5 8.5q29 0 82 -12
q2 -9 8.5 -40t8.5 -47q6 0 20 7t25 7q8 0 24 -11t24.5 -27.5t8.5 -32.5z" />
    <glyph glyph-name="plus" unicode="+" horiz-adv-x="450" 
d="M445 320l2 -17q0 -15 -6.5 -25t-19.5 -10l-20 1h-9q-53 0 -66.5 -21t-13.5 -63l3 -99q0 -13 -2 -23.5t-6 -14.5t-8 -5t-27 -1q-81 0 -113 5l-1 47q-4 1 -4 15l1 27v5q-2 6 -5.5 46.5t-45.5 40.5q-11 0 -34 -3.5t-32 -3.5q-15 0 -21 5l-6 6q-4 7 -6.5 27t-2.5 35l1 13l1 2
l-1 10q0 9 7 14.5t15 5.5q7 0 27 -4t30 -4q11 0 16 2q5 3 12.5 50.5t7.5 68.5q0 20 -3 33q0 2 -5.5 14t-5.5 20l1 7q3 3 12 8t17 5h4q0 -2 53.5 2.5t66.5 4.5q16 0 29 -4.5t13 -13.5v-27l2 -103l-1 -22v-6t5.5 -13t7.5 -14l65 4q19 0 40 -5.5t26 -21.5z" />
    <glyph glyph-name="comma" unicode="," horiz-adv-x="156" 
d="M154 -2l-1 -12l3 -68q0 -38 -7.5 -52t-23.5 -14q-19 0 -49 12t-33 20q-2 5 -2.5 14t-1.5 13q0 35 -16.5 114.5t-19.5 96.5q16 8 43 14.5t51 6.5q7 0 19.5 -3.5t14.5 -6.5q5 -6 14 -58.5t9 -72.5v-4z" />
    <glyph glyph-name="hyphen" unicode="-" horiz-adv-x="159" 
d="M150 180q0 -6 -13.5 -11.5t-78.5 -5.5q-28 0 -39 6q-4 3 -10 22.5t-6 34.5q0 10 7.5 17t41 9t38.5 2h9q25 0 40 -12.5t15 -36.5z" />
    <glyph glyph-name="period" unicode="." horiz-adv-x="142" 
d="M136 49q-4 -40 -47 -40q-38 0 -60.5 7.5t-22.5 16.5q0 6 5 20t6 21v11q0 39 -13 92q3 6 39 13t60 7h5q14 0 19.5 -4.5t5.5 -23.5v-2l-1 -17l5 -80z" />
    <glyph glyph-name="slash" unicode="/" horiz-adv-x="290" 
d="M273 728q13 -5 13 -18q0 -2 -1.5 -9t-9.5 -22.5t-9 -18.5q-7 -16 -16 -50.5t-15 -49.5q-18 -45 -34 -95t-23 -91l-47 -151q-4 -12 -7 -26t-8 -57.5t-13 -59t-22 -24t-39 -8.5t-25 14q0 10 10 42.5t12 40.5q5 27 18.5 68t15.5 50q4 13 11 54t16 57q2 3 7 30q1 6 6 25.5
t18.5 61.5t16.5 52q7 58 50 144q2 4 3 13.5t4 14.5q4 6 20.5 12.5t28.5 6.5h4z" />
    <glyph glyph-name="zero" unicode="0" horiz-adv-x="346" 
d="M338 287q5 -65 5 -90q0 -48 -12 -95t-33 -74q-12 -17 -20.5 -22t-61.5 -18q-13 -3 -39 -3q-53 0 -82.5 17.5t-43.5 63.5q0 1 -1.5 4t-12.5 32t-17 54t-6 43t7 39q0 81 -4 198q0 11 -2.5 45t-2.5 53q0 73 26 131l6 3q42 65 175 65q28 0 55.5 -13.5t44 -47t16.5 -72.5
l-4 -31q0 -10 4 -49t4 -63l-4 -94q0 -44 3 -76zM250 149q10 29 10 53q0 15 -5 40t-5 32q0 4 -4 56.5t-4 81.5q0 17 2.5 64.5t2.5 81.5v31l5 51q0 13 -3 21.5t-14 10.5t-15 4q-1 -1 -13 -19.5t-12 -35.5l2 -38q0 -2 -1.5 -13.5t-2.5 -34.5t-1 -57q0 -112 8 -191
q0 -6 1.5 -42.5t6 -59t11 -30t11.5 -9.5h4l15 3h1z" />
    <glyph glyph-name="one" unicode="1" horiz-adv-x="197" 
d="M189 361l2 -43q0 -25 -2.5 -66t-2.5 -53v-6l1 -37q0 -74 -5.5 -118t-22.5 -47h-2q-2 0 -8.5 0.5t-19 3t-20.5 11.5t-10.5 19t-2 24t0.5 16q0 42 5.5 121t5.5 109q0 83 -6 157q-1 1 -3.5 2t-19.5 10.5t-32 9.5l-15 -1q-29 0 -29 45l2 33l-1 13q0 16 13.5 31.5t45 35
t35.5 27.5t5.5 28t11.5 24t23 4q19 0 30.5 -9.5t11.5 -23.5l-4 -23v-10q0 -23 6 -72.5t7 -66.5v-23l-1 -91z" />
    <glyph glyph-name="two" unicode="2" horiz-adv-x="342" 
d="M336 454l1 -30l-4 -68v-8q0 -50 -53 -91t-61 -49q-7 -19 -12.5 -59t-5.5 -59q0 -34 28 -34l49 5q19 0 30 -13t11 -29q0 -9 -5 -27q-54 -6 -86 -6l-71 4l-77 -2q-34 0 -47.5 3t-20.5 13t-7 26q0 10 2.5 29.5t2.5 20.5q9 108 11 114q4 14 22 38.5t48 50t45 29.5
q8 8 49 33.5t55 44.5q19 24 24.5 38.5t5.5 42.5q0 90 -2 124t-8 54q-1 2 -3 5.5t-11.5 5.5t-12.5 3q-21 -20 -21 -59q0 -19 7 -60t7 -57q0 -29 -19 -43.5t-60 -14.5q-25 0 -58 9.5t-47 9.5l-11 -1q-9 19 -14.5 47.5t-5.5 54.5q0 40 8 75.5t18 51.5q40 58 113 58q5 0 19 -1
t40 -8t34 -9q46 -8 69.5 -52t23.5 -109l-1 -69z" />
    <glyph glyph-name="three" unicode="3" horiz-adv-x="346" 
d="M340 499q-1 -7 -6.5 -38t-11 -47.5t-10.5 -25.5q-5 -8 -25.5 -20.5t-21.5 -13.5q6 -7 27.5 -24t26.5 -33l8 -24t10 -34.5t4 -35.5q0 -22 -14 -68.5t-15 -63.5q-5 -41 -43.5 -65t-109.5 -24q-26 0 -52 3t-36 8q-11 6 -36 41.5t-25 46.5v37q0 45 2.5 62.5t11 26t18.5 11
t20 2.5q26 0 37 -14.5t11 -40.5q0 -16 -4 -47t-5 -37q1 0 4.5 -4.5t5.5 -5.5q39 11 39 74l-3 69l4 61v5q-2 7 -8.5 11t-13 6t-15 3.5t-10.5 2.5q0 3 -2 17t-2.5 21t-0.5 9q0 12 2 17q2 8 30 18t44 12l10 1l34 -2q8 0 20 9t17 26v7q0 11 -5.5 41t-5.5 33q-2 49 -7.5 97
t-11.5 65h-3l-9 3h-2q-1 0 -2 -0.5t-4 -4.5t-5 -17.5t-2.5 -28t-0.5 -24.5v-20.5v-11.5v-18q0 -6 6 -25.5t6 -31.5q0 -2 -0.5 -6.5t-5.5 -10.5t-6 -9h-11q-21 0 -72 -5t-74 -5q-18 0 -18 6q0 1 -0.5 5t-8 50t-7.5 79q0 48 48.5 88.5t112.5 47.5h3q11 0 34.5 -7.5t52.5 -22
t35 -21.5q8 -20 19 -62t17 -55q4 -10 7.5 -31.5t3.5 -33.5v-3z" />
    <glyph glyph-name="four" unicode="4" horiz-adv-x="434" 
d="M437 125q-4 -16 -23 -16l-23 1q-12 0 -18 -5v-7q-11 -22 -11 -31l2 -37q0 -18 -8.5 -27.5t-21.5 -9.5l-25 1l-7 -4h-2q-31 0 -31 52l1 15q0 27 -18 42t-80 15q-13 0 -35 -3t-30 -3q-11 0 -24 1.5t-32.5 5t-24.5 4.5q-1 0 -3.5 0.5t-7.5 3.5t-8 10t-3.5 15t-0.5 17v12
q0 45 13 80q19 50 49.5 164.5t34.5 127.5q2 8 14 65t26 77q5 7 32 15.5t56 11.5h3q9 0 24 -3.5t23 -3.5l58 4q11 0 15.5 -2.5t4.5 -17.5v-15q0 -73 14 -181q5 -34 5 -85l-2 -124h18h10t17.5 -2t12.5 -13t4 -28l-2 -81l4 -37v-4zM279 378q-1 4 -5 17t-6 23h-6q-1 -3 -7 -6
q-17 -61 -19.5 -80.5t-3.5 -24.5q0 -2 -8.5 -39t-8.5 -69q20 -10 29 -10q8 0 15 4q9 5 15 57.5t6 98.5z" />
    <glyph glyph-name="five" unicode="5" horiz-adv-x="345" 
d="M337 155q-8 -27 -21 -101q0 -3 -1 -17.5t-3 -21t-6 -8.5q-35 -23 -47 -24q-48 -4 -84 -4q-58 0 -78 8q-16 6 -40 35t-35.5 56t-11.5 42v5q1 10 9.5 27t9.5 24q1 6 2 19.5t7 19t28 5.5q15 0 44.5 -6.5t37.5 -7.5h5l32 5q16 0 27 -12t11 -51q0 -20 -4 -59t-4 -49q2 0 10 -9
h13q13 3 16.5 42.5t4.5 47.5q12 73 12 131q0 60 -16 122h-19q0 -1 -5.5 -9t-5.5 -21l3 -51q-2 -1 -6 -4.5t-12 -3.5l-27 1h-5l-46 -1q-76 0 -113 22q4 15 4 31q0 11 -4 42.5t-4 53.5q0 19 3 43q4 31 5 211v10q0 11 3 16.5t10 8.5t51 3q39 0 103 -6t105 -14t41 -16l-3 -26v-3
l1 -29q0 -18 -1.5 -38t-1.5 -25q0 -14 2 -23q-4 -2 -10 -7.5t-16 -5.5q-14 0 -39 8t-30 9q-12 1 -36 6.5t-34 5.5h-3q-26 -2 -68 -12l-13 -11q0 -26 7 -94q3 1 9 2.5t10 4.5q4 1 13 9.5t15 10.5q21 6 41 6q114 0 147 -83q13 -146 13 -211q0 -19 -2 -29z" />
    <glyph glyph-name="six" unicode="6" horiz-adv-x="346" 
d="M340 278q3 -72 -4 -128t-27 -95t-57 -60t-91 -21h-13q-31 1 -72 17q-16 7 -40 38t-26 50v11l3 97l-4 244q0 38 3 86q1 10 1.5 42.5t3 47.5t6.5 24q17 41 31.5 57.5t32.5 23.5q11 4 31 5t34 2.5t33 6.5l37 2q19 0 26 -2t21.5 -17.5t31 -43t18.5 -40.5q19 -97 19 -133
q0 -13 -21 -28.5t-44 -15.5q-12 0 -18 2l2 2q-1 2 -5.5 8t-4.5 10q0 6 4 19.5t4 21.5v6l-1 33v44q0 96 -28 96q-13 0 -25.5 -11.5t-19.5 -42.5t-7 -72q0 -90 38 -138l17 1q52 0 82.5 -33t30.5 -84q0 -21 -2 -32zM174 278q0 6 -9 18.5t-13 12.5l-9 -2l-3 1q-13 -56 -16 -73.5
t-3 -37.5v-13l1 -36q0 -29 -5 -66q0 -2 -3 -14.5t-3.5 -18t-0.5 -7.5v-4q3 -16 21 -16q9 0 17 5t9 11q14 137 15.5 169t1.5 50v21z" />
    <glyph glyph-name="seven" unicode="7" horiz-adv-x="264" 
d="M260 647v-7q0 -18 -10 -53q-6 -23 -17.5 -75.5t-16.5 -72.5q-41 -167 -53 -205q-9 -28 -15 -55.5t-12 -67.5t-10.5 -55t-7.5 -22q-6 -16 -15 -27t-15 -11h-1q-3 1 -18.5 4t-23 7.5t-7.5 11.5v4q4 18 18.5 82t32.5 131t43 136q20 57 24.5 75t7 36.5t2.5 33.5
q0 7 -2.5 12.5t-25.5 5.5l-96 -6q-17 0 -21 4q-8 7 -14 37.5t-6 52.5q-1 40 10 68h4q12 19 17 21q44 16 102 16l86 -3q8 0 15.5 -2t11 -8t10.5 -30z" />
    <glyph glyph-name="eight" unicode="8" horiz-adv-x="346" 
d="M336 174l2 -50q0 -55 -13 -85t-45 -45.5t-90 -15.5q-13 0 -27.5 2.5t-30 8.5t-18.5 7q-5 2 -21.5 14t-37.5 30t-25 24q-12 20 -18 47.5t-6 82.5q0 27 7 57.5t21 57.5q3 5 20 26t17 35q0 16 -25.5 35t-25.5 32q-11 55 -11 85q0 15 3.5 42t4.5 32q8 62 19.5 86.5t30.5 31.5
q65 24 109 24q20 0 51 -15t63.5 -44t36.5 -46q15 -57 15 -99q0 -28 -6 -66q-3 -18 -13.5 -37t-19.5 -32.5t-10 -14.5q-2 -4 -11.5 -11t-11.5 -10l9 -19h8q2 -1 20.5 -19.5t19.5 -21.5q8 -37 8 -90v-10zM229 71v5q0 15 -4.5 41.5t-5.5 36.5v15l7 113q0 28 -7 48
q-4 10 -13.5 12.5t-14.5 4.5q-1 -3 -6.5 -9.5t-6.5 -11.5q-3 -14 -3 -38l4 -69l-1 -17v3q-4 -25 -4 -56q0 -87 21 -129l21 4q12 26 13 47zM144 468q0 11 3 65t3 78q0 18 -1 29.5t-5.5 16.5t-22.5 16q-1 -2 -5 -3t-5 -3q-8 -13 -8 -57l1 -37l-3 -44q0 -31 6.5 -52t16.5 -21
q6 0 20 12z" />
    <glyph glyph-name="nine" unicode="9" horiz-adv-x="346" 
d="M339 404q-1 -4 -6.5 -34.5t-5.5 -47.5l3 -65l-2 -113q1 2 4 -19q-2 -7 -3 -29t-4 -29q-13 -40 -50.5 -64t-90.5 -24q-23 0 -60.5 6.5t-62.5 19t-33 28.5q-1 4 -6.5 25t-10.5 29q-4 15 -8.5 44.5t-4.5 50.5q0 29 11.5 41t40 13.5t36.5 2.5q30 5 48 5q27 0 41 -11.5
t14 -39.5l-5 -67q0 -33 9 -58t24 -35q4 10 7 11q0 37 10 95q0 20 -7.5 54t-7.5 44l2 52l-24 2q-13 0 -23 -5l-7 -6q-8 -2 -27 -2q-68 0 -100 22t-32 87l3 65q2 77 7.5 124.5t23.5 90.5q6 13 16 28t27 21.5t52 8.5t53 6l17 2q6 0 22.5 -2.5t28.5 -10.5q26 -24 48 -48t26 -35
q8 -24 8 -53l-4 -85v-11q4 -60 4 -64zM143 411l2 24l-2 54v12q2 22 2 61l-2 81v9q0 10 -5 17t-13 7t-12 -6t-4 -14v-6q2 -13 2 -37q0 -18 -2 -53t-2 -60q0 -38 4.5 -68.5t14.5 -30.5q6 0 10.5 4.5t6.5 5.5z" />
    <glyph glyph-name="colon" unicode=":" horiz-adv-x="172" 
d="M156 509q13 -10 13 -40q0 -34 -15 -75t-29 -46q-22 -8 -57 -8q-17 0 -32 3.5t-19 10.5l-1 -4q-3 29 -3 65q0 48 4 85q5 17 40 17q24 0 60.5 -3t38.5 -5zM132 5q-25 -20 -40 -21h-3q-17 0 -45.5 7.5t-32.5 16.5q-1 2 -2.5 43t-1.5 65q0 15 3.5 24t14.5 9h4q5 0 13 -3t9 -3
q10 -1 28 -3t29 -5t24 -13q-8 -27 -8 -58q0 -32 8 -59z" />
    <glyph glyph-name="semicolon" unicode=";" horiz-adv-x="162" 
d="M165 -133q-8 -4 -9 -7l-25 1h-20q-31 0 -45.5 13t-18.5 48.5t-6 45.5q-2 14 -8.5 40t-8.5 35l-6 13l-1 5l1 3l-4 6q5 7 5 11l-1 2q4 2 19.5 10t32 13t41.5 5q11 0 29.5 -47.5t18.5 -84.5v-13q0 -10 3 -44t3 -55zM125 487q6 -41 6 -81q0 -54 -12 -73t-30 -19l-47 5l1 -1
l-4 -1q-8 0 -15.5 10.5t-11.5 36.5t-4 60q0 60 6 100q1 8 20.5 14t30.5 7h7q14 0 24 -0.5t16 -3.5t11 -10t5 -23q0 -10 -3 -21z" />
    <glyph glyph-name="less" unicode="&#x3c;" horiz-adv-x="356" 
d="M344 46h-12q-11 0 -24.5 7t-33 26t-25.5 23q-39 27 -165 121q-5 4 -43.5 26t-38.5 64l1 39q13 6 33.5 22.5t26.5 20.5t49 35t76 43q26 10 58.5 35.5t56.5 38.5q3 -2 9.5 -2.5t7.5 -0.5q0 -4 5 -49t5 -75q0 -38 -21 -45q-28 -10 -69.5 -38t-51.5 -33q-29 -14 -29 -26v-5
l-1 -6q41 -41 118 -91q8 -5 29 -14t33.5 -22.5t12.5 -41.5q0 -22 -7 -52z" />
    <glyph glyph-name="equal" unicode="=" horiz-adv-x="400" 
d="M379 63q-1 -2 -5.5 -5.5t-4.5 -4.5q-34 5 -82 5l-25 -2h-49l-55 1q-9 0 -37.5 -3.5t-41.5 -3.5q-51 0 -61 16q-5 10 -9.5 47t-4.5 63q0 22 5.5 33t30.5 11l49 -3h3q14 1 85 5t112 4q48 0 72.5 -16.5t24.5 -86.5q0 -33 -7 -60zM399 355q-2 -23 -12 -37t-30 -14l-83 4h-22
l-112 -2q-40 0 -65 0.5t-39.5 2t-23 5.5t-8.5 25q0 6 3 23t11 34q1 0 3 0.5t16 2t21 4.5l4 7q7 4 33 4l71 -2l73 1q42 0 79 -10q3 -1 10 -2.5t34 -4.5t30 -3q7 -21 7 -31v-7z" />
    <glyph glyph-name="greater" unicode="&#x3e;" horiz-adv-x="356" 
d="M356 271q-1 -2 -7 -9.5t-33 -21t-31 -16.5q-62 -43 -112 -84q-20 -22 -58.5 -53t-48.5 -41q-6 -6 -16 -12t-19 -6q-5 0 -9 5t-7 6l5 45q0 19 -7 54t-8 49q45 25 99 65.5t66 48.5q2 2 15 9t18 12t5 9l-2 9l1 2q-3 2 -32.5 25t-48.5 36q-9 6 -33 18.5t-34.5 25t-15.5 26.5
q0 1 -4.5 11.5t-4.5 17.5q0 11 7 17.5t17 6.5q7 0 11 -2q73 -33 155 -84q8 -5 30.5 -22t37.5 -25q33 -23 49.5 -46t16.5 -56z" />
    <glyph glyph-name="question" unicode="?" horiz-adv-x="303" 
d="M296 562q-9 -89 -24 -124q-3 -8 -13.5 -20.5t-12.5 -16.5q-49 -70 -49 -144q0 -44 -9 -63.5t-35 -19.5q-35 0 -59 8q-6 2 -15.5 10.5t-11.5 9.5l1 15v7q0 14 2 22q3 10 9 49.5t15 54.5q6 12 18.5 20t36.5 19t34 18t16 14t11 17t5 27l-4 61q0 7 2 30.5t2 41.5q0 31 -3 59
v3l1 12q0 3 -10.5 10.5t-14.5 7.5q-20 0 -20 -33l1 -92l-1 -56v-4l1 -21q0 -33 -88 -33q-41 0 -75 14q1 10 6 35.5t5 39.5l-3 54q0 44 12 63q1 1 15 22.5t26 32t35 15.5t68 5q126 0 126 -159v-11zM229 139q7 -15 7 -59q0 -48 -9 -66.5t-35 -18.5q-40 0 -56.5 5t-20 16.5
t-3.5 26.5q0 18 2 28q2 4 1 24t3.5 31.5t16 17t30.5 5.5l39 -2l15 1q1 -3 5 -5.5t5 -3.5z" />
    <glyph glyph-name="at" unicode="@" horiz-adv-x="492" 
d="M485 426q-1 -9 -3.5 -48.5t-3.5 -61.5t-1 -34v-9q0 -6 -0.5 -20t-4.5 -59.5t-4 -50.5v-5l1 -20q0 -12 -24 -45t-41 -44l-44 -27q-40 -20 -54 -20q-56 0 -102 6.5t-83 30.5q-4 3 -22 11.5t-25 15.5q-30 28 -46 91.5t-16 113.5l1 78q0 24 -3.5 59.5t-3.5 52.5q0 176 64 235
q10 10 61.5 28.5t74.5 21.5q15 3 36 3q16 0 28 -3q8 -2 38 -5.5t49.5 -10t32.5 -14.5q43 -25 62 -45t28 -50.5t9 -82.5q0 -38 -4 -92zM451 443q1 10 4 34.5t3 40.5q0 33 -7 67q-6 37 -33 61t-63.5 36t-65.5 14q-8 2 -26 2q-23 0 -52.5 -6t-42.5 -13q-1 -1 -17.5 -11.5
t-30 -21t-19.5 -20.5q-3 -6 -16 -30.5t-19 -44.5t-6 -41v-3q-4 -24 3.5 -132t7.5 -109l-3 -48q0 -40 13.5 -80.5t36.5 -58.5q23 -17 55.5 -29t106.5 -18q26 1 62 14.5t58.5 33t29.5 40.5q14 41 14 142v40q0 31 7 141zM377 157l3 -17q0 -11 -13.5 -17.5t-55.5 -6.5
q-33 0 -44.5 4.5t-14 19t-2.5 36.5v31v2.5t0.5 7t-0.5 7.5t-2 3t-3.5 2l-5 2t-6 2.5t-4.5 1.5q-2 -4 -6.5 -17.5t-14.5 -91.5l-55 -2h-11q-5 8 -10 17t-5 26q0 22 10 60t11 48q3 27 12.5 80.5t11.5 67.5q2 15 11 96t19 92q3 4 19.5 9.5t33.5 7.5h3q45 0 64.5 -16.5t21 -54
t3.5 -46.5q13 -78 19 -260q3 -69 11 -94zM219 279l-7 121q-4 -9 -10 -29t-7 -66q-4 -13 -4 -21q0 -4 3.5 -7t4.5 -6q10 6 20 8z" />
    <glyph glyph-name="A" unicode="A" horiz-adv-x="381" 
d="M372 45q3 -17 3 -32q0 -14 -4 -19q-32 0 -72.5 -5t-53.5 -5q-22 0 -41 8q-6 2 -26 142l-14 40q-1 1 -7 3.5t-6 3.5l-4 2l-6 -2h-4q-5 0 -7 -17l2 -72q0 -44 -15 -87q-5 -1 -30.5 -5.5t-38.5 -4.5q-21 0 -27.5 6.5t-6.5 19.5l2 41l-1 15q0 59 31 252q6 36 8.5 62.5t9 113
t15.5 144.5q1 6 2 26t3 29t6 12q5 4 54 4q94 0 138 -7q19 -3 27.5 -23t10.5 -62t4 -55q10 -72 15.5 -206t13.5 -200t19 -122zM130 217q5 10 5 47q0 23 -4 49.5t-4 52.5v10q0 6 -4 54q-37 -55 -37 -189q0 -19 4.5 -26t20.5 -7q6 0 11.5 2.5t7.5 6.5z" />
    <glyph glyph-name="B" unicode="B" horiz-adv-x="424" 
d="M409 83q-5 -30 -20 -48t-42.5 -27.5t-100.5 -9.5l-60 1q-19 0 -58.5 -6t-63.5 -6q-22 0 -30.5 5t-14 18t-9 48t-3.5 170q0 117 16 329v12q0 16 -3.5 47t-3.5 43t2.5 26t7.5 17q6 4 19 7t36.5 4.5t28.5 2.5q46 7 128 7h49q6 0 16.5 -5t12.5 -5q42 -13 61 -28.5t27 -46.5
t8 -88q0 -54 -22 -100q-5 -10 -22.5 -20t-21.5 -17l-3 -13q5 -5 30.5 -19t29.5 -31q17 -71 17 -146q0 -53 -11 -121zM269 126v8l-3 59q0 10 3 42t3 49q0 37 -6.5 66t-17.5 35q-3 2 -10 2.5t-10 1.5q0 -2 -4.5 -4.5t-5.5 -5.5q-5 -15 -5 -44v-13l-4 -58l4 -77l-1 -40v-4
q0 -30 18 -30q4 0 9.5 1.5t16 6t13.5 5.5zM151 474q13 4 20.5 31.5t7.5 61.5q0 30 -6 57t-15.5 38t-18.5 11q-10 0 -16.5 -10t-6.5 -19t3.5 -28t3.5 -25v-8q0 -13 -5 -42.5t-5 -48.5q0 -7 8.5 -13t19.5 -6z" />
    <glyph glyph-name="C" unicode="C" horiz-adv-x="347" 
d="M342 207l2 -16q0 -18 -6 -38q-3 -52 -7 -81q-2 -16 -13.5 -29.5t-46.5 -31.5t-47 -26q-10 -3 -27 -3q-44 0 -85.5 12t-66.5 40.5t-25 61.5l3 47q0 10 -0.5 86.5t-4.5 133.5q-3 45 -3 137q0 30 0.5 55.5t3 48t7.5 36.5t16.5 29t16.5 23q10 16 41 26t93 11h3q37 0 75 -23
t47 -47q8 -21 12.5 -53.5t4.5 -57.5t-10 -88q-2 -10 -2.5 -32.5t-1.5 -27.5l-22 -2q-29 0 -41 12.5t-12 44.5l6 97q0 9 -1.5 16t-6.5 13.5t-7 9.5q-4 -1 -13.5 -2t-13.5 -4.5t-4 -12.5l1 -15v-3q2 -22 -4 -119.5t-6 -137.5v-89q0 -61 4 -88v-33q0 -43 32 -43l9 1l-1 1l9 3
l15 27l1 15q0 14 -6.5 43.5t-6.5 43.5q0 24 13 31.5t35.5 9t29.5 2.5z" />
    <glyph glyph-name="D" unicode="D" horiz-adv-x="409" 
d="M404 453l1 -40q0 -25 -2.5 -68.5t-2.5 -57.5v-6l1 -44q0 -71 -7 -141q-2 -24 -12.5 -43t-28.5 -34t-52.5 -27t-79.5 -12q-25 0 -73.5 5.5t-60.5 6.5h-3t-19 1t-29.5 6t-19 14t-6.5 24q0 11 3.5 32t3.5 31v6l-2 43q0 29 3 68.5t3 55.5l-3 111l4 88q0 33 -5.5 97t-5.5 98
q0 9 1.5 18.5t17.5 30.5q34 -3 91 -3l33 3h4l91 -10h7q48 0 80 -19.5t48.5 -53t16.5 -71.5l-1 -18zM175 572q-1 2 -3.5 6t-13.5 6.5t-14 3.5q-13 -12 -21.5 -36t-8.5 -73l1 -75l-4 -132q0 -82 10 -170l1 -12l-1 -17q0 -28 20 -28h6l17 10l4 12q0 18 -6 54.5t-6 55.5l2 27
l-1 96q0 95 7 194q1 5 7 27.5t6 35.5z" />
    <glyph glyph-name="E" unicode="E" horiz-adv-x="286" 
d="M282 89l1 -19q0 -34 -4.5 -50t-13 -21t-27.5 -5q-15 0 -45 5.5t-37 5.5h-2q-5 0 -15.5 -3.5t-12.5 -3.5q-49 -7 -65 -7q-12 0 -28.5 7t-17.5 7q0 38 -4 98t-4 93q0 26 4.5 92.5t4.5 102.5l-2 56q0 17 5 58t5 57q0 22 -4.5 58t-4.5 46v3l-1 17q0 19 41 27t90 7
q44 0 87 -4.5t46 -13.5t3 -20q0 -20 -7.5 -34t-17.5 -14q-5 0 -14 4t-11 4h-6q-13 0 -22 -7.5t-9 -35.5v-35q0 -6 -3.5 -30t-3.5 -35q0 -18 7 -29t28 -11h13q16 0 24 -3t12 -12.5t4 -24.5q0 -3 -2 -23.5t-6.5 -37.5t-17 -26.5t-32.5 -9.5l-63 3q-8 -15 -8 -32l1 -27l-4 -76
q0 -33 3 -47q1 -3 2 -13t3 -16t9 -11.5t31 -5.5l62 4q7 0 16.5 -3t12.5 -9z" />
    <glyph glyph-name="F" unicode="F" horiz-adv-x="291" 
d="M289 687q-2 -19 -3.5 -65t-3.5 -66l-13 -1q-15 0 -47 5t-45 5q-57 0 -57 -67q0 -41 3.5 -53.5t15.5 -15t31 -2.5q5 0 30 5.5t43 5.5q36 0 36 -42q0 -12 -3.5 -22.5t-13 -17.5t-36 -11.5t-32.5 -14.5q-1 -2 -2.5 -17t-1.5 -28q0 -23 6 -25l-5 -4l-3 -78v-16q1 -11 6 -52
t5 -63q0 -28 -5 -47q0 -5 -6 -8.5t-40 -3.5q-18 0 -27 2h-22q-49 0 -69 7q-6 3 -12 20.5t-6 89.5l1 131l-2 75l2 56l-2 35l1 38l-1 128q0 46 6 91t6 46q27 7 62 7l56 -4q12 0 42 4t42 4h6q15 0 32.5 -3t22.5 -8v-9z" />
    <glyph glyph-name="G" unicode="G" horiz-adv-x="350" 
d="M340 109l2 -29q0 -43 -11.5 -64t-28.5 -21q-11 0 -19 13.5t-19 13.5q-9 0 -20 -9.5t-15 -11.5q-16 -7 -38.5 -12.5t-39.5 -5.5q-60 0 -94.5 28.5t-34.5 73.5l3 65q0 22 -5 32q-6 36 -6 99v9l-2 50l5 109q0 33 -4 71.5t-4 53.5q0 22 5.5 45t22.5 56q8 14 52.5 34.5
t69.5 22.5h8q38 0 80.5 -20.5t59.5 -43.5q12 -16 24.5 -47.5t12.5 -129.5q0 -41 -1.5 -58.5t-8.5 -25.5t-20 -11.5t-41 -3.5q-23 0 -41 3q-51 3 -61.5 10.5t-15 23.5t-4.5 38q0 21 4 72t4 71q0 35 -8 48q-1 1 -2.5 3.5t-23.5 6.5q-15 -15 -15 -27q0 -7 4 -22.5t4 -24.5
q0 -76 -7 -169q-1 -4 -5.5 -25t-4.5 -31q0 -9 4.5 -15.5t5.5 -9.5q27 7 53 7q15 0 44.5 -3t40.5 -4h7l37 2q17 0 28.5 -11.5t15 -33t3.5 -52.5l-3 -88q0 -23 3 -52zM147 157l-1 26v9q0 53 -8 68q-3 7 -14.5 8.5t-15.5 2.5q-10 -34 -10 -91l6 -124v-12l4 -20l7 -13l9 1h4
q26 0 26 58q0 24 -7 87z" />
    <glyph glyph-name="H" unicode="H" horiz-adv-x="412" 
d="M406 201v-56q0 -79 -12.5 -116.5t-38.5 -37.5q-17 0 -47 8q-5 2 -11 8.5t-9.5 22t-5 30t-1.5 27v13.5l-2 43l1 66q0 31 -3 53q-2 11 -3 37t-4 37l-19 4q-6 -8 -12.5 -19.5t-6.5 -37.5q0 -33 5.5 -79.5t5.5 -71.5q0 -53 -7 -94t-16 -42l-27 -2l-67 3q-7 0 -35.5 -6
t-45.5 -6q-15 0 -23 15.5t-8 60.5l3 84v26q-7 50 -7 185v54l4 94q-4 19 -4 45q0 37 2.5 66.5t7 48t8 26.5t7.5 13q11 7 64 11l152 6h3q14 0 27 -6.5t13 -16.5v-22.5t-1 -48.5t-9 -114q0 -41 10 -58q3 2 10.5 4t10.5 6q17 30 17 99l-2 76l1 24v28q0 12 6 18.5t25 7.5h4
q35 0 35 -28l-4 -35l3 -58l-2 -125q0 -21 4 -117.5t4 -152.5z" />
    <glyph glyph-name="I" unicode="I" horiz-adv-x="198" 
d="M191 596q-12 -65 -12 -80l3 -39l-3 -72l1 -41v-11l-1 -39l3 -49q0 -25 -3 -62.5t-3 -50.5l5 -104v-5l2 -28q0 -7 -1.5 -11t-7.5 -7t-8 -6q-19 3 -67 3.5t-70 6.5q-3 11 -3 32v22q0 8 -3.5 43t-3.5 51v135l-6 153l2 49q2 21 2 95.5t4 96.5v3l-1 12q0 23 66 23q24 0 97 -11
q4 -12 7 -34.5t3 -43.5z" />
    <glyph glyph-name="J" unicode="J" horiz-adv-x="334" 
d="M328 710q-4 -36 -4.5 -97.5t-2.5 -91.5q-3 -46 -3 -127l1 -65q0 -1 4 -40.5t4 -96.5l-2 -58v-6l1 -33q0 -30 -25 -58.5t-56.5 -40t-54.5 -11.5q-3 0 -13.5 0.5t-31.5 5t-26 5.5q-22 3 -41.5 11.5t-29.5 23t-23 43.5q-7 18 -13 60.5t-6 102.5q0 51 6 67q3 9 30 14t65 5h2
l18 1q20 0 45 -5t32 -13q3 -4 3 -32l-4 -140q0 -4 -3 -24.5t-3 -31.5q0 -34 20 -34q19 0 29 13t10 48q0 30 -4 95t-4 99q0 74 -8 157t-8 95q0 21 3.5 52.5t3.5 39.5l-2 28q0 28 9 39.5t31 11.5q15 0 30.5 -3.5t20.5 -8.5z" />
    <glyph glyph-name="K" unicode="K" horiz-adv-x="388" 
d="M383 6q-25 -12 -94 -17h-5l-42 4l-27 -3q-7 0 -13 3v3q-11 5 -14 29.5t-5 30.5q-2 5 -8.5 28.5t-13.5 32.5q-8 -7 -14 -36.5t-9 -37.5q-2 -7 -2 -22.5t-4.5 -21.5t-14.5 -9t-26 -3q-36 0 -49 6t-15.5 19t-3.5 34v4.5t-5.5 87.5t-5.5 163l3 119l-3 178q0 53 11 85
q5 17 9 20.5t13.5 4t13.5 0.5l85 -5h7q1 0 22.5 3t32.5 3q14 0 19 -2q3 -6 7 -7q-3 -46 -7 -71v-148h7q7 11 13.5 28t11 31.5t9.5 31t6 20.5q5 17 19 50t26 51.5t19 20.5q11 3 19 3q13 0 21.5 -8t8.5 -19q0 -16 -18 -42.5t-21 -35.5l-36 -104q-28 -61 -28 -107v-4
q0 -9 3.5 -26.5t7.5 -28.5q8 -16 14 -60.5t12 -60.5q6 -10 10.5 -35.5t4.5 -26.5q5 -20 25.5 -70.5t23.5 -82.5z" />
    <glyph glyph-name="L" unicode="L" horiz-adv-x="305" 
d="M308 28l2 -10q0 -5 -2 -11t-14 -22q-26 2 -69 2h-23q-51 0 -76 5q-68 10 -91 17q-1 2 -4.5 7.5t-3.5 12.5l4 42v8q-3 32 -7.5 107t-8.5 129l-2 43l3 105l-2 96q0 146 31 157q27 7 63 7q15 0 36 -3.5t32 -3.5q26 -3 32 -6.5t9.5 -10t3.5 -18.5q0 -18 -6 -80.5t-6 -88.5
l1 -18q4 -38 7 -151.5t6 -158.5v-9q0 -13 -5 -40.5t-5 -40.5q0 -25 13 -36t41 -14.5t34 -7t7 -8.5z" />
    <glyph glyph-name="M" unicode="M" horiz-adv-x="631" 
d="M622 36q-8 -28 -13 -34t-16 -7q-72 -4 -91 -4q-37 0 -75 5q-4 1 -10 7l-7 7h-3q-8 47 -8 100l1 38v90q-2 12 -2.5 30t-0.5 21q-7 59 -7 87h-7l-3 -34q-10 -19 -11 -23q-1 -28 -12.5 -112t-11.5 -111l1 -39q0 -38 -14 -44v-3q-5 -5 -20 -8t-30 -3q-20 0 -32 8t-17.5 22.5
t-5.5 53.5l1 54v6t-4 49t-3 60l1 13q0 33 -21 64q-9 -3 -10 -6q-15 -30 -15 -114q0 -28 4.5 -89.5t4.5 -87.5l-1 -26q-22 -8 -46 -12.5t-102 -7.5q-6 7 -9.5 22t-5 47.5t-2.5 41.5q-2 125 -7 162l-2 28l3 60l-3 84l2 134l-1 52q0 59 15 80q14 19 111 19q55 0 64 -13
q3 -3 3 -12t1 -11q7 -24 13 -192q4 -13 10 -115q0 -2 2 -4.5t6.5 -6.5t5.5 -5l23 36q9 36 10.5 88.5t6.5 73.5q4 18 5.5 72.5t14.5 72.5q6 8 16 15t52 7q49 0 127 -8q30 0 62 -3t46 -8h7q4 -3 7 -13t3 -18v-5q-8 -47 -8 -104l1 -110l-4 -124l1 -40q2 -26 3.5 -107t6.5 -115
l1 -13z" />
    <glyph glyph-name="N" unicode="N" horiz-adv-x="472" 
d="M465 58l2 -34q0 -30 -14 -30h-20q-78 0 -95 8q-22 31 -28.5 105t-9.5 94q-8 50 -47 166q0 -1 -1.5 -4.5t-14 -28.5t-12.5 -42q0 -63 5.5 -143t5.5 -100q0 -25 -10 -40.5t-52 -15.5l-72 3h-21l-37 -5q-24 0 -24 116l1 20q0 21 -3.5 115.5t-3.5 133.5q0 82 3 149v18l-1 65
q0 58 14 89q6 12 24 18t60 6l61 -2l37 2q36 0 48 -6.5t12 -33.5l-3 -57q0 -28 13 -84t15 -69q-1 -12 13.5 -51.5t16.5 -49.5h7l-1 27q0 22 3.5 71.5t3.5 69.5q2 82 3.5 106t3.5 36q2 22 5 28.5t11 9t20 2.5q29 0 52.5 -9.5t23.5 -19.5l-1 -11q1 -7 2.5 -46t1.5 -140v-33
q0 -31 -3 -92.5t-3 -91.5q0 -61 4 -129t5 -90z" />
    <glyph glyph-name="O" unicode="O" horiz-adv-x="416" 
d="M402 577q4 -32 4 -72q0 -33 -4.5 -93.5t-4.5 -82.5q0 -5 1 -14.5t3 -34t2 -115.5q0 -86 -11 -97q-38 -38 -57 -48t-40.5 -17t-27.5 -9q-3 -1 -19.5 -7.5t-28.5 -6.5q-52 0 -97 16t-63 45q-7 10 -13.5 25.5t-10.5 38t-6 42.5t-2 22q-1 12 -7 61.5t-9.5 95t-3.5 93.5
q0 99 3 135.5t11 59.5l6 3q4 5 11 20t13 21q6 4 29.5 24t38.5 26q13 8 40 14t68 6h23q75 0 101 -26v-7l14 -14q30 -53 37 -104zM176 109l1 43q0 49 -4 95q-5 28 -5 79v38l-3 56l5 118q0 35 -5 51.5t-20 16.5h-4l-8 1q-22 -29 -22 -86q0 -10 5 -93q0 -9 2 -70.5t4 -87.5
q4 -36 4 -105l-1 -46q0 -12 11 -74q15 -7 26 -7q15 0 15 24l-1 36v11z" />
    <glyph glyph-name="P" unicode="P" horiz-adv-x="393" 
d="M387 550l2 -85q0 -37 -4.5 -71.5t-11.5 -34.5h-2q-9 0 -23.5 -19t-20.5 -22v-4q-8 -4 -16 -5.5t-24.5 -3.5t-23 -4.5t-12 -7t-9.5 -13.5q-13 -28 -14 -102t-3 -89l-1 -9l4 -48q0 -11 -3 -20l-10 -11q-9 -4 -26 -4l-51 4h-3q-10 0 -44 -4.5t-49 -4.5q-13 0 -21 2.5
t-8 12.5l5 80l-1 91l6 122l-3 88v14l1 31q0 26 -4.5 76.5t-4.5 83.5q0 46 5 92q1 7 11.5 15.5t33.5 15t45 6.5h10l122 3q9 0 16.5 -1.5t15.5 -7t11 -7.5t23 -13t32.5 -22t19.5 -30q2 -6 12.5 -28.5t14 -37.5t3.5 -28zM205 335l1 13q0 12 -4 38t-4 30t-3.5 74.5t-6.5 103.5v3
l2 22q0 8 -5.5 17t-39.5 12q-8 -11 -8 -50l1 -58v-145q0 -45 9 -62t27 -17q8 0 18 5.5t13 13.5z" />
    <glyph glyph-name="Q" unicode="Q" horiz-adv-x="380" 
d="M372 521l1 -18q0 -24 -2.5 -61.5t-2.5 -55.5v-56q0 -23 -3 -58t-3 -50l1 -63q0 -23 -5 -51.5t-13 -43.5q-4 -9 -22.5 -28.5t-18.5 -31.5q0 -24 21 -32.5t24.5 -14.5t3.5 -12q0 -13 -11 -20t-64 -7q-24 0 -50 2t-34 5q-11 5 -20.5 31t-16.5 30q-7 5 -24 6.5t-24 3.5
q-39 13 -57.5 29.5t-26.5 34.5v10q-11 26 -11 39q0 8 5 8l-4 99v16l1 113v29t-0.5 75.5t-2.5 90t-2 40.5q0 23 4 36q15 44 26.5 61.5t26 28t43 19t92.5 8.5q84 0 125 -53q10 -12 22.5 -59.5t21.5 -99.5zM288 478l1 11q0 6 -2.5 26.5t-8.5 43.5q-1 2 -1 2.5t-2.5 18.5
t-12 23.5t-25.5 8.5q-8 -11 -8 -39v-30q0 -13 -4.5 -49t-4.5 -61l4 -131v-102v-6t-0.5 -58t13.5 -93l12 1l5 -1q14 14 17.5 49.5t6.5 45.5q0 8 4.5 79.5t4.5 88.5l-2 109q0 38 3 63z" />
    <glyph glyph-name="R" unicode="R" horiz-adv-x="437" 
d="M430 2l-11 -9q-9 -5 -43 -5q-35 0 -44 5q-6 2 -11 7.5t-9.5 16t-6.5 25.5t-2.5 26t-0.5 17.5v13.5v8q0 28 5.5 74.5t5.5 72.5q0 50 -8 59.5t-21 12t-16 3.5q-2 -3 -9.5 -10.5t-7.5 -19.5l1 -14l-3 -52v-29q0 -21 -7.5 -94t-7.5 -104q-3 -1 -16.5 -7.5t-26.5 -6.5l-44 3
l-55 -1q-44 0 -73 8q-4 2 -6.5 8t-2.5 38v103l4 99q0 20 -2.5 55.5t-2.5 44.5v15l6 113l-5 84l2 67q-2 9 -3.5 20t-2 31t-1.5 27l14 9q16 5 46 5q31 0 104 -5.5t99 -5.5q43 0 60.5 -3t37.5 -14q24 -13 40.5 -68t16.5 -108q0 -31 -7 -60q0 -25 -6.5 -41t-40.5 -40l1 -7v-5
q0 -5 2 -8h7q5 -1 16.5 -16t13.5 -21q4 -13 4.5 -38t2.5 -36q3 -23 3.5 -98t6.5 -101q2 -9 2.5 -24t1.5 -20zM241 373q7 6 7 61q0 41 -4 82.5t-10 48.5q-4 5 -15.5 7t-14.5 3q-1 -1 -7 -5.5t-7 -7.5q-6 -25 -6 -51q0 -18 5 -44t5 -37q2 -34 9 -51t17 -17q8 0 21 11z" />
    <glyph glyph-name="S" unicode="S" horiz-adv-x="387" 
d="M383 128q-5 -29 -17 -56.5t-27.5 -43t-29.5 -21.5q-25 -11 -63.5 -19t-74.5 -8q-24 0 -52 6.5t-49 16.5q-12 6 -34 31t-26 36q-4 12 -4 47q0 24 1.5 50.5t2.5 28.5v5q0 16 6 28t18.5 15t32.5 3q8 0 26 -5v-32q0 -59 -5 -94l-2 -25q0 -48 30 -48q38 0 39.5 73t3.5 83l1 18
q0 26 -6 45q-3 11 -53 38.5t-59.5 35t-12.5 11.5q-20 29 -20 95l1 60v20l-3 67q0 25 5 37q19 57 69 84.5t146 27.5q34 0 61 -16.5t44 -38t26 -36.5t22 -41q0 -2 5 -21t5 -32q0 -17 -7 -38q0 -3 -6 -5.5t-35 -2.5l-16 1h-44l-18 -1l-31 1l-36 -4q-13 0 -27 6.5t-16 14.5
q-4 13 -5.5 78.5t-4.5 69.5q-4 6 -16 9.5t-14 4.5q-6 -8 -11.5 -18t-5.5 -33v-11l-1 -47q0 -38 19 -63.5t60.5 -45.5t49.5 -25l74 -47q8 -5 18 -13.5t24.5 -25.5t18.5 -22q1 -1 8 -6.5t8 -9.5q16 -44 16 -100q0 -43 -9 -92z" />
    <glyph glyph-name="T" unicode="T" horiz-adv-x="380" 
d="M375 688q-4 -2 -12.5 -6t-14 -5t-10.5 -1h-2q-17 0 -24.5 -8t-7.5 -33l6 -135q0 -45 -4 -106.5t-4 -93.5q0 -25 6 -181v-2q0 -10 -6.5 -42t-13.5 -57q-3 -7 -9 -12t-16.5 -7.5t-56.5 -2.5h-11l-73 -4q-17 0 -31 7.5t-18.5 23.5t-4.5 42v60l-1 80q0 46 2 110t2 92v72
q0 137 -13 152q-5 5 -23.5 8.5t-25.5 9t-7 15.5q0 11 8.5 25.5t27 22t38.5 7.5l10 -1h21q34 0 104 4.5t93 4.5q41 0 65 -9q3 -5 6 -6v-24z" />
    <glyph glyph-name="U" unicode="U" horiz-adv-x="379" 
d="M370 323q0 -14 -1 -71.5t-4.5 -95.5t-11.5 -66q-5 -16 -18.5 -43t-21.5 -30q-4 -3 -19.5 -14t-34 -18.5t-43.5 -7.5q-20 0 -49 6q-10 2 -37.5 6.5t-48.5 15.5t-44 42q-24 33 -24 145l3 107v20l-3 142l1 76q0 37 -4 72v2l2 8l-3 52q0 13 3 25q4 10 36 19t53 9h3
q6 0 46 0.5t61.5 -9t21.5 -31.5q0 -9 -4 -37t-4 -44q0 -29 4 -75.5t4 -59.5q0 -19 -8 -326v-22q0 -27 5 -38t19 -11q12 0 22 11t15.5 40.5t5.5 149.5v30l1 35q0 66 -1 119.5t-5 92.5t-4 70q0 29 6 51l10 13h15q29 0 49 -9v-5l-5 -83q0 -45 6 -126t6 -112v-25z" />
    <glyph glyph-name="V" unicode="V" horiz-adv-x="364" 
d="M347 430q-8 -123 -40 -310q-15 -85 -24 -111q-1 -3 -5 -5.5t-11.5 -4.5t-17.5 -2.5t-23 0t-16 0.5l-62 2h-3l-30 -3q-15 0 -17 9q-8 7 -15.5 37t-14 82.5t-11.5 122.5t-6 79q-4 36 -24.5 144.5t-23.5 161.5q48 14 114 14l38 -1h4l39 2q13 0 21 -4q3 -10 10 -71t10 -108
l21 -103q16 47 16 141l-1 42q0 35 4 84t4 79q12 4 13 6q24 -3 51 -13l-2 -57q0 -10 2.5 -43t2.5 -64q0 -55 -3 -106z" />
    <glyph glyph-name="W" unicode="W" horiz-adv-x="652" 
d="M644 710l1 -17l-3 -42q-10 -106 -13 -129t-8 -44q-4 -16 -9.5 -144t-13.5 -199q0 -2 -2.5 -38.5t-11.5 -54.5l-10 -9l-20 1h-15h-6t-9.5 1.5t-60.5 1.5l-30 -1h-16q-29 0 -63.5 4.5t-39.5 9.5q-8 5 -8 36t-1 55.5t-6.5 65t-14.5 82.5l-7 13q-2 -16 -12 -40t-14 -38
q-3 -11 -3 -42t-1 -38v-5q0 -14 2 -31.5t2 -22.5q0 -16 -5 -38t-18.5 -39t-28.5 -17l-54 3q-8 0 -23.5 -3t-25.5 -3q-42 0 -42 97l1 19l-10 202l-6 168l-25 182q-6 34 -6 43q1 0 6.5 5t15.5 5l50 -7q5 0 27.5 7t33.5 7h5q7 0 14.5 -18t13.5 -58.5t6 -70.5q0 -52 10 -95
q0 -45 17 -71q10 24 13.5 36.5t3.5 29.5l-4 71q0 13 3.5 31t9.5 24q2 2 10.5 6t32 5.5t29.5 2.5q3 0 11.5 2.5t13.5 2.5q14 0 20.5 -10.5t5 -58t5.5 -74.5q12 -50 17 -94l11 -7q0 26 5 85t5 93v4l-1 27q0 34 2.5 75.5t8.5 52.5q5 8 27 13.5t37 6.5h6q13 0 33.5 -6t31.5 -7h6
l63 6q14 0 25 -4q3 -5 6 -6z" />
    <glyph glyph-name="X" unicode="X" horiz-adv-x="387" 
d="M377 65q-16 -11 -30 -16.5t-42 -5.5q-19 0 -49.5 4.5t-40.5 4.5q-23 0 -40 -4q-15 47 -37 73q-8 -30 -21 -60.5t-28.5 -47.5t-31.5 -19h-27l-3 47q0 17 4 30.5t17 32.5t16 28q20 55 34 111.5t14 81.5q0 8 -2.5 26.5t-18.5 56.5t-20 61q-4 14 -22 58.5t-22 59.5
q-5 17 -19 60.5t-14 47.5q0 11 36.5 19.5t70.5 8.5l87 -2h4l11 -3h2q6 -17 20 -47t18 -40l2 1l8 -2q2 0 4.5 3.5t5.5 3.5q3 34 8 49.5t17.5 24.5t35.5 9l17 -2h5q9 0 16 -2.5t6.5 -11.5t-0.5 -10q0 -25 -11 -43q-9 -14 -17 -43.5t-11 -37.5l-18 -36q-12 -21 -20.5 -48
t-8.5 -49q0 -17 5.5 -42t5.5 -27q3 -21 10.5 -47.5t24.5 -63t19 -41.5q8 -17 17 -52t12 -81v-6z" />
    <glyph glyph-name="Y" unicode="Y" horiz-adv-x="436" 
d="M408 646q-5 -49 -26 -112t-44 -110q-21 -61 -21 -119v-22q0 -15 -3.5 -55t-3.5 -58l11 -152l-7 -19q-21 -18 -120 -18q-10 0 -48 8q-2 0 -12.5 0.5t-14.5 2.5v11q-8 11 -8 34l1 40v9l-1 21l3 82q0 48 -9 114q-3 8 -11.5 58t-15.5 69q-31 89 -40 139q-21 60 -23 68t-2 12
q0 11 4 11h1l8 -1q12 0 36 8t33 9l56 2l70 -4l10 1q14 0 22.5 -9.5t13.5 -25.5t10 -46.5t7 -39.5q9 -9 10 -13q2 2 8.5 5t8.5 6q13 18 21 71t16 70.5t19.5 24t23.5 6.5h7q22 -3 22 -24q0 -9 -5.5 -29.5t-6.5 -24.5z" />
    <glyph glyph-name="Z" unicode="Z" horiz-adv-x="354" 
d="M352 16v-14q0 -20 -13 -20l-79 -1q-60 0 -121 8q-72 10 -76 10l-19 -1q-33 0 -33 31q0 16 13.5 55.5t14.5 42.5q2 10 12.5 65.5t17.5 76.5q22 64 45 162t36 138q2 5 4 18.5t2 22.5q0 16 -14 16l-6 -1l-6 1q-16 4 -52.5 4.5t-49.5 4.5l-10 11q-3 5 -3 18v22l-4 25
q0 6 7 12t41 6q19 0 55.5 -5t50.5 -5l69 4q6 0 23 -0.5t47 -4t42 -4.5q7 -11 7 -33q0 -15 -3.5 -49t-3.5 -45l1 -53q0 -42 -21 -108.5t-25 -85.5q-5 -23 -20 -65.5t-20 -62.5q-2 -7 -6.5 -28t-11 -61t-9.5 -54q-1 -1 -4 -7t-4.5 -10t-1.5 -7v-2q1 -8 13 -12.5t50.5 -6
t53.5 -2.5q2 -2 5.5 -3.5t5.5 -2.5z" />
    <glyph glyph-name="bracketleft" unicode="[" horiz-adv-x="180" 
d="M197 -59v2l2 -12q0 -21 -10 -26l-157 -14l-11 10q-3 5 -5 19t-2.5 37t-0.5 46.5v25.5l4 125l-1 146v57l-2 157v37q-3 42 -3 81q0 40 5 60.5t20.5 28.5t35.5 9q8 0 20 -4q1 0 40.5 -4t39.5 -22q0 -44 -2 -91q0 -5 -5.5 -8.5t-35 -4t-40 -4.5t-12.5 -10t-2 -9l1 -11
q-5 -32 -5 -69l1 -73q0 -100 -2 -194.5t-2 -108.5l-5 -82q0 -20 7.5 -33.5t34.5 -13.5l56 4q36 0 36 -31l-1 -10z" />
    <glyph glyph-name="backslash" unicode="\" 
d="M291 8l2 -8q0 -10 -22 -13v-4l-28 -2q-25 0 -38.5 14t-21.5 46.5t-12 42.5l-20 52t-31 101q-11 42 -46 159.5t-45 169.5l-17 75v23l10 8q33 -3 51 -11t30 -27q7 -11 9 -30t4 -27l34 -101q5 -16 21.5 -79t30 -106t26.5 -78q6 -17 18 -64t19 -65q2 -4 12.5 -37t13.5 -39z
" />
    <glyph glyph-name="bracketright" unicode="]" horiz-adv-x="195" 
d="M172 -26q-5 -42 -5 -62v-17q0 -10 -6.5 -18t-22.5 -12.5t-35.5 -5.5t-38.5 -0.5t-23 0.5q-17 0 -26.5 4.5t-9.5 19.5q0 13 3.5 40t6.5 32q1 1 6.5 5t28 12.5t23.5 9.5v85q0 76 3 124q0 1 3.5 28.5t3.5 41.5v11q-5 73 -5 115l2 52l-1 56l5 109q0 39 -7 51.5t-22 12.5
l-23 -2h-2q-13 0 -19.5 11t-6.5 18q0 13 12.5 22.5t38.5 9.5q43 0 109 -17q5 -61 5 -246q0 -35 -4.5 -101.5t-4.5 -95.5q0 -19 3 -51.5t3 -47.5l-1 -73q0 -17 4 -54t4 -55z" />
    <glyph glyph-name="asciicircum" unicode="^" horiz-adv-x="460" 
d="M447 386l2 -16q0 -13 -11.5 -19.5t-22.5 -6.5q-12 0 -32 8q0 3 -2 12t-15.5 39t-14.5 33l-30 70q-2 3 -6.5 16t-8.5 16q-2 1 -6.5 1t-6.5 2q-14 -14 -15 -15.5t-2 -3.5q-18 -59 -40 -96q-4 -7 -19 -42t-26.5 -49.5t-22.5 -18.5q-30 -10 -97 -10q-10 0 -20 1.5t-42 14.5
l2 11q0 6 8.5 24.5t50.5 84.5q18 27 30 51t34.5 79t49.5 87q1 2 4.5 6t18 27t51.5 23l18 -2v-3q11 -6 22.5 -20t26 -48t15.5 -37q7 -12 16.5 -31.5t47.5 -109.5q4 -8 21.5 -35t21.5 -43z" />
    <glyph glyph-name="underscore" unicode="_" horiz-adv-x="320" 
d="M323 -134v1l2 -16q0 -7 -2.5 -14.5t-17.5 -10.5q-63 0 -120 3.5t-106 3.5q-37 0 -62 -4q-2 4 -10 9q-2 6 -4 19t-3 15q-5 18 -5 28q0 20 23 28t72 8l79 -3h53q24 -1 54.5 -7.5t36.5 -15.5q4 -7 7 -25t3 -19z" />
    <glyph glyph-name="grave" unicode="`" horiz-adv-x="250" 
d="M209 656l-8 -8t-24 -12t-53 -5q-11 0 -25 4.5t-15 9.5q-2 1 -14 15t-28.5 35t-17.5 25q-1 2 -16.5 27.5t-17.5 39.5v4q0 5 3.5 10.5t13.5 9t24.5 4t31 0t20.5 -0.5h20q28 0 48 -11q2 -1 6 -4.5t7 -18t4 -17.5q2 -7 12 -29t12 -31q1 -5 3 -12t7.5 -19.5t6.5 -15.5z" />
    <glyph glyph-name="a" unicode="a" 
d="M286 5q-14 -7 -37.5 -14t-39.5 -7q-13 0 -23 12.5t-21 12.5q-7 0 -15.5 -9.5t-11.5 -11.5q-22 -10 -52 -10q-20 0 -35 7t-21.5 23.5t-19.5 70.5q-3 11 -3 23l4 52l-2 27q0 44 35 73q26 20 51.5 54.5t39.5 63.5h3q3 18 3 35l-4 76l1 17q-3 1 -4.5 5t-2.5 5h-2l-11 1
q-7 0 -11 -9t-4 -23l6 -86q0 -26 -7.5 -36.5t-24 -12.5t-37.5 -2h-24q-6 16 -6 50l4 32v3l-1 18q0 42 20 82q9 9 28 21t46.5 22t50.5 11h3q25 0 63 -18.5t49 -32.5q16 -21 16 -69l-3 -73v-5l-5 -118l3 -73l-1 -22v-84q5 -32 5 -52zM192 113q6 102 6 141q0 52 -6 57l-13 4
q-2 -2 -8.5 -9t-9 -12t-3.5 -9q-3 -15 -3 -57t-1 -51v-10q0 -34 17 -61h2l9 -1q3 0 5 4t5 4z" />
    <glyph glyph-name="b" unicode="b" horiz-adv-x="303" 
d="M294 407q0 -33 -3.5 -106.5t-3.5 -88.5v-57q0 -50 -8 -79q-3 -9 -7 -37t-19.5 -38t-50.5 -10q-20 0 -41.5 4.5t-33.5 10.5q-3 1 -10 8t-10 8h-10q-4 -1 -11.5 -11t-24.5 -10q-16 0 -52 11v44q0 9 3 39.5t3 45.5t-3.5 47t-3.5 48l1 74v43l1 111l-2 80l3 98l-3 43
q0 22 8.5 33t32.5 11q1 0 37 -4q2 0 25 -1t34.5 -11.5t11.5 -47.5l-1 -46q0 -59 21 -59q11 0 31 12t22 12q38 -14 39 -16v-7q1 -2 6.5 -6t7.5 -7q11 -29 11 -107v-34zM146 144l-5 186q0 9 4.5 37.5t4.5 42.5q0 15 -3 23t-26 17q-22 -88 -22 -151l2 -51l-2 -81q0 -62 22 -91
l17 4q1 7 4.5 29.5t3.5 34.5z" />
    <glyph glyph-name="c" unicode="c" 
d="M298 399q-2 -1 -5.5 -5.5t-4.5 -4.5q-12 -4 -36 -4q-59 0 -59 25q0 7 5.5 17.5t5.5 12.5q6 20 6 37q0 21 -10 44l-5 -1l-12 1q0 -5 -5.5 -13.5t-7.5 -14.5t-6 -23t-5 -82t-5 -106q-3 -31 -3 -87q0 -7 -0.5 -39t1.5 -58.5t12 -48.5v-7l16 -10h3q25 0 25 84q0 23 -1 43
t-3.5 24t-2.5 9q0 11 5 23.5t17 12.5t35 -7t23 -10v-5q0 -17 4 -47.5t4 -53.5l-2 -41q-3 -33 -34 -56.5t-69 -23.5q-101 0 -139 31q-17 17 -27.5 45.5t-10.5 61.5q0 13 2.5 38.5t2.5 29.5v38l-4 75q0 20 4 39q0 87 7 121q1 5 3.5 15.5t9.5 24.5t13 25t7 12q26 47 93 47
q33 0 62.5 -11t46.5 -25q12 -10 22.5 -31.5t15.5 -66.5z" />
    <glyph glyph-name="d" unicode="d" horiz-adv-x="303" 
d="M291 394l-2 -56l1 -66l-2 -66l4 -131q0 -30 -3 -59q0 -5 -3 -10t-10.5 -9.5t-20.5 -6.5t-25.5 -2h-25h-16.5q-4 1 -12 8.5t-11 8.5q-17 -10 -30 -15.5t-27 -5.5q-15 0 -34.5 7.5t-31.5 17.5q-10 8 -16.5 22t-9.5 30t-8 80v17l3 90v74l4 72v5l-3 74q0 45 28 76t76 31
q25 0 49 -12q4 -2 18.5 -17.5t28.5 -15.5q6 0 6 6l-4 38l2 57q0 11 -6.5 31.5t-6.5 27.5q0 18 34 22h2q23 0 37 -7.5t14 -19.5l-2 -37v-8q4 -54 4 -96l-2 -59l2 -69zM168 413q4 22 4 45q0 17 -2 34t-5 23q-3 4 -11 6t-10 3q-1 -15 -10 -61.5t-9 -79.5l2 -34q-3 -30 -3 -68
l5 -97v-19q0 -19 2 -28q1 -3 5 -8.5t5 -8.5l3 1l9 -1h2q6 9 10 10q-3 14 -3 30l3 62v13l-2 77q0 78 5 101z" />
    <glyph glyph-name="e" unicode="e" 
d="M294 432l1 -25q0 -62 -6 -80.5t-17.5 -26.5t-31.5 -8q-15 0 -50.5 4t-49.5 4l-26 -3l-22 4q-7 0 -11.5 -26.5t-4.5 -70.5q0 -28 5.5 -63t5.5 -49q0 -15 -2 -23q3 -1 6.5 -5t9.5 -4q9 0 16.5 9t8.5 10q-1 18 -4 47.5t-3 69.5v7q0 5 3.5 11t13 10.5t19.5 7t28 5.5l17 1
q16 0 36 -4.5t35 -17t15 -27.5q0 -2 -0.5 -9.5t-2.5 -22t-2 -17.5v-14l1 -45q0 -27 -11.5 -47.5t-43.5 -39.5q-26 -8 -58 -8q-77 0 -116 32t-39 109l1 55v8l-1 50l2 59l-4 107q0 28 4 64t19.5 61.5t44.5 37t103 12.5h3q36 0 59 -15t35 -43t12 -67v-16l3 -1zM143 402v6
q0 13 -1.5 26.5t-11.5 38.5h-14q-18 -42 -22.5 -58.5t-4.5 -25.5t4.5 -14t11.5 -5q10 0 22.5 10t15.5 22z" />
    <glyph glyph-name="f" unicode="f" horiz-adv-x="249" 
d="M248 564q4 -10 4 -18q0 -11 -5 -21t-12 -12h-2l-9 1l-3 -1l-11 4q-6 0 -10 -3t-5 -12.5t-2 -11.5v-4l4 -24l1 -47q0 -22 -4 -76t-4 -75l1 -21l-3 -112q0 -17 3 -46.5t3 -52.5q0 -22 -9.5 -31.5t-36.5 -9.5q-3 0 -51 4h-5l-36 -2q-5 0 -14.5 3t-9.5 9l-2 131
q0 122 1 163.5t6 75t8 44.5q2 7 2 22q0 10 -3 22t-18 22.5t-19 21.5t-4 27v9t0.5 14t6.5 11t16 4l33 -2l2 29q0 4 -3.5 40t-2.5 46q11 17 30.5 21.5t50 5.5t44.5 3l26 8q30 0 30 -27q0 -19 -11.5 -34t-14 -22t-2.5 -16q0 -14 4 -26.5t18.5 -20t17.5 -13.5z" />
    <glyph glyph-name="g" unicode="g" horiz-adv-x="303" 
d="M293 -37q-5 -29 -17.5 -53t-49.5 -38q-25 -9 -34 -9q-7 0 -35.5 5.5t-52.5 9.5q-12 2 -39 31.5t-32 42.5q-3 7 -5.5 19.5t-4.5 18.5q-9 13 -9.5 14.5t-0.5 2.5v4q0 12 6 25t17 14q24 3 46 3q10 0 31 -3q38 -3 47 -6q-2 -10 7 -41t18 -44q3 3 10.5 4.5t9.5 5.5q2 5 4.5 33
t2.5 44q0 2 -1 9t-8 18t-9 15q-27 -13 -45 -21t-34 -8q-21 0 -35.5 5.5t-22.5 14.5t-12.5 17.5t-21.5 44.5q-4 8 -9 28.5t-5 52.5q0 22 2.5 60t2.5 49v11l-2 46q0 98 7 138q9 46 85 64h4q14 0 29 -5t31 -16t19 -11q10 0 33.5 8t40.5 8l11 -1h-3q2 -2 11.5 -8t9.5 -21l-1 -11
q0 -13 3.5 -49t3.5 -57q0 -56 -6 -124q-1 -9 -4.5 -31t-3.5 -36l2 -44l-1 -57q0 -41 3 -71q1 -9 5 -35.5t4 -40.5zM145 333l3 50q0 19 -3 37q-1 6 -10 10t-10 5q-1 -1 -6 -5t-7.5 -7t-2.5 -5q-10 -26 -10 -116l2 -51v-5t-2.5 -11t-2.5 -83v-14q1 -3 5.5 -9t5.5 -8l13 1l7 -1
l10 14q4 15 4 40l-1 34q0 29 5 124z" />
    <glyph glyph-name="h" unicode="h" horiz-adv-x="315" 
d="M308 225l-3 -102l1 -55q0 -16 -2 -37t-6 -25q-6 -6 -39 -11.5t-62 -5.5q-51 0 -51 29l1 23v5q-8 58 -8 114q0 90 2 128.5t6 64.5q2 11 2 35t-4.5 59t-4.5 40h-15q-12 0 -19 -22.5t-7 -89.5l1 -60l-5 -152q0 -17 7 -57.5t7 -63.5q0 -18 -13.5 -27.5t-37.5 -9.5
q-18 0 -28.5 11t-15 32.5t-4.5 90.5l2 156l5 84l-6 77l4 73l-2 85q0 41 1.5 55.5t4.5 19.5q4 8 39.5 14.5t54.5 6.5q8 0 16.5 -3.5t10.5 -3.5v-34q0 -71 7 -121l17 -7q6 5 15.5 18t19.5 17t23 4q32 0 52 -11.5t20 -40.5l-1 -24l2 -27q7 -5 7 -10q0 -35 3 -108t3 -134z" />
    <glyph glyph-name="i" unicode="i" horiz-adv-x="151" 
d="M142 78l1 -34q0 -15 -4 -31l-6 -6v-7q-4 -3 -34 -7t-46 -4q-9 0 -16.5 3.5t-10 16t-3.5 15.5h3q2 5 2 16q0 9 -3.5 32.5t-3.5 35.5q0 63 -4.5 210t-4.5 166q0 29 2.5 38.5t8.5 9.5q20 4 33 4h24l19 -1q8 0 11 2l-4 2h4q25 -2 25 -43l-1 -21v-15l4 -147v-23l-1 -125l5 -76
v-11zM110 715q11 -24 11 -52q0 -27 -13.5 -43.5t-42.5 -16.5q-34 0 -44 12.5t-10 51.5q0 15 7.5 27t23.5 15.5t45 5.5h23z" />
    <glyph glyph-name="j" unicode="j" horiz-adv-x="104" 
d="M92 6q-2 -18 -3 -37t-4 -39q-4 -38 -43 -112q-2 -4 -8 -9t-34 -5q-21 0 -49 1.5t-34 3.5q-6 0 -10.5 23.5t-4.5 61.5q0 18 11 62q2 1 7.5 2t36 7.5t43.5 16.5t14 22q6 74 6 106l-4 107l1 87v30l-3 108l2 43l-1 23q0 23 7 36t28 13q19 0 26.5 -11.5t9 -38t2.5 -35.5
q5 -25 5 -83l-3 -230q0 -17 2.5 -47.5t2.5 -50.5q0 -37 -3 -55zM88 596q-6 -12 -25 -12q-17 0 -31.5 10t-14.5 27v3q1 62 7 84q0 1 1 2t13 11q4 -1 16 -2t17 -4q6 -4 13 -38.5t7 -60.5q0 -14 -3 -20z" />
    <glyph glyph-name="k" unicode="k" horiz-adv-x="317" 
d="M306 6q-6 -6 -32.5 -10.5t-64.5 -4.5q-33 0 -48 12q-7 6 -11.5 23t-12 59t-13.5 53l-14 -4q-2 -1 -4 -14t-2 -28l2 -37q0 -22 -26 -22q-23 0 -35.5 2t-15.5 18q-13 61 -13 180v5l-1 33l1 50l-1 22v6l2 42l-3 40l3 77l-1 49l2 35q0 2 0.5 7t1 44t9 57t22.5 18l12 -1
q3 -1 44.5 0t52.5 -9l1 -24q0 -31 -4.5 -82t-4.5 -64q0 -26 6 -90q9 6 15 15.5t8.5 27.5t2.5 21q9 61 62 61q52 0 52 -20q0 -9 -4 -23.5t-8 -21.5q-3 -4 -8.5 -14.5t-14 -38.5t-15.5 -45q-2 -5 -8 -17t-9.5 -23t-3.5 -23q0 -3 0.5 -10t14.5 -48q47 -165 50 -181
q1 -3 7.5 -28t8 -37.5t1.5 -16.5q0 -11 -3 -20z" />
    <glyph glyph-name="l" unicode="l" horiz-adv-x="178" 
d="M171 31q0 -38 -38 -38q-24 0 -59.5 4.5t-40.5 10.5l-3 6q-12 23 -12 67l2 70l-3 61l3 101l-5 126l1 33q2 26 3.5 59.5t0 72t3 48t7.5 13.5q3 5 15 9.5t59 4.5q44 0 56 -5q2 0 5.5 -4t5.5 -5v-7l-1 -24l1 -13v-10l-4 -79l2 -85q0 -20 -3.5 -66t-3.5 -68q0 -51 4.5 -118
t4.5 -140v-24z" />
    <glyph glyph-name="m" unicode="m" horiz-adv-x="510" 
d="M500 370v-4l-4 -56l3 -48q0 -36 -4 -77q6 -46 6 -57q0 -15 -2 -37t-6 -27q-7 -7 -22 -11.5t-44.5 -6t-38.5 -2.5h-13q-29 0 -46.5 8.5t-17.5 50.5q0 20 4 53.5t4 48.5l-2 20q2 12 1 45.5t-6.5 102.5t-6.5 81l-24 4q-6 -13 -6 -36l4 -40l-3 -46v-13q0 -58 8 -112l-2 -77
q0 -35 5 -125l-11 -10h-13l-77 -2q-17 0 -25.5 12.5t-8.5 46.5q0 16 5 44q0 11 -3.5 77.5t-3.5 95.5v46l-6 47v7l1 19q0 8 -3.5 14.5t-16.5 8t-16 1.5q-1 -3 -8 -5q-4 -52 -4 -91q0 -29 5 -91.5t5 -98.5l-1 -30v-9l5 -48q0 -37 -63 -37q-12 0 -20.5 5.5t-10.5 30.5t-3 33
q-4 85 -4 128l2 24l2 -7q-3 27 -3 55l1 71l-1 45v18q0 65 2.5 88.5t2.5 35.5l-2 41q3 1 8 5.5t13 6t19 1.5q22 0 39.5 -3t26.5 -13t22 -10h6l21 10q35 10 64 10q16 0 37.5 -18t33.5 -18h5q5 1 15 11.5t13 11.5q13 7 38.5 12t40.5 5q21 0 40 -6.5t26 -19.5q10 -17 13 -52
t4 -80.5t1 -56.5z" />
    <glyph glyph-name="n" unicode="n" horiz-adv-x="303" 
d="M296 103l1 -24q0 -39 -5 -79q-1 -14 -33 -14l-38 1q-7 14 -9 42v23l1 91q0 22 -3.5 75.5t-3.5 85.5q0 18 3.5 50t3.5 45q0 20 -6 39l-9 11q-4 -1 -16 -2t-12 -9v-16q0 -30 -4 -86.5t-4 -79.5q0 -20 3.5 -75t3.5 -83t-2 -40v-2l1 -11q0 -4 -3 -7.5t-10.5 -5.5t-16.5 -3
t-17.5 -1.5t-15 -0.5h-14.5h-10q-33 0 -45 7q-11 6 -17 26.5t-8 50t-2 138.5l4 128l-2 55q0 18 3 46t3 37l-1 33q0 18 3 29h17q42 0 54 -14q1 -1 3.5 -10t6.5 -10h1l6 1l3 -1q4 3 16 14.5t23 17t25 5.5h4q13 0 37.5 -6.5t48.5 -21.5t28 -29l2 -18l-5 -60l2 -24q0 -15 -4 -62
t-4 -62q0 -12 2 -19q3 -32 5 -90t6 -85z" />
    <glyph glyph-name="o" unicode="o" 
d="M294 155q-1 -51 -47.5 -87.5t-87.5 -36.5q-58 0 -89.5 22t-43 58t-11.5 95v44q-5 57 -5 99q0 80 13.5 128t45.5 75.5t88 30.5h15q16 0 34 -5t36 -22t28 -45.5t13 -55.5t4.5 -51t1.5 -28q3 -19 3 -38l-4 -91q0 -20 3 -46.5t3 -38.5v-7zM136 118l1 19q0 14 -3.5 41.5
t-3.5 34.5q-1 11 -1 43.5t-2 47.5v51l-1 28v37q0 42 -5 61t-15 21h-2l-8 -1l-3 1q-7 -15 -12.5 -42.5t-5.5 -51.5l4 -87v-23q0 -27 3.5 -76.5t4.5 -65.5q1 -4 3.5 -21.5t2.5 -27.5v-5q3 -2 6 -6t4 -5l5 1l9 -1h3q3 1 9 11.5t7 15.5z" />
    <glyph glyph-name="p" unicode="p" horiz-adv-x="280" 
d="M269 52q-2 -27 -22 -41.5t-48 -14.5q-21 0 -64 9q-1 0 -4.5 5t-5.5 5q-3 0 -5.5 -3t-5.5 -3v-8l3 -70q0 -28 -6.5 -41.5t-23.5 -13.5q-33 0 -53 9t-20 42q0 18 4.5 48t4.5 45l-5 111v16l1 36q0 22 -1.5 59t-1.5 87l1 152l-3 65q0 17 3 32l3 7l14 7h6q9 0 14 -4.5
t11.5 -18t15.5 -15.5h1q15 0 43.5 18t50.5 18q17 0 38.5 -9t38 -31t16.5 -47l-6 -77v-9l1 -27l-2 -94q0 -20 3.5 -76.5t3.5 -79.5v-28l1 -42zM202 166l1 21q0 17 -4 46.5t-4 46.5l2 61q0 16 -4 50t-4 51q0 36 7 69q-2 1 -6 7.5t-8 6.5l-10 -2l-4 1q-11 -14 -14.5 -23.5
t-3.5 -35.5l2 -278q0 -15 9.5 -42.5t18.5 -27.5q8 0 14.5 18.5t7.5 30.5z" />
    <glyph glyph-name="q" unicode="q" horiz-adv-x="303" 
d="M290 -29q0 -5 -1 -41.5t-10.5 -54t-29.5 -17.5q-5 0 -23 3q-47 8 -58.5 12t-16 12.5t-4.5 22.5q0 18 6 52q0 1 2.5 8t3.5 11.5t1 7.5l-1 7l-4 7l-5 1q-6 0 -14 -4q-50 -8 -58 -8q-26 0 -44.5 18t-18.5 51l3 54l-1 16q-2 24 -5 105t-8 121q-2 15 -2 43q0 80 22 128
q5 10 20 22t38.5 21.5t30.5 9.5q18 0 29.5 -4.5t25 -16.5t26.5 -12q8 0 15.5 7.5t23.5 7.5q13 0 29 -1t18 -3v-7q9 -28 9 -72l-1 -64l2 -67l-4 -299l4 -67v-10zM196 92l1 46l-1 79q-7 40 -6 121.5t-7 117.5q-1 0 -9.5 1t-11.5 3q-9 -19 -9 -59l2 -66v-20q0 -98 7.5 -165
t18.5 -67q3 0 7.5 4t7.5 5z" />
    <glyph glyph-name="r" unicode="r" horiz-adv-x="297" 
d="M288 380v-23q0 -36 -103 -36q-23 0 -33 10t-10 34l5 70v9q0 2 -1 7t-6 17t-6 14l-21 -7q0 -20 -6 -52.5t-7 -42.5l-1 -67l1 -95q-3 -19 -3 -38l6 -103q0 -46 -4.5 -61t-14.5 -19q-5 -3 -20.5 -5t-23.5 -2h-3q-8 0 -14 9t-6 36.5v28.5v75l3 68l-4 117l-4 104q0 31 4 50
l-2 51q0 34 5 36q44 12 70 12q9 0 20.5 -11t15.5 -11l7 2l2 -1q25 14 43 21t39 7q38 0 56.5 -35t18.5 -124q0 -27 -3 -45z" />
    <glyph glyph-name="s" unicode="s" horiz-adv-x="295" 
d="M288 144q0 -57 -7 -87.5t-47 -47.5q-4 -2 -22.5 -10t-36 -13t-38.5 -5l-37 4q-46 15 -63.5 34.5t-23 43t-11.5 61.5q1 4 1 19t12.5 22t41.5 7q50 0 62 -14t12 -39l-5 -70h4l14 -1q7 0 13 15.5t6 36.5q0 17 -3.5 35.5t-9.5 28.5t-56.5 48t-58.5 50q-9 15 -20 63.5
t-11 80.5q0 62 15 129q3 10 16 21t38.5 18t52.5 8h9q60 0 103 -27t43 -71q0 -27 -22.5 -44t-57.5 -17q-27 0 -49 7t-29 17q-4 5 -4.5 17t-2.5 17l-13 23l-5 -1l-12 1q0 -2 -2 -10.5t-2 -14.5q0 -16 11 -36t58 -52t60 -45q2 -2 21.5 -19.5t31 -32t14.5 -26.5q10 -34 10 -103
v-21z" />
    <glyph glyph-name="t" unicode="t" horiz-adv-x="316" 
d="M310 180v-12q0 -23 -4 -58t-12 -46q-5 -8 -17 -20.5t-17 -20.5q-9 -16 -28 -27.5t-63 -11.5l-23 2q-48 12 -62.5 21t-22 23t-7.5 42l1 51v14q0 1 -0.5 3.5t-2 20.5t-1.5 32l2 47l3 82l-1 28v4l2 43q0 12 -3 20.5t-10 10t-26 2.5q-18 40 -18 105q0 23 3 32t11.5 11.5
t12.5 2.5h4q6 0 11 6t5 38l-2 44q0 18 8 28.5t29 12.5h4l23 -3q0 -2 3 -46t11 -65.5t23 -21.5l27 1h7q32 -4 47.5 -21.5t15.5 -57.5q0 -16 -9 -28t-48.5 -14t-50.5 -10l-6 -14q-4 -11 -4 -52l1 -45l3 -54q0 -17 -3.5 -61.5t-3.5 -65.5q0 -29 2 -38.5t7.5 -16.5t14.5 -10
q5 7 9 14t4 20l-4 42l4 53l-3 96q0 19 3 27q2 6 16.5 13.5t42 13t46.5 5.5q17 0 28 -11t14.5 -33.5t3.5 -60.5l-1 -55z" />
    <glyph glyph-name="u" unicode="u" horiz-adv-x="315" 
d="M300 241q-4 -58 -4 -84v-7q3 -40 3 -73q0 -39 -6 -65q-1 -3 -5.5 -7.5t-31.5 -4.5q-17 0 -40 2t-31 4q-3 0 -10 6.5t-14 6.5h-4q-8 -2 -15 -11t-17.5 -12.5t-26.5 -3.5q-88 0 -88 87q0 12 3 24q0 11 -3 40.5t-3 44.5q0 9 3.5 55t3.5 75l-1 34v71q-2 68 -8 108l-3 20
q9 35 36 35q26 0 70.5 -8t48.5 -13q7 -8 12.5 -31.5t5.5 -45.5q0 -11 -3.5 -30.5t-3.5 -32.5v-32q-4 -58 -4 -96q0 -32 3 -64q0 -1 1 -6.5t2 -40.5t3.5 -56t7.5 -32.5t12 -11.5q8 0 16 12.5t8 39.5l-3 53l3 165v47l2 51q0 10 -4.5 28t-4.5 27q0 7 8 25q45 0 68 -7
q1 -8 8 -32t7 -34l-6 -80q0 -16 3.5 -51t3.5 -52q0 -25 -2 -37z" />
    <glyph glyph-name="v" unicode="v" horiz-adv-x="295" 
d="M286 452q-1 -14 -6.5 -45t-7.5 -45q-17 -149 -51 -325q-5 -35 -16 -43t-32 -8q-15 0 -32 1.5t-54 9.5q-10 10 -17.5 38.5t-7.5 75.5v11q0 4 -1 19t-7 49.5t-7 39.5l-7 68q-3 39 -20.5 125.5t-17.5 130.5v6q20 7 53 12.5t57 5.5q57 0 57 -47v-13q0 -30 9 -77l17 -93h7
q0 20 3.5 53t3.5 50v18q0 29 11.5 41.5t38.5 12.5h3q26 -4 26 -39z" />
    <glyph glyph-name="w" unicode="w" horiz-adv-x="571" 
d="M567 515q-1 -11 -2.5 -43t-4.5 -52q-5 -37 -18 -119.5t-16 -106.5q-3 -19 -5 -72.5t-8 -79.5l-1 -9v-9q0 -11 -10.5 -18.5t-44.5 -7.5q-29 0 -55 4q1 1 -19.5 1t-32 7.5t-11.5 23.5v8l-1 10q-8 30 -8 104l1 10q0 33 -10 65h-7q-10 -4 -19 -20.5t-13 -41t-4 -37.5l2 -44
q0 -13 -10 -34.5t-20 -21.5q-83 -16 -130 -16q-27 0 -49 9q-6 2 -12 12t-9 54q-4 49 -12 117t-9 95q0 19 -12.5 110.5t-12.5 133.5l-1 -2l-3 9q2 1 4 5.5t17 7.5l17 8q15 2 107 4h2q6 0 18.5 -2.5t20.5 -5.5v-4q12 -8 14 -13q3 -12 10 -81.5t13 -103.5l7 4q6 9 10.5 29.5
t4.5 34.5l-3 62q0 43 29 43h24q20 0 45 3.5t46 3.5l25 -2q7 -1 15 -16.5t18 -80.5q2 -35 22 -105q12 11 13 14q4 16 4 57l2 74l-6 57q0 15 9 24t42 9h8q30 -1 30 -43z" />
    <glyph glyph-name="x" unicode="x" horiz-adv-x="299" 
d="M303 19q-5 -7 -5 -11l2 -3q-29 -12 -44 -12h-15q-54 0 -73 -5h-4q-9 0 -18.5 5.5t-11.5 11.5q-2 8 -6 39t-8.5 46.5t-10.5 24.5l-18 26q-1 -6 -4.5 -41.5t-16.5 -52t-39 -16.5q-14 0 -22.5 6.5t-8.5 26.5v5q1 6 9 27.5t10 32.5q6 33 29 90t27 85t4 45v9q0 11 -7 39.5
t-8 37.5q-2 12 -20.5 52t-18.5 58q0 16 25 23.5t85 7.5q21 0 34 -3t19.5 -10t7 -25.5t2.5 -26.5l7 -4q2 4 12 28.5t21 35.5t27 11q12 0 18.5 -8.5t6.5 -21.5q0 -16 -14.5 -48t-16.5 -40q-1 -6 -13 -51.5t-12 -77.5q0 -33 11 -70q1 -6 1.5 -17t2.5 -17q6 -20 12 -61t9 -57
q5 -24 15.5 -57t17.5 -37z" />
    <glyph glyph-name="y" unicode="y" horiz-adv-x="312" 
d="M310 558l-2 -71q-2 -23 -15.5 -85.5t-16.5 -92.5l-21 -152q-2 -15 -12 -60t-10 -63v-18q0 -4 -0.5 -16t-4.5 -32t-5 -26q-2 -10 -3.5 -30.5t-6 -29.5t-11.5 -15l-4 -6q-9 -9 -32.5 -14.5t-42.5 -5.5q-18 0 -57.5 6t-61.5 6l-2 4l-3 -1q-3 0 -5 10t-2 18q0 54 8 84l10 14
l36 -4q13 0 22 8t11 25t2 52q0 36 -5 49l-39 149q0 15 -18 134t-18 132t7.5 19.5t40.5 6.5l37 -2q7 -1 37.5 -3.5t44.5 -6.5v-4q6 -2 11.5 -7.5t5.5 -27.5l-1 -39v-12q0 -7 1.5 -25.5t5.5 -53t5 -43.5h6q9 4 17.5 33t14.5 83.5t6 86.5v5q0 21 9.5 28t26.5 7q4 0 10 -1.5
t24 -12.5z" />
    <glyph glyph-name="z" unicode="z" horiz-adv-x="286" 
d="M282 56q4 -3 4 -10q0 -13 -17 -47q-15 3 -29 3q-23 0 -41 -7q-5 -1 -15.5 -8t-24.5 -7t-40 3.5t-32 3.5l-47 1q-18 0 -30 -2q0 2 -4.5 8t-4.5 15l1 28l-1 49q0 23 8 47q5 18 18.5 66t33.5 138t27 120q1 5 5.5 19t6 24t1.5 21q-17 10 -38 10q-12 0 -23 -3h-2q-5 0 -5 9
t6 16t23.5 11.5t21.5 6.5h4l38 2l58 -2l65 3q10 0 18.5 -5.5t12.5 -7.5l-1 -4l1 -9v-3q-2 -5 -10.5 -23.5t-10.5 -27.5q-5 -22 -21 -71t-20 -73q-3 -14 -10 -60t-13 -63q-4 -11 -10 -46.5t-14 -56.5l-14 -34q0 -5 2.5 -9.5t7 -6.5t25.5 -7q27 -9 56 -9h12q12 0 16 -2h6z" />
    <glyph glyph-name="braceleft" unicode="{" horiz-adv-x="291" 
d="M287 681q-2 -16 -23.5 -26.5t-25.5 -16.5t-5 -10l-1 -30l2 -43q-5 -40 -5 -73l4 -72q0 -42 -18.5 -73t-46.5 -36q-21 -4 -36 -37l-5 -6l2 -1q18 -32 28 -70.5t10 -75.5l-2 -42q0 -23 7 -44.5t21 -34t30 -17.5q5 -1 22.5 -1t24.5 -3t10 -9q2 -4 5 -17.5t3 -32.5
q0 -15 -5 -31q-1 0 -32 -3.5t-53 -3.5q-57 0 -85.5 24.5t-28.5 85.5l1 26l-2 33l2 65v26q0 40 -7 60q-7 22 -36 41t-38 30t-9 31q0 37 10 55.5t32.5 23.5t28.5 10t8 12q5 13 9.5 44t4.5 75v16l-1 22q0 55 21 118q10 26 28.5 35.5t48.5 12t34 2.5l28 4q13 0 27 -9t14 -24z
" />
    <glyph glyph-name="bar" unicode="|" horiz-adv-x="110" 
d="M94 -45q-2 -1 -8 -7t-16 -6q-26 0 -38.5 9t-12.5 34l1 10l-4 203l5 119l-2 104l3 81l-2 100v28q0 78 -7 130v7q0 17 11.5 25.5t30.5 8.5h6q12 -1 21 -10t9 -23v-5q4 -44 4 -90v-14.5t-3 -47.5t-3 -195q0 -68 3 -101.5t3 -46.5q0 -22 -2.5 -57t-2.5 -47q0 -23 3 -55t3 -42
z" />
    <glyph glyph-name="braceright" unicode="}" horiz-adv-x="286" 
d="M284 297v-4q0 -13 -4 -24.5t-11.5 -18t-31.5 -15.5t-30 -18t-8 -18q-4 -20 -4 -38l4 -51l-3 -45l2 -59q0 -47 -41 -69t-103 -22q-22 0 -33.5 15.5t-11.5 77.5q0 34 7 46.5t20 12.5q7 0 25 -5t27 -5q15 0 29.5 5t17.5 16q7 26 9 86t2 65v3l-1 20q0 9 8 18.5t8 11.5
q0 10 -5.5 16.5t-22.5 12t-21 9.5q-14 16 -22.5 43.5t-8.5 86.5l4 114q0 61 -2.5 83.5t-7.5 29.5q-3 5 -28 14.5t-29 14.5t-4 7q0 22 38 22q14 0 38.5 -9t32.5 -11q37 -10 65 -37t29 -65q0 -23 -4 -53.5t-4 -44.5l1 -26v-8l-2 -63q0 -17 2 -24q3 -10 33.5 -26t33.5 -27z" />
    <glyph glyph-name="asciitilde" unicode="~" horiz-adv-x="472" 
d="M466 272q-1 -4 -9 -14t-10 -13q-41 -59 -100 -59q-20 0 -40.5 9t-50.5 39t-39 38.5t-20.5 15t-24.5 11t-29 4.5q-33 0 -57 -8.5t-47 -42.5l-9 2q-9 0 -14 7t-5 14q0 22 26.5 46.5t58 35.5t53.5 11q11 0 23 -3.5t29.5 -13.5t22.5 -12q46 -18 63.5 -22.5t35.5 -4.5
q8 0 19.5 1t59.5 10q4 1 15 6.5t16 6.5h3q10 0 20.5 -17.5t10.5 -37.5z" />
    <glyph glyph-name="uni00A0" unicode="&#xa0;" horiz-adv-x="100" 
 />
    <glyph glyph-name="exclamdown" unicode="&#xa1;" horiz-adv-x="144" 
d="M131 271q-3 -24 -3 -80l-5 -110q0 -31 2.5 -64t2.5 -43q0 -47 -3.5 -62t-15 -22t-30.5 -7q-11 0 -32 2.5t-22 2.5q-8 27 -8 59l4 57l-2 41l3 61v49l6 119l-1 77l4 67v6q3 1 14.5 4.5t18.5 3.5q19 0 39.5 -11.5t24.5 -13.5q6 -54 6 -85q0 -24 -3 -51zM112 538q5 -42 5 -56
q0 -38 -22 -41h-3q-2 0 -6 0.5t-12.5 4t-10.5 4.5t-22 5.5t-26 15.5q0 101 3 113q3 8 13.5 12t21.5 4l39 -2q18 -44 20 -60z" />
    <glyph glyph-name="cent" unicode="&#xa2;" 
d="M289 386q-3 -1 -7 -7q-16 -6 -36 -6t-32 14t-12 52l1 50q0 27 -4 37t-13 10l-22 -3l-3 1q-2 -7 -4.5 -14.5t-2.5 -12.5l4 -60v-39l5 -87l-2 -70v-57q0 -90 5 -121.5t15 -31.5q43 0 43 41q0 22 -5 64v17q0 33 2 40v8q6 5 18.5 9.5t22.5 4.5q13 0 19.5 -8t6.5 -31v-26
l4 -59q0 -31 -11 -55t-32 -36t-51 -17.5t-34 -8.5l-3.5 -3.5t-21.5 -38.5t-44 -36l-5 1q-35 10 -45.5 17t-10.5 28q0 8 3.5 27t8.5 33l-14 47q-1 4 -9.5 17t-9.5 20q-4 51 -4 142v131q0 106 25 149.5t79 62.5q8 3 25.5 3.5t25.5 3.5q15 5 21 28t11 29t12.5 7t10.5 1
q36 0 36 -31v-2l-5 -50q0 -6 3 -17t19 -33q10 -13 16.5 -37.5t6.5 -49.5q0 -26 -6 -47z" />
    <glyph glyph-name="sterling" unicode="&#xa3;" horiz-adv-x="358" 
d="M339 503q-5 -19 -10 -21q-43 -14 -107 -14q-35 0 -58.5 7t-23.5 22q0 6 7.5 38t7.5 58q0 62 -34 62q-5 0 -11.5 -3.5t-10 -13.5t-4.5 -26.5t-2 -18.5q-4 -9 -4 -29q0 -31 10 -73t37 -73t65 -31q27 0 61 4q1 0 10.5 3.5t14.5 3.5h2l9 -7l-2 -54q-18 -7 -56 -12t-46 -7
l1 -5l-2 -12q0 -4 6.5 -13t7.5 -11q9 -23 9 -67q0 -56 -9 -95q-1 -7 -8 -21.5t-7 -19.5q0 -6 2.5 -11t9.5 -7.5t36 -2.5q9 0 28.5 3.5t33.5 4.5q1 -3 6 -9.5t5 -14.5q0 -12 -5.5 -24.5t-12.5 -12.5l-10 1q-19 -4 -46 -4l-64 2q-12 0 -45.5 -7t-52.5 -7q-24 0 -43.5 24
t-20.5 62v2q0 8 4 17.5t21.5 24.5t23 26.5t5.5 24.5q0 7 -2 23t-6.5 44.5t-5.5 33.5q-4 2 -19 7t-22.5 11.5t-7.5 15.5q0 7 2.5 26.5t14 42t11.5 25.5q6 32 6 40v4q-3 22 -4 56t-2 44l-3 50q0 42 17 65q16 33 50 52.5t107 19.5q67 0 86 -12q6 -3 22 -25.5t18 -30.5
q14 -71 15.5 -86.5t1.5 -25.5q0 -25 -7 -43z" />
    <glyph glyph-name="currency" unicode="&#xa4;" horiz-adv-x="395" 
d="M365 168l-40 -36l-48 59q-15 -12 -37 -20t-42 -8q-21 0 -43.5 8t-37.5 20l-47 -59l-41 37l50 58q-28 49 -28 120q0 32 7.5 65.5t20.5 54.5l-48 58l39 35l45 -57q15 13 38.5 19.5t44.5 6.5q22 0 44 -7t38 -19l45 58l39 -37l-48 -56q14 -22 21.5 -56t7.5 -65
q0 -33 -8.5 -66t-22.5 -55zM198 466q-36 0 -57 -31t-21 -88q0 -56 21.5 -88t56.5 -32q34 0 56 32t22 88t-21.5 87.5t-56.5 31.5z" />
    <glyph glyph-name="yen" unicode="&#xa5;" horiz-adv-x="436" 
d="M427 308l-3 -1.5t-4 -8.5q-35 0 -52.5 -2.5t-34.5 -10.5v-18q0 -11 5.5 -18.5t23.5 -13.5t23.5 -13t5.5 -18q0 -13 -10 -20.5t-30 -12t-25 -6.5l-2 -48l3 -57q0 -18 -2.5 -36t-7.5 -19q-46 -10 -136 -10l-61 3q-8 0 -8 49l1 64q0 20 -7 60h-8l-40 -1q-17 0 -29 4t-12 25
q0 13 9 20t38 11t38 9t13 12.5t4 18.5q0 10 -5.5 16t-29 7t-27.5 12q-3 7 -4 53q6 9 24 15t20.5 14t2.5 12v5q0 16 -3.5 29.5t-7 23.5t-9 21t-6.5 14q-5 10 -16 33t-17.5 39t-11.5 33q-2 7 -9 24t-9 30t-2 26q0 17 9 28t26 11q15 0 29.5 -15t31 -77t28.5 -79q1 2 9.5 16
t10.5 20q2 7 7.5 35t11 40t12.5 15v4q8 3 24.5 5.5t29.5 2.5l12 -1l45 1h56q43 0 60.5 -6t17.5 -27q0 -19 -17.5 -47t-18.5 -35q-3 -13 -20.5 -53.5t-17.5 -76.5q0 -15 2 -28.5t7.5 -21t24.5 -8t28 -8.5q3 -3 5 -12t3.5 -28.5t1.5 -23.5z" />
    <glyph glyph-name="brokenbar" unicode="&#xa6;" horiz-adv-x="224" 
d="M73 807h76v-436h-76v436zM73 265h76v-436h-76v436z" />
    <glyph glyph-name="section" unicode="&#xa7;" horiz-adv-x="387" 
d="M380 340l-9 -23q-3 -10 -14.5 -34t-11.5 -44t11.5 -35.5t14.5 -24.5q10 -48 10.5 -54t0.5 -12q0 -22 -13.5 -52t-47.5 -55t-79 -25q-8 0 -29.5 1t-54 6t-40.5 6q-15 2 -47 24t-38 33q-4 7 -10 29.5t-6 23.5q-4 11 -7 45l10 2l19 1q18 0 29 -9t17 -34.5t10 -32.5t8 -10
t9 -4.5t10 -1.5q17 0 27 16.5t10 38.5q0 16 -11 60q-3 13 -13.5 22.5t-34 20.5t-38 18.5t-26 19.5t-16.5 24q-11 25 -11 82q0 16 5 29.5t18 32.5t13 31q0 15 -14.5 32t-16.5 25q-3 17 -3 33q0 32 16.5 78t16.5 47q4 15 19.5 29.5t50.5 25t58 10.5q34 0 54 -7q3 -1 32.5 -8
t57 -19t41.5 -31q9 -10 20 -33t11 -38q0 -11 -9 -19t-40 -8q-1 0 -10.5 -0.5t-28.5 0t-48 3.5q-8 1 -23.5 3.5t-23.5 2.5l-13 -1q-1 1 -8.5 6t-7.5 18v14q0 12 -6 30.5t-17 28t-23 9.5q-13 0 -23.5 -12t-10.5 -32q0 -15 17 -39.5t50 -54t56 -43.5q9 -5 34.5 -15t35.5 -18
q7 -5 28.5 -17.5t29.5 -22.5q27 -35 31 -48.5t4 -25.5zM201 308q0 8 3.5 32.5t3.5 37.5q0 46 -30 64q-12 9 -20 9h-3q-33 0 -33 -133q0 -43 10 -70.5t26 -34.5q4 -2 14.5 -2.5t13.5 -1.5q4 9 7 23.5t8 75.5z" />
    <glyph glyph-name="dieresis" unicode="&#xa8;" horiz-adv-x="250" 
d="M244 682q-17 -17 -46 -17q-31 0 -49 15t-18 38l2 25v4l-1 20q0 14 9.5 21.5t22.5 7.5q34 0 52.5 -6t29 -23t10.5 -51q0 -22 -12 -34zM110 695q-3 -10 -13.5 -20.5t-28 -17.5t-30.5 -7q-2 0 -8 1t-14.5 10.5t-8.5 53.5q0 79 65 79q7 0 16.5 -9t16 -31.5t6.5 -49.5z" />
    <glyph glyph-name="copyright" unicode="&#xa9;" horiz-adv-x="492" 
d="M487 374q6 -52 6 -95q0 -66 -13.5 -127t-36.5 -92q-17 -23 -52.5 -41.5t-82.5 -28t-78 -9.5q-26 0 -77 12q-78 20 -100.5 47t-27.5 68q-1 7 -10 55.5t-10 68.5l-1 69q0 61 4 116v12l-3 77q0 34 6 59q2 7 23 41.5t34 52.5q23 34 71.5 54.5t152.5 20.5h16q17 0 31.5 -3.5
t26 -10t23 -16t48.5 -61.5q15 -20 25.5 -40.5t12.5 -35.5t2 -43v-6l-2 -29q0 -27 6 -69.5t6 -45.5zM453 225q2 11 2 33l-5 87l4 37q0 22 -7.5 54.5t-7.5 52.5q0 32 4 49v3q0 24 -39.5 84.5t-58.5 67.5q-12 4 -33.5 7.5t-40.5 3.5q-25 0 -59 -7t-66 -25t-44 -39
q-3 -6 -16 -26t-20.5 -40t-7.5 -47q0 -11 4 -41t4 -49q0 -10 -3 -46.5t-3 -55.5q0 -20 3 -54t3 -46l-2 -31q0 -26 9 -53q4 -12 22.5 -34.5t51 -46t53.5 -27.5q19 -4 42 -4q47 0 103 18q39 12 61.5 39.5t32 63.5t14.5 72zM379 255q5 -47 5 -62q0 -23 -7 -36t-8 -16
q-4 -11 -43 -26.5t-73 -15.5q-17 0 -42 5q-38 8 -57 58.5t-19 115.5q0 166 12 243l1 22v15q0 24 8 35q7 10 28.5 19.5t52 14t40.5 4.5q20 0 37.5 -6t40.5 -32q4 -4 4 -12l-1 -17v-5q0 -2 0.5 -4t8.5 -40t8 -68q0 -25 -8.5 -38.5t-33.5 -13.5q-16 0 -25.5 11.5t-9.5 25.5
q0 9 4.5 32t4.5 34q0 9 -3.5 17t-12.5 8q-14 0 -21 -18t-7 -64q0 -35 5 -67v-34q0 -60 3 -81q1 -11 7.5 -43t6.5 -38v-4q0 -28 20 -30h2q8 0 15 6t7 13q0 17 -6 50t-6 43q0 22 34 22q10 0 18.5 -6.5t9.5 -16.5z" />
    <glyph glyph-name="ordfeminine" unicode="&#xaa;" horiz-adv-x="197" 
d="M194 367q0 -26 -7.5 -37.5t-29.5 -11.5q-9 0 -17 7.5t-17 7.5h-2q-5 -1 -19.5 -11t-36.5 -10q-10 0 -21 3.5t-16 16t-5 37.5t-1 35q-4 28 -4 51q0 54 36 112q1 8 14.5 17.5t15.5 11.5q20 17 20 46q0 17 -10 51l-20 -7v-6q0 -26 -7 -54q-1 -2 -1 -15.5t-6.5 -18.5
t-17.5 -5q-19 0 -30.5 12t-11.5 47v7q2 8 23.5 32.5t28.5 25.5q4 1 22 6.5t24 5.5h3q22 -4 34.5 -8t18.5 -10.5t27 -38.5q12 -34 12 -113v-31l2 -63l-1 -72v-20zM149 463q-4 55 -9 96l-16 8l-16 -17q5 -28 5 -63l-1 -26q0 -33 6.5 -52t17.5 -19q5 0 10 12t5 26z" />
    <glyph glyph-name="guillemotleft" unicode="&#xab;" horiz-adv-x="335" 
d="M163 192q-1 -12 -10 -48.5t-10 -47.5h-3l-10 -1q-7 0 -21.5 16t-16.5 18t-19.5 16.5t-33.5 30t-24 30t-10 24.5q-6 36 -6 60q0 79 53 112q18 11 44.5 40.5t46.5 40.5l13 -7l-1 -16l2 -38q0 -17 -8.5 -34t-34 -31t-28.5 -16l-1 -13q0 -6 4 -14t28 -29.5t32 -36t11 -26.5
t3 -26v-4zM332 327q0 -1 -1 -30t-10 -43q-5 -8 -31 -26.5t-34 -25.5t-9 -12v-5q0 -6 5 -15t33.5 -25t36 -25t7.5 -18q0 -3 -0.5 -6t-2.5 -11.5t-2 -9.5l-4 1l-11 -2l-4 1l-4 7q-21 14 -34.5 24t-22.5 21q-8 10 -34 33t-34.5 37.5t-8.5 28.5v36q0 7 4.5 16.5t19 25t16.5 17.5
q48 52 114 118l10 -3q4 -27 4 -56q0 -26 -3 -53z" />
    <glyph glyph-name="logicalnot" unicode="&#xac;" horiz-adv-x="412" 
d="M373 160h-81v149h-254v83h335v-232z" />
    <glyph glyph-name="uni00AD" unicode="&#xad;" horiz-adv-x="159" 
d="M150 180q0 -6 -13.5 -11.5t-78.5 -5.5q-28 0 -39 6q-4 3 -10 22.5t-6 34.5q0 10 7.5 17t41 9t38.5 2h9q25 0 40 -12.5t15 -36.5z" />
    <glyph glyph-name="registered" unicode="&#xae;" horiz-adv-x="492" 
d="M491 214l2 -23q0 -89 -46 -143q-10 -12 -48 -32t-80 -30.5t-75 -10.5q-30 0 -87 16q-22 6 -43.5 23t-27.5 21q-52 37 -67 108q-6 27 -10 53t-4 69l1 97q0 77 7 161.5t23 100.5q35 35 83 62.5t90.5 38t72.5 10.5q24 0 56 -10.5t38 -12.5q12 -3 29 -15.5t35 -37t27 -52.5
q19 -66 19 -127l-2 -73q0 -153 7 -193zM440 167l1 19q0 17 -3.5 46t-3.5 85v11q3 69 3 122q0 70 -8.5 117.5t-32.5 80.5q-9 11 -56 32t-68 25q-15 3 -29 3q-13 0 -25 -3q-9 0 -40 -10.5t-59 -26.5t-42.5 -37.5t-14.5 -43.5l2 -39l-1 -11q-17 -139 -17 -259q0 -95 27 -158
q9 -22 34.5 -41.5t64.5 -30t68 -10.5q174 0 200 129zM383 216q-7 -71 -13 -83q-4 -5 -12.5 -9t-25.5 -5.5t-20 -2.5q-24 68 -27.5 86t-3.5 32v16q0 89 -20 98q-2 -5 -8.5 -13.5t-8.5 -17.5t-2 -20l6 -117q0 -39 -10 -47q-14 -12 -38.5 -20.5t-45.5 -8.5q-10 0 -20.5 8
t-10.5 42v31q-2 25 -2 69v42l-6 165l1 25v13l-3 80q0 20 3 26q9 9 28 16t81 7h26q26 0 54.5 -8.5t47.5 -26.5t19 -47v-5q-5 -93 -16 -122q-2 -6 -17.5 -17.5t-16.5 -13.5v-3l1 -9l-1 -4q11 -10 23.5 -28.5t26.5 -76.5q1 -2 4.5 -25.5t6.5 -25.5zM251 480l-3 23
q-2 2 -8.5 2.5t-8.5 1.5q-15 -21 -15 -84q0 -19 3.5 -29t18.5 -15l6 7q7 18 7 68v26z" />
    <glyph glyph-name="macron" unicode="&#xaf;" horiz-adv-x="250" 
d="M248 750q-1 -10 -4 -21t-3 -13q-31 -9 -85 -9q-34 0 -65 -2t-43 -2q-18 0 -26 9t-8 28q0 8 5 13t6 7l30 -1l124 6q47 0 69 -15z" />
    <glyph glyph-name="degree" unicode="&#xb0;" horiz-adv-x="356" 
d="M354 580l1 -18q0 -53 -44 -123q-3 -4 -42.5 -28.5t-45.5 -26.5q-20 -4 -41 -4q-77 0 -129 46t-52 116q0 25 5.5 54.5t14.5 51.5q3 8 21 24t49 33t48 20l27 2q28 0 43 -5q63 -23 100.5 -59.5t44.5 -82.5zM273 452q9 14 9 34q0 14 -6.5 35t-23 39t-36.5 20h-5
q-17 0 -34.5 -10t-28.5 -31.5t-11 -39.5q0 -27 24.5 -52.5t47.5 -25.5q14 0 34 8t30 23z" />
    <glyph glyph-name="plusminus" unicode="&#xb1;" horiz-adv-x="416" 
d="M373 295h-118v-124h-95v124h-119v93h119v122h95v-122h118v-93zM375 36h-334v85h334v-85z" />
    <glyph glyph-name="uni00B2" unicode="&#xb2;" horiz-adv-x="295" 
d="M25 285v50l48 62q52 63 75 107t23 80q0 27 -14 46t-43 19q-15 0 -33.5 -8.5t-32.5 -21.5l-19 54q48 39 106 39q23 0 49.5 -10.5t44 -39.5t17.5 -68q0 -48 -24.5 -95t-72.5 -105l-33 -42h135v-67h-226z" />
    <glyph glyph-name="uni00B3" unicode="&#xb3;" horiz-adv-x="293" 
d="M48 628l-13 58q17 11 43.5 18.5t52.5 7.5q47 0 76.5 -27t29.5 -72q0 -32 -17 -59t-47 -41q34 -9 55 -39.5t21 -65.5q0 -26 -11.5 -55.5t-43 -50.5t-77.5 -21q-24 0 -51.5 6.5t-42.5 18.5l13 59q11 -9 30 -15.5t37 -6.5q29 0 48 18.5t19 51.5q0 31 -20.5 50.5t-52.5 19.5
h-17l1 58h13q29 0 48 15.5t19 41.5q0 25 -14 39t-38 14q-29 0 -61 -23z" />
    <glyph glyph-name="acute" unicode="&#xb4;" horiz-adv-x="250" 
d="M195 771q0 -1 -5.5 -15t-7.5 -22q-10 -53 -28.5 -74.5t-63.5 -21.5q-17 0 -21.5 8.5t-4.5 17.5v3q-1 9 21 25.5t26 24.5q5 9 12 47t40 38q5 0 10 -1t12.5 -4t9.5 -3v-3l1 -14z" />
    <glyph glyph-name="uni00B5" unicode="&#xb5;" horiz-adv-x="379" 
d="M339 0h-72v47q-25 -56 -82 -56q-46 0 -66 36v-198h-77v684h89v-352q0 -40 17.5 -60.5t43.5 -20.5t42.5 20.5t16.5 60.5v352h88v-513z" />
    <glyph glyph-name="paragraph" unicode="&#xb6;" horiz-adv-x="405" 
d="M391 618l1 -21q0 -32 -5 -87v-12l4 -115l-4 -89l2 -78l-2 -40l4 -90q0 -41 -11 -71q-2 -8 -11.5 -15t-44.5 -7q-37 0 -48 5t-13 16.5t-2 17.5q0 12 2.5 35t2.5 28q6 48 6 128v33q0 5 -3 14.5t-3 10.5q-16 4 -100 6.5t-102 13.5q-16 9 -30 29t-21 53t-7 71q0 45 14 143
q6 42 34.5 68t79.5 40.5t160 14.5q56 0 90 -12q1 -10 2.5 -41.5t4.5 -48.5zM289 480l1 38q0 25 -7 39q-1 2 -4.5 5.5t-18 5.5t-18.5 3q-18 -26 -18 -89l2 -47v-11l-2 -36q0 -54 24 -54l18 4q26 68 26 108q0 16 -3 34z" />
    <glyph glyph-name="periodcentered" unicode="&#xb7;" horiz-adv-x="142" 
d="M137 307l2 -45q0 -31 -12 -47.5t-44 -16.5q-37 0 -71 10q-11 6 -11 50v59q0 33 13 52t57 19q23 0 38 -5t20.5 -16.5t6 -32.5t1.5 -27z" />
    <glyph glyph-name="cedilla" unicode="&#xb8;" horiz-adv-x="250" 
d="M203 -50q21 -17 21 -39q0 -24 -23 -44t-50 -20q-11 0 -28.5 6t-19.5 6v13q24 4 36 10v13q-1 1 -6 3.5t-38 13.5t-33 29v1q3 13 13.5 35t12.5 30l11 3q2 0 13.5 -1.5t16.5 -5.5q5 -3 9 -20t13 -17l9 1q27 -6 43 -17z" />
    <glyph glyph-name="uni00B9" unicode="&#xb9;" horiz-adv-x="244" 
d="M170 286h-75v348l-53 -33l-16 57l80 51h64v-423z" />
    <glyph glyph-name="ordmasculine" unicode="&#xba;" horiz-adv-x="197" 
d="M194 555q4 -88 4 -97q0 -90 -20 -120q-6 -12 -27 -19t-51 -7q-42 0 -66.5 15t-24.5 46l4 46l-6 92l4 65v9l-1 22q0 23 3.5 48.5t9.5 38.5q2 5 29 22t33 18h6q12 0 32 -9t40.5 -27.5t24.5 -30.5q6 -18 6 -49l-1 -38zM92 361q-1 7 -7 38t-6 59l4 93l-1 80l4 39q0 12 -4 21
h-21q-3 -7 -10.5 -23.5t-10 -29t-2.5 -25.5l4 -93q0 -25 -4 -40v-4q0 -11 2 -29t5 -26q2 -5 9 -17t9.5 -24.5t2.5 -28.5h2l20 -3q6 0 6 6z" />
    <glyph glyph-name="guillemotright" unicode="&#xbb;" horiz-adv-x="335" 
d="M332 203q-3 -15 -19 -37t-56.5 -61t-52.5 -53l-14 3q0 3 -5.5 31.5t-5.5 41.5q0 14 4 22q2 1 22 13.5t31.5 22.5t11.5 14l-1 8v2q-5 7 -36.5 36.5t-31.5 66.5q0 32 3 74t8 59l10 6l14 -3q8 -5 29 -29t26 -29q36 -36 46 -53q5 -8 11 -56t6 -72v-7zM157 254
q-3 -10 -26 -35.5t-63 -59.5q-17 -14 -28.5 -21.5t-31.5 -15.5q-11 22 -11 48l2 43l-1 14v7q0 15 2.5 35t7.5 28q2 3 7.5 8.5t29.5 18t29 21.5t5 15q0 16 -30.5 44.5t-36 41t-5.5 19.5q0 8 6.5 13.5t7.5 7.5q20 -15 31.5 -24.5t22.5 -22.5q2 -3 7 -8.5t23.5 -23.5
t28.5 -38.5t17 -46.5q0 -2 2.5 -11.5t4 -19.5t1.5 -19q0 -12 -2 -18z" />
    <glyph glyph-name="onequarter" unicode="&#xbc;" horiz-adv-x="580" 
d="M500 0h-72v105h-133v49l138 264h67v-253h44v-60h-44v-105zM163 285h-74v347l-55 -34l-17 57l82 51h64v-421zM164 -12h-61l269 725h63zM428 165l1 149l-76 -149h75z" />
    <glyph glyph-name="onehalf" unicode="&#xbd;" horiz-adv-x="606" 
d="M346 0v50l50 64q51 62 73.5 105.5t22.5 80.5q0 19 -7.5 35t-21.5 23t-28 7q-15 0 -33 -8.5t-32 -21.5l-19 54q46 39 105 39q23 0 49 -10.5t43.5 -39.5t17.5 -68q0 -36 -18 -82.5t-78 -118.5l-33 -42h135v-67h-226zM163 285h-74v347l-55 -34l-17 57l82 51h64v-421z
M164 -12h-61l269 725h63z" />
    <glyph glyph-name="threequarters" unicode="&#xbe;" horiz-adv-x="623" 
d="M48 626l-13 58q18 12 44 20t52 8q22 0 47 -9t42 -33.5t17 -58.5q0 -32 -17 -59t-47 -41q34 -8 55 -38.5t21 -65.5q0 -26 -11.5 -55.5t-43 -51t-77.5 -21.5q-24 0 -51.5 6.5t-42.5 18.5l13 60q11 -9 29.5 -16t37.5 -7q29 0 48 19t19 52q0 31 -21 50.5t-52 19.5h-17l1 57
h13q29 0 48 16t19 43q0 24 -14 38t-38 14q-28 0 -61 -24zM544 0h-71v105h-133v49l138 264h66v-253h45v-60h-45v-105zM210 -12h-63l270 725h63zM473 165l1 149l-76 -149h75z" />
    <glyph glyph-name="questiondown" unicode="&#xbf;" horiz-adv-x="303" 
d="M297 127q0 -37 -5 -93.5t-5 -80.5q0 -27 -19.5 -45t-52.5 -28t-70 -10q-39 0 -68.5 10t-47.5 38.5t-18 94.5q0 26 11.5 83t28.5 100t39 54q4 9 8 21.5t7 29.5t5.5 39t3.5 27v6l-1 27q0 23 34 27h7q15 0 38 -9.5t25 -10.5q1 -7 7 -41.5t6 -51.5q0 -12 -4.5 -27.5
t-33.5 -44.5q-10 -8 -34 -31.5t-41 -33.5q-3 -2 -11 -5.5t-11.5 -7t-4.5 -7.5q-8 -27 -8 -62v-23q0 -21 -2.5 -55.5t-2.5 -44.5q0 -19 7 -36t19 -29h14q1 7 1 29.5t2 33.5q3 23 3 46l-1 52q0 43 8 59q1 0 18.5 5.5t45 10.5t53.5 5q20 0 35 -6t15 -15zM197 470q0 -3 -2.5 -7
t-8 -9.5l-6.5 -6.5l-5 1l-11 -1h-3q-8 2 -32 1.5t-36 5t-20.5 20.5t-8.5 50q0 26 3.5 40.5t12.5 23t47 13.5h43q9 -28 18 -65t9 -60v-6z" />
    <glyph glyph-name="Agrave" unicode="&#xc0;" horiz-adv-x="381" 
d="M372 45q3 -17 3 -32q0 -14 -4 -19q-32 0 -72.5 -5t-53.5 -5q-22 0 -41 8q-6 2 -26 142l-14 40q-1 1 -7 3.5t-6 3.5l-4 2l-6 -2h-4q-5 0 -7 -17l2 -72q0 -44 -15 -87q-5 -1 -30.5 -5.5t-38.5 -4.5q-21 0 -27.5 6.5t-6.5 19.5l2 41l-1 15q0 59 31 252q6 36 8.5 62.5t9 113
t15.5 144.5q1 6 2 26t3 29t6 12q5 4 54 4q94 0 138 -7q19 -3 27.5 -23t10.5 -62t4 -55q10 -72 15.5 -206t13.5 -200t19 -122zM252 757l-8 -8t-24 -12t-53 -5q-11 0 -25 4.5t-15 9.5q-2 1 -14 15t-28.5 35t-17.5 25q-1 2 -16.5 27.5t-17.5 39.5v4q0 5 3.5 10.5t13.5 9t24.5 4
t31 0t20.5 -0.5h20q28 0 48 -11q2 -1 6 -4.5t7 -18t4 -17.5q2 -7 12 -29t12 -31q1 -5 3 -12t7.5 -19.5t6.5 -15.5zM130 217q5 10 5 47q0 23 -4 49.5t-4 52.5v10q0 6 -4 54q-37 -55 -37 -189q0 -19 4.5 -26t20.5 -7q6 0 11.5 2.5t7.5 6.5z" />
    <glyph glyph-name="Aacute" unicode="&#xc1;" horiz-adv-x="381" 
d="M372 45q3 -17 3 -32q0 -14 -4 -19q-32 0 -72.5 -5t-53.5 -5q-22 0 -41 8q-6 2 -26 142l-14 40q-1 1 -7 3.5t-6 3.5l-4 2l-6 -2h-4q-5 0 -7 -17l2 -72q0 -44 -15 -87q-5 -1 -30.5 -5.5t-38.5 -4.5q-21 0 -27.5 6.5t-6.5 19.5l2 41l-1 15q0 59 31 252q6 36 8.5 62.5t9 113
t15.5 144.5q1 6 2 26t3 29t6 12q5 4 54 4q94 0 138 -7q19 -3 27.5 -23t10.5 -62t4 -55q10 -72 15.5 -206t13.5 -200t19 -122zM258 872q0 -1 -5.5 -15t-7.5 -22q-10 -53 -28.5 -74.5t-63.5 -21.5q-17 0 -21.5 8.5t-4.5 17.5v3q-1 9 21 25.5t26 24.5q5 9 12 47t40 38
q5 0 10 -1t12.5 -4t9.5 -3v-3l1 -14zM130 217q5 10 5 47q0 23 -4 49.5t-4 52.5v10q0 6 -4 54q-37 -55 -37 -189q0 -19 4.5 -26t20.5 -7q6 0 11.5 2.5t7.5 6.5z" />
    <glyph glyph-name="Acircumflex" unicode="&#xc2;" horiz-adv-x="381" 
d="M372 45q3 -17 3 -32q0 -14 -4 -19q-32 0 -72.5 -5t-53.5 -5q-22 0 -41 8q-6 2 -26 142l-14 40q-1 1 -7 3.5t-6 3.5l-4 2l-6 -2h-4q-5 0 -7 -17l2 -72q0 -44 -15 -87q-5 -1 -30.5 -5.5t-38.5 -4.5q-21 0 -27.5 6.5t-6.5 19.5l2 41l-1 15q0 59 31 252q6 36 8.5 62.5t9 113
t15.5 144.5q1 6 2 26t3 29t6 12q5 4 54 4q94 0 138 -7q19 -3 27.5 -23t10.5 -62t4 -55q10 -72 15.5 -206t13.5 -200t19 -122zM302 756l1 -7q0 -13 -12 -13q-16 0 -37.5 27.5t-29.5 32t-13 4.5h-3q-6 0 -9.5 -5t-8.5 -20t-10.5 -23.5t-15.5 -14.5t-27 -6q-12 0 -57 9v8
q0 14 3 22q0 1 0.5 1.5t8 27.5t20 51t33.5 41.5t52 17.5q27 0 39 -12t19.5 -33.5t12.5 -29.5q10 -19 24 -55zM130 217q5 10 5 47q0 23 -4 49.5t-4 52.5v10q0 6 -4 54q-37 -55 -37 -189q0 -19 4.5 -26t20.5 -7q6 0 11.5 2.5t7.5 6.5z" />
    <glyph glyph-name="Atilde" unicode="&#xc3;" horiz-adv-x="381" 
d="M372 45q3 -17 3 -32q0 -14 -4 -19q-32 0 -72.5 -5t-53.5 -5q-22 0 -41 8q-6 2 -26 142l-14 40q-1 1 -7 3.5t-6 3.5l-4 2l-6 -2h-4q-5 0 -7 -17l2 -72q0 -44 -15 -87q-5 -1 -30.5 -5.5t-38.5 -4.5q-21 0 -27.5 6.5t-6.5 19.5l2 41l-1 15q0 59 31 252q6 36 8.5 62.5t9 113
t15.5 144.5q1 6 2 26t3 29t6 12q5 4 54 4q94 0 138 -7q19 -3 27.5 -23t10.5 -62t4 -55q10 -72 15.5 -206t13.5 -200t19 -122zM307 794q-13 -45 -30 -58l-4 -3l-8 -1q-19 0 -36 6.5t-41.5 23t-37.5 16.5q-11 0 -25 -21t-19 -21q-9 0 -14 14.5t-5 31.5q0 27 11.5 43.5
t35.5 16.5q17 0 40 -9.5t39 -28.5q2 -2 7 -11t9 -13.5t7 -5.5q30 1 34 3t10.5 10t9.5 10zM130 217q5 10 5 47q0 23 -4 49.5t-4 52.5v10q0 6 -4 54q-37 -55 -37 -189q0 -19 4.5 -26t20.5 -7q6 0 11.5 2.5t7.5 6.5z" />
    <glyph glyph-name="Adieresis" unicode="&#xc4;" horiz-adv-x="381" 
d="M372 45q3 -17 3 -32q0 -14 -4 -19q-32 0 -72.5 -5t-53.5 -5q-22 0 -41 8q-6 2 -26 142l-14 40q-1 1 -7 3.5t-6 3.5l-4 2l-6 -2h-4q-5 0 -7 -17l2 -72q0 -44 -15 -87q-5 -1 -30.5 -5.5t-38.5 -4.5q-21 0 -27.5 6.5t-6.5 19.5l2 41l-1 15q0 59 31 252q6 36 8.5 62.5t9 113
t15.5 144.5q1 6 2 26t3 29t6 12q5 4 54 4q94 0 138 -7q19 -3 27.5 -23t10.5 -62t4 -55q10 -72 15.5 -206t13.5 -200t19 -122zM309 753q-17 -17 -46 -17q-31 0 -49 15t-18 38l2 25v4l-1 20q0 14 9.5 21.5t22.5 7.5q34 0 52.5 -6t29 -23t10.5 -51q0 -22 -12 -34zM175 766
q-3 -10 -13.5 -20.5t-28 -17.5t-30.5 -7q-2 0 -8 1t-14.5 10.5t-8.5 53.5q0 79 65 79q7 0 16.5 -9t16 -31.5t6.5 -49.5zM130 217q5 10 5 47q0 23 -4 49.5t-4 52.5v10q0 6 -4 54q-37 -55 -37 -189q0 -19 4.5 -26t20.5 -7q6 0 11.5 2.5t7.5 6.5z" />
    <glyph glyph-name="Aring" unicode="&#xc5;" horiz-adv-x="381" 
d="M372 45q3 -17 3 -32q0 -14 -4 -19q-32 0 -72.5 -5t-53.5 -5q-22 0 -41 8q-6 2 -26 142l-14 40q-1 1 -7 3.5t-6 3.5l3 1l-7 1l-6 -2h-4q-5 0 -7 -17l2 -72q0 -44 -15 -87q-5 -1 -30.5 -5.5t-38.5 -4.5q-22 0 -32 10v2l-1 -1v10l1 46l-1 15q0 59 31 252q6 36 8.5 62.5
t9 113t15.5 144.5q1 9 1 32.5t10.5 31.5t39.5 8l3 1q-7 11 -15.5 29.5t-8.5 28.5q0 12 13.5 29.5t32.5 26t36 8.5q41 0 63 -21.5t22 -55.5q0 -31 -12 -54h18q19 -3 27.5 -23t10.5 -62t4 -55q10 -72 15.5 -206t13.5 -200t19 -122zM130 217q5 10 5 47q0 23 -4 49.5t-4 52.5v10
q0 6 -4 54q-37 -55 -37 -189q0 -19 4.5 -26t20.5 -7q6 0 11.5 2.5t7.5 6.5zM202 745q-4 8 -19 14.5t-22 6.5t-11 -7t-4 -35q1 -4 4.5 -9.5t6.5 -5.5h1q20 2 33.5 6t13.5 16z" />
    <glyph glyph-name="AE" unicode="&#xc6;" horiz-adv-x="478" 
d="M474 7q-3 -3 -19 -5t-53 -3.5t-42 -1.5q-2 0 -16.5 -2t-25 -2.5t-16.5 -0.5q-32 0 -41.5 12t-9.5 49l3 95q0 67 -28 67q-18 0 -27 -8.5t-12.5 -27.5t-5.5 -24q-6 -19 -10.5 -40t-7 -50.5t-4 -41.5t-7 -20.5t-15.5 -14t-33 -5.5h-48q-27 0 -38 7t-11 20l2 11l1 -1
q2 5 1.5 11t1.5 10q4 19 11.5 60t15.5 68q1 4 9 29.5t14.5 49t9.5 45.5q4 35 16.5 82.5t14.5 59.5q9 48 24 106t29 96q6 9 14 33t20 31q14 9 38 13.5t74 5.5t67 3l41 2q39 0 53.5 -10t14.5 -29q0 -16 -9.5 -24t-24.5 -8l-11 2q-77 -7 -77 -16q-8 -23 -15 -59.5t-7 -58.5
q0 -88 59 -88h6l37 4q12 0 16 -9t7 -24.5t3 -45.5q0 -14 -5.5 -22.5t-24.5 -8.5l-12 2q-10 -1 -37.5 -2.5t-41 -5t-24.5 -11t-17.5 -25t-6.5 -43.5q0 -25 10 -113q1 -5 19 -8q1 0 3 0.5t25 4.5t42 4h4q13 0 41.5 -3t32.5 -6q4 -4 7 -28.5t3 -45.5q0 -35 -7 -41zM198 259
l1 35q0 25 -3 72.5t-3 56.5v30t-2 39t-6 30q-9 -13 -17.5 -35.5t-13.5 -65t-6 -50.5q-2 -15 -11.5 -57t-11.5 -68q26 -13 45 -13q11 0 19 6t9 20z" />
    <glyph glyph-name="Ccedilla" unicode="&#xc7;" horiz-adv-x="347" 
d="M336 153q-1 -52 -5 -81q-2 -16 -13.5 -29.5t-46.5 -31.5t-47 -26q-9 -3 -21 -3h-9q3 -6 10 -6l9 1q30 -6 47 -21.5t17 -34.5q0 -24 -23 -44t-50 -20q-11 0 -28.5 6t-19.5 6v13q24 4 36 10v13q-1 1 -6 3.5t-38 13.5t-33 29v1q0 1 2.5 7t19.5 30q-60 12 -91.5 46.5
t-31.5 85.5l1 8q1 17 -2.5 99t-3.5 135l4 97v8l-4 97q0 28 5 49h4q8 18 19 40t22 38q10 16 41 26t93 11h3q37 0 75 -23t47 -47q16 -39 16 -121q0 -42 -13 -138l-22 -2q-29 0 -41 12.5t-12 44.5l6 97q0 9 -1.5 16t-6.5 13.5t-7 9.5q-4 -1 -15.5 -2t-14.5 -11q-16 -36 -15 -85
t0 -59v-7l1 -41v-7q-3 -25 -3 -53q0 -99 4 -151v-29q0 -43 4 -64.5t12 -30t18 -8.5q1 0 5 0.5t11.5 3t12.5 11.5t6 19t0 28l-3 58q0 41 5 51l66 7q1 -2 4.5 -13.5t3.5 -32.5q0 -13 -3 -22z" />
    <glyph glyph-name="Egrave" unicode="&#xc8;" horiz-adv-x="286" 
d="M282 89l1 -19q0 -34 -4.5 -50t-13 -21t-27.5 -5q-15 0 -45 5.5t-37 5.5h-2q-5 0 -15.5 -3.5t-12.5 -3.5q-49 -7 -65 -7q-12 0 -28.5 7t-17.5 7q0 38 -4 98t-4 93q0 26 4.5 92.5t4.5 102.5l-2 56q0 17 5 58t5 57q0 22 -4.5 58t-4.5 46v3l-1 17q0 19 41 27t90 7
q44 0 87 -4.5t46 -13.5t3 -20q0 -20 -7.5 -34t-17.5 -14q-5 0 -14 4t-11 4h-6q-13 0 -22 -7.5t-9 -35.5v-35q0 -6 -3.5 -30t-3.5 -35q0 -18 7 -29t28 -11h13q16 0 24 -3t12 -12.5t4 -24.5q0 -3 -2 -23.5t-6.5 -37.5t-17 -26.5t-32.5 -9.5l-63 3q-8 -15 -8 -32l1 -27l-4 -76
q0 -33 3 -47q1 -3 2 -13t3 -16t9 -11.5t31 -5.5l62 4q7 0 16.5 -3t12.5 -9zM224 762l-8 -8t-24 -12t-53 -5q-11 0 -25 4.5t-15 9.5q-2 1 -14 15t-28.5 35t-17.5 25q-1 2 -16.5 27.5t-17.5 39.5v4q0 5 3.5 10.5t13.5 9t24.5 4t31 0t20.5 -0.5h20q28 0 48 -11q2 -1 6 -4.5
t7 -18t4 -17.5q2 -7 12 -29t12 -31q1 -5 3 -12t7.5 -19.5t6.5 -15.5z" />
    <glyph glyph-name="Eacute" unicode="&#xc9;" horiz-adv-x="286" 
d="M282 89l1 -19q0 -34 -4.5 -50t-13 -21t-27.5 -5q-15 0 -45 5.5t-37 5.5h-2q-5 0 -15.5 -3.5t-12.5 -3.5q-49 -7 -65 -7q-12 0 -28.5 7t-17.5 7q0 38 -4 98t-4 93q0 26 4.5 92.5t4.5 102.5l-2 56q0 17 5 58t5 57q0 22 -4.5 58t-4.5 46v3l-1 17q0 19 41 27t90 7
q44 0 87 -4.5t46 -13.5t3 -20q0 -20 -7.5 -34t-17.5 -14q-5 0 -14 4t-11 4h-6q-13 0 -22 -7.5t-9 -35.5v-35q0 -6 -3.5 -30t-3.5 -35q0 -18 7 -29t28 -11h13q16 0 24 -3t12 -12.5t4 -24.5q0 -3 -2 -23.5t-6.5 -37.5t-17 -26.5t-32.5 -9.5l-63 3q-8 -15 -8 -32l1 -27l-4 -76
q0 -33 3 -47q1 -3 2 -13t3 -16t9 -11.5t31 -5.5l62 4q7 0 16.5 -3t12.5 -9zM230 862q0 -1 -5.5 -15t-7.5 -22q-10 -53 -28.5 -74.5t-63.5 -21.5q-17 0 -21.5 8.5t-4.5 17.5v3q-1 9 21 25.5t26 24.5q5 9 12 47t40 38q5 0 10 -1t12.5 -4t9.5 -3v-3l1 -14z" />
    <glyph glyph-name="Ecircumflex" unicode="&#xca;" horiz-adv-x="286" 
d="M282 89l1 -19q0 -34 -4.5 -50t-13 -21t-27.5 -5q-15 0 -45 5.5t-37 5.5h-2q-5 0 -15.5 -3.5t-12.5 -3.5q-49 -7 -65 -7q-12 0 -28.5 7t-17.5 7q0 38 -4 98t-4 93q0 26 4.5 92.5t4.5 102.5l-2 56q0 17 5 58t5 57q0 22 -4.5 58t-4.5 46v3l-1 17q0 19 41 27t90 7
q44 0 87 -4.5t46 -13.5t3 -20q0 -20 -7.5 -34t-17.5 -14q-5 0 -14 4t-11 4h-6q-13 0 -22 -7.5t-9 -35.5v-35q0 -6 -3.5 -30t-3.5 -35q0 -18 7 -29t28 -11h13q16 0 24 -3t12 -12.5t4 -24.5q0 -3 -2 -23.5t-6.5 -37.5t-17 -26.5t-32.5 -9.5l-63 3q-8 -15 -8 -32l1 -27l-4 -76
q0 -33 3 -47q1 -3 2 -13t3 -16t9.5 -11.5t31.5 -5.5l57 3l5 1q8 0 17 -3t11 -9zM253 756l1 -7q0 -13 -12 -13q-16 0 -37.5 27.5t-29.5 32t-13 4.5h-3q-6 0 -9.5 -5t-8.5 -20t-10.5 -23.5t-15.5 -14.5t-27 -6q-12 0 -57 9v8q0 14 3 22q0 1 0.5 2t8 27.5t20 50.5t33.5 41.5
t52 17.5q27 0 39 -12t19.5 -33.5t12.5 -29.5q10 -19 24 -55z" />
    <glyph glyph-name="Edieresis" unicode="&#xcb;" horiz-adv-x="286" 
d="M282 89l1 -19q0 -34 -4.5 -50t-13 -21t-27.5 -5q-15 0 -45 5.5t-37 5.5h-2q-5 0 -15.5 -3.5t-12.5 -3.5q-49 -7 -65 -7q-12 0 -28.5 7t-17.5 7q0 38 -4 98t-4 93q0 26 4.5 92.5t4.5 102.5l-2 56q0 17 5 58t5 57q0 22 -4.5 58t-4.5 46v3l-1 17q0 19 41 27t90 7
q44 0 87 -4.5t46 -13.5t3 -20q0 -20 -7.5 -34t-17.5 -14q-5 0 -14 4t-11 4h-6q-13 0 -22 -7.5t-9 -35.5v-35q0 -6 -3.5 -30t-3.5 -35q0 -18 7 -29t28 -11h13q16 0 24 -3t12 -12.5t4 -24.5q0 -3 -2 -23.5t-6.5 -37.5t-17 -26.5t-32.5 -9.5l-63 3q-8 -15 -8 -32l1 -27l-4 -76
q0 -33 3 -47q1 -3 2 -13t3 -16t9.5 -11.5t31.5 -5.5l57 3l5 1q8 0 17 -3t11 -9zM264 762q-17 -17 -46 -17q-31 0 -49 15t-18 38l2 25v4l-1 20q0 14 9.5 21.5t22.5 7.5q34 0 52.5 -6t29 -23t10.5 -51q0 -22 -12 -34zM130 775q-3 -10 -13.5 -20.5t-28 -17.5t-30.5 -7
q-2 0 -8 1t-14.5 10.5t-8.5 53.5q0 79 65 79q7 0 16.5 -9t16 -31.5t6.5 -49.5z" />
    <glyph glyph-name="Igrave" unicode="&#xcc;" horiz-adv-x="198" 
d="M191 596q-12 -65 -12 -80l3 -39l-3 -72l1 -41v-11l-1 -39l3 -49q0 -25 -3 -62.5t-3 -50.5l5 -104v-5l2 -28q0 -7 -1.5 -11t-7.5 -7t-8 -6q-19 3 -67 3.5t-70 6.5q-3 11 -3 32v22q0 8 -3.5 43t-3.5 51v135l-6 153l2 49q2 21 2 95.5t4 96.5v3l-1 12q0 23 66 23q24 0 97 -11
q4 -12 7 -34.5t3 -43.5zM159 765l-8 -8t-24 -12t-53 -5q-11 0 -25 4.5t-15 9.5q-2 1 -14 15t-28.5 35t-17.5 25q-1 2 -16.5 27.5t-17.5 39.5v4q0 5 3.5 10.5t13.5 9t24.5 4t31 0t20.5 -0.5h20q28 0 48 -11q2 -1 6 -4.5t7 -18t4 -17.5q2 -7 12 -29t12 -31q1 -5 3 -12
t7.5 -19.5t6.5 -15.5z" />
    <glyph glyph-name="Iacute" unicode="&#xcd;" horiz-adv-x="198" 
d="M191 596q-12 -65 -12 -80l3 -39l-3 -72l1 -41v-11l-1 -39l3 -49q0 -25 -3 -62.5t-3 -50.5l5 -104v-5l2 -28q0 -7 -1.5 -11t-7.5 -7t-8 -6q-19 3 -67 3.5t-70 6.5q-3 11 -3 32v22q0 8 -3.5 43t-3.5 51v135l-6 153l2 49q2 21 2 95.5t4 96.5v3l-1 12q0 23 66 23q24 0 97 -11
q4 -12 7 -34.5t3 -43.5zM175 875q0 -1 -5.5 -15t-7.5 -22q-10 -53 -28.5 -74.5t-63.5 -21.5q-17 0 -21.5 8.5t-4.5 17.5v3q-1 9 21 25.5t26 24.5q5 9 12 47t40 38q5 0 10 -1t12.5 -4t9.5 -3v-3l1 -14z" />
    <glyph glyph-name="Icircumflex" unicode="&#xce;" horiz-adv-x="198" 
d="M191 596q-12 -65 -12 -80l3 -39l-3 -72l1 -41v-11l-1 -39l3 -49q0 -25 -3 -62.5t-3 -50.5l5 -104v-5l2 -28q0 -7 -1.5 -11t-7.5 -7t-8 -6q-19 3 -67 3.5t-70 6.5q-3 11 -3 32v22q0 8 -3.5 43t-3.5 51v135l-6 153l2 49q2 21 2 95.5t4 96.5v3l-1 12q0 23 66 23q24 0 97 -11
q4 -12 7 -34.5t3 -43.5zM218 766l1 -7q0 -13 -12 -13q-16 0 -37.5 27.5t-29.5 32t-13 4.5h-3q-6 0 -9.5 -5t-8.5 -20t-10.5 -23.5t-15.5 -14.5t-27 -6q-12 0 -57 9v8q0 14 3 22q0 1 0.5 2t8 27.5t20 50.5t33.5 41.5t52 17.5q27 0 39 -12t19.5 -33.5t12.5 -29.5
q10 -19 24 -55z" />
    <glyph glyph-name="Idieresis" unicode="&#xcf;" horiz-adv-x="198" 
d="M191 596q-12 -65 -12 -80l3 -39l-3 -72l1 -41v-11l-1 -39l3 -49q0 -25 -3 -62.5t-3 -50.5l5 -104v-5l2 -28q0 -7 -1.5 -11t-7.5 -7t-8 -6q-19 3 -67 3.5t-70 6.5q-3 11 -3 32v22q0 8 -3.5 43t-3.5 51v135l-6 153l2 49q2 21 2 95.5t4 96.5v3l-1 12q0 23 66 23q24 0 97 -11
q4 -12 7 -34.5t3 -43.5zM214 763q-17 -17 -46 -17q-31 0 -49 15t-18 38l2 25v4l-1 20q0 14 9.5 21.5t22.5 7.5q34 0 52.5 -6t29 -23t10.5 -51q0 -22 -12 -34zM80 776q-3 -10 -13.5 -20.5t-28 -17.5t-30.5 -7q-2 0 -8 1t-14.5 10.5t-8.5 53.5q0 79 65 79q7 0 16.5 -9
t16 -31.5t6.5 -49.5z" />
    <glyph glyph-name="Eth" unicode="&#xd0;" horiz-adv-x="424" 
d="M414 453l1 -40q0 -25 -2.5 -68.5t-2.5 -57.5v-6l1 -44q0 -71 -7 -141q-2 -24 -12.5 -43t-28.5 -34t-52.5 -27t-79.5 -12q-25 0 -73.5 5.5t-60.5 6.5q-53 3 -64 10q-16 16 -16 63q0 17 3 50t3 45v10l-1 30l4 110v14q-13 2 -21.5 14t-8.5 34q0 14 16.5 24t16.5 20l1 44
q0 50 -4 142q0 4 -2.5 28t-2.5 37q0 9 1.5 18.5t17.5 30.5l18 -1l63 3q13 0 68.5 -6t69.5 -6h7q48 0 80 -19.5t48.5 -53t16.5 -71.5l-1 -18zM185 572q-2 9 -15.5 12t-15.5 4q-22 -21 -22 -73l3 -81l-2 -28q9 -6 15 -17t6 -24q0 -12 -6 -23t-8 -15q-19 -19 -19 -91
q0 -24 5.5 -76t5.5 -70l-1 -17q0 -28 20 -28h6l17 10l4 12q0 14 -4 22l-1 48q0 61 4.5 134.5t4.5 117.5v24q0 13 5 48.5t5 56.5q0 27 -7 54z" />
    <glyph glyph-name="Ntilde" unicode="&#xd1;" horiz-adv-x="472" 
d="M465 58l2 -34q0 -30 -14 -30h-20q-78 0 -95 8q-22 31 -28.5 105t-9.5 94q-8 50 -47 166q0 -1 -1.5 -4.5t-14 -28.5t-12.5 -42q0 -63 5.5 -143t5.5 -100q0 -25 -10 -40.5t-52 -15.5l-72 3h-21l-37 -5q-24 0 -24 116l1 20q0 21 -3.5 115.5t-3.5 133.5q0 82 3 149v18l-1 65
q0 58 14 89q6 12 24 18t60 6l61 -2l37 2q36 0 48 -6.5t12 -33.5l-3 -57q0 -28 13 -84t15 -69q-1 -12 13.5 -51.5t16.5 -49.5h7l-1 27q0 22 3.5 71.5t3.5 69.5q2 82 3.5 106t3.5 36q2 22 5 28.5t11 9t20 2.5q29 0 52.5 -9.5t23.5 -19.5l-1 -11q1 -7 2.5 -46t1.5 -140v-33
q0 -31 -3 -92.5t-3 -91.5q0 -61 4 -129t5 -90zM380 789q-13 -45 -30 -58l-4 -3l-8 -1q-19 0 -36 6.5t-41.5 23t-37.5 16.5q-11 0 -25 -21t-19 -21q-9 0 -14 14.5t-5 31.5q0 27 11.5 43.5t35.5 16.5q17 0 40 -9.5t39 -28.5q2 -2 7 -11t9 -13.5t7 -5.5q30 1 34 3t10.5 10
t9.5 10z" />
    <glyph glyph-name="Ograve" unicode="&#xd2;" horiz-adv-x="416" 
d="M402 577q4 -32 4 -72q0 -33 -4.5 -93.5t-4.5 -82.5q0 -5 1 -14.5t3 -34t2 -115.5q0 -86 -11 -97q-38 -38 -57 -48t-40.5 -17t-27.5 -9q-3 -1 -19.5 -7.5t-28.5 -6.5q-52 0 -97 16t-63 45q-7 10 -13.5 25.5t-10.5 38t-6 42.5t-2 22q-1 12 -7 61.5t-9.5 95t-3.5 93.5
q0 99 3 135.5t11 59.5l6 3q4 5 11 20t13 21q6 4 29.5 24t38.5 26q13 8 40 14t68 6h23q75 0 101 -26v-7l14 -14q30 -53 37 -104zM176 109l1 43q0 49 -4 95q-5 28 -5 79v38l-3 56l5 118q0 35 -5 51.5t-20 16.5h-4l-8 1q-22 -29 -22 -86q0 -10 5 -93q0 -9 2 -70.5t4 -87.5
q4 -36 4 -105l-1 -46q0 -12 11 -74q15 -7 26 -7q15 0 15 24l-1 36v11zM272 777l-8 -8t-24 -12t-53 -5q-11 0 -25 4.5t-15 9.5q-2 1 -14 15t-28.5 35t-17.5 25q-1 2 -16.5 27.5t-17.5 39.5v4q0 5 3.5 10.5t13.5 9t24.5 4t31 0t20.5 -0.5h20q28 0 48 -11q2 -1 6 -4.5t7 -18
t4 -17.5q2 -7 12 -29t12 -31q1 -5 3 -12t7.5 -19.5t6.5 -15.5z" />
    <glyph glyph-name="Oacute" unicode="&#xd3;" horiz-adv-x="416" 
d="M402 577q4 -32 4 -72q0 -33 -4.5 -93.5t-4.5 -82.5q0 -5 1 -14.5t3 -34t2 -115.5q0 -86 -11 -97q-38 -38 -57 -48t-40.5 -17t-27.5 -9q-3 -1 -19.5 -7.5t-28.5 -6.5q-52 0 -97 16t-63 45q-7 10 -13.5 25.5t-10.5 38t-6 42.5t-2 22q-1 12 -7 61.5t-9.5 95t-3.5 93.5
q0 99 3 135.5t11 59.5l6 3q4 5 11 20t13 21q6 4 29.5 24t38.5 26q13 8 40 14t68 6h23q75 0 101 -26v-7l14 -14q30 -53 37 -104zM176 109l1 43q0 49 -4 95q-5 28 -5 79v38l-3 56l5 118q0 35 -5 51.5t-20 16.5h-4l-8 1q-22 -29 -22 -86q0 -10 5 -93q0 -9 2 -70.5t4 -87.5
q4 -36 4 -105l-1 -46q0 -12 11 -74q15 -7 26 -7q15 0 15 24l-1 36v11zM288 902q0 -1 -5.5 -15t-7.5 -22q-10 -53 -28.5 -74.5t-63.5 -21.5q-17 0 -21.5 8.5t-4.5 17.5v3q-1 9 21 25.5t26 24.5q5 9 12 47t40 38q5 0 10 -1t12.5 -4t9.5 -3v-3l1 -14z" />
    <glyph glyph-name="Ocircumflex" unicode="&#xd4;" horiz-adv-x="416" 
d="M402 577q4 -32 4 -72q0 -33 -4.5 -93.5t-4.5 -82.5q0 -5 1 -14.5t3 -34t2 -115.5q0 -86 -11 -97q-38 -38 -57 -48t-40.5 -17t-27.5 -9q-3 -1 -19.5 -7.5t-28.5 -6.5q-52 0 -97 16t-63 45q-7 10 -13.5 25.5t-10.5 38t-6 42.5t-2 22q-1 12 -7 61.5t-9.5 95t-3.5 93.5
q0 99 3 135.5t11 59.5l6 3q4 5 11 20t13 21q6 4 29.5 24t38.5 26q13 8 40 14t68 6h23q75 0 101 -26v-7l14 -14q30 -53 37 -104zM176 109l1 43q0 49 -4 95q-5 28 -5 79v38l-3 56l5 118q0 35 -5 51.5t-20 16.5h-4l-8 1q-22 -29 -22 -86q0 -10 5 -93q0 -9 2 -70.5t4 -87.5
q4 -36 4 -105l-1 -46q0 -12 11 -74q15 -7 26 -7q15 0 15 24l-1 36v11zM321 773l1 -7q0 -13 -12 -13q-16 0 -37.5 27.5t-29.5 32t-13 4.5h-3q-6 0 -9.5 -5t-8.5 -20t-10.5 -23.5t-15.5 -14.5t-27 -6q-12 0 -57 9v8q0 14 3 22q0 1 0.5 1.5t8 27.5t20 51t33.5 41.5t52 17.5
q27 0 39 -12t19.5 -33.5t12.5 -29.5q10 -19 24 -55z" />
    <glyph glyph-name="Otilde" unicode="&#xd5;" horiz-adv-x="416" 
d="M402 577q4 -32 4 -72q0 -33 -4.5 -93.5t-4.5 -82.5q0 -5 1 -14.5t3 -34t2 -115.5q0 -86 -11 -97q-38 -38 -57 -48t-40.5 -17t-27.5 -9q-3 -1 -19.5 -7.5t-28.5 -6.5q-52 0 -97 16t-63 45q-7 10 -13.5 25.5t-10.5 38t-6 42.5t-2 22q-1 12 -7 61.5t-9.5 95t-3.5 93.5
q0 99 3 135.5t11 59.5l6 3q4 5 11 20t13 21q6 4 29.5 24t38.5 26q13 8 40 14t68 6h23q75 0 101 -26v-7l14 -14q30 -53 37 -104zM176 109l1 43q0 49 -4 95q-5 28 -5 79v38l-3 56l5 118q0 35 -5 51.5t-20 16.5h-4l-8 1q-22 -29 -22 -86q0 -10 5 -93q0 -9 2 -70.5t4 -87.5
q4 -36 4 -105l-1 -46q0 -12 11 -74q15 -7 26 -7q15 0 15 24l-1 36v11zM316 805q-13 -45 -30 -58l-4 -3l-8 -1q-19 0 -36 6.5t-41.5 23t-37.5 16.5q-11 0 -25 -21t-19 -21q-9 0 -14 14.5t-5 31.5q0 27 11.5 43.5t35.5 16.5q17 0 40 -9.5t39 -28.5q2 -2 7 -11t9 -13.5t7 -5.5
q30 1 34 3t10.5 10t9.5 10z" />
    <glyph glyph-name="Odieresis" unicode="&#xd6;" horiz-adv-x="416" 
d="M402 577q4 -32 4 -72q0 -33 -4.5 -93.5t-4.5 -82.5q0 -5 1 -14.5t3 -34t2 -115.5q0 -86 -11 -97q-38 -38 -57 -48t-40.5 -17t-27.5 -9q-3 -1 -19.5 -7.5t-28.5 -6.5q-52 0 -97 16t-63 45q-7 10 -13.5 25.5t-10.5 38t-6 42.5t-2 22q-1 12 -7 61.5t-9.5 95t-3.5 93.5
q0 99 3 135.5t11 59.5l6 3q4 5 11 20t13 21q6 4 29.5 24t38.5 26q13 8 40 14t68 6h23q75 0 101 -26v-7l14 -14q30 -53 37 -104zM176 109l1 43q0 49 -4 95q-5 28 -5 79v38l-3 56l5 118q0 35 -5 51.5t-20 16.5h-4l-8 1q-22 -29 -22 -86q0 -10 5 -93q0 -9 2 -70.5t4 -87.5
q4 -36 4 -105l-1 -46q0 -12 11 -74q15 -7 26 -7q15 0 15 24l-1 36v11zM330 768q-17 -17 -46 -17q-31 0 -49 15t-18 38l2 25v4l-1 20q0 14 9.5 21.5t22.5 7.5q34 0 52.5 -6t29 -23t10.5 -51q0 -22 -12 -34zM196 781q-3 -10 -13.5 -20.5t-28 -17.5t-30.5 -7q-2 0 -8 1
t-14.5 10.5t-8.5 53.5q0 79 65 79q7 0 16.5 -9t16 -31.5t6.5 -49.5z" />
    <glyph glyph-name="multiply" unicode="&#xd7;" horiz-adv-x="417" 
d="M378 150l-65 -63l-105 124l-105 -125l-64 62l107 127l-107 127l64 63l106 -127l106 126l64 -62l-108 -127z" />
    <glyph glyph-name="Oslash" unicode="&#xd8;" horiz-adv-x="416" 
d="M409 464l-4 -136l2 -27v-6l-5 -89l1 -54q0 -71 -27 -107q-8 -11 -27 -25.5t-47 -26.5t-43 -12q-13 0 -44 5.5t-48 5.5t-27 -17t-18 -20t-15 -3q-34 0 -54.5 7.5t-20.5 16.5v5q1 3 7 11t7 9q3 7 6 23t3 26v5q-1 7 -9.5 20t-9.5 17q-18 49 -18 162l2 75l-6 135l2 45l-3 64
q0 29 18.5 63.5t64.5 65.5q24 12 55.5 21t55.5 9h7q6 0 23 -7.5t26 -7.5q12 0 20 12t9 13q5 6 18.5 12.5t21.5 7.5h6q10 0 17.5 -6t8 -34t5.5 -37q3 -6 16.5 -20t16.5 -24q10 -31 10 -71l-3 -85v-21zM240 490v17l-2 76v8q0 8 4 25t4 25q0 14 -10.5 21.5t-23.5 7.5
q-46 0 -46 -76q0 -29 8 -98q1 -13 9.5 -45t20 -51t23.5 -21h7q5 1 5 10l-2 37zM197 62l1 17q0 67 -15 124q0 7 -6 24.5t-16.5 27t-20.5 9.5q-14 -1 -14 -31l1 -26q-3 -13 -3 -25q0 -20 7.5 -45t8.5 -28q0 -1 2.5 -15t6.5 -25.5t12 -18t19 -6.5q13 0 17 18z" />
    <glyph glyph-name="Ugrave" unicode="&#xd9;" horiz-adv-x="379" 
d="M370 323q0 -14 -1 -71.5t-4.5 -95.5t-11.5 -66q-5 -16 -18.5 -43t-21.5 -30q-4 -3 -19.5 -14t-34 -18.5t-43.5 -7.5q-20 0 -49 6q-10 2 -37.5 6.5t-48.5 15.5t-44 42q-24 33 -24 145l3 107v20l-3 142l1 76q0 37 -4 72v2l2 8l-3 52q0 13 3 25q4 10 36 19t53 9h3
q6 0 46 0.5t61.5 -9t21.5 -31.5q0 -9 -4 -37t-4 -44q0 -29 4 -75.5t4 -59.5q0 -19 -8 -326v-22q0 -27 5 -38t19 -11q12 0 22 11t15.5 40.5t5.5 149.5v30l1 35q0 66 -1 119.5t-5 92.5t-4 70q0 29 6 51l10 13h15q29 0 49 -9v-5l-5 -83q0 -45 6 -126t6 -112v-25zM292 762l-8 -8
t-24 -12t-53 -5q-11 0 -25 4.5t-15 9.5q-2 1 -14 15t-28.5 35t-17.5 25q-1 2 -16.5 27.5t-17.5 39.5v4q0 5 3.5 10.5t13.5 9t24.5 4t31 0t20.5 -0.5h20q28 0 48 -11q2 -1 6 -4.5t7 -18t4 -17.5q2 -7 12 -29t12 -31q1 -5 3 -12t7.5 -19.5t6.5 -15.5z" />
    <glyph glyph-name="Uacute" unicode="&#xda;" horiz-adv-x="379" 
d="M370 323q0 -14 -1 -71.5t-4.5 -95.5t-11.5 -66q-5 -16 -18.5 -43t-21.5 -30q-4 -3 -19.5 -14t-34 -18.5t-43.5 -7.5q-20 0 -49 6q-10 2 -37.5 6.5t-48.5 15.5t-44 42q-24 33 -24 145l3 107v20l-3 142l1 76q0 37 -4 72v2l2 8l-3 52q0 13 3 25q4 10 36 19t53 9h3
q6 0 46 0.5t61.5 -9t21.5 -31.5q0 -9 -4 -37t-4 -44q0 -29 4 -75.5t4 -59.5q0 -19 -8 -326v-22q0 -27 5 -38t19 -11q12 0 22 11t15.5 40.5t5.5 149.5v30l1 35q0 66 -1 119.5t-5 92.5t-4 70q0 29 6 51l10 13h15q29 0 49 -9v-5l-5 -83q0 -45 6 -126t6 -112v-25zM278 887
q0 -1 -5.5 -15t-7.5 -22q-10 -53 -28.5 -74.5t-63.5 -21.5q-17 0 -21.5 8.5t-4.5 17.5v3q-1 9 21 25.5t26 24.5q5 9 12 47t40 38q5 0 10 -1t12.5 -4t9.5 -3v-3l1 -14z" />
    <glyph glyph-name="Ucircumflex" unicode="&#xdb;" horiz-adv-x="379" 
d="M370 323q0 -14 -1 -71.5t-4.5 -95.5t-11.5 -66q-5 -16 -18.5 -43t-21.5 -30q-4 -3 -19.5 -14t-34 -18.5t-43.5 -7.5q-20 0 -49 6q-10 2 -37.5 6.5t-48.5 15.5t-44 42q-24 33 -24 145l3 107v20l-3 142l1 76q0 37 -4 72v2l2 8l-3 52q0 13 3 25q4 10 36 19t53 9h3
q6 0 46 0.5t61.5 -9t21.5 -31.5q0 -9 -4 -37t-4 -44q0 -29 4 -75.5t4 -59.5q0 -19 -8 -326v-22q0 -27 5 -38t19 -11q12 0 22 11t15.5 40.5t5.5 149.5v30l1 35q0 66 -1 119.5t-5 92.5t-4 70q0 29 6 51l10 13h15q29 0 49 -9v-5l-5 -83q0 -45 6 -126t6 -112v-25zM311 761l1 -7
q0 -13 -12 -13q-16 0 -37.5 27.5t-29.5 32t-13 4.5h-3q-6 0 -9.5 -5t-8.5 -20t-10.5 -23.5t-15.5 -14.5t-27 -6q-12 0 -57 9v8q0 14 3 22q0 1 0.5 1.5t8 27.5t20 51t33.5 41.5t52 17.5q27 0 39 -12t19.5 -33.5t12.5 -29.5q10 -19 24 -55z" />
    <glyph glyph-name="Udieresis" unicode="&#xdc;" horiz-adv-x="379" 
d="M370 323q0 -14 -1 -71.5t-4.5 -95.5t-11.5 -66q-5 -16 -18.5 -43t-21.5 -30q-4 -3 -19.5 -14t-34 -18.5t-43.5 -7.5q-20 0 -49 6q-10 2 -37.5 6.5t-48.5 15.5t-44 42q-24 33 -24 145l3 107v20l-3 142l1 76q0 37 -4 72v2l2 8l-3 52q0 13 3 25q4 10 36 19t53 9h8
q-5 5 -8.5 15t-3.5 42q0 79 65 79q7 0 16.5 -9t16 -31.5t6.5 -49.5t-45 -47q42 -1 50.5 -3.5t15 -7.5t9 -12.5t2.5 -15.5q0 -9 -4 -37t-4 -44q0 -29 4 -75.5t4 -59.5q0 -19 -8 -326v-22q0 -27 5 -38t19 -11q12 0 22 11t15.5 40.5t5.5 149.5v30l1 35q0 66 -1 119.5t-5 92.5
t-4 70q0 29 6 51l10 13h15q29 0 49 -9v-5l-5 -83q0 -45 6 -126t6 -112v-25zM334 748q-17 -17 -46 -17q-31 0 -49 15t-18 38l2 25v4l-1 20q0 14 9.5 21.5t22.5 7.5q34 0 52.5 -6t29 -23t10.5 -51q0 -22 -12 -34z" />
    <glyph glyph-name="Yacute" unicode="&#xdd;" horiz-adv-x="436" 
d="M408 646q-5 -49 -26 -112t-44 -110q-21 -61 -21 -119v-22q0 -15 -3.5 -55t-3.5 -58l11 -152l-7 -19q-21 -18 -120 -18q-10 0 -48 8q-2 0 -12.5 0.5t-14.5 2.5v11q-8 11 -8 34l1 40v9l-1 21l3 82q0 48 -9 114q-3 8 -11.5 58t-15.5 69q-31 89 -40 139q-21 60 -23 68t-2 12
q0 11 4 11h1l8 -1q12 0 36 8t33 9l56 2l70 -4l10 1q14 0 22.5 -9.5t13.5 -25.5t10 -46.5t7 -39.5q9 -9 10 -13q2 2 8.5 5t8.5 6q13 18 21 71t16 70.5t19.5 24t23.5 6.5h7q22 -3 22 -24q0 -9 -5.5 -29.5t-6.5 -24.5zM308 842q0 -1 -5.5 -15t-7.5 -22q-10 -53 -28.5 -74.5
t-63.5 -21.5q-17 0 -21.5 8.5t-4.5 17.5v3q-1 9 21 25.5t26 24.5q5 9 12 47t40 38q5 0 10 -1t12.5 -4t9.5 -3v-3l1 -14z" />
    <glyph glyph-name="Thorn" unicode="&#xde;" horiz-adv-x="393" 
d="M385 430q3 -21 3 -46q0 -63 -17 -120.5t-44 -69.5q-2 -1 -8.5 -3t-36 -5t-40.5 -26q-14 -29 -14 -30.5v-5t-0.5 -10t-2.5 -25.5l-1 -9l4 -48q0 -11 -3 -20l-10 -11q-18 -8 -67 -8h-17l-71 -2q-35 0 -42 5t-7 15q0 8 4.5 31.5t4.5 32.5l-3 133l5 145l-2 131q0 8 -6 47.5
t-6 65.5q0 27 4 50v4q0 24 7.5 40t22.5 20.5t44 4.5q24 0 97 -11q4 -12 4 -28q0 -8 -3.5 -28t-3.5 -31q0 -6 3.5 -13t10 -10t8.5 -3q5 1 16 7t21 6h4q11 0 17.5 -2.5t12.5 -7t9 -6.5t23 -13t32.5 -22t19.5 -30q14 -38 19.5 -54t8.5 -40zM205 215q7 29 7 68q0 45 -10 117
q-1 7 -3 49.5t-11 61.5q-2 5 -9 9.5t-34 7.5q-12 -18 -12 -60q0 -12 4 -38.5t4 -38.5l-6 -80q0 -50 10 -82.5t29 -32.5q8 0 18 5.5t13 13.5z" />
    <glyph glyph-name="germandbls" unicode="&#xdf;" horiz-adv-x="312" 
d="M302 307q0 -7 -3 -55t-3 -80l2 -68q0 -27 -8 -53.5t-34.5 -45t-83.5 -18.5q-18 0 -68 6l-17 11h-3q-8 0 -18.5 -6t-18.5 -6q-10 0 -20 6t-10 24l1 13q0 9 -4 37t-4 43v64q2 22 2 69l-1 110l6 119q0 18 -4.5 60.5t-4.5 61.5l2 28q2 8 22 44.5t25 39.5q26 20 85 20
q67 0 99 -23t42 -91q9 -36 9 -50l-2 -21q-2 -13 -20 -31.5t-18 -24.5l8 -12l-1 -2q3 -3 18.5 -17.5t19.5 -27.5q8 -29 8 -60zM144 593q-8 62 -30 71q-4 2 -10 1.5t-9 1.5q-13 -10 -21.5 -41t-8.5 -83l1 -77q0 -26 -5.5 -67.5t-5.5 -58.5l6 -249q-3 -9 -3 -29q0 -11 2 -18.5
t8.5 -12t9.5 -7.5q1 1 13 11.5t20.5 21t9.5 21.5q1 4 6 34t5 42l-1 11q-5 32 -11 85.5t-8 67.5q-3 10 -20.5 26.5t-17.5 33.5v4q1 9 10.5 25t10.5 18q3 11 14 28t12 19q25 45 25 93z" />
    <glyph glyph-name="agrave" unicode="&#xe0;" 
d="M286 5q-14 -7 -37.5 -14t-39.5 -7q-13 0 -23 12.5t-21 12.5q-7 0 -15.5 -9.5t-11.5 -11.5q-22 -10 -52 -10q-20 0 -35 7t-21.5 23.5t-19.5 70.5q-3 11 -3 23l4 52l-2 27q0 44 35 73q26 20 51.5 54.5t39.5 63.5h3q3 18 3 35l-4 76l1 17q-3 1 -4.5 5t-2.5 5h-2l-11 1
q-7 0 -11 -9t-4 -23l6 -86q0 -26 -7.5 -36.5t-24 -12.5t-37.5 -2h-24q-6 16 -6 50l4 32v3l-1 18q0 42 20 82q9 9 28 21t46.5 22t50.5 11h3q25 0 63 -18.5t49 -32.5q16 -21 16 -69l-3 -73v-5l-5 -118l3 -73l-1 -22v-84q5 -32 5 -52zM224 626l-8 -8t-24 -12t-53 -5
q-11 0 -25 4.5t-15 9.5q-2 1 -14 15t-28.5 35t-17.5 25q-1 2 -16.5 27.5t-17.5 39.5v4q0 5 3.5 10.5t13.5 9t24.5 4t31 0t20.5 -0.5h20q28 0 48 -11q2 -1 6 -4.5t7 -18t4 -17.5q2 -7 12 -29t12 -31q1 -5 3 -12t7.5 -19.5t6.5 -15.5zM192 113q6 102 6 141q0 52 -6 57l-13 4
q-2 -2 -8.5 -9t-9 -12t-3.5 -9q-3 -15 -3 -57t-1 -51v-10q0 -34 17 -61h2l9 -1q3 0 5 4t5 4z" />
    <glyph glyph-name="aacute" unicode="&#xe1;" 
d="M286 5q-14 -7 -37.5 -14t-39.5 -7q-13 0 -23 12.5t-21 12.5q-7 0 -15.5 -9.5t-11.5 -11.5q-22 -10 -52 -10q-20 0 -35 7t-21.5 23.5t-19.5 70.5q-3 11 -3 23l4 52l-2 27q0 44 35 73q26 20 51.5 54.5t39.5 63.5h3q3 18 3 35l-4 76l1 17q-3 1 -4.5 5t-2.5 5h-2l-11 1
q-7 0 -11 -9t-4 -23l6 -86q0 -26 -7.5 -36.5t-24 -12.5t-37.5 -2h-24q-6 16 -6 50l4 32v3l-1 18q0 42 20 82q9 9 28 21t46.5 22t50.5 11h3q25 0 63 -18.5t49 -32.5q16 -21 16 -69l-3 -73v-5l-5 -118l3 -73l-1 -22v-84q5 -32 5 -52zM230 751q0 -1 -5.5 -15t-7.5 -22
q-10 -53 -28.5 -74.5t-63.5 -21.5q-17 0 -21.5 8.5t-4.5 17.5v3q-1 9 21 25.5t26 24.5q5 9 12 47t40 38q5 0 10 -1t12.5 -4t9.5 -3v-3l1 -14zM192 113q6 102 6 141q0 52 -6 57l-13 4q-2 -2 -8.5 -9t-9 -12t-3.5 -9q-3 -15 -3 -57t-1 -51v-10q0 -34 17 -61h2l9 -1q3 0 5 4
t5 4z" />
    <glyph glyph-name="acircumflex" unicode="&#xe2;" 
d="M286 5q-14 -7 -37.5 -14t-39.5 -7q-13 0 -23 12.5t-21 12.5q-7 0 -15.5 -9.5t-11.5 -11.5q-22 -10 -52 -10q-20 0 -35 7t-21.5 23.5t-19.5 70.5q-3 11 -3 23l4 52l-2 27q0 44 35 73q26 20 51.5 54.5t39.5 63.5h3q3 18 3 35l-4 76l1 17q-3 1 -4.5 5t-2.5 5h-2l-11 1
q-7 0 -11 -9t-4 -23l6 -86q0 -26 -7.5 -36.5t-24 -12.5t-37.5 -2h-24q-6 16 -6 50l4 32v3l-1 18q0 42 20 82q9 9 28 21t46.5 22t50.5 11h3q25 0 63 -18.5t49 -32.5q16 -21 16 -69l-3 -73v-5l-5 -118l3 -73l-1 -22v-84q5 -32 5 -52zM263 625l1 -7q0 -13 -12 -13
q-16 0 -37.5 27.5t-29.5 32t-13 4.5h-3q-6 0 -9.5 -5t-8.5 -20t-10.5 -23.5t-15.5 -14.5t-27 -6q-12 0 -57 9v8q0 14 3 22q0 1 0.5 2t8 27.5t20 50.5t33.5 41.5t52 17.5q27 0 39 -12t19.5 -33.5t12.5 -29.5q10 -19 24 -55zM192 113q6 102 6 141q0 52 -6 57l-13 4
q-2 -2 -8.5 -9t-9 -12t-3.5 -9q-3 -15 -3 -57t-1 -51v-10q0 -34 17 -61h2l9 -1q3 0 5 4t5 4z" />
    <glyph glyph-name="atilde" unicode="&#xe3;" 
d="M286 5q-14 -7 -37.5 -14t-39.5 -7q-13 0 -23 12.5t-21 12.5q-7 0 -15.5 -9.5t-11.5 -11.5q-22 -10 -52 -10q-20 0 -35 7t-21.5 23.5t-19.5 70.5q-3 11 -3 23l4 52l-2 27q0 44 35 73q26 20 51.5 54.5t39.5 63.5h3q3 18 3 35l-4 76l1 17q-3 1 -4.5 5t-2.5 5h-2l-11 1
q-7 0 -11 -9t-4 -23l6 -86q0 -26 -7.5 -36.5t-24 -12.5t-37.5 -2h-24q-6 16 -6 50l4 32v3l-1 18q0 42 20 82q9 9 28 21t46.5 22t50.5 11h3q25 0 63 -18.5t49 -32.5q16 -21 16 -69l-3 -73v-5l-5 -118l3 -73l-1 -22v-84q5 -32 5 -52zM264 653q-13 -45 -30 -58l-4 -3l-8 -1
q-19 0 -36 6.5t-41.5 23t-37.5 16.5q-11 0 -25 -21t-19 -21q-9 0 -14 14.5t-5 31.5q0 27 11.5 43.5t35.5 16.5q17 0 40 -9.5t39 -28.5q2 -2 7 -11t9 -13.5t7 -5.5q30 1 34 3t10.5 10t9.5 10zM192 113q6 102 6 141q0 52 -6 57l-13 4q-2 -2 -8.5 -9t-9 -12t-3.5 -9
q-3 -15 -3 -57t-1 -51v-10q0 -34 17 -61h2l9 -1q3 0 5 4t5 4z" />
    <glyph glyph-name="adieresis" unicode="&#xe4;" 
d="M286 5q-14 -7 -37.5 -14t-39.5 -7q-13 0 -23 12.5t-21 12.5q-7 0 -15.5 -9.5t-11.5 -11.5q-22 -10 -52 -10q-20 0 -35 7t-21.5 23.5t-19.5 70.5q-3 11 -3 23l4 52l-2 27q0 44 35 73q26 20 51.5 54.5t39.5 63.5h3q3 18 3 35l-4 76l1 17q-3 1 -4.5 5t-2.5 5h-2l-11 1
q-7 0 -11 -9t-4 -23l6 -86q0 -26 -7.5 -36.5t-24 -12.5t-37.5 -2h-24q-6 16 -6 50l4 32v3l-1 18q0 42 20 82q9 9 28 21t46.5 22t50.5 11h3q25 0 63 -18.5t49 -32.5q16 -21 16 -69l-3 -73v-5l-5 -118l3 -73l-1 -22v-84q5 -32 5 -52zM272 622q-17 -17 -46 -17q-31 0 -49 15
t-18 38l2 25v4l-1 20q0 14 9.5 21.5t22.5 7.5q34 0 52.5 -6t29 -23t10.5 -51q0 -22 -12 -34zM138 635q-3 -10 -13.5 -20.5t-28 -17.5t-30.5 -7q-2 0 -8 1t-14.5 10.5t-8.5 53.5q0 79 65 79q7 0 16.5 -9t16 -31.5t6.5 -49.5zM192 113q6 102 6 141q0 52 -6 57l-13 4
q-2 -2 -8.5 -9t-9 -12t-3.5 -9q-3 -15 -3 -57t-1 -51v-10q0 -34 17 -61h2l9 -1q3 0 5 4t5 4z" />
    <glyph glyph-name="aring" unicode="&#xe5;" 
d="M286 5q-14 -7 -37.5 -14t-39.5 -7q-13 0 -23 12.5t-21 12.5q-7 0 -15.5 -9.5t-11.5 -11.5q-22 -10 -52 -10q-20 0 -35 7t-21.5 23.5t-19.5 70.5q-3 11 -3 23l4 52l-2 27q0 44 35 73q26 20 51.5 54.5t39.5 63.5h3q3 18 3 35l-4 76l1 17q-3 1 -4.5 5t-2.5 5h-2l-11 1
q-7 0 -11 -9t-4 -23l6 -86q0 -26 -7.5 -36.5t-24 -12.5t-37.5 -2h-24q-6 16 -6 50l4 32v3l-1 18q0 42 20 82q9 9 28 21t46.5 22t50.5 11h3q25 0 63 -18.5t49 -32.5q16 -21 16 -69l-3 -73v-5l-5 -118l3 -73l-1 -22v-84q5 -32 5 -52zM225 744q10 -17 10 -44q0 -22 -8.5 -44
t-29 -33.5t-44.5 -11.5q-15 0 -36.5 15t-33.5 40q-15 30 -15 48q0 12 13.5 29.5t32.5 26t36 8.5q21 0 43.5 -10t31.5 -24zM192 113q6 102 6 141q0 52 -6 57l-13 4q-2 -2 -8.5 -9t-9 -12t-3.5 -9q-3 -15 -3 -57t-1 -51v-10q0 -34 17 -61h2l9 -1q3 0 5 4t5 4zM161 679
q-3 6 -15 12t-17 6q-9 0 -15 -9.5t-6 -20.5q0 -12 6.5 -20.5t16.5 -8.5q11 0 22 8t11 21q0 6 -3 12z" />
    <glyph glyph-name="ae" unicode="&#xe6;" horiz-adv-x="489" 
d="M485 332l-4 -16q-4 -1 -19 -2.5t-93.5 -6t-84.5 -17.5q-5 -11 -10 -53q-4 -25 -4 -53q0 -53 3.5 -76.5t10.5 -27.5h11l6 6q14 12 14 52l-2 58q0 35 14 43q8 4 23 7t40 3.5t31 0.5h13q21 0 34.5 -17t13.5 -56q0 -32 -14 -70t-17 -51q-4 -16 -20 -30.5t-49 -21.5t-80 -7
q-21 0 -40 4t-35.5 17.5t-22.5 17.5l-13 -3q-2 -1 -7 -8t-7 -8q-15 -13 -38 -22t-43 -9q-46 0 -68 20.5t-22 72.5l1 11l-2 51q0 58 18 98t61 71q4 3 19.5 11t21.5 14.5t9 13.5q13 34 13 80q0 23 -3 41l1 11q0 14 -5.5 26t-15.5 12q-25 -43 -29 -56.5t-4 -34.5
q0 -12 3.5 -29.5t3.5 -24.5q0 -12 -3.5 -17t-38.5 -5l-9 1h-2l-10 -1q-23 0 -23 46l2 36v20q0 44 7 68q4 15 55 36.5t82 21.5h6q9 -1 38 -13t44 -12q5 0 12 5.5t9 5.5q42 19 77 19q42 0 76 -16t47.5 -43.5t13.5 -58.5v-88l5 -40zM207 316q-4 1 -6 7h-2l-9 -1l-3 1
q-17 -46 -23.5 -67.5t-6.5 -35.5v-3q0 -6 6 -30.5t7 -33.5q2 -19 7 -40h17q10 5 10 60v50q6 42 6 59q0 16 -3 34zM331 450l-21 6q-6 -5 -12.5 -14.5t-6.5 -35.5v-33q1 0 4.5 -5t5.5 -5h13q19 18 19 50z" />
    <glyph glyph-name="ccedilla" unicode="&#xe7;" 
d="M298 399q-2 -1 -5.5 -5.5t-4.5 -4.5q-18 -5 -42 -5q-19 0 -32 4.5t-13 24.5l5 75q0 20 -6 33l-5 -1l-12 1l-3 -8q-21 -54 -21 -98l1 -43v-11l-5 -138l2 -44l-2 -71q0 -40 9 -59v-7l16 -10h2q19 0 19 31v12l-1 67q0 40 4 75q3 2 5.5 4t6.5 5t13 3q15 0 30 -5.5t22 -12.5
q5 -15 7 -41.5t3 -31.5l2 -29q0 -56 -27.5 -90.5t-81.5 -34.5l-12 1q4 -19 14 -19l9 1q30 -6 47 -21.5t17 -34.5q0 -24 -23 -44t-50 -20q-11 0 -28.5 6t-19.5 6v13q24 4 36 10v13q-1 1 -6 3.5t-38 13.5t-33 29v1q1 8 12 23t12 25q-20 2 -39 7.5t-34.5 17.5t-22 28.5
t-9.5 35.5t-4 23q-4 25 -4 61l1 27v37l-2 65q0 26 5 50q0 87 7 121q6 53 45 88t88 35q30 0 58 -11t44 -24q12 -10 22.5 -31.5t15.5 -66.5z" />
    <glyph glyph-name="egrave" unicode="&#xe8;" 
d="M294 432l1 -25q0 -62 -6 -80.5t-17.5 -26.5t-31.5 -8q-15 0 -50.5 4t-49.5 4l-26 -3l-22 4q-7 0 -11.5 -26.5t-4.5 -70.5q0 -28 5.5 -63t5.5 -49q0 -15 -2 -23q3 -1 6.5 -5t9.5 -4q9 0 16.5 9t8.5 10q-1 18 -4 47.5t-3 69.5v7q0 5 3.5 11t13 10.5t19.5 7t28 5.5l17 1
q16 0 36 -4.5t35 -17t15 -27.5q0 -2 -0.5 -9.5t-2.5 -22t-2 -17.5v-14l1 -45q0 -27 -11.5 -47.5t-43.5 -39.5q-26 -8 -58 -8q-77 0 -116 32t-39 109l1 55v8l-1 50l2 59l-4 107q0 28 4 64t19.5 61.5t44.5 37t103 12.5h3q36 0 59 -15t35 -43t12 -67v-16l3 -1zM224 626l-8 -8
t-24 -12t-53 -5q-11 0 -25 4.5t-15 9.5q-2 1 -14 15t-28.5 35t-17.5 25q-1 2 -16.5 27.5t-17.5 39.5v4q0 5 3.5 10.5t13.5 9t24.5 4t31 0t20.5 -0.5h20q28 0 48 -11q2 -1 6 -4.5t7 -18t4 -17.5q2 -7 12 -29t12 -31q1 -5 3 -12t7.5 -19.5t6.5 -15.5zM143 402v6
q0 13 -1.5 26.5t-11.5 38.5h-14q-18 -42 -22.5 -58.5t-4.5 -25.5t4.5 -14t11.5 -5q10 0 22.5 10t15.5 22z" />
    <glyph glyph-name="eacute" unicode="&#xe9;" 
d="M294 432l1 -25q0 -62 -6 -80.5t-17.5 -26.5t-31.5 -8q-15 0 -50.5 4t-49.5 4l-26 -3l-22 4q-7 0 -11.5 -26.5t-4.5 -70.5q0 -28 5.5 -63t5.5 -49q0 -15 -2 -23q3 -1 6.5 -5t9.5 -4q9 0 16.5 9t8.5 10q-1 18 -4 47.5t-3 69.5v7q0 5 3.5 11t13 10.5t19.5 7t28 5.5l17 1
q16 0 36 -4.5t35 -17t15 -27.5q0 -2 -0.5 -9.5t-2.5 -22t-2 -17.5v-14l1 -45q0 -27 -11.5 -47.5t-43.5 -39.5q-26 -8 -58 -8q-77 0 -116 32t-39 109l1 55v8l-1 50l2 59l-4 107q0 28 4 64t19.5 61.5t44.5 37t103 12.5h3q36 0 59 -15t35 -43t12 -67v-16l3 -1zM230 741
q0 -1 -5.5 -15t-7.5 -22q-10 -53 -28.5 -74.5t-63.5 -21.5q-17 0 -21.5 8.5t-4.5 17.5v3q-1 9 21 25.5t26 24.5q5 9 12 47t40 38q5 0 10 -1t12.5 -4t9.5 -3v-3l1 -14zM143 402v6q0 13 -1.5 26.5t-11.5 38.5h-14q-18 -42 -22.5 -58.5t-4.5 -25.5t4.5 -14t11.5 -5
q10 0 22.5 10t15.5 22z" />
    <glyph glyph-name="ecircumflex" unicode="&#xea;" 
d="M294 432l1 -25q0 -62 -6 -80.5t-17.5 -26.5t-31.5 -8q-15 0 -50.5 4t-49.5 4l-26 -3l-22 4q-7 0 -11.5 -26.5t-4.5 -70.5q0 -28 5.5 -63t5.5 -49q0 -15 -2 -23q3 -1 6.5 -5t9.5 -4q9 0 16.5 9t8.5 10q-1 18 -4 47.5t-3 69.5v7q0 5 3.5 11t13 10.5t19.5 7t28 5.5l17 1
q16 0 36 -4.5t35 -17t15 -27.5q0 -2 -0.5 -9.5t-2.5 -22t-2 -17.5v-14l1 -45q0 -27 -11.5 -47.5t-43.5 -39.5q-26 -8 -58 -8q-77 0 -116 32t-39 109l1 55v8l-1 50l2 59l-4 107q0 28 4 64t19.5 61.5t44.5 37t103 12.5h3q36 0 59 -15t35 -43t12 -67v-16l3 -1zM259 620l1 -7
q0 -13 -12 -13q-16 0 -37.5 27.5t-29.5 32t-13 4.5h-3q-6 0 -9.5 -5t-8.5 -20t-10.5 -23.5t-15.5 -14.5t-27 -6q-12 0 -57 9v8q0 14 3 22q0 1 0.5 2t8 27.5t20 50.5t33.5 41.5t52 17.5q27 0 39 -12t19.5 -33.5t12.5 -29.5q10 -19 24 -55zM143 402v6q0 13 -1.5 26.5
t-11.5 38.5h-14q-18 -42 -22.5 -58.5t-4.5 -25.5t4.5 -14t11.5 -5q10 0 22.5 10t15.5 22z" />
    <glyph glyph-name="edieresis" unicode="&#xeb;" 
d="M294 432l1 -25q0 -62 -6 -80.5t-17.5 -26.5t-31.5 -8q-15 0 -50.5 4t-49.5 4l-26 -3l-22 4q-7 0 -11.5 -26.5t-4.5 -70.5q0 -28 5.5 -63t5.5 -49q0 -15 -2 -23q3 -1 6.5 -5t9.5 -4q9 0 16.5 9t8.5 10q-1 18 -4 47.5t-3 69.5v7q0 5 3.5 11t13 10.5t19.5 7t28 5.5l17 1
q16 0 36 -4.5t35 -17t15 -27.5q0 -2 -0.5 -9.5t-2.5 -22t-2 -17.5v-14l1 -45q0 -27 -11.5 -47.5t-43.5 -39.5q-26 -8 -58 -8q-77 0 -116 32t-39 109l1 55v8l-1 50l2 59l-4 107q0 28 4 64t19.5 61.5t44.5 37t103 12.5h3q36 0 59 -15t35 -43t12 -67v-16l3 -1zM269 622
q-17 -17 -46 -17q-31 0 -49 15t-18 38l2 25v4l-1 20q0 14 9.5 21.5t22.5 7.5q34 0 52.5 -6t29 -23t10.5 -51q0 -22 -12 -34zM135 635q-3 -10 -13.5 -20.5t-28 -17.5t-30.5 -7q-2 0 -8 1t-14.5 10.5t-8.5 53.5q0 79 65 79q7 0 16.5 -9t16 -31.5t6.5 -49.5zM143 402v6
q0 13 -1.5 26.5t-11.5 38.5h-14q-18 -42 -22.5 -58.5t-4.5 -25.5t4.5 -14t11.5 -5q10 0 22.5 10t15.5 22z" />
    <glyph glyph-name="igrave" unicode="&#xec;" horiz-adv-x="151" 
d="M139 13l-6 -13q-4 -3 -34 -7t-46 -4q-9 0 -16.5 3.5t-10 16t-3.5 15.5h3q5 14 5 39q0 18 -5 74t-5 81v33l-6 151v26l-3 56q0 29 2.5 38.5t8.5 9.5l54 4h3l19 -1q8 0 11 2l-4 2h4q25 -2 25 -43q-5 -94 -4 -108l2 -24q0 -14 -3.5 -48.5t-3.5 -52.5q0 -17 3 -37l4 -141
q0 -9 4.5 -26t4.5 -27q0 -8 -3 -19zM129 596l-8 -8t-24 -12t-53 -5q-11 0 -25 4.5t-15 9.5q-2 1 -14 15t-28.5 35t-17.5 25q-1 2 -16.5 27.5t-17.5 39.5v4q0 5 3.5 10.5t13.5 9t24.5 4t31 0t20.5 -0.5h20q28 0 48 -11q2 -1 6 -4.5t7 -18t4 -17.5q2 -7 12 -29t12 -31
q1 -5 3 -12t7.5 -19.5t6.5 -15.5z" />
    <glyph glyph-name="iacute" unicode="&#xed;" horiz-adv-x="151" 
d="M139 13l-6 -13q-4 -3 -34 -7t-46 -4q-9 0 -16.5 3.5t-10 16t-3.5 15.5h3q5 14 5 39q0 18 -5 74t-5 81v33l-6 151v26l-3 56q0 29 2.5 38.5t8.5 9.5l54 4h3l19 -1q8 0 11 2l-4 2h4q25 -2 25 -43q-5 -94 -4 -108l2 -24q0 -14 -3.5 -48.5t-3.5 -52.5q0 -17 3 -37l4 -141
q0 -9 4.5 -26t4.5 -27q0 -8 -3 -19zM165 711q0 -1 -5.5 -15t-7.5 -22q-10 -53 -28.5 -74.5t-63.5 -21.5q-17 0 -21.5 8.5t-4.5 17.5v3q-1 9 21 25.5t26 24.5q5 9 12 47t40 38q5 0 10 -1t12.5 -4t9.5 -3v-3l1 -14z" />
    <glyph glyph-name="icircumflex" unicode="&#xee;" horiz-adv-x="151" 
d="M139 13l-6 -13q-4 -3 -34 -7t-46 -4q-9 0 -16.5 3.5t-10 16t-3.5 15.5h3q5 14 5 39q0 18 -5 74t-5 81v33l-6 151v26l-3 56q0 29 2.5 38.5t8.5 9.5l54 4h3l19 -1q8 0 11 2l-4 2h4q25 -2 25 -43q-5 -94 -4 -108l2 -24q0 -14 -3.5 -48.5t-3.5 -52.5q0 -17 3 -37l4 -141
q0 -9 4.5 -26t4.5 -27q0 -8 -3 -19zM178 585l1 -7q0 -13 -12 -13q-16 0 -37.5 27.5t-29.5 32t-13 4.5h-3q-6 0 -9.5 -5t-8.5 -20t-10.5 -23.5t-15.5 -14.5t-27 -6q-12 0 -57 9v8q0 14 3 22q0 1 0.5 2t8 27.5t20 50.5t33.5 41.5t52 17.5q27 0 39 -12t19.5 -33.5t12.5 -29.5
q10 -19 24 -55z" />
    <glyph glyph-name="idieresis" unicode="&#xef;" horiz-adv-x="151" 
d="M139 13l-6 -13q-4 -3 -34 -7t-46 -4q-9 0 -16.5 3.5t-10 16t-3.5 15.5h3q5 14 5 39q0 18 -5 74t-5 81v33l-6 151v26l-3 56q0 29 2.5 38.5t8.5 9.5l54 4h3l19 -1q8 0 11 2l-4 2h4q25 -2 25 -43q-5 -94 -4 -108l2 -24q0 -14 -3.5 -48.5t-3.5 -52.5q0 -17 3 -37l4 -141
q0 -9 4.5 -26t4.5 -27q0 -8 -3 -19zM189 592q-17 -17 -46 -17q-31 0 -49 15t-18 38l2 25v4l-1 20q0 14 9.5 21.5t22.5 7.5q34 0 52.5 -6t29 -23t10.5 -51q0 -22 -12 -34zM55 605q-3 -10 -13.5 -20.5t-28 -17.5t-30.5 -7q-2 0 -8 1t-14.5 10.5t-8.5 53.5q0 79 65 79
q7 0 16.5 -9t16 -31.5t6.5 -49.5z" />
    <glyph glyph-name="eth" unicode="&#xf0;" horiz-adv-x="299" 
d="M298 346l2 -63q0 -11 -0.5 -34.5t-1.5 -50.5t-2.5 -54.5t-1.5 -28.5q-1 -33 -21 -60t-52.5 -45.5t-61.5 -18.5q-42 0 -70 11.5t-42.5 30.5t-21 46t-7.5 73t-2 57q-9 100 -9.5 112.5t-0.5 29.5q0 36 7.5 73t24 66t44 46t64.5 17h12q6 0 6 4q0 12 -29.5 28.5t-34.5 23.5
q-18 -5 -32 -5q-21 0 -41.5 9.5t-20.5 21.5q0 7 7.5 13.5t27.5 11t23 5.5q-5 8 -15.5 18t-14.5 15l-2 17q12 16 37 16q14 0 32.5 -6.5t31.5 -14.5q4 -2 17.5 -7.5t18 -11t5.5 -7.5q9 0 21 4.5t31 4.5q23 0 27 -27v-4q0 -6 -1.5 -11.5t-5 -10.5t-7.5 -7.5t-7.5 -4t-6.5 -2.5
t-5.5 -2t-3.5 -1q41 -53 64 -92.5t23 -81.5q0 -12 -3 -40.5t-3 -45.5zM237 177q-2 18 -2.5 78t-4.5 91q-10 75 -10 111v13q-3 2 -6 6t-4 5l-5 -1l-9 1h-3q-8 -3 -12.5 -15t-4.5 -31q0 -14 3.5 -41.5t3.5 -34.5q1 -11 1 -48.5t2 -52.5l7 -13q7 -42 7.5 -50t0.5 -15
q0 -12 -5.5 -40t-5.5 -42v-8q1 -7 6.5 -18t10.5 -12h2l8 1l3 -1q7 15 12.5 42.5t5.5 51.5z" />
    <glyph glyph-name="ntilde" unicode="&#xf1;" horiz-adv-x="303" 
d="M296 103l1 -24q0 -39 -5 -79q-1 -14 -33 -14l-38 1q-7 14 -9 42v23l1 91q0 22 -3.5 75.5t-3.5 85.5q0 18 3.5 50t3.5 45q0 20 -6 39l-9 11q-4 -1 -16 -2t-12 -9v-16q0 -30 -4 -86.5t-4 -79.5q0 -20 3.5 -75t3.5 -83t-2 -40v-2l1 -11q0 -4 -3 -7.5t-10.5 -5.5t-16.5 -3
t-17.5 -1.5t-15 -0.5h-14.5h-10q-33 0 -45 7q-11 6 -17 26.5t-8 50t-2 138.5l4 128l-2 55q0 18 3 46t3 37l-1 33q0 18 3 29h17q42 0 54 -14q1 -1 3.5 -10t6.5 -10h1l6 1l3 -1q4 3 16 14.5t23 17t25 5.5h4q13 0 37.5 -6.5t48.5 -21.5t28 -29l2 -18l-5 -60l2 -24q0 -15 -4 -62
t-4 -62q0 -12 2 -19q3 -32 5 -90t6 -85zM264 663q-13 -45 -30 -58l-4 -3l-8 -1q-19 0 -36 6.5t-41.5 23t-37.5 16.5q-11 0 -25 -21t-19 -21q-9 0 -14 14.5t-5 31.5q0 27 11.5 43.5t35.5 16.5q17 0 40 -9.5t39 -28.5q2 -2 7 -11t9 -13.5t7 -5.5q30 1 34 3t10.5 10t9.5 10z
" />
    <glyph glyph-name="ograve" unicode="&#xf2;" 
d="M294 155q-1 -51 -47.5 -87.5t-87.5 -36.5q-58 0 -89.5 22t-43 58t-11.5 95v44q-5 57 -5 99q0 80 13.5 128t45.5 75.5t88 30.5h15q16 0 34 -5t36 -22t28 -45.5t13 -55.5t4.5 -51t1.5 -28q3 -19 3 -38l-4 -91q0 -20 3 -46.5t3 -38.5v-7zM214 626l-8 -8t-24 -12t-53 -5
q-11 0 -25 4.5t-15 9.5q-2 1 -14 15t-28.5 35t-17.5 25q-1 2 -16.5 27.5t-17.5 39.5v4q0 5 3.5 10.5t13.5 9t24.5 4t31 0t20.5 -0.5h20q28 0 48 -11q2 -1 6 -4.5t7 -18t4 -17.5q2 -7 12 -29t12 -31q1 -5 3 -12t7.5 -19.5t6.5 -15.5zM136 118l1 19q0 14 -3.5 41.5t-3.5 34.5
q-1 11 -1 43.5t-2 47.5v51l-1 28v37q0 42 -5 61t-15 21h-2l-8 -1l-3 1q-7 -15 -12.5 -42.5t-5.5 -51.5l4 -87v-23q0 -27 3.5 -76.5t4.5 -65.5q1 -4 3.5 -21.5t2.5 -27.5v-5q3 -2 6 -6t4 -5l5 1l9 -1h3q3 1 9 11.5t7 15.5z" />
    <glyph glyph-name="oacute" unicode="&#xf3;" 
d="M294 155q-1 -51 -47.5 -87.5t-87.5 -36.5q-58 0 -89.5 22t-43 58t-11.5 95v44q-5 57 -5 99q0 80 13.5 128t45.5 75.5t88 30.5h15q16 0 34 -5t36 -22t28 -45.5t13 -55.5t4.5 -51t1.5 -28q3 -19 3 -38l-4 -91q0 -20 3 -46.5t3 -38.5v-7zM136 118l1 19q0 14 -3.5 41.5
t-3.5 34.5q-1 11 -1 43.5t-2 47.5v51l-1 28v37q0 42 -5 61t-15 21h-2l-8 -1l-3 1q-7 -15 -12.5 -42.5t-5.5 -51.5l4 -87v-23q0 -27 3.5 -76.5t4.5 -65.5q1 -4 3.5 -21.5t2.5 -27.5v-5q3 -2 6 -6t4 -5l5 1l9 -1h3q3 1 9 11.5t7 15.5zM230 741q0 -1 -5.5 -15t-7.5 -22
q-10 -53 -28.5 -74.5t-63.5 -21.5q-17 0 -21.5 8.5t-4.5 17.5v3q-1 9 21 25.5t26 24.5q5 9 12 47t40 38q5 0 10 -1t12.5 -4t9.5 -3v-3l1 -14z" />
    <glyph glyph-name="ocircumflex" unicode="&#xf4;" 
d="M294 155q-1 -51 -47.5 -87.5t-87.5 -36.5q-58 0 -89.5 22t-43 58t-11.5 95v44q-5 57 -5 99q0 80 13.5 128t45.5 75.5t88 30.5h15q16 0 34 -5t36 -22t28 -45.5t13 -55.5t4.5 -51t1.5 -28q3 -19 3 -38l-4 -91q0 -20 3 -46.5t3 -38.5v-7zM263 625l1 -7q0 -13 -12 -13
q-16 0 -37.5 27.5t-29.5 32t-13 4.5h-3q-6 0 -9.5 -5t-8.5 -20t-10.5 -23.5t-15.5 -14.5t-27 -6q-12 0 -57 9v8q0 14 3 22q0 1 0.5 2t8 27.5t20 50.5t33.5 41.5t52 17.5q27 0 39 -12t19.5 -33.5t12.5 -29.5q10 -19 24 -55zM136 118l1 19q0 14 -3.5 41.5t-3.5 34.5
q-1 11 -1 43.5t-2 47.5v51l-1 28v37q0 42 -5 61t-15 21h-2l-8 -1l-3 1q-7 -15 -12.5 -42.5t-5.5 -51.5l4 -87v-23q0 -27 3.5 -76.5t4.5 -65.5q1 -4 3.5 -21.5t2.5 -27.5v-5q3 -2 6 -6t4 -5l5 1l9 -1h3q3 1 9 11.5t7 15.5z" />
    <glyph glyph-name="otilde" unicode="&#xf5;" 
d="M294 155q-1 -51 -47.5 -87.5t-87.5 -36.5q-58 0 -89.5 22t-43 58t-11.5 95v44q-5 57 -5 99q0 80 13.5 128t45.5 75.5t88 30.5h15q16 0 34 -5t36 -22t28 -45.5t13 -55.5t4.5 -51t1.5 -28q3 -19 3 -38l-4 -91q0 -20 3 -46.5t3 -38.5v-7zM136 118l1 19q0 14 -3.5 41.5
t-3.5 34.5q-1 11 -1 43.5t-2 47.5v51l-1 28v37q0 42 -5 61t-15 21h-2l-8 -1l-3 1q-7 -15 -12.5 -42.5t-5.5 -51.5l4 -87v-23q0 -27 3.5 -76.5t4.5 -65.5q1 -4 3.5 -21.5t2.5 -27.5v-5q3 -2 6 -6t4 -5l5 1l9 -1h3q3 1 9 11.5t7 15.5zM259 656q-13 -45 -30 -58l-4 -3l-8 -1
q-19 0 -36 6.5t-41.5 23t-37.5 16.5q-11 0 -25 -21t-19 -21q-9 0 -14 14.5t-5 31.5q0 27 11.5 43.5t35.5 16.5q17 0 40 -9.5t39 -28.5q2 -2 7 -11t9 -13.5t7 -5.5q30 1 34 3t10.5 10t9.5 10z" />
    <glyph glyph-name="odieresis" unicode="&#xf6;" 
d="M294 155q-1 -51 -47.5 -87.5t-87.5 -36.5q-58 0 -89.5 22t-43 58t-11.5 95v44q-5 57 -5 99q0 80 13.5 128t45.5 75.5t88 30.5h15q16 0 34 -5t36 -22t28 -45.5t13 -55.5t4.5 -51t1.5 -28q3 -19 3 -38l-4 -91q0 -20 3 -46.5t3 -38.5v-7zM136 118l1 19q0 14 -3.5 41.5
t-3.5 34.5q-1 11 -1 43.5t-2 47.5v51l-1 28v37q0 42 -5 61t-15 21h-2l-8 -1l-3 1q-7 -15 -12.5 -42.5t-5.5 -51.5l4 -87v-23q0 -27 3.5 -76.5t4.5 -65.5q1 -4 3.5 -21.5t2.5 -27.5v-5q3 -2 6 -6t4 -5l5 1l9 -1h3q3 1 9 11.5t7 15.5zM269 632q-17 -17 -46 -17q-31 0 -49 15
t-18 38l2 25v4l-1 20q0 14 9.5 21.5t22.5 7.5q34 0 52.5 -6t29 -23t10.5 -51q0 -22 -12 -34zM135 645q-3 -10 -13.5 -20.5t-28 -17.5t-30.5 -7q-2 0 -8 1t-14.5 10.5t-8.5 53.5q0 79 65 79q7 0 16.5 -9t16 -31.5t6.5 -49.5z" />
    <glyph glyph-name="divide" unicode="&#xf7;" horiz-adv-x="412" 
d="M260 132q0 -22 -15.5 -37.5t-37.5 -15.5t-38 16t-16 37q0 23 16 38.5t38 15.5t37.5 -15.5t15.5 -38.5zM374 236h-336v83h336v-83zM260 422q0 -23 -15.5 -38.5t-37.5 -15.5t-38 15.5t-16 38.5q0 22 16 37.5t38 15.5t37.5 -15.5t15.5 -37.5z" />
    <glyph glyph-name="oslash" unicode="&#xf8;" 
d="M290 353l1 -34l-5 -126l2 -58q0 -35 -8 -58q-5 -14 -29.5 -40.5t-37.5 -32.5q-10 -5 -31.5 -8.5t-40.5 -3.5q-17 0 -36.5 11.5t-31.5 11.5q-16 0 -24.5 -21t-16 -24.5t-13.5 -3.5q-30 0 -30 27q2 11 10.5 34.5t8.5 38.5l-3 59q0 2 1 25t1.5 46.5t0.5 44.5q0 111 -1 142.5
t-1 49.5q0 48 7 81q5 28 32 49.5t53 21.5q12 0 37 -5t36 -5q23 0 33.5 19t19 22t15.5 3q11 0 37 -8q0 -2 -2 -16t-5 -21q0 -1 -6.5 -10t-6.5 -16v-4q1 -6 20 -23q16 -25 16 -68l-3 -77zM196 510q-2 2 -6.5 4t-26.5 3q-1 -1 -6.5 -5.5t-6.5 -7.5q-8 -25 -8 -56q0 -23 4 -35
q1 -2 12.5 -16.5t11.5 -22.5h6q2 9 10.5 37.5t11 47.5t2.5 36q0 11 -4 15zM140 43q9 12 9 34q0 15 -6.5 47t-6.5 43q0 3 1.5 11t2.5 9h-11q-10 -24 -20.5 -57.5t-12.5 -52.5q1 -27 7 -35.5t18 -8.5t19 10z" />
    <glyph glyph-name="ugrave" unicode="&#xf9;" horiz-adv-x="315" 
d="M300 241q-4 -58 -4 -84v-7q3 -40 3 -73q0 -39 -6 -65q-1 -3 -5.5 -7.5t-31.5 -4.5q-17 0 -40 2t-31 4q-3 0 -10 6.5t-14 6.5h-4q-8 -2 -15 -11t-17.5 -12.5t-26.5 -3.5q-88 0 -88 87q0 12 3 24q0 11 -3 40.5t-3 44.5q0 9 3.5 55t3.5 75l-1 34v71q-2 68 -8 108l-3 20
q9 35 36 35q26 0 70.5 -8t48.5 -13q7 -8 12.5 -31.5t5.5 -45.5q0 -11 -3.5 -30.5t-3.5 -32.5v-32q-4 -58 -4 -96q0 -32 3 -64q0 -1 1 -6.5t2 -40.5t3.5 -56t7.5 -32.5t12 -11.5q8 0 16 12.5t8 39.5l-3 53l3 165v47l2 51q0 10 -4.5 28t-4.5 27q0 7 8 25q45 0 68 -7
q1 -8 8 -32t7 -34l-6 -80q0 -16 3.5 -51t3.5 -52q0 -25 -2 -37zM254 626l-8 -8t-24 -12t-53 -5q-11 0 -25 4.5t-15 9.5q-2 1 -14 15t-28.5 35t-17.5 25q-1 2 -16.5 27.5t-17.5 39.5v4q0 5 3.5 10.5t13.5 9t24.5 4t31 0t20.5 -0.5h20q28 0 48 -11q2 -1 6 -4.5t7 -18t4 -17.5
q2 -7 12 -29t12 -31q1 -5 3 -12t7.5 -19.5t6.5 -15.5z" />
    <glyph glyph-name="uacute" unicode="&#xfa;" horiz-adv-x="315" 
d="M300 241q-4 -58 -4 -84v-7q3 -40 3 -73q0 -39 -6 -65q-1 -3 -5.5 -7.5t-31.5 -4.5q-17 0 -40 2t-31 4q-3 0 -10 6.5t-14 6.5h-4q-8 -2 -15 -11t-17.5 -12.5t-26.5 -3.5q-88 0 -88 87q0 12 3 24q0 11 -3 40.5t-3 44.5q0 9 3.5 55t3.5 75l-1 34v71q-2 68 -8 108l-3 20
q9 35 36 35q26 0 70.5 -8t48.5 -13q7 -8 12.5 -31.5t5.5 -45.5q0 -11 -3.5 -30.5t-3.5 -32.5v-32q-4 -58 -4 -96q0 -32 3 -64q0 -1 1 -6.5t2 -40.5t3.5 -56t7.5 -32.5t12 -11.5q8 0 16 12.5t8 39.5l-3 53l3 165v47l2 51q0 10 -4.5 28t-4.5 27q0 7 8 25q45 0 68 -7
q1 -8 8 -32t7 -34l-6 -80q0 -16 3.5 -51t3.5 -52q0 -25 -2 -37zM230 741q0 -1 -5.5 -15t-7.5 -22q-10 -53 -28.5 -74.5t-63.5 -21.5q-17 0 -21.5 8.5t-4.5 17.5v3q-1 9 21 25.5t26 24.5q5 9 12 47t40 38q5 0 10 -1t12.5 -4t9.5 -3v-3l1 -14z" />
    <glyph glyph-name="ucircumflex" unicode="&#xfb;" horiz-adv-x="315" 
d="M300 241q-4 -58 -4 -84v-7q3 -40 3 -73q0 -39 -6 -65q-1 -3 -5.5 -7.5t-31.5 -4.5q-17 0 -40 2t-31 4q-3 0 -10 6.5t-14 6.5h-4q-8 -2 -15 -11t-17.5 -12.5t-26.5 -3.5q-88 0 -88 87q0 12 3 24q0 11 -3 40.5t-3 44.5q0 9 3.5 55t3.5 75l-1 34v71q-2 68 -8 108l-3 20
q9 35 36 35q26 0 70.5 -8t48.5 -13q7 -8 12.5 -31.5t5.5 -45.5q0 -11 -3.5 -30.5t-3.5 -32.5v-32q-4 -58 -4 -96q0 -32 3 -64q0 -1 1 -6.5t2 -40.5t3.5 -56t7.5 -32.5t12 -11.5q8 0 16 12.5t8 39.5l-3 53l3 165v47l2 51q0 10 -4.5 28t-4.5 27q0 7 8 25q45 0 68 -7
q1 -8 8 -32t7 -34l-6 -80q0 -16 3.5 -51t3.5 -52q0 -25 -2 -37zM273 625l1 -7q0 -13 -12 -13q-16 0 -37.5 27.5t-29.5 32t-13 4.5h-3q-6 0 -9.5 -5t-8.5 -20t-10.5 -23.5t-15.5 -14.5t-27 -6q-12 0 -57 9v8q0 14 3 22q0 1 0.5 2t8 27.5t20 50.5t33.5 41.5t52 17.5
q27 0 39 -12t19.5 -33.5t12.5 -29.5q10 -19 24 -55z" />
    <glyph glyph-name="udieresis" unicode="&#xfc;" horiz-adv-x="315" 
d="M300 241q-4 -58 -4 -84v-7q3 -40 3 -73q0 -39 -6 -65q-1 -3 -5.5 -7.5t-31.5 -4.5q-17 0 -40 2t-31 4q-3 0 -10 6.5t-14 6.5h-4q-8 -2 -15 -11t-17.5 -12.5t-26.5 -3.5q-88 0 -88 87q0 12 3 24q0 11 -3 40.5t-3 44.5q0 9 3.5 55t3.5 75l-1 34v71q-2 68 -8 108l-3 20
q9 35 36 35q26 0 70.5 -8t48.5 -13q7 -8 12.5 -31.5t5.5 -45.5q0 -11 -3.5 -30.5t-3.5 -32.5v-32q-4 -58 -4 -96q0 -32 3 -64q0 -1 1 -6.5t2 -40.5t3.5 -56t7.5 -32.5t12 -11.5q8 0 16 12.5t8 39.5l-3 53l3 165v47l2 51q0 10 -4.5 28t-4.5 27q0 7 8 25q45 0 68 -7
q1 -8 8 -32t7 -34l-6 -80q0 -16 3.5 -51t3.5 -52q0 -25 -2 -37zM289 632q-17 -17 -46 -17q-31 0 -49 15t-18 38l2 25v4l-1 20q0 14 9.5 21.5t22.5 7.5q34 0 52.5 -6t29 -23t10.5 -51q0 -22 -12 -34zM155 645q-3 -10 -13.5 -20.5t-28 -17.5t-30.5 -7q-2 0 -8 1t-14.5 10.5
t-8.5 53.5q0 79 65 79q7 0 16.5 -9t16 -31.5t6.5 -49.5z" />
    <glyph glyph-name="yacute" unicode="&#xfd;" horiz-adv-x="312" 
d="M310 558l-2 -71q-2 -23 -15.5 -85.5t-16.5 -92.5l-21 -152q-2 -15 -12 -60t-10 -63v-18q0 -4 -0.5 -16t-4.5 -32t-5 -26q-2 -10 -3.5 -30.5t-6 -29.5t-11.5 -15l-4 -6q-9 -9 -32.5 -14.5t-42.5 -5.5q-18 0 -57.5 6t-61.5 6l-2 4l-3 -1q-3 0 -5 10t-2 18q0 54 8 84l10 14
l36 -4q13 0 22 8t11 25t2 52q0 36 -5 49l-39 149q0 15 -18 134t-18 132t7.5 19.5t40.5 6.5l37 -2q7 -1 37.5 -3.5t44.5 -6.5v-4q6 -2 11.5 -7.5t5.5 -27.5l-1 -39v-12q0 -7 1.5 -25.5t5.5 -53t5 -43.5h6q9 4 17.5 33t14.5 83.5t6 86.5v5q0 21 9.5 28t26.5 7q4 0 10 -1.5
t24 -12.5zM230 711q0 -1 -5.5 -15t-7.5 -22q-10 -53 -28.5 -74.5t-63.5 -21.5q-17 0 -21.5 8.5t-4.5 17.5v3q-1 9 21 25.5t26 24.5q5 9 12 47t40 38q5 0 10 -1t12.5 -4t9.5 -3v-3l1 -14z" />
    <glyph glyph-name="thorn" unicode="&#xfe;" horiz-adv-x="303" 
d="M292 100q-4 -71 -26.5 -90t-63.5 -19q-20 0 -41.5 4.5t-33.5 10.5q-1 0 -12.5 7.5t-17.5 7.5q-5 0 -5 -8l1 -10v-2q-3 -9 -3 -28l4 -63q0 -36 -37 -36h-5q-20 2 -31 20.5t-11 61.5l1 28l-2 28v8q0 7 3 25t3 34v14q-4 68 -4 94q0 14 3.5 40t3.5 37l-4 120q0 50 3.5 122
t3.5 84q0 15 -3.5 39.5t-3.5 32.5q0 17 4.5 35.5t11.5 19.5h7q8 0 46 -7l61 -4q3 0 5 -7t4 -58t8 -66t16 -15q11 0 31 12t22 12q38 -14 39 -16v-7q1 -2 6.5 -6t7.5 -7q10 -26 10 -88l-1 -110v-31l3 -130q0 -39 -3 -89zM144 440q-1 2 -3 4.5t-9 3t-11 2.5q-22 -88 -22 -151
l2 -51l-2 -81q0 -62 22 -91l17 4q4 29 4 66l-2 69v12q0 29 4.5 92t4.5 83q0 29 -5 38z" />
    <glyph glyph-name="ydieresis" unicode="&#xff;" horiz-adv-x="312" 
d="M310 558l-2 -71q-2 -23 -15.5 -85.5t-16.5 -92.5l-21 -152q-2 -15 -12 -60t-10 -63v-18q0 -4 -0.5 -16t-4.5 -32t-5 -26q-2 -10 -3.5 -30.5t-6 -29.5t-11.5 -15l-4 -6q-9 -9 -32.5 -14.5t-42.5 -5.5q-18 0 -57.5 6t-61.5 6l-2 4l-3 -1q-3 0 -5 10t-2 18q0 54 8 84l10 14
l36 -4q13 0 22 8t11 25t2 52q0 36 -5 49l-39 149q0 15 -18 134t-18 132t7.5 19.5t40.5 6.5l37 -2q7 -1 37.5 -3.5t44.5 -6.5v-4q6 -2 11.5 -7.5t5.5 -27.5l-1 -39v-12q0 -7 1.5 -25.5t5.5 -53t5 -43.5h6q9 4 17.5 33t14.5 83.5t6 86.5v5q0 21 9.5 28t26.5 7q4 0 10 -1.5
t24 -12.5zM289 622q-17 -17 -46 -17q-31 0 -49 15t-18 38l2 25v4l-1 20q0 14 9.5 21.5t22.5 7.5q34 0 52.5 -6t29 -23t10.5 -51q0 -22 -12 -34zM155 635q-3 -10 -13.5 -20.5t-28 -17.5t-30.5 -7q-2 0 -8 1t-14.5 10.5t-8.5 53.5q0 79 65 79q7 0 16.5 -9t16 -31.5t6.5 -49.5z
" />
    <glyph glyph-name="dotlessi" unicode="&#x131;" horiz-adv-x="151" 
d="M139 13l-6 -13q-4 -3 -34 -7t-46 -4q-9 0 -16.5 3.5t-10 16t-3.5 15.5h3q5 14 5 39q0 18 -5 74t-5 81v33l-6 151v26l-3 56q0 29 2.5 38.5t8.5 9.5l54 4h3l19 -1q8 0 11 2l-4 2h4q25 -2 25 -43q-5 -94 -4 -108l2 -24q0 -14 -3.5 -48.5t-3.5 -52.5q0 -17 3 -37l4 -141
q0 -9 4.5 -26t4.5 -27q0 -8 -3 -19z" />
    <glyph glyph-name="Lslash" unicode="&#x141;" horiz-adv-x="331" 
d="M328 28l2 -10q0 -5 -2 -11t-14 -22q-26 2 -69 2h-23q-51 0 -76 5q-6 2 -35.5 5t-44.5 10t-17 13.5t-2 8.5l5 40q0 14 -4.5 41t-4.5 43l3 47v9l3 54q0 20 -8.5 28t-26.5 8h-7q-4 0 -7 5.5t-3 10.5l2 8v1q27 21 33.5 37t6.5 35q0 17 -5 46t-5 44l2 25q3 23 3.5 77t10.5 91
q1 2 4 17t16 20q27 7 63 7q40 0 66.5 -5t39 -20.5t12.5 -57.5q0 -17 -2 -38.5t-7 -57.5t-7 -50v-1q0 -4 5 -8.5t13 -4.5l11 2h3q5 0 11 -7.5t9 -22.5t3 -23t-3.5 -16.5t-20.5 -19t-22 -19t-5 -20.5v-16l-6 -71l6 -72l-2 -75l2 -38q1 -9 6.5 -18t16.5 -13.5t39.5 -8
t31.5 -14.5z" />
    <glyph glyph-name="lslash" unicode="&#x142;" horiz-adv-x="228" 
d="M234 430q-9 -13 -40 -33q-3 -21 -3 -46q0 -21 7 -124q1 -7 1.5 -15t4.5 -41.5t4 -52.5q0 -31 -7 -87q-3 -20 -9.5 -29t-26.5 -9q-22 0 -57.5 5t-44.5 10q-1 1 -3.5 5t-7 32.5t-5.5 102.5q-5 43 -5 68l6 88l-7 -1q-17 0 -28 5.5t-12 13.5q0 23 2.5 30t15.5 15t17 11
q15 15 15 39l-5 51v16l-3 77q0 18 3 36q4 54 14 68q3 5 15 9.5t59 4.5q44 0 56 -5q2 0 5.5 -4t5.5 -5v-7l-1 -24l2 -25q0 -33 -18 -103v-1q0 -3 4.5 -6t11.5 -3q8 0 12 2q10 -10 17 -27t7 -31z" />
    <glyph glyph-name="OE" unicode="&#x152;" horiz-adv-x="496" 
d="M500 675v-1l-3 -15v-1q-34 -15 -44 -15l-23 1q-9 0 -21 -3q-7 -68 -7 -125q0 -19 5.5 -33t29.5 -16.5t32 -10.5q8 -16 13 -41t5 -49q0 -20 -9 -31t-51 -11l-49 1q-18 0 -17.5 -13t0.5 -14l2 -72q0 -13 -3 -36.5t-3 -38.5q0 -22 10.5 -36t42.5 -14l27 2h8l22 1q9 0 15 -3
t7 -10t1 -32q0 -39 -3 -45q-5 -7 -19 -13t-58 -6h-40q-22 0 -61.5 -3t-52.5 -3l-67 2l-56 -3l-20 2q-14 6 -46.5 42t-41.5 66q-12 36 -12 87l2 63l-1 37q0 13 3.5 48.5t3.5 62.5l-1 89v26l-1 62l2 38q1 45 30 73t65.5 37t61.5 9q31 0 51 -2.5t26 -2.5l42 2q6 0 35.5 -2.5
t49.5 -2.5q12 0 41.5 3.5t43.5 3.5q8 0 13 -4zM173 577l1 15q0 16 -21 16q-34 0 -34 -39v-22l-5 -141l3 -47l-5 -107l1 -26q-4 -57 -4 -103q0 -34 3.5 -51t30.5 -31q2 3 5.5 4t4.5 3q12 18 12 100q0 22 -4 80t-4 91v49q1 34 4 82.5t3 68.5q0 11 4.5 31.5t4.5 26.5z" />
    <glyph glyph-name="oe" unicode="&#x153;" horiz-adv-x="490" 
d="M487 132v-11q0 -67 -16 -89q-8 -11 -29 -22t-56 -18t-66 -7q-19 0 -31.5 4t-23.5 13t-22 9l-11 -7q-4 -2 -18 -10.5t-23.5 -11t-19.5 -2.5q-8 0 -30.5 6t-33.5 12q-12 9 -33 20t-28 16t-11.5 9t-10.5 11.5t-10.5 22t-4.5 36.5v20q-4 29 -4 64q0 107 8 232v6l-2 47
q0 18 5 32q10 24 46 47t69 23q19 0 58 -12t60 -12q7 0 24 5t23 5q49 7 83 7q53 0 79.5 -23.5t26.5 -79.5v-38l3 -60q0 -35 -17 -72l-35 1l-19 -1q-15 -2 -59.5 -3t-68.5 -6q-7 -2 -12.5 -11t-5.5 -22v-1q0 -7 -5 -38.5t-5 -50.5q0 -6 1 -15.5t11 -47.5q1 -13 19 -54l17 4v10
l-4 87q0 33 11 53.5t46.5 21.5t44.5 3v3h8l30 1q20 0 32 -11.5t12 -48.5zM120 52q2 5 2 21q0 24 -5 59l-1 65l4 245v21l1 32q0 15 -7.5 17.5t-9.5 4.5q-5 -4 -14.5 -17.5t-14.5 -37t-5 -43.5q0 -9 3.5 -16.5t3.5 -14.5v-53q-4 -37 -4 -85l1 -61l-1 -30v-7q0 -29 4.5 -57
t14 -41t20.5 -13q8 0 8 11zM320 351q4 10 7.5 32t3.5 38q0 14 -4.5 26.5t-13.5 12.5l-8 -1h-2q-18 -23 -18 -72q0 -16 4 -28l10 -11l17 3h4z" />
    <glyph glyph-name="Scaron" unicode="&#x160;" horiz-adv-x="387" 
d="M383 128q-5 -29 -17 -56.5t-27.5 -43t-29.5 -21.5q-25 -11 -63.5 -19t-74.5 -8q-24 0 -52 6.5t-49 16.5q-12 6 -34 31t-26 36q-4 12 -4 47q0 24 1.5 50.5t2.5 28.5v5q0 16 6 28t18.5 15t32.5 3q8 0 26 -5v-32q0 -59 -5 -94l-2 -25q0 -48 30 -48q38 0 39.5 73t3.5 83l1 18
q0 26 -6 45q-3 11 -53 38.5t-59.5 35t-12.5 11.5q-20 29 -20 95l1 60v20l-3 67q0 25 5 37q19 57 69 84.5t146 27.5q34 0 61 -16.5t44 -38t26 -36.5t22 -41q0 -2 5 -21t5 -32q0 -17 -7 -38q0 -3 -6 -5.5t-35 -2.5l-16 1h-44l-18 -1l-31 1l-36 -4q-13 0 -27 6.5t-16 14.5
q-4 13 -5.5 78.5t-4.5 69.5q-4 6 -16 9.5t-14 4.5q-6 -8 -11.5 -18t-5.5 -33v-11l-1 -47q0 -38 19 -63.5t60.5 -45.5t49.5 -25l74 -47q8 -5 18 -13.5t24.5 -25.5t18.5 -22q1 -1 8 -6.5t8 -9.5q16 -44 16 -100q0 -43 -9 -92zM297 890q-2 -7 -11.5 -28t-14.5 -27
q-2 -4 -14 -30.5t-23 -38.5t-24 -12q-30 0 -56.5 18.5t-48.5 55t-30 86.5l10 10q6 2 50 4q31 0 44 -8q6 -4 16 -27.5t27 -23.5l10 1l4 7q10 7 19 26t11 21q4 2 14.5 2.5t13.5 1.5q4 -28 4 -30z" />
    <glyph glyph-name="scaron" unicode="&#x161;" horiz-adv-x="295" 
d="M288 144q0 -57 -7 -87.5t-47 -47.5q-4 -2 -22.5 -10t-36 -13t-38.5 -5l-37 4q-46 15 -63.5 34.5t-23 43t-11.5 61.5q1 4 1 19t12.5 22t41.5 7q50 0 62 -14t12 -39l-5 -70h4l14 -1q7 0 13 15.5t6 36.5q0 17 -3.5 35.5t-9.5 28.5t-56.5 48t-58.5 50q-9 15 -20 63.5
t-11 80.5q0 62 15 129q3 10 16 21t38.5 18t52.5 8h9q60 0 103 -27t43 -71q0 -27 -22.5 -44t-57.5 -17q-27 0 -49 7t-29 17q-4 5 -4.5 17t-2.5 17l-13 23l-5 -1l-12 1q0 -2 -2 -10.5t-2 -14.5q0 -16 11 -36t58 -52t60 -45q2 -2 21.5 -19.5t31 -32t14.5 -26.5q10 -34 10 -103
v-21zM249 739q-2 -7 -11.5 -28t-14.5 -27q-2 -4 -14 -30.5t-23 -38.5t-24 -12q-30 0 -56.5 18.5t-48.5 55t-30 86.5l10 10q6 2 50 4q31 0 44 -8q6 -4 16 -27.5t27 -23.5l10 1l4 7q10 7 19 26t11 21q4 2 14.5 2.5t13.5 1.5q4 -28 4 -30z" />
    <glyph glyph-name="Ydieresis" unicode="&#x178;" horiz-adv-x="436" 
d="M408 646q-5 -49 -26 -112t-44 -110q-21 -61 -21 -119v-22q0 -15 -3.5 -55t-3.5 -58l11 -152l-7 -19q-21 -18 -120 -18q-10 0 -48 8q-2 0 -12.5 0.5t-14.5 2.5v11q-8 11 -8 34l1 40v9l-1 21l3 82q0 48 -9 114q-3 8 -11.5 58t-15.5 69q-31 89 -40 139q-21 60 -23 68t-2 12
q0 11 4 11h1l8 -1q12 0 36 8t33 9l56 2l70 -4l10 1q14 0 22.5 -9.5t13.5 -25.5t10 -46.5t7 -39.5q9 -9 10 -13q2 2 8.5 5t8.5 6q13 18 21 71t16 70.5t19.5 24t23.5 6.5h7q22 -3 22 -24q0 -9 -5.5 -29.5t-6.5 -24.5zM307 728q-17 -17 -46 -17q-31 0 -49 15t-18 38l2 25v4
l-1 20q0 14 9.5 21.5t22.5 7.5q34 0 52.5 -6t29 -23t10.5 -51q0 -22 -12 -34zM173 741q-3 -10 -13.5 -20.5t-28 -17.5t-30.5 -7q-2 0 -8 1t-14.5 10.5t-8.5 53.5q0 79 65 79q7 0 16.5 -9t16 -31.5t6.5 -49.5z" />
    <glyph glyph-name="Zcaron" unicode="&#x17d;" horiz-adv-x="354" 
d="M352 16v-14q0 -20 -13 -20l-79 -1q-60 0 -121 8q-72 10 -76 10l-19 -1q-33 0 -33 31q0 16 13.5 55.5t14.5 42.5q2 10 12.5 65.5t17.5 76.5q22 64 45 162t36 138q2 5 4 18.5t2 22.5q0 16 -14 16l-6 -1l-6 1q-16 4 -52.5 4.5t-49.5 4.5l-10 11q-3 5 -3 18v22l-4 25
q0 6 7 12t41 6q19 0 55.5 -5t50.5 -5l69 4q6 0 23 -0.5t47 -4t42 -4.5q7 -11 7 -33q0 -15 -3.5 -49t-3.5 -45l1 -53q0 -42 -21 -108.5t-25 -85.5q-5 -23 -20 -65.5t-20 -62.5q-2 -7 -6.5 -28t-11 -61t-9.5 -54q-1 -1 -4 -7t-4.5 -10t-1.5 -7v-2q1 -8 13 -12.5t50.5 -6
t53.5 -2.5q2 -2 5.5 -3.5t5.5 -2.5zM290 875q-2 -7 -11.5 -28t-14.5 -27q-2 -4 -14 -30.5t-23 -38.5t-24 -12q-30 0 -56.5 18.5t-48.5 55t-30 86.5l10 10q6 2 50 4q31 0 44 -8q6 -4 16 -27.5t27 -23.5l10 1l4 7q10 7 19 26t11 21q4 2 14.5 2.5t13.5 1.5q4 -28 4 -30z" />
    <glyph glyph-name="zcaron" unicode="&#x17e;" horiz-adv-x="286" 
d="M282 56q4 -3 4 -10q0 -13 -17 -47q-15 3 -29 3q-23 0 -41 -7q-5 -1 -15.5 -8t-24.5 -7t-40 3.5t-32 3.5l-47 1q-18 0 -30 -2q0 2 -4.5 8t-4.5 15l1 28l-1 49q0 23 8 47q5 18 18.5 66t33.5 138t27 120q1 5 5.5 19t6 24t1.5 21q-17 10 -38 10q-12 0 -23 -3h-2q-5 0 -5 9
t6 16t23.5 11.5t21.5 6.5h4l38 2l58 -2l65 3q10 0 18.5 -5.5t12.5 -7.5l-1 -4l1 -9v-3q-2 -5 -10.5 -23.5t-10.5 -27.5q-5 -22 -21 -71t-20 -73q-3 -14 -10 -60t-13 -63q-4 -11 -10 -46.5t-14 -56.5l-14 -34q0 -5 2.5 -9.5t7 -6.5t25.5 -7q27 -9 56 -9h12q12 0 16 -2h6z
M251 729q-2 -7 -11.5 -28t-14.5 -27q-2 -4 -14 -30.5t-23 -38.5t-24 -12q-30 0 -56.5 18.5t-48.5 55t-30 86.5l10 10q6 2 50 4q31 0 44 -8q6 -4 16 -27.5t27 -23.5l10 1l4 7q10 7 19 26t11 21q4 2 14.5 2.5t13.5 1.5q4 -28 4 -30z" />
    <glyph glyph-name="florin" unicode="&#x192;" horiz-adv-x="363" 
d="M355 435q-2 -3 -8.5 -24t-12.5 -29t-26 -17t-36 -9l-29 2q-7 0 -13.5 -4t-12 -16t-9 -30t-6 -46t-3.5 -35l-20 -155q-2 -17 -6 -69t-13.5 -77.5t-25.5 -40t-39.5 -22t-57.5 -7.5q-17 0 -29.5 7t-12.5 32q0 26 10 43.5t23 17.5h11q17 0 37.5 13.5t25.5 27.5
q13 33 22.5 84.5t17.5 148.5t15 136v1q0 6 -13 6l-52 -3q-12 0 -20 4.5t-8 17.5l4 90q2 1 7 5.5t16 4.5l36 -2q12 0 22 6.5t13 25.5t4 21q3 15 8 52.5t9 56.5t10 31t14 22.5t24.5 18t39.5 7.5h10l16 1h6q11 0 41 -10q-1 -4 -3.5 -11.5t-13 -8.5t-14.5 -3q-35 -29 -43 -101.5
t-13 -90.5q2 -1 6 -4.5t6.5 -5t3.5 -1.5q9 -3 37.5 -5t38 -10t9.5 -24z" />
    <glyph glyph-name="uni02BB" unicode="&#x2bb;" horiz-adv-x="180" 
d="M173 517q-8 -6 -9 -10h-41q-31 0 -40 4q-6 2 -12.5 13.5t-16 38t-12.5 32.5q-23 62 -37 88l14 10q17 3 98 7h6q23 0 30 -28t11 -36q1 -11 5 -34t5 -38t1 -29q0 -13 -2 -18z" />
    <glyph glyph-name="afii57929" unicode="&#x2bc;" horiz-adv-x="130" 
d="M117 712q6 0 6 -9q0 -11 -12 -44.5t-12 -34.5q-1 -5 -8.5 -36t-17 -50.5t-18 -24.5t-15.5 -5q-35 0 -35 42q0 20 7 41q6 16 8.5 50.5t4.5 44.5t7 16.5t11.5 10.5t19.5 4q17 0 30 -2.5t24 -2.5z" />
    <glyph glyph-name="circumflex" unicode="&#x2c6;" horiz-adv-x="250" 
d="M238 655l1 -7q0 -13 -12 -13q-16 0 -37.5 27.5t-29.5 32t-13 4.5h-3q-6 0 -9.5 -5t-8.5 -20t-10.5 -23.5t-15.5 -14.5t-27 -6q-12 0 -57 9v8q0 14 3 22q0 1 0.5 2t8 27.5t20 50.5t33.5 41.5t52 17.5q27 0 39 -12t19.5 -33.5t12.5 -29.5q10 -19 24 -55z" />
    <glyph glyph-name="caron" unicode="&#x2c7;" horiz-adv-x="250" 
d="M234 769q-2 -7 -11.5 -28t-14.5 -27q-2 -4 -14 -30.5t-23 -38.5t-24 -12q-30 0 -56.5 18.5t-48.5 55t-30 86.5l10 10q6 2 50 4q31 0 44 -8q6 -4 16 -27.5t27 -23.5l10 1l4 7q10 7 19 26t11 21q4 2 14.5 2.5t13.5 1.5q4 -28 4 -30z" />
    <glyph glyph-name="breve" unicode="&#x2d8;" horiz-adv-x="250" 
d="M248 768l-1 -10l1 -13q0 -9 -3 -18h-4l-10 -17q-65 -52 -67 -53q-5 -2 -16 -2q-16 0 -29.5 4t-27.5 10t-19 8q-4 2 -16.5 7.5t-19.5 10t-12 10t-9.5 13.5t-9.5 20q-7 14 -7 25q0 13 10 20t65 8h1q12 0 20 -5t20 -22.5t22.5 -24t21.5 -8t16 -1.5q16 0 25.5 5.5t15.5 14.5
t13 21h2l11 4q1 -3 7 -7z" />
    <glyph glyph-name="dotaccent" unicode="&#x2d9;" horiz-adv-x="250" 
d="M183 755q4 -13 4 -31q0 -62 -56 -62q-59 0 -59 31q0 28 19 49t38 21q11 0 32 -4t22 -4z" />
    <glyph glyph-name="ring" unicode="&#x2da;" horiz-adv-x="250" 
d="M200 764q10 -17 10 -44q0 -22 -8.5 -44t-29 -33.5t-44.5 -11.5q-15 0 -36.5 15t-33.5 40q-15 30 -15 48q0 12 13.5 29.5t32.5 26t36 8.5q21 0 43.5 -10t31.5 -24zM136 699q-3 6 -15 12t-17 6q-9 0 -15 -9.5t-6 -20.5q0 -12 6.5 -20.5t16.5 -8.5q11 0 22 8t11 21
q0 6 -3 12z" />
    <glyph glyph-name="ogonek" unicode="&#x2db;" horiz-adv-x="250" 
d="M232 -154l2 -16q0 -28 -41 -28l-24 1l-42 -2q-38 0 -57 13.5t-32 51.5q-7 19 -7 32q0 3 2 12.5t18 26t19 20.5q8 15 38.5 28t53.5 13t23 -8t-28 -22.5t-37 -27.5q-1 -2 -7 -9.5t-6 -14.5q0 -14 11.5 -23t23.5 -9l47 5q15 0 25.5 -8t17.5 -35z" />
    <glyph glyph-name="tilde" unicode="&#x2dc;" horiz-adv-x="250" 
d="M239 713q-13 -45 -30 -58l-4 -3l-8 -1q-19 0 -36 6.5t-41.5 23t-37.5 16.5q-11 0 -25 -21t-19 -21q-9 0 -14 14.5t-5 31.5q0 27 11.5 43.5t35.5 16.5q17 0 40 -9.5t39 -28.5q2 -2 7 -11t9 -13.5t7 -5.5q30 1 34 3t10.5 10t9.5 10z" />
    <glyph glyph-name="hungarumlaut" unicode="&#x2dd;" horiz-adv-x="250" 
d="M288 792q-2 -12 -10 -29.5t-41 -67.5q-23 -34 -42.5 -45.5t-43.5 -11.5q-16 0 -26 8t-12 8v3l-1 14q0 5 32 70t44 71q15 7 42 7q12 0 29 -3.5t26 -3.5l3 -18v-2zM107 741q-6 -9 -26.5 -50t-31 -51.5t-16.5 -10.5q-4 0 -9.5 2t-7.5 2v30q0 45 6 71q2 8 21.5 38.5
t25.5 32.5q16 5 41 5q17 0 24 -4.5t7 -11.5q0 -5 -4.5 -14t-16 -22.5t-13.5 -16.5z" />
    <glyph glyph-name="uni037E" unicode="&#x37e;" horiz-adv-x="162" 
d="M165 -133q-8 -4 -9 -7l-25 1h-20q-31 0 -45.5 13t-18.5 48.5t-6 45.5q-2 14 -8.5 40t-8.5 35l-6 13l-1 5l1 3l-4 6q5 7 5 11l-1 2q4 2 19.5 10t32 13t41.5 5q11 0 29.5 -47.5t18.5 -84.5v-13q0 -10 3 -44t3 -55zM125 487q6 -41 6 -81q0 -54 -12 -73t-30 -19l-47 5l1 -1
l-4 -1q-8 0 -15.5 10.5t-11.5 36.5t-4 60q0 60 6 100q1 8 20.5 14t30.5 7h7q14 0 24 -0.5t16 -3.5t11 -10t5 -23q0 -10 -3 -21z" />
    <glyph glyph-name="Delta" unicode="&#x394;" horiz-adv-x="452" 
d="M17 0v50l163 615h94l158 -613v-52h-415zM107 76h233l-116 472z" />
    <glyph glyph-name="Omega" unicode="&#x3a9;" horiz-adv-x="489" 
d="M127 79q-38 56 -62 131.5t-24 159.5q0 68 15 125t42.5 96.5t64.5 61t79 21.5q43 0 80 -21.5t63.5 -62t41 -97t14.5 -123.5q0 -43 -8.5 -95.5t-30 -104.5t-49.5 -91h99v-79h-177v64q35 47 57.5 127t22.5 166q0 106 -30 168.5t-83 62.5q-50 0 -83.5 -63.5t-33.5 -168.5
q0 -83 23.5 -164t58.5 -128v-64h-178v79h98z" />
    <glyph glyph-name="mu" unicode="&#x3bc;" horiz-adv-x="379" 
d="M339 0h-72v47q-13 -27 -34 -41.5t-49 -14.5q-19 0 -37 8.5t-29 27.5v-198h-77v684h90v-352q0 -40 17 -60.5t43 -20.5t43 20t17 61v352h88v-513z" />
    <glyph glyph-name="pi" unicode="&#x3c0;" horiz-adv-x="426" 
d="M404 438h-53v-304q0 -92 11 -134h-79q-13 28 -13 131v307h-95q-2 -102 -15.5 -234t-32.5 -204h-81q19 82 31.5 209t13.5 229q-46 0 -68 -8l-11 60q35 23 113 23h284z" />
    <glyph glyph-name="uni2007" unicode="&#x2007;" horiz-adv-x="346" 
 />
    <glyph glyph-name="uni2008" unicode="&#x2008;" horiz-adv-x="142" 
 />
    <glyph glyph-name="uni200B" unicode="&#x200b;" horiz-adv-x="0" 
 />
    <glyph glyph-name="endash" unicode="&#x2013;" horiz-adv-x="250" 
d="M250 275q-9 -7 -23.5 -13.5t-53.5 -6.5l-31 1q-13 0 -33 -3.5t-28 -3.5q-31 0 -80 30l1 4l-2 12q0 21 110 21l71 -4q14 0 33.5 1.5t17.5 2.5h5q13 -24 13 -41z" />
    <glyph glyph-name="emdash" unicode="&#x2014;" horiz-adv-x="500" 
d="M497 212q-2 -29 -12.5 -41.5t-40.5 -12.5q-13 0 -40.5 3.5t-34.5 3.5q-38 0 -103.5 4t-84.5 4l-44 -2q-21 0 -60.5 5t-48.5 6q-21 42 -21 72q0 15 2 24q0 4 2 33.5t11.5 39.5t52.5 10l61 -4q72 -6 117.5 -9t72 -4t51.5 -0.5t34 0.5h48q11 0 38 -7l2 -82z" />
    <glyph glyph-name="quoteleft" unicode="&#x2018;" horiz-adv-x="180" 
d="M173 517q-8 -6 -9 -10h-41q-31 0 -40 4q-6 2 -12.5 13.5t-16 38t-12.5 32.5q-23 62 -37 88l14 10q17 3 98 7h6q23 0 30 -28t11 -36q1 -11 5 -34t5 -38t1 -29q0 -13 -2 -18z" />
    <glyph glyph-name="quoteright" unicode="&#x2019;" horiz-adv-x="130" 
d="M117 712q6 0 6 -9q0 -11 -12 -44.5t-12 -34.5q-1 -5 -8.5 -36t-17 -50.5t-18 -24.5t-15.5 -5q-35 0 -35 42q0 20 7 41q6 16 8.5 50.5t4.5 44.5t7 16.5t11.5 10.5t19.5 4q17 0 30 -2.5t24 -2.5z" />
    <glyph glyph-name="quotesinglbase" unicode="&#x201a;" horiz-adv-x="140" 
d="M136 109q-2 -11 -8.5 -28.5t-8.5 -26.5q0 -1 -0.5 -2.5t-7.5 -40t-18 -70t-24 -38.5v-3q-5 -2 -15 -2q-24 0 -35 5.5t-11 22.5q0 2 10 14q5 15 5 28l-6 64q0 84 82 87q7 0 12.5 -1t24.5 -9z" />
    <glyph glyph-name="quotedblleft" unicode="&#x201c;" horiz-adv-x="270" 
d="M157 577q0 -2 7.5 -20.5t7.5 -28.5q0 -14 -13.5 -20.5t-47.5 -6.5q-15 0 -28 1.5t-22.5 6.5t-14 13.5t-6 28t-2.5 26.5q-2 14 -20 68l-9 40l6 19v1q2 0 6.5 3.5t18.5 3.5q19 0 53 -2.5t39 -4.5q4 -1 6.5 -7t4.5 -27.5t4.5 -42t9.5 -51.5zM257 509q-5 -3 -6 -6h-3l-15 -1
q-8 0 -21 31t-19 61q0 9 -15.5 45t-15.5 47q0 9 8.5 18.5t19.5 10.5h6q14 0 23 -7.5t14 -20.5t9 -32.5t5 -23.5q-1 -7 6 -44.5t7 -57.5q0 -11 -3 -20z" />
    <glyph glyph-name="quotedblright" unicode="&#x201d;" horiz-adv-x="270" 
d="M261 695q-1 -13 -3.5 -25.5t-17.5 -48.5l-12 -34q-3 -8 -7.5 -28.5t-14 -31t-34.5 -10.5q-19 0 -33 3.5t-18 3.5l-8 -1q-1 2 -5.5 4t-5.5 4.5t-1 8.5q0 23 7 61q2 11 3 38t4 38.5t8.5 19t12.5 10.5t14 4h10q17 0 49.5 -2.5t37.5 -4.5q3 0 8 -4.5t6 -4.5zM89 698
q16 -4 16 -17q0 -8 -9 -27t-10 -21q-2 -5 -13 -40t-21 -56t-17.5 -26.5t-12.5 -5.5q-8 0 -12.5 7t-4.5 17q0 3 1 13t7 30t6 21q3 12 9 50.5t13 50t17 11.5q7 0 31 -7z" />
    <glyph glyph-name="quotedblbase" unicode="&#x201e;" horiz-adv-x="270" 
d="M270 106l-7.5 -30t-12.5 -41q-4 -27 -10 -54t-13 -37q-8 -12 -38 -22t-46 -10q-6 0 -14 1.5t-18 5t-13 4.5q1 3 8 19.5t7 31.5t-4.5 41t-4.5 36q0 28 21 48l7 10q14 5 56 5.5t48 1.5q10 0 15.5 -1.5t10.5 -4.5t8 -4zM98 102l-9 -27t-7 -30l1 -33q0 -20 -5 -34h-3v-8
q-4 -12 -16.5 -29t-24.5 -24q-1 -1 -6 -1.5t-7 -2.5q-1 2 -6.5 6.5t-6.5 7.5q0 41 3 54t5.5 51t9 53t18.5 23t31 8q3 0 7 -2t9 -6.5t7 -5.5z" />
    <glyph glyph-name="dagger" unicode="&#x2020;" horiz-adv-x="303" 
d="M308 465q-6 -12 -13 -19t-18 -7l-35 4q-12 0 -19 -10t-7 -43v-53q-5 -65 -5 -119q0 -36 3 -75q2 -22 1.5 -84.5t1.5 -88.5q1 -7 5.5 -32t4.5 -34q0 -15 -32 -25.5t-75 -10.5q-24 0 -38 9q-4 3 -7 33t-3 68l2 87l-3 61l1 30l-2 25q0 14 3 38t3 42q0 52 -1.5 70.5
t-1.5 27.5v12q0 18 -4 24.5t-20 6.5l-18 -1h-6q-4 0 -12 1.5t-8 14.5v7q0 47 7 61q2 5 7.5 10t27.5 10t27 12t6 12t1 9q0 11 -3.5 52t-3.5 62l4 35l-1 5q0 12 24 20t70 8q26 0 63 -5q5 -24 7 -76.5t3 -61.5v-39q0 -25 9 -36t28.5 -13t22.5 -5.5t3 -8.5v-4z" />
    <glyph glyph-name="daggerdbl" unicode="&#x2021;" horiz-adv-x="353" 
d="M346 487v-6q0 -40 -38 -40q-12 0 -41.5 5.5t-41.5 5.5q-19 0 -29.5 -12.5t-10.5 -62.5l2 -45v-30l-1 -36q0 -34 18.5 -45t68.5 -11l26 2q24 0 34 -14.5t10 -52.5q0 -23 -13 -36.5t-33 -13.5q-12 0 -40 4t-39 4q-17 0 -24.5 -6.5t-7.5 -22.5l1 -24v-5l-1 -17l5 -80
q0 -19 -5.5 -33.5t-15 -21.5t-19 -10t-23.5 -5.5t-18 -3.5l-6.5 6.5t-8 10t-2.5 7.5l6 23q3 23 3 45q0 50 -3 69t-12 31.5t-24 12.5l-49 -5q-25 0 -26 22v3q0 23 4 52t12.5 45t19.5 16q6 0 20.5 -4t21.5 -4q18 0 27 25t9 85l-2 80q0 31 -4 42q0 1 -3 3t-3 4h-3l-52 -2
q-16 0 -24 6t-10 6q1 4 1.5 23.5t2.5 27.5q2 9 7 13.5t11 6.5t30 2.5t29 11.5q5 8 8 38.5t3 54.5q0 9 -2.5 28t-2.5 34q0 18 11 25t24.5 8.5t33.5 1t25 -0.5q34 0 45.5 -4t11.5 -23l-2 -32v-6l1 -33q0 -19 0.5 -35.5t5.5 -62.5q27 -11 51 -11l37 1q1 -2 7 -15t7 -19z" />
    <glyph glyph-name="bullet" unicode="&#x2022;" horiz-adv-x="439" 
d="M427 314q-1 -6 -4.5 -42t-12 -61.5t-27.5 -38.5q-20 -13 -57.5 -22.5t-74.5 -9.5q-21 0 -53 6q-4 1 -14.5 2t-56.5 2.5t-71 21.5q-21 16 -32.5 58.5t-12.5 85.5q0 7 5 49q1 4 1 8t4.5 61t41.5 86q8 5 28.5 23.5t36 25t30.5 6.5l35 -1l66 3h4q8 0 26 -5t40 -19
q28 -6 52 -28.5t37 -66.5t13 -91q0 -26 -4 -53z" />
    <glyph glyph-name="ellipsis" unicode="&#x2026;" horiz-adv-x="418" 
d="M414 108q4 -21 4 -36q0 -16 -11 -42q-19 3 -57 3.5t-57 3.5l-24 -50h-6q-22 0 -58 -4h-4q-14 0 -21.5 9t-8.5 42q-6 -18 -17.5 -30t-37.5 -12l-67 6q-23 2 -30.5 5.5t-9.5 12.5t-2 13q0 17 3 32l3 36q4 19 4 34v8q0 12 5.5 18.5t22.5 9t42 2.5q23 0 43 -4t24 -14
q3 -5 6 -19.5t5 -20.5q15 9 36.5 18t38.5 9q9 0 22 -6.5t14 -10.5q16 20 26 26.5t30.5 8.5t53.5 2q15 0 19 -8.5t9 -41.5z" />
    <glyph glyph-name="perthousand" unicode="&#x2030;" horiz-adv-x="868" 
d="M866 118q0 -39 -12 -67.5t-34 -43t-56 -14.5h-6l-20 -1q-38 0 -58.5 10.5t-32.5 26t-31 62.5l-2 1q-4 0 -11 -7q-4 -17 -17.5 -39t-39.5 -39t-53 -17q-42 0 -88.5 22.5t-55.5 44.5q-2 7 -2 26v21q0 5 0.5 17.5t4.5 37t5 33.5q0 1 0.5 2t5 23.5t17.5 49.5t35 41t49 14
q44 0 82.5 -18t54 -45t15.5 -54v-2l4.5 22.5t8 33.5t11.5 27q10 15 27 23t70 11h8q17 0 48 -12q33 -14 47 -25.5t20.5 -33t6.5 -60.5zM276 566q-4 -77 -12 -158q-1 -10 -31.5 -45.5t-41.5 -39.5q-13 -5 -31 -5q-32 0 -68 10t-60.5 35t-24.5 54l3 108l-3 56q0 37 17 71.5
t40 47.5q15 12 78 12q30 0 60 -8q11 -3 35 -26.5t29 -34.5q11 -26 11 -56zM461 708q-1 -35 -54 -183q-2 -5 -6.5 -17.5t-14 -41t-26.5 -66.5q-9 -20 -22 -66t-19 -64l-40 -122q-4 -12 -13 -48t-14 -49q-4 -8 -9.5 -32.5t-18.5 -34.5t-40 -10q-32 0 -32 28q0 16 6 40.5
t23 69.5t21 56l36 88q8 25 25.5 84.5t31.5 98.5t28 73q9 20 27.5 70.5t19.5 53.5q4 11 10 47.5t27 37.5q5 0 24 -2.5t24 -4.5q3 -6 6 -6zM471 74q3 6 3 83q0 87 -2 110t-8 26h-2l-8 -1l-3 1q-25 -69 -25 -109q0 -17 6 -58t6 -58h23zM211 417l2 26q0 11 -2.5 30t-2.5 25v43
q0 18 -1 23t-7 9l-9 6q-16 -14 -20 -21.5t-5 -20t-1 -18.5q0 -30 4.5 -77t8.5 -65l4 1l9 -2l4 1l7 10q0 2 4.5 14.5t4.5 15.5zM777 30q5 35 5 68q0 55 -14 87l-12 -1l-5 1q-1 -4 -6 -6q-3 -8 -4 -45q3 -23 4 -66l-1 -9q0 -17 17 -36z" />
    <glyph glyph-name="guilsinglleft" unicode="&#x2039;" horiz-adv-x="162" 
d="M155 485v-28q0 -27 -4 -38q-5 -15 -27 -39.5t-28 -33t-6 -17.5l2 -6l-1 -2q9 -11 27 -28t25 -28t11 -24t6 -27.5t2 -24v-13.5q0 -36 -5 -55.5t-19 -28.5q-28 9 -30.5 10.5t-3.5 2.5q-16 12 -32.5 30.5t-34 40t-22.5 28.5l-5 6q-1 5 -4 17t-3 33.5t-1 29.5v6q0 32 8 62
q3 11 23 30.5t24 25.5q22 31 45.5 52.5t32.5 22.5h3q4 0 10 -2t7 -2z" />
    <glyph glyph-name="guilsinglright" unicode="&#x203a;" horiz-adv-x="162" 
d="M157 280q3 -10 3 -25q0 -25 -9 -43.5t-29.5 -37.5t-26.5 -27q-11 -14 -31 -28.5t-33 -18.5h-2l-9 1l-3 -1q-10 38 -10 135q0 21 9 33t36 27.5t29 40.5v5q0 9 -5.5 19.5t-28 26t-27.5 23.5l-6 3q-2 5 -2 16l2 35l6 3q61 -47 84.5 -74.5t35.5 -56.5t17 -56z" />
    <glyph glyph-name="fraction" unicode="&#x2044;" horiz-adv-x="491" 
d="M535 722q-8 -25 -31 -55.5t-28 -39.5q-11 -20 -47.5 -76t-52.5 -86q-7 -13 -34 -54.5t-39 -69.5q-12 -29 -48 -86t-37 -59q-12 -21 -41.5 -65t-42.5 -66q-3 -5 -11 -25t-15 -29t-15 -14l-2 -3q-13 -7 -36 -7q-12 0 -35.5 3t-31.5 4l-3 17q0 4 2 6t2 3v1q7 6 13.5 17.5
t7.5 12.5q19 28 48.5 87l32.5 65q7 21 30 53q11 33 49.5 93t47.5 76q6 11 26.5 35.5t27.5 38.5q6 13 25.5 41.5t22.5 32.5q13 20 41.5 71.5t42.5 73.5q4 5 10.5 13t32.5 8q45 0 82 -11q2 -5 6 -6z" />
    <glyph glyph-name="Euro" unicode="&#x20ac;" 
d="M243 301q-2 -18 -8 -32t-14 -17l-42 2v-165q0 -13 12 -40v-7l16 -10h3q25 0 25 84q0 23 -1 43t-3.5 24t-2.5 9q0 11 5 23.5t17 12.5t35 -7t23 -10v-6q0 -17 4 -47t4 -53l-2 -41q-3 -33 -34 -56.5t-69 -23.5q-2 0 -8 0.5t-18 2t-15 1.5l-27 4q-25 2 -41 6.5t-30 16.5
q-17 17 -27.5 45.5t-10.5 59.5l5 70l-4 66q-13 2 -19.5 6.5t-6.5 22.5q0 24 7 41t19 17v34q-13 2 -19.5 6.5t-6.5 22.5q0 6 3 23t11 34q5 0 8.5 2.5t5 10t2 27.5t1 41t6.5 52q1 5 3.5 15.5t9.5 24.5t13 25t7 12q26 47 93 47q33 0 62.5 -11t46.5 -25q12 -10 22.5 -31.5
t15.5 -66.5l6 -54q-2 -1 -5.5 -5.5t-4.5 -4.5q-12 -4 -36 -4q-59 0 -59 25q0 7 5.5 17.5t5.5 12.5q6 20 6 37q0 21 -10 44l-5 -1l-12 1l-3 -8q-8 -19 -13 -41.5t-7 -73t-3 -66.5q5 -1 22.5 -1t27 -7t9.5 -28v-7q-2 -16 -9.5 -30.5t-13.5 -17.5l-41 1v-30q7 -1 27 -2
t28.5 -8.5t8.5 -26.5v-7z" />
    <glyph glyph-name="uni2117" unicode="&#x2117;" horiz-adv-x="492" 
d="M487 346q0 -106 -7.5 -167.5t-22.5 -94.5q-38 -40 -95 -74t-110 -34q-74 0 -115.5 12t-69 41t-41.5 72q-3 11 -11 48.5t-8 84.5l1 63l-3 79l1 47q0 20 -3 51t-3 43q0 89 46 143q10 13 47.5 32.5t79.5 29.5t76 10q46 0 87.5 -13t78 -48.5t59.5 -105.5q3 -9 8 -77t5 -142z
M453 429q0 40 -9.5 83.5t-23.5 75.5q-9 22 -34.5 41t-64.5 30t-66 11q-40 0 -74.5 -6t-54.5 -18t-27 -24q-31 -40 -36.5 -52.5t-8 -24t-2.5 -23.5q0 -17 3.5 -46t3.5 -85v-11l-1 -24q0 -24 3 -64t3 -54l-2 -52q0 -31 8.5 -66t26.5 -60q9 -11 56 -32t68 -25q15 -3 29 -3
q12 0 26 2.5t30.5 9.5t19.5 8q38 16 65.5 37t36.5 51.5t9 81.5q0 37 8 109t8 130zM383 483q1 -9 7 -34.5t6 -38.5q0 -23 -16.5 -50.5t-38.5 -38.5v-3q-7 -3 -27.5 -6t-25.5 -9t-7 -9q-10 -21 -10 -75v-14l-3 -53l3 -33q0 -9 -2 -13l-7 -7q-10 -5 -26 -8t-45 -2t-35 1
q-22 0 -29 4.5t-8 14.5t-1 15l2 41l-1 132l4 130q0 18 -5.5 57t-5.5 69q0 17 4 29q2 6 30 11.5t57 5.5l14 -1q9 0 30 3.5t32 3.5h7q26 0 43.5 -9.5t32.5 -46.5q2 -7 10.5 -29.5t10.5 -36.5zM255 332l2 18q0 101 -10 164q-2 25 -9.5 30.5t-24.5 6.5q-5 -8 -8.5 -26.5
t-3.5 -34.5q0 -9 3.5 -41t3.5 -49v-11l-3 -3l3 -9q1 -4 3.5 -23.5t8.5 -26.5t14 -7q16 0 21 12z" />
    <glyph glyph-name="trademark" unicode="&#x2122;" horiz-adv-x="633" 
d="M624 643q-3 -21 -3 -39l2 -52q0 -10 -2 -40.5t-2 -53.5q0 -32 2.5 -72.5t2.5 -56.5q0 -27 -3 -57q0 -3 -6 -7.5t-7 -6.5q-10 1 -47.5 2t-54.5 11.5t-17 35.5q0 8 2.5 40t2.5 56q0 11 -8 38l-6 2q-1 -4 -8.5 -21t-8.5 -25q-4 -29 -7 -68q0 -2 -0.5 -13.5t-1.5 -19.5
t-4 -15.5t-10 -13t-18 -5.5q-17 0 -29 12t-15 47t-4 39q-2 10 -5 22.5t-14 30.5q-4 -28 -4 -80v-34l2 -16q0 -15 -18 -25t-31 -10q-47 0 -60 11.5t-13 34.5l3 49v13q-5 103 -5 109l1 26q3 42 4.5 74t2 65t7.5 60q6 2 14 3.5t31.5 3.5t27.5 3q25 5 32 5q16 0 24 -11.5
t8 -29.5q0 -11 -4 -39t-4 -40l1 -13l8 -48q0 -46 9 -73q1 -3 11 -8q22 43 29 145.5t8 111.5q45 12 64 13h15q27 0 52 -3q38 -3 47 -7q8 0 8 -32zM227 690q-4 0 -20.5 -1.5t-27 -4t-13.5 -7.5q-23 -36 -23 -85q0 -16 3.5 -48.5t3.5 -47.5l-2 -35q0 -22 5.5 -57t5.5 -47
l-4 -37q0 -18 11 -51.5t11 -51.5q0 -4 -3 -7t-4 -5q-14 1 -57.5 1t-67.5 9q-13 0 -13 69v37l-5 128q0 21 3.5 61.5t3.5 54.5v16l2 47q0 14 -2.5 23t-12.5 19q-15 11 -15 21q0 12 6.5 19t16.5 9t47 2q90 0 141 -4q2 0 5.5 -3.5t4.5 -3.5v-20z" />
    <glyph glyph-name="uni2126" unicode="&#x2126;" horiz-adv-x="480" 
d="M126 79q-38 56 -62 131.5t-24 159.5q0 68 15 125t42.5 96.5t64.5 61t79 21.5q43 0 80 -21.5t63.5 -62t41 -97t14.5 -123.5q0 -43 -8.5 -95.5t-30 -104t-49.5 -91.5h99v-79h-177v64q35 47 57.5 127t22.5 166q0 106 -30 168.5t-83 62.5q-51 0 -84 -63t-33 -169
q0 -83 23.5 -164t58.5 -128v-64h-178v79h98z" />
    <glyph glyph-name="partialdiff" unicode="&#x2202;" horiz-adv-x="416" 
d="M78 671l-26 65q21 21 53.5 36.5t74.5 15.5q65 0 109 -42.5t67.5 -122t23.5 -200.5q0 -102 -14 -183t-40.5 -135t-63.5 -81.5t-81 -27.5t-76 26t-51.5 77t-19.5 125q0 44 8.5 90t31.5 89t56 63.5t66 20.5q34 0 59.5 -19t38.5 -45l1 33q0 118 -35 186t-90 68
q-28 0 -52.5 -11t-39.5 -28zM185 72q28 0 50 31.5t36.5 91t17.5 143.5q-9 32 -30 53.5t-48 21.5t-48 -23.5t-34 -68t-13 -100.5q0 -34 6 -69.5t23 -57.5t40 -22z" />
    <glyph glyph-name="uni2206" unicode="&#x2206;" horiz-adv-x="447" 
d="M17 0v50l163 615h94l158 -613v-52h-415zM107 76h233l-116 472z" />
    <glyph glyph-name="product" unicode="&#x220f;" horiz-adv-x="517" 
d="M494 575h-74v-746h-90v746h-144v-746h-90v746h-74v90h472v-90z" />
    <glyph glyph-name="summation" unicode="&#x2211;" horiz-adv-x="407" 
d="M391 -171h-371v78l173 335l-165 345v78h348v-91h-236l154 -327l-168 -325h265v-93z" />
    <glyph glyph-name="minus" unicode="&#x2212;" horiz-adv-x="412" 
d="M373 236h-335v84h335v-84z" />
    <glyph glyph-name="uni2219" unicode="&#x2219;" horiz-adv-x="450" 
d="M431 314q-1 -6 -4.5 -42t-12 -61.5t-27.5 -38.5q-20 -13 -57.5 -22.5t-74.5 -9.5q-21 0 -53 6q-4 1 -14.5 2t-56.5 2.5t-71 21.5q-21 16 -32.5 58.5t-12.5 85.5q0 7 5 49q1 4 1 8t4.5 61t41.5 86q8 5 28.5 23.5t36 25t30.5 6.5l35 -1l66 3h4q8 0 26 -5t40 -19
q28 -6 52 -28.5t37 -66.5t13 -91q0 -26 -4 -53z" />
    <glyph glyph-name="radical" unicode="&#x221a;" horiz-adv-x="382" 
d="M372 665l-113 -665h-100l-74 294l-58 -21l-18 65l133 51l64 -265l87 541h79z" />
    <glyph glyph-name="infinity" unicode="&#x221e;" horiz-adv-x="629" 
d="M587 280q0 -47 -23 -79t-53 -44t-54 -12q-39 0 -73 19t-71 59q-27 -27 -51 -45t-48.5 -25.5t-44.5 -7.5q-39 0 -71 21t-44.5 51t-12.5 55q0 30 13 61.5t46 53t72 21.5q74 0 144 -78q49 48 81.5 63t63.5 15q25 0 54.5 -12.5t50.5 -44.5t21 -71zM518 275q0 30 -20 47
t-47 17q-48 0 -99 -60q29 -34 52 -49.5t48 -15.5q28 0 47 17.5t19 43.5zM276 273q-28 34 -50.5 50t-48.5 16q-28 0 -47 -18t-19 -45q0 -28 19.5 -45t47.5 -17q49 0 98 59z" />
    <glyph glyph-name="integral" unicode="&#x222b;" horiz-adv-x="299" 
d="M24 -91q14 -6 29 -6q21 0 33 19q21 32 21 167q0 73 -4 235t-4 242q0 58 6 101.5t19 70t27 39.5q14 15 37.5 24.5t47.5 9.5q12 0 28.5 -3t23.5 -6l-10 -71q-12 5 -27 5q-24 0 -35 -18q-14 -14 -22.5 -52t-8.5 -125q0 -62 4.5 -218.5t4.5 -238.5q0 -151 -31 -207
q-10 -19 -33 -33.5t-61 -14.5q-6 0 -24.5 2t-33.5 9z" />
    <glyph glyph-name="approxequal" unicode="&#x2248;" horiz-adv-x="412" 
d="M332 430l61 -25l-13 -33q-15 -37 -40 -56t-52 -19t-78.5 24.5t-70.5 24.5q-34 0 -54 -35l-7 -17l-61 25l13 33q15 35 41 55t56 20q28 0 78 -24.5t69 -24.5q33 0 51 37zM338 268l63 -26l-13 -31q-16 -37 -41 -56.5t-53 -19.5q-26 0 -77.5 24t-71.5 24q-36 0 -52 -35
l-8 -16l-61 25l13 33q16 36 41.5 56t55.5 20q27 0 77.5 -25t69.5 -25q7 0 21.5 4.5t29.5 32.5z" />
    <glyph glyph-name="notequal" unicode="&#x2260;" horiz-adv-x="409" 
d="M370 163h-171l-36 -99l-61 21l27 78h-91v80h115l27 70h-142v79h165l35 100l62 -21l-27 -79h97v-79h-120l-27 -70h147v-80z" />
    <glyph glyph-name="lessequal" unicode="&#x2264;" horiz-adv-x="394" 
d="M351 151l-305 156v59l305 161v-98l-181 -93l181 -88v-97zM354 22h-312v83h312v-83z" />
    <glyph glyph-name="greaterequal" unicode="&#x2265;" horiz-adv-x="394" 
d="M351 307l-305 -156v97l180 88l-180 93v98l305 -161v-59zM354 22h-312v83h312v-83z" />
    <glyph glyph-name="dotmath" unicode="&#x22c5;" horiz-adv-x="450" 
d="M292 307l2 -45q0 -31 -12 -47.5t-44 -16.5q-37 0 -71 10q-11 6 -11 50v59q0 33 13 52t57 19q23 0 38 -5t20.5 -16.5t6 -32.5t1.5 -27z" />
    <glyph glyph-name="lozenge" unicode="&#x25ca;" horiz-adv-x="449" 
d="M407 351l-151 -383h-67l-145 383l150 382h66zM319 349l-94 268l-95 -266l94 -267z" />
    <glyph glyph-name="uniFB01" unicode="&#xfb01;" horiz-adv-x="400" 
d="M386 10q-4 -11 -19 -11l-40 3q-8 0 -21 -5.5t-18 -5.5l-10 2h-3q-9 22 -9 67q0 46 9 103v14l-4 147q4 25 4 57q0 26 -4.5 50.5t-12.5 37.5l-10 7q-37 -6 -54 -14q3 -10 3 -19q0 -6 -3 -24.5t-4 -33.5l1 -43v-8l-1 -25q0 -17 3.5 -53.5t3.5 -53.5l-4 -62l2 -70
q0 -59 -24 -65q-56 -15 -92 -15q-27 0 -36 10l-1 20l-1 54l5 189q0 46 -3 94v9q0 77 -7 103q-2 7 -16.5 16.5t-16.5 17.5q-3 6 -8 50q2 11 18 19.5t20 14.5q1 2 3.5 8t4 26t2.5 27q7 37 33.5 58t66.5 21l17 -1q71 -11 83 -16t12 -28v-4q-2 -14 -22 -24.5t-23.5 -18
t-3.5 -13.5q0 -13 9 -40.5t9 -28.5q21 -5 53 -5h50q56 0 56 -69l-4 -66l3 -81l-3 -99l6 -101l-2 -27q5 -39 5 -68q0 -20 -2 -27zM369 688q3 -12 3 -27q0 -22 -11 -38.5t-49 -22.5h-6h-3t-7.5 0.5t-11.5 3t-9.5 7.5t-5 11.5t-1.5 13.5v16.5v12.5q0 29 6.5 42t26.5 13
q33 0 42.5 -2t15.5 -9.5t10 -20.5z" />
    <glyph glyph-name="uniFB02" unicode="&#xfb02;" horiz-adv-x="427" 
d="M410 516l-3 -280q4 -15 4 -42q0 -21 -3.5 -66.5t-3.5 -57.5v-9l2 -27l-2 -37q-4 -3 -12.5 -7.5t-23.5 -4.5q-17 0 -46 6t-37 6h-4l-11 3h-2q-7 29 -7 64q0 14 3 39t3 76l-2 75q0 28 3.5 102.5t3.5 104.5q0 59 -37 59q-13 0 -25.5 -9.5t-19.5 -31.5t-7 -46l4 -84
q0 -28 -2 -60.5t-2 -41.5q0 -55 8 -145l-1 -28l1 -64q-14 -6 -47.5 -13.5t-52.5 -7.5q-20 0 -46 11l1 2l-6 21v4q2 10 2 34l-3 49l5 73q0 132 -2 180t-7 76.5t-12 38.5q-3 6 -17.5 17.5t-14.5 29.5q0 17 9.5 31.5t35.5 30.5q-2 11 -2 32q0 19 8.5 43.5t31 43t50.5 18.5
q14 0 39.5 -5t37.5 -5h3q5 1 31 7.5t37 6.5h15q59 0 91.5 -11.5t32.5 -59.5l-3 -51l3 -37l-1 -43v-10zM259 644q0 1 -3.5 2.5t-4.5 3.5h-23q-4 -6 -9 -18t-5 -22q0 -8 4.5 -14.5t14.5 -6.5l13 1h3q0 1 5.5 18t5.5 26z" />
    <glyph glyph-name="bullet.aalt" horiz-adv-x="1063" 
d="M761 376h-3v-47h-98v-97h95v-78h-66v-105h52v-49h-107v28h-127v347h-46q37 -12 37 -60v-53q0 -23 -12 -38t-44 -18v-1q51 -6 53 -47q0 -8 2 -67t6 -88h-55q-7 36 -7 101v43q0 12 -5 21.5t-26 9.5h-4v-95h-56v294h-20q-6 32 -6 86v42q0 28 -27 28h-3v-157h16l42 -376h-55
l-11 102h-40l-11 -102h-107v183h-30v-183h-87v376h111v-142h26v142h-19l-9 93h-35l-6 -44h-68l31 287h78l32 -336h26v336h120q63 0 63 -58v-47q0 -21 -10 -34.5t-37 -16.5v-1q43 -4 45 -40q0 -1 1.5 -51t4.5 -74l37 322h75l38 -336h28q-12 5 -21.5 18t-9.5 34v234q0 14 7 28
t22.5 21t34.5 7t35 -7t23 -21t7 -28v-97h-62v124q0 20 -16 20q-15 0 -15 -20v-285q0 -20 15 -20q16 0 16 20v100h-20v40h82v-168h10v336h109v-26h-60v-104h58v-44h-85v-117h88v-45zM1052 0h-121v235l3 72h-3l-13 -125l-20 -182h-26l-20 162q0 1 -1 7t-5.5 50t-7.5 88h-1
l1 -134v-173h-74v376h27v336h49v-336h7l16 -155q2 -17 3 -61.5t2 -55.5h3q1 55 9 118l17 154h-46v333h122q34 -220 38 -282l2 17l-2 97v171h41v-712zM634 49v327h-17l-1 23q-6 -11 -16.5 -18.5t-21.5 -8.5v-323h56zM227 376h-43v-359zM996 376l-38 284l-1 -284h39zM414 288
v67q0 9 -6 14.5t-15 5.5h-15v-113h11q25 0 25 26zM452 377l-8 92h-23l-9 -89h12q16 0 28 -3zM306 576v61q0 15 -17 15h-12v-98h9q20 0 20 22zM314 121l-13 158h-3l-13 -158h29zM422 472l-11 138h-3l-13 -138h27zM113 512l-11 138l-14 -138h25z" />
    </font>
</defs>
</svg>
